<svg id="_01" data-name="01" xmlns="http://www.w3.org/2000/svg" viewBox="0 0 4680 3120"><defs><style>.cls-1{fill:#fff;}.cls-2{fill:#f6f2ff;}.cls-3{fill:#ede4ff;}.cls-4{fill:#e4dbfa;}.cls-5{fill:#beb2da;}.cls-6{fill:none;stroke:#e4dbfa;stroke-linecap:round;stroke-miterlimit:10;stroke-width:5px;}.cls-7{fill:#2b2c33;}.cls-8{fill:#6d7080;}.cls-9{fill:#cdced0;}.cls-10{fill:#6d378f;}.cls-11{fill:#582279;}.cls-12{fill:#3d1560;}.cls-13{fill:#fed194;}.cls-14{fill:#f59d4e;}.cls-15{fill:#72120c;}.cls-16{fill:#530905;}.cls-17{opacity:0.54;}.cls-18{fill:#d2d7db;}.cls-19{fill:#aeb6b7;}.cls-20{fill:#ffb113;}.cls-21{fill:#f27204;}</style></defs><title>01</title><rect id="_01-2" data-name="01" class="cls-1" width="4680" height="3120"/><path class="cls-2" d="M3456.2,1514.23c0,2.42,0,4.83-.06,7.25s-.07,4.83-.11,7.23c-.08,4.84-.19,9.66-.32,14.49l-.24,7.24c-.08,2.08-.17,4.15-.24,6.24,0,.32,0,.67-.05,1-.09,2.34-.2,4.67-.3,7,0,.15,0,.27,0,.4-.12,2.35-.24,4.71-.37,7.06-.11,2.09-.22,4.2-.36,6.31,0,.43-.05.88-.07,1.31-.14,2.27-.28,4.55-.44,6.82-.31,4.82-.67,9.63-1,14.44-.19,2.4-.39,4.81-.59,7.21s-.42,4.8-.63,7.21-.45,4.77-.68,7.17c0,0,0,0,0,0-.23,2.4-.48,4.79-.73,7.18-.19,1.78-.37,3.55-.57,5.33-.32,3-.66,6-1,9-.28,2.34-.57,4.69-.85,7-.4,3.19-.81,6.36-1.22,9.55-.22,1.64-.44,3.28-.67,4.92-.33,2.39-.65,4.78-1,7.16-.35,2.59-.73,5.19-1.13,7.77q-.41,2.7-.82,5.36-1.76,11.29-3.73,22.54c-.42,2.38-.84,4.74-1.27,7.11-.76,4.14-1.54,8.26-2.34,12.39-.25,1.22-.48,2.45-.74,3.67-.33,1.74-.68,3.49-1,5.22q-.72,3.52-1.46,7.07c-.56,2.64-1.13,5.29-1.7,7.93-.05.25-.11.5-.16.75s-.13.49-.18.73v0c-.74,3.35-1.48,6.71-2.25,10l-.39,1.66c-.19.86-.39,1.72-.61,2.56a3.87,3.87,0,0,1-.13.59c0,.19-.09.39-.14.58h0c-.26,1.11-.52,2.2-.78,3.29-.54,2.29-1.08,4.56-1.65,6.83,0,.16-.07.3-.1.46-.44,1.74-.87,3.48-1.31,5.22-.12.51-.25,1-.38,1.51s-.27,1.13-.42,1.69l-.33,1.33c-.22.81-.43,1.62-.64,2.42-.28,1.15-.58,2.29-.88,3.44l-.24.9c-.09.38-.19.77-.29,1.13-.67,2.57-1.36,5.12-2.06,7.67-.39,1.44-.79,2.88-1.18,4.32-.71,2.62-1.45,5.24-2.19,7.83-.54,1.87-1.06,3.72-1.61,5.58-.34,1.2-.69,2.39-1.05,3.6-.47,1.64-1,3.31-1.47,4.94s-1,3.49-1.57,5.23c-.32,1.07-.66,2.14-1,3.2-.22.77-.46,1.53-.7,2.29-.55,1.76-1.09,3.52-1.66,5.27s-1.08,3.43-1.65,5.16c-.46,1.45-.93,2.91-1.41,4.36-.64,2-1.3,4-2,5.93l-1,3.08,0,0c-.51,1.55-1,3.1-1.57,4.63-.73,2.15-1.48,4.31-2.24,6.46-.43,1.25-.87,2.49-1.31,3.74-.56,1.61-1.14,3.21-1.72,4.82-.13.38-.28.77-.41,1.15l-.34.88c0,.15-.1.3-.15.45s-.1.3-.16.45c-.2.57-.41,1.12-.61,1.68-.09.24-.17.47-.27.7-.69,1.92-1.4,3.84-2.12,5.74a.6.6,0,0,1-.08.2c-.71,1.91-1.42,3.82-2.15,5.71a2,2,0,0,1-.1.29c-.41,1.07-.81,2.15-1.25,3.22-.21.58-.43,1.17-.66,1.75q-.65,1.69-1.32,3.39c-.12.32-.24.65-.38,1-.46,1.2-.92,2.4-1.4,3.58-.15.39-.3.78-.46,1.17s-.38.94-.58,1.41-.38,1-.58,1.47a.46.46,0,0,1,0,.09l0,0c-.45,1.16-.91,2.29-1.39,3.44a4.08,4.08,0,0,1-.22.54c-.8,2-1.62,4-2.44,6-.06.14-.11.3-.17.43a1,1,0,0,1,0,.13l0,0,0,.1-.08.17c-.5,1.22-1,2.45-1.51,3.66-.16.4-.33.8-.51,1.19s-.3.74-.46,1.11l-.47,1.11-.09.22c-.55,1.3-1.11,2.58-1.66,3.87-.3.72-.6,1.43-.92,2.13h0c-.07.17-.14.35-.22.52-.38.86-.76,1.73-1.12,2.59-.28.63-.55,1.26-.84,1.89l-.52,1.2-.14.3-1.15,2.61c-.53,1.2-1.08,2.41-1.61,3.61l-.33.75c-.3.67-.6,1.33-.91,2-.82,1.84-1.65,3.67-2.5,5.51-1.06,2.32-2.14,4.64-3.22,6.94-.09.17-.16.35-.24.53-1.08,2.27-2.15,4.55-3.25,6.82h0c-.67,1.4-1.33,2.8-2,4.19a1,1,0,0,1-.08.21l-1.78,3.64q-3.49,7.11-7.1,14.19-1.2,2.37-2.44,4.72t-2.35,4.54c-1,2-2.08,4-3.14,6l-.48.89q-1.56,2.92-3.16,5.85a.59.59,0,0,1-.07.16,2,2,0,0,0-.16.28,2.27,2.27,0,0,1-.19.34,1.3,1.3,0,0,1-.14.26c-.54,1-1.09,2-1.62,3l-1.65,3a1,1,0,0,1-.11.2l0,.07c-.1.18-.21.34-.31.52-1.24,2.24-2.48,4.47-3.74,6.7-.09.15-.18.29-.26.45-.4.69-.78,1.39-1.19,2.08-1,1.73-2,3.47-3,5.18l-1.26,2.17a1.75,1.75,0,0,1-.18.29c-.08.14-.16.3-.25.43-.82,1.43-1.66,2.85-2.49,4.27-1.58,2.68-3.16,5.35-4.77,8l-2.39,3.94-.69,1.14c-.12.22-.27.44-.4.66l-.29.46-.45.73c-.14.24-.3.49-.44.72s-.2.33-.3.49-.2.33-.32.49q-.28.51-.6,1l-2,3.19c-.1.15-.19.31-.3.47l-1.86,3c-.59.95-1.2,1.9-1.79,2.83l-.49.77c-.06.12-.14.23-.2.33-1.1,1.72-2.2,3.44-3.32,5.17-.42.66-.86,1.33-1.29,2-.57.88-1.15,1.76-1.73,2.63q-1.38,2.16-2.82,4.3c-.63.95-1.26,1.91-1.91,2.86-.23.36-.47.71-.71,1.07,0,.08-.1.14-.14.22s-.1.15-.15.21l-.29.43c-.38.58-.76,1.15-1.15,1.71-.09.15-.19.28-.27.42l-2.12,3.12-1.81,2.66c-.17.24-.33.47-.49.72q-3.24,4.71-6.56,9.4c-.45.65-.91,1.31-1.37,1.94s-1.11,1.57-1.68,2.36q-2.41,3.41-4.88,6.78h0l-.86,1.17c-.87,1.18-1.72,2.37-2.59,3.55-.44.59-.87,1.18-1.31,1.76h0l-.1.14a.44.44,0,0,1-.1.15c-1,1.39-2.08,2.81-3.13,4.2l-1.83,2.44,0,.07c-.36.47-.72.93-1.07,1.4-.09.12-.19.26-.29.38q-1.86,2.46-3.75,4.92c-.27.34-.52.69-.79,1s-.52.68-.79,1a3.65,3.65,0,0,1-.26.32,3.33,3.33,0,0,1-.24.32c-.35.47-.72.94-1.09,1.41l-1.1,1.39c-.37.5-.75,1-1.14,1.47q-4.62,5.91-9.36,11.74-5.1,6.32-10.34,12.54c-.12.16-.27.32-.4.48s-.35.41-.53.62c-2,2.42-4.08,4.82-6.13,7.22l-.32.37h0c-.45.51-.88,1-1.32,1.54q-6.58,7.6-13.35,15.1l-.87,1h0c-1.2,1.35-2.43,2.69-3.64,4l-.22.23q-7.24,7.9-14.72,15.69l-1.45,1.49c-1.38,1.44-2.79,2.89-4.19,4.33-1,1-2,2-3,3h0l-1,1-.21.22-.21.2-.19.2a1,1,0,0,0-.21.21c-.41.41-.82.81-1.21,1.21v0l-.1.08-.09.09c-.73.75-1.47,1.49-2.22,2.21q-5,5-10,9.86l-.38.38-2.56,2.46-2.13,2-1,.93c-.18.16-.34.33-.5.47-.88.85-1.76,1.68-2.65,2.51q-2.59,2.44-5.22,4.87-8.22,7.62-16.67,15.1c-.36.3-.69.61-1,.9-2.07,1.83-4.15,3.66-6.24,5.47-.54.45-1.08.92-1.61,1.38l-1.57,1.35h0l-.07,0-2.69,2.3-4.68,4-4.63,3.86q-12.57,10.42-25.62,20.51l-4.84,3.7q-7.09,5.4-14.3,10.69c-1.2.89-2.42,1.77-3.63,2.65-.71.52-1.4,1-2.11,1.53q-6.46,4.68-13.05,9.26l-2.89,2q-5.39,3.72-10.83,7.39c-4.71,3.15-9.44,6.3-14.24,9.39-65.32,42.28-130.49,77.2-195.17,105.37-2.68,1.18-5.36,2.33-8,3.47-290.08,123.89-570,112.42-809.61,22a1155.11,1155.11,0,0,1-189.43-92.29,1211.79,1211.79,0,0,1-111.51-76.29q-44.7-34.39-85.54-72.26-26.4-24.45-51-50.13a1191.3,1191.3,0,0,1-96.24-113.47c-49.72-66.7-90.83-136.83-122-207.86a1.37,1.37,0,0,0-.07-.16,1.77,1.77,0,0,0-.06-.17c-.16-.4-.45-1.12-.86-2.17l-.19-.5c-1.9-4.88-5.91-15.57-11-31-.26-.84-.54-1.69-.82-2.56-5.56-17.29-12.26-40.11-18.72-67.16-.25-1.07-.51-2.15-.76-3.24q-1.25-5.25-2.46-10.72c-.21-.91-.41-1.82-.62-2.74-.3-1.44-.62-2.89-.94-4.35a2.61,2.61,0,0,0-.06-.27c-.53-2.48-1.06-5-1.59-7.54-.68-3.33-1.36-6.69-2-10.1-.3-1.53-.61-3.07-.9-4.62q-.33-1.74-.66-3.51-.63-3.37-1.23-6.81c-.23-1.27-.47-2.56-.68-3.84-.29-1.6-.56-3.21-.84-4.83-1.44-8.63-2.82-17.49-4.08-26.57-.07-.6-.16-1.22-.24-1.82s-.15-1-.22-1.57c-.09-.74-.2-1.46-.29-2.18s-.19-1.43-.28-2.13c0-.28-.08-.57-.11-.86-.23-1.78-.46-3.59-.68-5.4-.1-.79-.19-1.59-.29-2.4-.29-2.39-.57-4.8-.84-7.19,0-.25,0-.48-.08-.72-.16-1.53-.33-3.06-.49-4.61,0-.23,0-.47-.08-.7s-.06-.57-.08-.86c-.07-.69-.15-1.37-.23-2.06s-.11-1.15-.16-1.74c0-.24,0-.47-.07-.7-.06-.56-.11-1.11-.17-1.65s-.1-1.18-.15-1.78c-.12-1.11-.22-2.22-.32-3.34a1.23,1.23,0,0,0,0-.19c-.07-.72-.12-1.45-.19-2.17,0-.57-.1-1.14-.15-1.71h0c0-.19,0-.38-.06-.57-.12-1.55-.26-3.1-.38-4.66s-.24-3.13-.35-4.7a1,1,0,0,1,0-.22c0-.27,0-.55-.05-.82-.09-1.22-.17-2.45-.26-3.69s-.16-2.28-.22-3.44l-.25-4c0-.13,0-.28,0-.42-.07-1.17-.13-2.33-.2-3.5s-.11-2.19-.17-3.28c0-.58,0-1.15-.08-1.73l-.12-2.3h0c0-1-.08-1.89-.12-2.84s-.06-1.63-.09-2.46c0-.11,0-.23,0-.37h0c0-.88-.06-1.75-.09-2.64s-.08-2-.1-3c0-1.27-.08-2.55-.1-3.84,0-.26,0-.54,0-.82l0-1.07c0-.95,0-1.9,0-2.84,0-.38,0-.76,0-1.13,0-.6,0-1.19-.05-1.79s0-1.33,0-2c0-1.4,0-2.81,0-4.22,0-1,0-2,0-3.06q0-6.64.07-13.35c0-.21,0-.42,0-.63.06-4.15.16-8.3.29-12.48.06-1.71.11-3.43.18-5.15,0-1.39.11-2.79.19-4.19,0-.6,0-1.2.07-1.81q.3-6.35.72-12.71c.11-1.73.23-3.47.37-5.22.06-1,.14-2,.22-3,.05-.49.08-1,.12-1.46.08-1.12.17-2.22.28-3.34q.59-7,1.33-14c.09-.78.17-1.56.25-2.34.22-2,.45-4,.7-6.08.13-1.14.26-2.28.41-3.41.11-.89.23-1.77.33-2.66.35-2.57.68-5.15,1-7.72.25-1.73.5-3.46.76-5.19.11-.78.23-1.54.35-2.31.15-1,.32-2,.47-3,.26-1.56.5-3.11.76-4.68.36-2.12.73-4.26,1.1-6.38.25-1.4.51-2.81.76-4.21,0-.08,0-.16,0-.22.17-1,.34-1.9.53-2.85.15-.79.3-1.58.46-2.37a3.1,3.1,0,0,1,.08-.42c0-.09,0-.18,0-.26.29-1.52.6-3,.91-4.55.1-.52.21-1,.32-1.57.38-1.87.78-3.73,1.18-5.6l0-.17c0-.1,0-.19.07-.28s0,0,0-.07c.45-2.05.9-4.09,1.37-6.14.05-.17.08-.36.12-.53l.18-.76c.14-.58.27-1.17.4-1.76.09-.36.17-.72.26-1.07.28-1.2.57-2.4.86-3.59.58-2.4,1.18-4.78,1.79-7.18.25-1,.49-1.92.75-2.88.12-.45.25-.91.37-1.38.19-.76.4-1.51.6-2.28.06-.21.12-.44.19-.64.21-.81.42-1.61.65-2.42l.48-1.74c.61-2.14,1.21-4.28,1.85-6.42.44-1.54.91-3.09,1.37-4.64.55-1.85,1.12-3.69,1.7-5.55.09-.24.16-.48.24-.74.24-.77.49-1.54.72-2.32.14-.42.28-.83.42-1.26.18-.6.37-1.19.57-1.78.1-.31.21-.64.33-1q.91-2.82,1.89-5.66,1.2-3.51,2.45-7c.2-.59.41-1.16.62-1.74.36-1,.72-2,1.1-3,.22-.6.44-1.21.68-1.82q1.88-5.05,3.87-10.1a.42.42,0,0,0,0-.12q2.09-5.25,4.3-10.51c1-2.35,2-4.7,3-7.05l1.45-3.27c0-.1.08-.19.13-.29.44-1,.89-2,1.35-3l.05-.1c.41-.92.85-1.84,1.26-2.76l.14-.31c.34-.7.66-1.4,1-2.12,0-.12.11-.23.16-.35s.11-.25.17-.37c.16-.32.31-.67.48-1,.61-1.27,1.24-2.55,1.85-3.84q1.36-2.82,2.78-5.65l1.8-3.59c.15-.26.29-.55.44-.82.51-1,1-2,1.53-3l1.56-3a.7.7,0,0,0,.09-.17c1-1.91,2-3.82,3.11-5.75l.49-.9.57-1,.57-1c.13-.25.28-.5.41-.75.23-.4.44-.8.66-1.2l.79-1.37,1.55-2.7c.17-.29.34-.58.5-.88.26-.46.53-.9.79-1.36s.71-1.19,1.05-1.79c.63-1,1.25-2.11,1.87-3.16.45-.73.9-1.48,1.34-2.23.27-.42.53-.86.78-1.29s.35-.56.53-.84c.57-1,1.18-1.92,1.78-2.89s1.21-1.94,1.83-2.91c.28-.44.54-.87.82-1.3l2.27-3.53.75-1.16c.51-.79,1-1.58,1.57-2.37.11-.18.24-.35.34-.52.47-.69.92-1.39,1.4-2.09.12-.19.26-.37.38-.56.64-1,1.28-1.91,1.94-2.87.3-.45.6-.9.91-1.33s.71-1,1.06-1.54c.22-.3.42-.59.63-.89.42-.62.86-1.25,1.3-1.86a.18.18,0,0,1,.06-.09c.67-1,1.35-1.91,2-2.85.14-.22.3-.42.44-.63l1.16-1.6.45-.6c.23-.34.46-.67.71-1l1.35-1.84c1.09-1.47,2.18-2.94,3.29-4.41l.93-1.22c.42-.57.85-1.13,1.3-1.7s.9-1.16,1.36-1.74a3.19,3.19,0,0,1,.23-.32c.92-1.21,1.87-2.41,2.82-3.6l.81-1,2.22-2.77,2.92-3.59c.54-.66,1.07-1.32,1.61-2h0q.29-.33.54-.66c.32-.37.64-.75.95-1.13.94-1.1,1.86-2.22,2.8-3.31l.69-.81,2-2.34c1.38-1.6,2.76-3.17,4.17-4.75.29-.33.59-.65.86-1,.71-.77,1.4-1.55,2.09-2.32l2.59-2.84h0l.12-.16.2-.2c.72-.78,1.44-1.56,2.17-2.33.2-.23.42-.45.62-.66l1.9-2,2.55-2.69q1.27-1.3,2.52-2.61a.1.1,0,0,0,.07,0l2.49-2.53c.91-.92,1.82-1.85,2.76-2.78l2.66-2.63.14-.14,1.28-1.24,1.27-1.24,2.73-2.62q3.39-3.24,6.89-6.45c2.34-2.14,4.68-4.27,7.07-6.39l.08-.06q5.78-5.11,11.77-10.13l3.26-2.69,3.18-2.61c1.13-.91,2.28-1.84,3.44-2.76,2.21-1.76,4.45-3.51,6.7-5.26,1.14-.87,2.27-1.75,3.43-2.62l2.58-2q3.9-2.92,7.89-5.83c1.18-.86,2.36-1.72,3.56-2.57q3.8-2.7,7.68-5.38c1.76-1.21,3.54-2.42,5.31-3.62l5.37-3.58,3.8-2.47c1.25-.81,2.5-1.62,3.77-2.42,0,0,0,0,.05,0l3.85-2.44,3.9-2.43,3.33-2,.61-.36c1.2-.74,2.4-1.46,3.63-2.19l1.45-.86c1-.58,1.93-1.15,2.9-1.71q2-1.19,4-2.36t4.09-2.34l.56-.33,3.56-2c2.77-1.53,5.57-3.07,8.37-4.59,1.41-.77,2.83-1.51,4.24-2.27s2.84-1.52,4.28-2.25c1.71-.89,3.4-1.78,5.12-2.66l3.56-1.8c1.46-.74,2.92-1.47,4.41-2.2A748.83,748.83,0,0,0,1765.4,956.55q5.1-4.57,10-9.2h0q5-4.64,9.81-9.29c1.08-1,2.16-2.08,3.23-3.13q9.63-9.34,18.84-18.89,4.59-4.78,9.11-9.57t8.92-9.61q7.37-8.07,14.47-16.21c1.89-2.15,3.78-4.31,5.64-6.49h0q4.21-4.87,8.34-9.78v0l5.47-6.54v0c1.81-2.17,3.6-4.36,5.39-6.55s3.59-4.4,5.35-6.6q3-3.71,6-7.43t5.87-7.42l3.87-5h0q7.23-9.31,14.28-18.64h0q3.51-4.67,7-9.31h0q3.49-4.67,6.91-9.31v0c2.29-3.09,4.57-6.2,6.84-9.3h0q5.12-7,10.13-13.94s0,0,0,0c10.65-14.69,21.09-29.31,31.46-43.78q6.27-8.76,12.54-17.43l6.83-9.42c2.58-3.54,5.16-7.09,7.75-10.6,1.29-1.78,2.58-3.55,3.89-5.32h0c135.45-183.48,281-322.28,734-211.06,304.73,74.77,526.56,306.17,640.89,589.1q4.11,10.2,8.06,20.47l2.31,6.09c.9,2.42,1.82,4.85,2.71,7.28.78,2.09,1.54,4.19,2.3,6.29q3.71,10.19,7.2,20.46,1.17,3.4,2.31,6.82c.88,2.58,1.74,5.18,2.58,7.78q1,2.94,1.92,5.9c.74,2.28,1.46,4.57,2.19,6.86,1.45,4.59,2.86,9.17,4.26,13.78l1.89,6.29c.11.42.25.83.36,1.24.62,2.11,1.24,4.2,1.84,6.3.67,2.32,1.32,4.61,2,6.93s1.31,4.64,1.94,7c.58,2.07,1.15,4.14,1.72,6.23.69,2.56,1.38,5.13,2.05,7.7.61,2.33,1.22,4.66,1.81,7s1.21,4.67,1.79,7c.67,2.62,1.31,5.24,1.95,7.87.5,2,1,4.11,1.49,6.16q1.56,6.57,3.06,13.16c.6,2.67,1.2,5.32,1.78,8q1.56,7.07,3,14.15c.49,2.36,1,4.72,1.45,7.1s.95,4.71,1.4,7.09.92,4.73,1.36,7.11.89,4.73,1.33,7.11c.4,2.2.8,4.42,1.19,6.64q.69,3.81,1.33,7.61c.41,2.39.8,4.76,1.2,7.16.06.3.1.6.15.9.55,3.41,1.1,6.85,1.64,10.27h0c.53,3.42,1,6.85,1.54,10.27.35,2.4.7,4.79,1,7.18s.67,4.78,1,7.18q.39,2.87.75,5.73c.38,2.89.74,5.76,1.09,8.64q.31,2.5.6,5c.1.73.18,1.46.26,2.19,0,.2.05.4.08.6.24,2.2.49,4.39.73,6.59.27,2.4.53,4.81.77,7.21s.49,4.81.74,7.21c.46,4.8.91,9.62,1.32,14.43.2,2.41.42,4.82.59,7.23.3,3.62.57,7.23.83,10.84s.49,7.23.71,10.85c.16,2.41.3,4.82.44,7.23s.25,4.83.38,7.23.22,4.84.33,7.25.2,4.82.29,7.24q.27,7.08.46,14.18c.06,2.52.12,5,.16,7.55s.09,4.83.13,7.24.05,4.83.07,7.25Q3456.25,1507,3456.2,1514.23Z"/><path class="cls-3" d="M3456.2,1514.23c0,2.42,0,4.83-.06,7.25s-.07,4.83-.11,7.23q-.12,7.26-.32,14.49l-.24,7.24c-.08,2.08-.17,4.15-.24,6.24,0,.33,0,.66-.05,1-.09,2.34-.2,4.67-.3,7,0,.15,0,.27,0,.4-.12,2.35-.24,4.71-.37,7.06-.11,2.09-.22,4.2-.36,6.31,0,.43-.05.88-.07,1.31-.14,2.27-.28,4.55-.44,6.82q-.47,7.23-1,14.44c-.19,2.4-.39,4.81-.59,7.21s-.42,4.8-.63,7.21-.45,4.77-.68,7.17c0,0,0,0,0,0-.23,2.4-.48,4.79-.73,7.18-.19,1.78-.37,3.55-.57,5.33-.32,3-.66,6-1,9-.28,2.34-.57,4.69-.85,7-.4,3.19-.81,6.36-1.22,9.55-.22,1.64-.44,3.28-.67,4.92-.33,2.39-.65,4.78-1,7.16-.35,2.59-.73,5.19-1.13,7.77q-.41,2.7-.82,5.36-1.76,11.29-3.73,22.54c-.42,2.38-.84,4.74-1.27,7.11-.76,4.14-1.54,8.26-2.34,12.39-.25,1.22-.48,2.45-.74,3.67-.33,1.74-.68,3.49-1,5.22q-.72,3.52-1.46,7.07c-.56,2.64-1.13,5.29-1.7,7.93-.05.25-.11.5-.16.75s-.1.5-.17.75c-.74,3.35-1.48,6.71-2.25,10l-.39,1.66c-.19.86-.39,1.72-.61,2.56a3.87,3.87,0,0,1-.13.59c0,.19-.09.39-.13.58-.26,1.11-.52,2.2-.78,3.29-.54,2.29-1.08,4.56-1.65,6.83,0,.16-.07.3-.1.46-.44,1.74-.87,3.48-1.31,5.22-.12.51-.25,1-.38,1.51s-.27,1.13-.42,1.69l-.33,1.33c-.22.81-.43,1.62-.64,2.42-.28,1.15-.58,2.29-.88,3.44l-.24.9c-.09.38-.19.77-.29,1.13-.67,2.57-1.36,5.12-2.06,7.67-.39,1.44-.79,2.88-1.18,4.32-.71,2.62-1.45,5.24-2.19,7.83-.54,1.87-1.06,3.72-1.61,5.58-.34,1.2-.69,2.39-1.05,3.6-.47,1.64-1,3.31-1.47,4.94s-1,3.49-1.57,5.23c-.32,1.07-.66,2.14-1,3.21-.23.76-.47,1.52-.71,2.28-.55,1.76-1.09,3.52-1.66,5.27s-1.08,3.43-1.65,5.16c-.46,1.45-.93,2.91-1.41,4.36-.64,2-1.3,4-2,5.93l-1,3.08,0,0c-.51,1.55-1,3.1-1.57,4.63-.73,2.15-1.48,4.31-2.24,6.46-.43,1.25-.87,2.49-1.31,3.74-.56,1.61-1.14,3.21-1.72,4.82-.13.38-.28.77-.41,1.15l-.33.89c-.05.14-.11.29-.16.44s-.1.3-.16.45c-.2.57-.41,1.12-.61,1.68-.09.24-.17.47-.27.7-.69,1.92-1.4,3.84-2.12,5.74a.6.6,0,0,1-.08.2c-.71,1.91-1.42,3.82-2.15,5.71a2,2,0,0,1-.1.29c-.41,1.07-.81,2.15-1.25,3.22-.21.58-.43,1.17-.66,1.75q-.65,1.69-1.32,3.39c-.12.32-.24.65-.38,1-.46,1.2-.92,2.4-1.4,3.58-.15.39-.3.78-.46,1.17s-.38.94-.58,1.41-.38,1-.58,1.47a.46.46,0,0,1,0,.09l0,0c-.45,1.16-.91,2.29-1.39,3.44a4.08,4.08,0,0,1-.22.54c-.27.71-.56,1.4-.84,2.1s-.53,1.28-.8,1.92-.53,1.29-.8,1.93c-.06.14-.11.3-.17.43a1,1,0,0,1,0,.13l0,0s0,0,0,0a.19.19,0,0,1,0,.08l-.08.17c-.5,1.22-1,2.45-1.51,3.66-.16.4-.33.8-.51,1.19s-.3.74-.46,1.11l-.47,1.11-.09.22c-.55,1.3-1.11,2.58-1.66,3.87-.3.72-.6,1.43-.92,2.13h0c-.07.17-.14.35-.22.52-.38.86-.76,1.73-1.12,2.59-.28.63-.55,1.26-.84,1.89l-.52,1.2a2.88,2.88,0,0,0-.13.31c-.39.87-.77,1.74-1.16,2.6-.53,1.2-1.08,2.41-1.61,3.61l-.33.75c-.3.67-.6,1.33-.91,2-.82,1.84-1.65,3.67-2.5,5.51-1.06,2.32-2.14,4.64-3.22,6.94-.09.17-.16.35-.24.53-1.08,2.27-2.15,4.55-3.25,6.82h0c-.67,1.4-1.33,2.8-2,4.19a1,1,0,0,1-.08.21l-1.78,3.64q-3.49,7.11-7.1,14.19-1.2,2.37-2.44,4.72t-2.35,4.54c-1,2-2.08,4-3.14,6l-.48.89q-1.56,2.92-3.16,5.85a.65.65,0,0,1-.09.16c0,.09-.1.19-.14.28a2.27,2.27,0,0,1-.19.34,1.3,1.3,0,0,1-.14.26c-.54,1-1.09,2-1.62,3l-1.65,3a1,1,0,0,1-.11.2l0,.07-.08.12c-.08.15-.16.27-.23.4-1.24,2.24-2.48,4.47-3.74,6.7-.09.15-.18.29-.26.45-.4.69-.78,1.39-1.19,2.08-1,1.73-2,3.47-3,5.18l-1.26,2.17a1.75,1.75,0,0,1-.18.29c-.08.14-.16.3-.25.43-.82,1.43-1.66,2.85-2.49,4.27-1.58,2.68-3.16,5.35-4.77,8l-2.39,3.94-.69,1.14c-.12.22-.27.44-.4.66l-.29.46-.45.73c-.14.24-.3.49-.44.72s-.2.33-.3.49-.2.33-.32.49q-.28.51-.6,1h0l-2,3.2c-.1.15-.19.31-.3.47l-1.86,3c-.59.95-1.2,1.9-1.79,2.83l-.49.77c-.06.12-.14.23-.2.33-1.1,1.72-2.2,3.44-3.32,5.17-.42.66-.86,1.33-1.29,2-.57.88-1.15,1.76-1.73,2.63q-1.38,2.16-2.82,4.3c-.63.95-1.26,1.91-1.91,2.86-.23.36-.47.71-.71,1.07,0,.08-.1.14-.14.22s-.1.15-.15.21l-.29.43c-.38.58-.76,1.15-1.15,1.71-.09.15-.19.28-.27.42l-2.12,3.12-1.81,2.66h0l-.48.73q-3.24,4.71-6.56,9.4c-.45.65-.91,1.31-1.37,1.94s-1.11,1.57-1.68,2.36q-2.41,3.41-4.88,6.78h0l-.86,1.17c-.87,1.18-1.72,2.37-2.59,3.55l-1.32,1.76-.1.14a.44.44,0,0,1-.1.15c-1,1.39-2.08,2.81-3.13,4.2l-1.83,2.44h0l0,.06c-.36.47-.72.93-1.07,1.4-.09.12-.19.26-.29.38q-1.86,2.46-3.75,4.92c-.27.34-.52.69-.79,1s-.52.67-.8,1a2.3,2.3,0,0,1-.25.34,3.33,3.33,0,0,1-.24.32h0c-.35.47-.71.95-1.07,1.41l-1.1,1.39c-.37.5-.75,1-1.14,1.47q-4.62,5.91-9.36,11.74-5.1,6.32-10.34,12.54c-.12.16-.27.32-.4.48s-.35.41-.53.62c-2,2.42-4.08,4.82-6.13,7.22l-.33.37c-.45.51-.88,1-1.32,1.54q-6.58,7.6-13.35,15.1l-.87,1h0c-1.2,1.35-2.43,2.69-3.64,4l-.22.23q-7.24,7.9-14.72,15.69l-1.45,1.49c-1.38,1.44-2.79,2.89-4.19,4.33-1,1-2,2-3,3h0l-1,1-.21.22-.21.2-.19.2a1,1,0,0,0-.21.21c-.41.41-.82.81-1.21,1.21v0l-.1.08-.09.09c-.73.75-1.47,1.49-2.22,2.21q-5,5-10,9.86l-.38.38-2.56,2.46-2.13,2v0c-.33.33-.66.64-1,1-.18.16-.34.33-.5.47-.88.85-1.76,1.68-2.65,2.51q-2.59,2.44-5.22,4.87-8.22,7.62-16.67,15.1c-.36.3-.69.61-1,.9-2.07,1.83-4.15,3.66-6.24,5.47-.54.45-1.08.92-1.61,1.38l-1.57,1.35h0l-.07,0-.06.05-2.63,2.25-4.68,4-4.63,3.86q-12.57,10.42-25.62,20.51l-4.84,3.7q-7.09,5.4-14.3,10.69c-1.2.89-2.42,1.77-3.63,2.65-.71.52-1.4,1-2.11,1.53q-6.46,4.68-13.05,9.26l-2.89,2q-5.39,3.72-10.83,7.39c-4.71,3.15-9.44,6.3-14.24,9.39-65.32,42.28-130.49,77.2-195.17,105.37-2.68,1.18-5.36,2.33-8,3.47-290.08,123.89-570,112.42-809.61,22a1155.11,1155.11,0,0,1-189.43-92.29,1211.79,1211.79,0,0,1-111.51-76.29q-44.7-34.39-85.54-72.26-26.4-24.45-51-50.13a1191.3,1191.3,0,0,1-96.24-113.47c-49.72-66.7-90.83-136.83-122-207.86a1.37,1.37,0,0,0-.07-.16,1.77,1.77,0,0,0-.06-.17c-.16-.4-.45-1.12-.86-2.17l-.19-.5c-1.9-4.88-5.91-15.57-11-31-.26-.84-.54-1.69-.82-2.56-5.56-17.29-12.26-40.11-18.72-67.16-.25-1.07-.51-2.15-.76-3.24q-1.25-5.25-2.46-10.72c-.21-.91-.41-1.82-.62-2.74-.3-1.44-.62-2.89-.94-4.35a2.61,2.61,0,0,0-.06-.27c-.53-2.48-1.06-5-1.59-7.54-.68-3.33-1.36-6.69-2-10.1-.3-1.53-.61-3.07-.9-4.62q-.33-1.74-.66-3.51-.63-3.37-1.23-6.81c-.23-1.27-.47-2.56-.68-3.84-.29-1.6-.56-3.21-.84-4.83-1.44-8.63-2.82-17.49-4.08-26.57-.07-.6-.16-1.22-.24-1.82s-.15-1-.22-1.57c-.09-.74-.2-1.46-.29-2.18s-.19-1.43-.28-2.13c0-.28-.08-.57-.11-.86-.23-1.78-.46-3.59-.68-5.4-.1-.79-.19-1.59-.29-2.4-.29-2.39-.57-4.8-.84-7.19,0-.25,0-.48-.08-.72-.16-1.53-.33-3.06-.49-4.61,0-.23,0-.47-.08-.7s-.06-.57-.08-.86c-.07-.69-.15-1.37-.23-2.06s-.11-1.15-.16-1.74c0-.24,0-.47-.07-.7-.06-.56-.11-1.11-.17-1.65s-.1-1.18-.15-1.78c-.12-1.11-.22-2.22-.32-3.34a1.23,1.23,0,0,0,0-.19c-.07-.72-.12-1.45-.19-2.17,0-.57-.1-1.14-.15-1.71h0c0-.19,0-.38-.06-.57-.12-1.55-.26-3.1-.38-4.66s-.24-3.13-.35-4.7a1,1,0,0,1,0-.22c0-.27,0-.55-.05-.82-.09-1.22-.17-2.45-.26-3.69s-.16-2.28-.22-3.44l-.25-4c0-.13,0-.28,0-.42-.07-1.17-.13-2.33-.2-3.5s-.11-2.19-.17-3.28c-.08-1.35-.13-2.7-.2-4h0c0-1-.08-1.89-.12-2.84s-.08-1.88-.11-2.83h0c0-.88-.06-1.75-.09-2.64s-.08-2-.1-3c0-1.27-.08-2.55-.1-3.84,0-.26,0-.54,0-.82l0-1.07c0-.95,0-1.9,0-2.84,0-.38,0-.76,0-1.13,0-.6,0-1.19-.05-1.79s0-1.33,0-2c0-1.4,0-2.81,0-4.22,0-1,0-2,0-3.06q0-6.64.07-13.35c0-.21,0-.42,0-.63.06-4.15.16-8.3.29-12.48.06-1.71.11-3.43.18-5.15,0-1.39.11-2.79.19-4.19,0-.6,0-1.2.07-1.81q.3-6.35.72-12.71c.11-1.73.23-3.47.37-5.22.06-1,.14-2,.22-3,.05-.49.08-1,.12-1.46.08-1.12.17-2.22.28-3.34q.59-7,1.33-14c.09-.78.17-1.56.25-2.34.22-2,.45-4,.7-6.08.13-1.14.26-2.28.41-3.41.11-.89.23-1.77.33-2.66.35-2.57.68-5.15,1-7.72.25-1.73.5-3.46.76-5.19.11-.78.23-1.54.35-2.31.15-1,.32-2,.47-3,.26-1.56.5-3.11.76-4.68.36-2.12.73-4.26,1.1-6.38.25-1.4.51-2.81.76-4.21,0-.08,0-.16,0-.22.17-1,.34-1.9.53-2.85.15-.79.3-1.58.46-2.37a3.1,3.1,0,0,1,.08-.42c0-.09,0-.18,0-.26.29-1.52.6-3,.91-4.55.1-.52.21-1,.32-1.57.38-1.87.78-3.73,1.18-5.6l0-.17c0-.1,0-.19.07-.28s0,0,0-.07c.45-2.05.9-4.09,1.37-6.14.05-.17.08-.36.12-.53l.18-.76c.14-.58.27-1.17.4-1.76.09-.36.17-.72.26-1.07.28-1.2.57-2.4.86-3.59.58-2.4,1.18-4.78,1.79-7.18.25-1,.49-1.92.75-2.88.12-.45.25-.91.37-1.38.19-.76.4-1.51.6-2.28.06-.21.12-.44.19-.64.21-.81.42-1.61.65-2.42l.48-1.74c.61-2.14,1.21-4.28,1.85-6.42.44-1.54.91-3.09,1.37-4.64.55-1.85,1.12-3.69,1.7-5.55.09-.24.16-.48.24-.74.24-.77.49-1.54.72-2.32.14-.42.28-.83.42-1.26.18-.6.37-1.19.57-1.78.1-.31.21-.64.33-1q.91-2.82,1.89-5.66,1.2-3.51,2.45-7c.2-.59.41-1.16.62-1.74.36-1,.72-2,1.1-3,.22-.6.44-1.21.68-1.82q1.88-5.05,3.87-10.1a.42.42,0,0,0,0-.12q2.09-5.25,4.3-10.51c1-2.35,2-4.7,3-7.05l1.45-3.27c0-.1.08-.19.13-.29.44-1,.89-2,1.35-3l.05-.1c.41-.92.85-1.84,1.26-2.76l.14-.31c.34-.7.66-1.4,1-2.12,0-.12.11-.23.16-.35s.11-.25.17-.37c.16-.32.31-.67.48-1,.61-1.27,1.24-2.55,1.85-3.84q1.36-2.82,2.78-5.65l1.8-3.59c.15-.26.29-.55.44-.82.51-1,1-2,1.53-3l1.56-3a.7.7,0,0,0,.09-.17c1-1.91,2-3.82,3.11-5.75l.49-.9.57-1,.57-1c.13-.25.28-.5.41-.75.23-.4.44-.8.66-1.2l.79-1.37,1.55-2.7c.17-.29.34-.58.5-.88.26-.46.53-.9.79-1.36s.71-1.19,1.05-1.79c.63-1,1.25-2.11,1.87-3.16.45-.73.9-1.48,1.34-2.23.27-.42.53-.86.78-1.29s.35-.56.53-.84c.57-1,1.18-1.92,1.78-2.89s1.21-1.94,1.83-2.91c.28-.44.54-.87.82-1.3l2.27-3.53.75-1.16c.51-.79,1-1.58,1.57-2.37.11-.18.24-.35.34-.52.47-.69.92-1.39,1.4-2.09.12-.19.26-.37.38-.56.64-1,1.28-1.91,1.94-2.87.3-.45.6-.9.91-1.33s.71-1,1.06-1.54c.22-.3.42-.59.63-.89.42-.62.86-1.25,1.3-1.86a.18.18,0,0,1,.06-.09c.67-1,1.35-1.91,2-2.85.14-.22.3-.42.44-.63l1.16-1.6c.38-.54.77-1.07,1.16-1.61l1.35-1.84c1.09-1.47,2.18-2.94,3.29-4.41l.93-1.22c.42-.57.85-1.13,1.3-1.7s.9-1.16,1.36-1.74a3.19,3.19,0,0,1,.23-.32c.92-1.21,1.87-2.41,2.82-3.6l.81-1,2.22-2.77,2.92-3.59c.54-.66,1.07-1.32,1.61-2l.55-.66c.32-.37.64-.75.95-1.13.94-1.1,1.86-2.22,2.8-3.31l.69-.81,2-2.34c1.38-1.6,2.76-3.17,4.17-4.75.29-.33.59-.65.86-1,.71-.77,1.4-1.55,2.09-2.32l2.59-2.84.13-.15.2-.2c.72-.78,1.44-1.56,2.17-2.33.2-.23.42-.45.62-.66l1.9-2,2.55-2.69q1.27-1.3,2.52-2.61a.1.1,0,0,0,.07,0l2.49-2.53c.91-.92,1.82-1.85,2.76-2.78l2.66-2.63.14-.14,1.28-1.24,1.27-1.24,2.73-2.62q3.39-3.24,6.89-6.45c2.34-2.14,4.68-4.27,7.07-6.39l.08-.06q5.78-5.11,11.77-10.13l3.26-2.69,3.18-2.61c1.13-.91,2.28-1.84,3.44-2.76,2.21-1.76,4.45-3.51,6.7-5.26,1.14-.87,2.27-1.75,3.43-2.62l2.58-2q3.9-2.92,7.89-5.83c1.18-.86,2.36-1.72,3.56-2.57q3.8-2.7,7.68-5.38c1.76-1.21,3.54-2.42,5.31-3.62l5.37-3.58,3.8-2.47c1.25-.81,2.5-1.62,3.77-2.42,0,0,0,0,.05,0l3.85-2.44,3.9-2.43,3.33-2,.61-.36c1.2-.74,2.4-1.46,3.63-2.19l1.45-.86c1-.58,1.93-1.15,2.9-1.71q2-1.19,4-2.36t4.09-2.34l.56-.33,3.56-2c2.77-1.53,5.57-3.07,8.37-4.59,1.41-.77,2.83-1.51,4.24-2.27s2.84-1.52,4.28-2.25c1.71-.89,3.4-1.78,5.12-2.66l3.56-1.8c1.46-.74,2.92-1.47,4.41-2.2A748.83,748.83,0,0,0,1765.4,956.55q5.1-4.57,10-9.2h0q5-4.62,9.81-9.29c1.08-1,2.16-2.08,3.23-3.13q9.63-9.34,18.84-18.89,4.59-4.78,9.11-9.57t8.92-9.61q7.37-8.07,14.47-16.21c1.89-2.15,3.78-4.31,5.64-6.49h0q4.21-4.87,8.34-9.78v0c1.84-2.17,3.66-4.34,5.47-6.54v0c1.81-2.17,3.6-4.36,5.39-6.55s3.59-4.4,5.35-6.6q3-3.71,6-7.43t5.87-7.42l3.87-5h0q7.23-9.31,14.28-18.64h0q3.51-4.67,7-9.31h0q3.49-4.67,6.91-9.31v0c2.29-3.09,4.57-6.2,6.84-9.3h0q5.12-7,10.13-13.94s0,0,0,0c10.65-14.69,21.09-29.31,31.46-43.78q6.27-8.76,12.54-17.43l6.83-9.42c2.58-3.54,5.16-7.09,7.75-10.6q1.93-2.65,3.88-5.28c-1.54,4-138.31,363.31,294.78,420a804.28,804.28,0,0,0,98.44,6.49q15.27.12,30.64-.25,13.26-.32,26.56-1c104-5,211-24.11,319.47-42.63,199-34,403.37-65.91,605-4.61q4.11,10.2,8.06,20.47l2.31,6.09c.9,2.42,1.82,4.85,2.71,7.28.78,2.09,1.54,4.19,2.3,6.29q3.71,10.19,7.2,20.46,1.17,3.4,2.31,6.82c.88,2.58,1.74,5.18,2.58,7.78q1,2.94,1.92,5.9c.74,2.28,1.46,4.57,2.19,6.86,1.45,4.59,2.86,9.17,4.26,13.78l1.89,6.29c.11.42.25.83.36,1.24.62,2.11,1.24,4.2,1.84,6.3.67,2.32,1.32,4.61,2,6.93s1.31,4.64,1.94,7c.58,2.07,1.15,4.14,1.72,6.23.69,2.56,1.38,5.13,2.05,7.7.61,2.33,1.22,4.66,1.81,7s1.21,4.67,1.79,7c.67,2.62,1.31,5.24,1.95,7.87.5,2,1,4.11,1.49,6.16q1.56,6.57,3.06,13.16c.6,2.67,1.2,5.32,1.78,8q1.56,7.07,3,14.15c.49,2.36,1,4.72,1.45,7.1s.95,4.71,1.4,7.09.92,4.73,1.36,7.11.89,4.73,1.33,7.11c.4,2.2.8,4.42,1.19,6.64q.69,3.81,1.33,7.61c.41,2.39.8,4.76,1.2,7.16.06.3.1.6.15.9.55,3.41,1.1,6.85,1.64,10.27h0c.53,3.42,1,6.85,1.54,10.27.35,2.4.7,4.79,1,7.18s.67,4.78,1,7.18q.39,2.87.75,5.73c.38,2.89.74,5.76,1.09,8.64q.31,2.5.6,5c.1.73.18,1.46.26,2.19,0,.2.05.4.08.6.24,2.2.49,4.39.73,6.59.27,2.4.53,4.81.77,7.21s.49,4.81.74,7.21c.46,4.8.91,9.62,1.32,14.43.2,2.41.42,4.82.59,7.23.3,3.62.57,7.23.83,10.84s.49,7.23.71,10.85c.16,2.41.3,4.82.44,7.23s.25,4.83.38,7.23.22,4.84.33,7.25.2,4.82.29,7.24q.29,7.1.46,14.18c.06,2.52.12,5,.16,7.55s.09,4.83.13,7.24.05,4.83.07,7.25Q3456.25,1507,3456.2,1514.23Z"/><path class="cls-4" d="M3402,1856.55c-.64,2-1.3,4-2,5.93l-1,3.08,0,0c-.51,1.55-1,3.1-1.57,4.63-.73,2.15-1.48,4.31-2.24,6.46-.43,1.25-.87,2.49-1.31,3.74-.56,1.61-1.14,3.21-1.72,4.82-.13.38-.28.77-.41,1.15l-.33.89c-.05.14-.11.29-.16.44s-.1.3-.16.45c-.2.57-.41,1.12-.61,1.68-.09.24-.17.47-.27.7-.69,1.92-1.4,3.84-2.12,5.74a.6.6,0,0,1-.08.2c-.71,1.91-1.42,3.82-2.15,5.71a2,2,0,0,1-.1.29c-.41,1.07-.81,2.15-1.25,3.22-.21.58-.43,1.17-.66,1.75q-.65,1.69-1.32,3.39c-.12.32-.24.65-.38,1-.46,1.2-.92,2.4-1.4,3.58-.15.39-.3.78-.46,1.17s-.38.94-.58,1.41-.38,1-.58,1.47a.46.46,0,0,1,0,.09l0,0c-.45,1.16-.91,2.29-1.39,3.44a4.08,4.08,0,0,1-.22.54c-.27.71-.56,1.4-.84,2.1s-.53,1.28-.8,1.92c-.32.79-.65,1.58-1,2.36a1,1,0,0,1,0,.13l0,0,0,.1-.08.17c-.5,1.22-1,2.45-1.51,3.66-.16.4-.33.8-.51,1.19s-.3.74-.46,1.11l-.47,1.11-.09.22c-.55,1.3-1.11,2.58-1.66,3.87-.3.72-.6,1.43-.92,2.13h0c-.07.17-.14.35-.22.52-.38.86-.76,1.73-1.12,2.59-.28.63-.55,1.26-.84,1.89s-.42,1-.65,1.51c-.39.87-.77,1.74-1.16,2.6-.53,1.2-1.08,2.41-1.61,3.61l-.33.75c-.3.67-.6,1.33-.91,2-.82,1.84-1.65,3.67-2.5,5.51-1.06,2.32-2.14,4.64-3.22,6.94-.09.17-.16.35-.24.53-1.08,2.27-2.15,4.55-3.25,6.82h0c-.67,1.4-1.33,2.8-2,4.19a1,1,0,0,1-.08.21l-1.78,3.64q-3.49,7.11-7.1,14.19-1.2,2.37-2.44,4.72t-2.35,4.54c-1,2-2.08,4-3.14,6l-.48.89q-1.56,2.92-3.16,5.85a.65.65,0,0,1-.09.16c0,.09-.1.19-.14.28a2.27,2.27,0,0,1-.19.34,1.3,1.3,0,0,1-.14.26c-.54,1-1.09,2-1.62,3l-1.65,3a1,1,0,0,1-.11.2l-.1.19c-.08.15-.16.27-.23.4-1.24,2.24-2.48,4.47-3.74,6.7-.09.15-.18.29-.26.45-.4.69-.78,1.39-1.19,2.08-1,1.73-2,3.47-3,5.18l-1.26,2.17a1.75,1.75,0,0,1-.18.29c-.08.14-.16.3-.25.43-.82,1.43-1.66,2.85-2.49,4.27-1.58,2.68-3.16,5.35-4.77,8l-2.39,3.94-.69,1.14-.69,1.12-.45.73-.45.72c-.09.17-.19.33-.29.49s-.2.33-.32.49c-.2.34-.41.66-.61,1l-2,3.2c-.1.15-.19.31-.3.47l-1.86,3c-.59.95-1.2,1.9-1.79,2.83l-.49.77c-.06.12-.14.23-.2.33-1.1,1.72-2.2,3.44-3.32,5.17-.42.66-.86,1.33-1.29,2-.57.88-1.15,1.76-1.73,2.63q-1.38,2.16-2.82,4.3c-.63.95-1.26,1.91-1.91,2.86-.24.36-.47.71-.72,1.07a.85.85,0,0,0-.13.22c-.06.07-.1.15-.15.21l-.29.43c-.38.58-.76,1.15-1.15,1.71-.09.15-.19.28-.27.42l-2.12,3.12c-.6.89-1.21,1.77-1.82,2.65l-.48.73q-3.24,4.71-6.56,9.4c-.45.65-.91,1.31-1.37,1.94s-1.11,1.57-1.68,2.36q-2.41,3.41-4.88,6.78h0c-.29.39-.57.79-.86,1.17-.87,1.18-1.72,2.37-2.59,3.55-.44.59-.87,1.18-1.31,1.76a1.1,1.1,0,0,1-.11.14.44.44,0,0,1-.1.15c-1,1.39-2.08,2.81-3.13,4.2l-1.83,2.44h0l0,.06c-.36.47-.72.93-1.07,1.4-.09.12-.19.26-.29.38q-1.86,2.46-3.75,4.92c-.27.34-.52.69-.79,1s-.52.68-.79,1a3.65,3.65,0,0,1-.26.32,3.33,3.33,0,0,1-.24.32c-.35.47-.72.94-1.09,1.41l-1.1,1.39c-.37.5-.75,1-1.14,1.47q-4.62,5.91-9.36,11.74-5.1,6.32-10.34,12.54c-.12.16-.27.32-.4.48s-.35.41-.53.62c-2,2.42-4.08,4.82-6.13,7.22l-.32.37c-.45.51-.88,1-1.33,1.54q-6.58,7.6-13.35,15.1l-.87,1h0c-1.2,1.35-2.43,2.69-3.64,4l-.22.23q-7.24,7.9-14.72,15.69l-1.45,1.49c-1.38,1.44-2.79,2.89-4.19,4.33-1,1-2,2-3,3h0l-1,1-.21.22-.21.2-.19.2a1,1,0,0,0-.21.21c-.41.41-.82.81-1.21,1.21v0l-.1.08-.09.09c-.73.75-1.47,1.49-2.22,2.21q-5,5-10,9.86l-.38.38-2.56,2.46-2.13,2-1,.93c-.18.16-.34.33-.5.47-.88.85-1.76,1.68-2.65,2.51q-2.59,2.44-5.22,4.87-8.22,7.62-16.67,15.1c-.36.3-.69.61-1,.9-2.07,1.83-4.15,3.66-6.24,5.47-.54.45-1.08.92-1.61,1.38l-1.57,1.35h0l-.07,0-.06.05-2.63,2.25-4.68,4-4.63,3.86q-12.57,10.42-25.62,20.51l-4.84,3.7q-7.09,5.4-14.3,10.69c-1.2.89-2.42,1.77-3.63,2.65-.71.52-1.4,1-2.11,1.53q-6.46,4.68-13.05,9.26l-2.89,2q-5.39,3.72-10.83,7.39c-4.71,3.15-9.44,6.3-14.24,9.39-65.32,42.28-130.49,77.2-195.17,105.37-2.68,1.18-5.36,2.33-8,3.47-290.08,123.89-570,112.42-809.61,22a1155.11,1155.11,0,0,1-189.43-92.29,1211.79,1211.79,0,0,1-111.51-76.29q-44.7-34.39-85.54-72.26-26.4-24.45-51-50.13a1191.3,1191.3,0,0,1-96.24-113.47c-49.72-66.7-90.83-136.83-122-207.86a1.37,1.37,0,0,0-.07-.16,1.77,1.77,0,0,0-.06-.17c-.16-.4-.45-1.12-.86-2.17l-.19-.5c-1.9-4.88-5.91-15.57-11-31-.26-.84-.54-1.69-.82-2.56-5.56-17.29-12.26-40.11-18.72-67.16-.25-1.07-.51-2.15-.76-3.24q-1.25-5.25-2.46-10.72c-.21-.91-.41-1.82-.62-2.74-.3-1.44-.62-2.89-.94-4.35a2.61,2.61,0,0,0-.06-.27c-.53-2.48-1.06-5-1.59-7.54-.68-3.33-1.36-6.69-2-10.1-.3-1.53-.61-3.07-.9-4.62q-.33-1.74-.66-3.51-.63-3.37-1.23-6.81c-.23-1.27-.47-2.56-.68-3.84-.29-1.6-.56-3.21-.84-4.83-1.44-8.63-2.82-17.49-4.08-26.57-.07-.6-.16-1.22-.24-1.82s-.15-1-.22-1.57c-.09-.74-.2-1.46-.29-2.18s-.19-1.43-.28-2.13c0-.28-.08-.57-.11-.86-.23-1.78-.46-3.59-.68-5.4-.1-.79-.19-1.59-.29-2.4-.29-2.39-.57-4.8-.84-7.19,0-.25,0-.48-.08-.72-.16-1.53-.33-3.06-.49-4.61,0-.23,0-.47-.08-.7s-.06-.57-.08-.86c-.07-.69-.15-1.37-.23-2.06s-.11-1.15-.16-1.74c0-.24,0-.47-.07-.7-.06-.56-.11-1.11-.17-1.65s-.1-1.18-.15-1.78c-.12-1.11-.22-2.22-.32-3.34a1.23,1.23,0,0,0,0-.19c-.07-.72-.12-1.45-.19-2.17,0-.57-.1-1.14-.15-1.71h0c0-.19,0-.38-.06-.57-.12-1.55-.26-3.1-.38-4.66s-.24-3.13-.35-4.7a1,1,0,0,1,0-.22c0-.27,0-.55-.05-.82-.09-1.22-.17-2.45-.26-3.69s-.16-2.28-.22-3.44l-.25-4c0-.13,0-.28,0-.42-.07-1.17-.13-2.33-.2-3.5s-.11-2.19-.17-3.28c0-.58,0-1.15-.08-1.73l-.12-2.3h0c0-1-.08-1.89-.12-2.84s-.06-1.63-.09-2.46c0-.11,0-.23,0-.37h0c0-.88-.06-1.75-.09-2.64s-.08-2-.1-3c0-1.27-.08-2.55-.1-3.84,0-.26,0-.54,0-.82l0-1.07c0-.95,0-1.9,0-2.84,0-.38,0-.76,0-1.13,0-.6,0-1.19-.05-1.79s0-1.33,0-2c0-1.4,0-2.81,0-4.22,0-1,0-2,0-3.06q0-6.64.07-13.35c0-.21,0-.42,0-.63.06-4.15.16-8.3.29-12.48.06-1.71.11-3.43.18-5.15,0-1.39.11-2.79.19-4.19,0-.6,0-1.2.07-1.81q.3-6.35.72-12.71c.11-1.73.23-3.47.37-5.22.06-1,.14-2,.22-3,.05-.49.08-1,.12-1.46.08-1.12.17-2.22.28-3.34q.59-7,1.33-14c.09-.78.17-1.56.25-2.34.22-2,.45-4,.7-6.08.13-1.14.26-2.28.41-3.41.11-.89.23-1.77.33-2.66.35-2.57.68-5.15,1-7.72.25-1.73.5-3.46.76-5.19.11-.78.23-1.54.35-2.31.15-1,.32-2,.47-3,.26-1.56.5-3.11.76-4.68.36-2.12.73-4.26,1.1-6.38.25-1.4.51-2.81.76-4.21,0-.08,0-.16,0-.22.17-1,.34-1.9.53-2.85.15-.79.3-1.58.46-2.37a3.1,3.1,0,0,1,.08-.42c0-.09,0-.18,0-.26.29-1.52.6-3,.91-4.55.1-.52.21-1,.32-1.57.38-1.87.78-3.73,1.18-5.6l0-.17c0-.1,0-.19.07-.28s0,0,0-.07c.45-2.05.9-4.09,1.37-6.14.05-.17.08-.36.12-.53l.18-.76c.14-.58.27-1.17.4-1.76.09-.36.17-.72.26-1.07.28-1.2.57-2.4.86-3.59.58-2.4,1.18-4.78,1.79-7.18.25-1,.49-1.92.75-2.88.12-.45.25-.91.37-1.38.25-1,.52-1.95.79-2.92.21-.81.42-1.61.65-2.42l.48-1.74c.61-2.14,1.21-4.28,1.85-6.42.44-1.54.91-3.09,1.37-4.64.55-1.85,1.12-3.69,1.7-5.55.09-.24.16-.48.24-.74.39-1.19.75-2.38,1.14-3.58.29-.9.59-1.82.9-2.73q.91-2.82,1.89-5.66,1.2-3.51,2.45-7c.2-.59.41-1.16.62-1.74.36-1,.72-2,1.1-3,.22-.6.44-1.21.68-1.82q1.88-5.05,3.87-10.1a.42.42,0,0,0,0-.12q2.09-5.25,4.3-10.51c1-2.35,2-4.7,3-7.05l1.45-3.27c.49-1.09,1-2.17,1.48-3.25l.05-.1c.41-.92.85-1.84,1.26-2.76l.14-.31c.34-.7.66-1.4,1-2.12,0-.12.11-.23.16-.35.21-.46.44-.92.65-1.36.61-1.27,1.24-2.55,1.85-3.84q1.36-2.82,2.78-5.65,1.11-2.2,2.24-4.41c.51-1,1-2,1.53-3l1.56-3a.7.7,0,0,0,.09-.17c1-1.91,2-3.82,3.11-5.75.36-.63.72-1.27,1.06-1.92l.57-1c.13-.25.28-.5.41-.75l1.45-2.57,1.55-2.7c.17-.29.34-.58.5-.88.26-.46.53-.9.79-1.36s.71-1.19,1.05-1.79c.63-1,1.25-2.11,1.87-3.16.45-.73.9-1.48,1.34-2.23s.87-1.41,1.31-2.13q2.19-3.55,4.43-7.1l2.27-3.53,2.32-3.53c.11-.18.24-.35.34-.52.47-.69.92-1.39,1.4-2.09.12-.19.26-.37.38-.56l2.85-4.2c.36-.51.71-1,1.06-1.54.22-.3.42-.59.63-.89,1.12-1.6,2.25-3.21,3.39-4.8.14-.22.3-.42.44-.63l1.61-2.2q3.07-4.26,6.28-8.48c.88-1.14,1.76-2.29,2.66-3.44a3.19,3.19,0,0,1,.23-.32c.92-1.21,1.87-2.41,2.82-3.6l.81-1,2.22-2.77,2.92-3.59,1.62-2q.29-.33.54-.66c.32-.37.64-.75.95-1.13.94-1.1,1.86-2.22,2.8-3.31l.69-.81,2-2.34c1.38-1.6,2.76-3.17,4.17-4.75.29-.33.59-.65.86-1,.71-.77,1.4-1.55,2.09-2.32.86-1,1.73-1.89,2.6-2.83.11-.12.22-.23.32-.36.72-.78,1.44-1.56,2.17-2.33.2-.23.42-.45.62-.66l1.9-2,2.55-2.69q1.27-1.3,2.52-2.61a.1.1,0,0,0,.07,0l2.49-2.53c.91-.92,1.82-1.85,2.76-2.78l2.66-2.63.14-.14,1.28-1.24,4-3.86q3.39-3.24,6.89-6.45c2.34-2.14,4.68-4.27,7.07-6.39l.08-.06q5.78-5.11,11.77-10.13c38.36,52.56,93.89,121.82,163,189.42,70.31,68.77,154.68,135.82,249.38,181.85,41.07,20,84.09,36,128.74,46.47a520.27,520.27,0,0,0,51.29,9.43c.12,0,.2,0,.3,0l.06,0q22,2.91,44.51,3.86v0c7.3.31,14.61.45,22,.42,4.16,0,8.33-.07,12.52-.18,2.87-.08,5.76-.19,8.65-.33a483.26,483.26,0,0,0,56-5.89c3.41-.54,6.84-1.15,10.27-1.78l2.94-.56.48-.09,6.75-1.3q13.41-2.58,27.18-5.2l1.16-.22c4.15-.79,8.28-1.6,12.48-2.38h.06l4.87-.92c25.32-4.75,51.4-9.5,78.07-14.13l8.72-1.51,17.55-3c58.91-9.84,120.4-18.79,182.85-25.31,39.28-4.12,78.94-7.27,118.58-9.09,242.46-11.11,484.2,27.73,633.54,203.46q3.6,4.24,7.14,8.59c2.54,3.13,5.07,6.31,7.55,9.54a530.73,530.73,0,0,1,45.35,69.37c.6,1.09,1.19,2.16,1.77,3.25q6.22,11.5,12.07,23.59c.48,1,.94,2,1.42,3h0c3,6.41,6,12.87,8.87,19.49C3400.32,1852.63,3401.15,1854.57,3402,1856.55Z"/><path class="cls-5" d="M3363.08,1957.16c-.3.67-.6,1.33-.91,2-.82,1.84-1.65,3.67-2.5,5.51-1.06,2.32-2.14,4.64-3.22,6.94-.09.17-.16.35-.24.53-1.08,2.27-2.15,4.55-3.25,6.82h0c-.67,1.4-1.33,2.8-2,4.19a1,1,0,0,1-.08.21l-1.78,3.64q-3.49,7.11-7.1,14.19-1.2,2.37-2.44,4.72t-2.35,4.54c-1,2-2.08,4-3.14,6l-.48.89q-1.56,2.92-3.16,5.85a.65.65,0,0,1-.09.16c0,.09-.1.19-.14.28a2.27,2.27,0,0,1-.19.34,1.3,1.3,0,0,1-.14.26c-.54,1-1.09,2-1.62,3l-1.65,3a1,1,0,0,1-.11.2l-.1.19c-.08.15-.16.27-.23.4-1.24,2.24-2.48,4.47-3.74,6.7-.09.15-.18.29-.26.45-.4.69-.78,1.39-1.19,2.08-1,1.73-2,3.47-3,5.18l-1.26,2.17a1.75,1.75,0,0,1-.18.29c-.08.14-.16.3-.25.43-.82,1.43-1.66,2.85-2.49,4.27-1.58,2.68-3.16,5.35-4.77,8l-2.39,3.94-.69,1.14-.69,1.12-.45.73-.45.72c-.09.17-.19.33-.29.49s-.2.33-.32.49c-.2.34-.41.66-.61,1l-2,3.2c-.1.15-.19.31-.3.47l-1.86,3c-.59.95-1.2,1.9-1.79,2.83l-.49.77c-.06.12-.14.23-.2.33-1.1,1.72-2.2,3.44-3.32,5.17-.42.66-.86,1.33-1.29,2-.57.88-1.15,1.76-1.73,2.63q-1.38,2.16-2.82,4.3c-.63.95-1.26,1.91-1.91,2.86-.24.36-.47.71-.72,1.07a.85.85,0,0,0-.13.22c-.06.07-.1.15-.15.21l-.29.43c-.38.58-.76,1.15-1.15,1.71-.09.15-.19.28-.27.42l-2.12,3.12c-.6.89-1.21,1.77-1.82,2.65l-.48.73q-3.24,4.71-6.56,9.4c-.45.65-.91,1.31-1.37,1.94s-1.11,1.57-1.68,2.36q-2.41,3.41-4.88,6.78h0c-.29.39-.57.79-.86,1.17-.87,1.18-1.72,2.37-2.59,3.55-.44.59-.87,1.18-1.31,1.76a1.1,1.1,0,0,1-.11.14.44.44,0,0,1-.1.15c-1,1.39-2.08,2.81-3.13,4.2l-1.83,2.44h0l0,.06c-.36.47-.72.93-1.07,1.4-.09.12-.19.26-.29.38q-1.86,2.46-3.75,4.92c-.27.34-.52.69-.79,1s-.52.68-.79,1a3.65,3.65,0,0,1-.26.32,3.33,3.33,0,0,1-.24.32c-.35.47-.72.94-1.09,1.41l-1.1,1.39c-.37.5-.75,1-1.14,1.47q-4.62,5.91-9.36,11.74-5.1,6.32-10.34,12.54c-.12.16-.27.32-.4.48s-.35.41-.53.62c-2,2.42-4.08,4.82-6.13,7.22l-.32.37c-.45.51-.88,1-1.33,1.54q-6.58,7.6-13.35,15.1l-.87,1h0c-1.2,1.35-2.43,2.69-3.64,4l-.22.23q-7.24,7.9-14.72,15.69l-1.45,1.49c-1.38,1.44-2.79,2.89-4.19,4.33-1,1-2,2-3,3h0l-1,1-.21.22-.21.2-.19.2a1,1,0,0,0-.21.21c-.41.41-.82.81-1.21,1.21v0l-.1.08-.09.09c-.73.75-1.47,1.49-2.22,2.21q-5,5-10,9.86l-.38.38-2.56,2.46-2.13,2-1,.93c-.18.16-.34.33-.5.47-.88.85-1.76,1.68-2.65,2.51q-2.59,2.44-5.22,4.87-8.22,7.62-16.67,15.1c-.36.3-.69.61-1,.9-2.07,1.83-4.15,3.66-6.24,5.47-.54.45-1.08.92-1.61,1.38l-1.57,1.35h0l-.07,0-.06.05-2.63,2.25-4.68,4-4.63,3.86q-12.57,10.42-25.62,20.51l-4.84,3.7q-7.09,5.4-14.3,10.69c-1.2.89-2.42,1.77-3.63,2.65-.71.52-1.4,1-2.11,1.53q-6.46,4.68-13.05,9.26l-2.89,2q-5.39,3.72-10.83,7.39c-4.71,3.15-9.44,6.3-14.24,9.39-65.32,42.28-130.49,77.2-195.17,105.37-2.68,1.18-5.36,2.33-8,3.47-290.08,123.89-570,112.42-809.61,22a1155.11,1155.11,0,0,1-189.43-92.29,1211.79,1211.79,0,0,1-111.51-76.29q-44.7-34.39-85.54-72.26-26.4-24.45-51-50.13a1191.3,1191.3,0,0,1-96.24-113.47c-49.72-66.7-90.83-136.83-122-207.86a1.37,1.37,0,0,0-.07-.16,1.77,1.77,0,0,0-.06-.17c-.16-.4-.45-1.12-.86-2.17l-.19-.5c-1.9-4.88-5.91-15.57-11-31-.26-.84-.54-1.69-.82-2.56-5.56-17.29-12.26-40.11-18.72-67.16-.25-1.07-.51-2.15-.76-3.24q-1.25-5.25-2.46-10.72c-.21-.91-.41-1.82-.62-2.74-.3-1.44-.62-2.89-.94-4.35a2.61,2.61,0,0,0-.06-.27c-.53-2.48-1.06-5-1.59-7.54-.68-3.33-1.36-6.69-2-10.1-.3-1.53-.61-3.07-.9-4.62q-.33-1.74-.66-3.51-.63-3.37-1.23-6.81c-.23-1.27-.47-2.56-.68-3.84-.29-1.6-.56-3.21-.84-4.83-1.44-8.63-2.82-17.49-4.08-26.57-.07-.6-.16-1.22-.24-1.82s-.15-1-.22-1.57c-.09-.74-.2-1.46-.29-2.18s-.19-1.43-.28-2.13c0-.28-.08-.57-.11-.86-.23-1.78-.46-3.59-.68-5.4-.1-.79-.19-1.59-.29-2.4-.29-2.39-.57-4.8-.84-7.19,0-.25,0-.48-.08-.72-.16-1.53-.33-3.06-.49-4.61,0-.23,0-.47-.08-.7s-.06-.57-.08-.86c-.07-.69-.15-1.37-.23-2.06s-.11-1.15-.16-1.74c0-.24,0-.47-.07-.7-.06-.56-.11-1.11-.17-1.65s-.1-1.18-.15-1.78c-.12-1.11-.22-2.22-.32-3.34a1.23,1.23,0,0,0,0-.19c-.07-.72-.12-1.45-.19-2.17,0-.57-.1-1.14-.15-1.71h0c0-.19,0-.38-.06-.57-.12-1.55-.26-3.1-.38-4.66s-.24-3.13-.35-4.7a1,1,0,0,1,0-.22c0-.27,0-.55-.05-.82-.09-1.22-.17-2.45-.26-3.69s-.16-2.28-.22-3.44l-.25-4c0-.13,0-.28,0-.42-.07-1.17-.13-2.33-.2-3.5s-.11-2.19-.17-3.28c0-.58,0-1.15-.08-1.73l-.12-2.3h0c0-1-.08-1.89-.12-2.84s-.06-1.63-.09-2.46c0-.11,0-.23,0-.37h0c0-.88-.06-1.75-.09-2.64s-.08-2-.1-3c0-1.27-.08-2.55-.1-3.84,0-.26,0-.54,0-.82l0-1.07c0-.95,0-1.9,0-2.84,0-.38,0-.76,0-1.13,0-.6,0-1.19-.05-1.79s0-1.33,0-2c0-1.4,0-2.81,0-4.22,0-1,0-2,0-3.06q0-6.64.07-13.35c0-.21,0-.42,0-.63.06-4.15.16-8.3.29-12.48.06-1.71.11-3.43.18-5.15,0-1.39.11-2.79.19-4.19,0-.6,0-1.2.07-1.81q.3-6.35.72-12.71c.11-1.73.23-3.47.37-5.22.06-1,.14-2,.22-3,.05-.49.08-1,.12-1.46.08-1.12.17-2.22.28-3.34q.59-7,1.33-14c.09-.78.17-1.56.25-2.34.22-2,.45-4,.7-6.08.13-1.14.26-2.28.41-3.41.11-.89.23-1.77.33-2.66.35-2.57.68-5.15,1-7.72.25-1.73.5-3.46.76-5.19.11-.78.23-1.54.35-2.31.15-1,.32-2,.47-3,.26-1.56.5-3.11.76-4.68.36-2.12.73-4.26,1.1-6.38.25-1.4.51-2.81.76-4.21,0-.08,0-.16,0-.22.17-1,.34-1.9.53-2.85.15-.79.3-1.58.46-2.37a3.1,3.1,0,0,1,.08-.42c0-.09,0-.18,0-.26.29-1.52.6-3,.91-4.55,0,0,11.32,60.81,60.93,150,43,77.25,114.67,175.81,232.6,274.57q19.26,16.13,40.2,32.25a1361.54,1361.54,0,0,0,125.07,85.28q13.74,8.32,27.82,15.77c67.91,36,141.16,57.21,218.19,67.66q23.63,3.21,47.72,5.11,30.07,2.4,60.81,2.93,19.11.34,38.46,0c132.12-2,271.72-25.61,412.12-53,74.6-14.58,149.43-30.24,223.49-44.29,150.67-28.59,298.08-50.55,433.81-43.32q3.47.17,6.89.39h0q5.7.36,11.36.77a748.29,748.29,0,0,1,115.43,17.14Q3359.33,1956.22,3363.08,1957.16Z"/><path class="cls-6" d="M2533,375.12c-330.11-62.35-508.5,211.69-508.5,211.69"/><path class="cls-6" d="M2584.53,391.29s114.53,23.4,156.11,41"/><path class="cls-6" d="M1268.82,1780.67s-146.85-203,89.78-613.3"/><path class="cls-2" d="M1249.79,724.28c-47.86,199.79,165.28,360.51,344.15,259.48,132.84-75,277.7-205.44,278.76-417.68,2-392.5-542.95-157.24-620.66,149.09Q1250.87,719.76,1249.79,724.28Z"/><path d="M2660,1583.36c1.52,59.84-4.43,123.25-18.71,188s-35.54,124.78-62.05,178.3c-26.73,53.85-58.74,101.42-94.24,140.43-35.95,39.41-75.44,70.12-116.68,90-41.76,20-85.42,28.74-128.78,23.44a203.4,203.4,0,0,1-53.9-14.31,220.13,220.13,0,0,1-63.51-40.9c-34.26-31.16-62.34-73.73-83-125.12-20.82-51.79-33.87-112.34-37.7-178.29-3.88-66.3,1.65-137.7,17.74-210.69s41.11-140.1,72.53-198.76c31.19-58.09,68.49-107.54,109.19-145.9,40.34-37.82,83.74-64.75,127.9-78.5,24.84-7.78,50-11.48,74.85-10.51a203,203,0,0,1,54.92,9.68c41.57,13.42,77.5,39.71,107,75.53,29.08,35.26,52,79.85,68,130.7C2649.35,1466.66,2658.4,1523.26,2660,1583.36Z"/><path class="cls-7" d="M2402.24,1197.31l1.41.31c-1.43-.19-2.73-.36-3.88-.61a3.48,3.48,0,0,1,1.07.11A8.71,8.71,0,0,0,2402.24,1197.31Z"/><path class="cls-7" d="M2399.77,1197a28.72,28.72,0,0,1-3.07-.44c-1.06-.12-2.13-.24-3.06-.44l-5.4-.93C2392,1195.77,2395.89,1196.39,2399.77,1197Z"/><path class="cls-7" d="M2388.24,1195.2l5.4.93c-8.26-1.2-16-2.3-36-5.38,5.68.75,11.58,1.58,17.68,2.57C2379.52,1193.87,2383.88,1194.6,2388.24,1195.2Z"/><path class="cls-7" d="M2155.42,2181.08l3,1.37c-2.1-.94-4.08-1.88-6.18-2.93C2153.33,2180.12,2154.32,2180.57,2155.42,2181.08Z"/><path class="cls-7" d="M2158.4,2182.45l-50.66-14.69c11.9,2.39,23.6,5,38.14,8.64,1.1.49,2.18,1.1,3.17,1.56s2.07,1.05,3.17,1.56C2154.32,2180.57,2156.3,2181.51,2158.4,2182.45Z"/><path class="cls-8" d="M2316.67,1184.27l58.6,9c-6.1-1-12-1.82-17.68-2.57-.93-.21-1.88-.3-2.92-.53a3.45,3.45,0,0,1-1.07-.11C2344.18,1188.64,2332.2,1186.72,2316.67,1184.27Z"/><path class="cls-8" d="M2365.7,1195.34c2-.07,4-.08,6-.15s4,0,6.06.12C2373.75,1195.28,2369.62,1195.23,2365.7,1195.34Z"/><path class="cls-8" d="M2359.66,1195.7c-2.08,0-4.06.19-6,.37C2355.6,1195.89,2357.7,1195.76,2359.66,1195.7Z"/><path class="cls-7" d="M2114.87,2156.43c-1.14-.87-2.3-1.72-3.44-2.59-1.65-1.34-3.22-2.54-4.73-4,1.33,1.15,2.65,2.3,4.13,3.36S2113.51,2155.39,2114.87,2156.43Z"/><path class="cls-7" d="M2101.18,2145.14c1.4,1.28,2.83,2.57,4.37,3.89C2104,2147.71,2102.56,2146.54,2101.18,2145.14Z"/><path class="cls-7" d="M2094.7,2139.19c2.09,2.06,4.34,4,6.48,5.95A64.69,64.69,0,0,1,2094.7,2139.19Z"/><path class="cls-8" d="M2281.63,1214.63l.11,0c-.79.3-1.47.65-2.27.95C2280.16,1215.28,2281,1215,2281.63,1214.63Z"/><path class="cls-7" d="M2267,1176.62l-17-2.52c1.9.18,3.79.45,5.67.75C2259,1175.45,2263,1176.09,2267,1176.62Z"/><path class="cls-7" d="M2055.31,2092.68c1.75,2.57,3.72,5.19,5.57,7.81C2059,2098,2057.14,2095.39,2055.31,2092.68Z"/><path class="cls-7" d="M2240.43,1236c-3.94,2.41-7.91,5-11.78,7.62C2232.52,1240.93,2236.49,1238.38,2240.43,1236Z"/><path class="cls-8" d="M2239,1172.39l-4.6-.66a1,1,0,0,0-.81-.17Z"/><path class="cls-8" d="M2029.42,2048.41c.68,1.36,1.46,2.76,2.13,4.12C2030.88,2051.17,2030.1,2049.77,2029.42,2048.41Z"/><path class="cls-7" d="M2027.49,2044.46c.34.67.68,1.36,1,1.92C2028.07,2045.68,2027.86,2045,2027.49,2044.46Z"/><path class="cls-7" d="M2017.12,2020.88c.87,2.14,1.74,4.26,2.6,6.4-2.31-5.5-4.61-11.12-6.64-16.79C2014.24,2014.05,2015.67,2017.52,2017.12,2020.88Z"/><path class="cls-8" d="M2177.51,1284.64c2.16-2.09,4.44-4.13,6.83-6.17-2.87,2.53-5.74,5-8.41,7.77A14.88,14.88,0,0,1,2177.51,1284.64Z"/><path class="cls-8" d="M2166.36,1295.44c3.14-3.21,6.35-6.16,9.57-9.2-4.6,4.33-9.11,8.8-13.66,13.41C2163.68,1298.24,2165,1296.82,2166.36,1295.44Z"/><path class="cls-8" d="M2155.44,1306.89c1.91-2,3.81-4,5.71-6-4.26,4.41-8.57,9.07-12.79,13.86C2150.66,1312,2153.06,1309.4,2155.44,1306.89Z"/><path class="cls-8" d="M2119.21,1350.37a27.41,27.41,0,0,1,1.84-2.28c-4.06,5.19-7.92,10.56-11.66,15.94C2112.61,1359.37,2115.91,1354.87,2119.21,1350.37Z"/><path class="cls-7" d="M1988.19,1921.43c.42,2.51,1,5.08,1.48,7.62C1989.14,1926.51,1988.59,1924.06,1988.19,1921.43Z"/><path class="cls-8" d="M2109.39,1364a.12.12,0,0,1-.14.09Z"/><path class="cls-8" d="M2109.25,1364.12c-4.11,5.91-8.11,11.94-12.13,18,.77-1.28,1.52-2.47,2.41-3.73C2102.65,1373.62,2105.89,1368.84,2109.25,1364.12Z"/><path class="cls-7" d="M1982,1880.75c.46,5.09,1.18,10.12,2,15.17-.65-3.68-1.13-7.57-1.64-11.31A34.12,34.12,0,0,1,1982,1880.75Z"/><path class="cls-8" d="M2071.68,1424.7c-2.78,4.85-5.47,9.87-8,14.88,1.45-2.72,2.81-5.58,4.24-8.19C2069.12,1429.12,2070.36,1426.83,2071.68,1424.7Z"/><path class="cls-8" d="M2059.41,1447.78c1.11-2.3,2.35-4.6,3.58-6.87-2.57,5-5.16,10.18-7.64,15.33C2056.71,1453.38,2058.05,1450.64,2059.41,1447.78Z"/><path class="cls-8" d="M2051.29,1464.73q-3.87,8.46-7.81,17.24Q2047.25,1473.15,2051.29,1464.73Z"/><path class="cls-7" d="M1977,1794c.1-3.76.07-7.54.29-11.27-.19,4.71-.23,9.33-.27,13.93C1977,1795.81,1977.05,1794.85,1977,1794Z"/><path class="cls-8" d="M1978.25,1755.72c-.23,3.82-.36,7.69-.48,11.56,0-2.8.13-5.55.28-8.44C1978.16,1757.77,1978.14,1756.79,1978.25,1755.72Z"/><path class="cls-8" d="M2025.9,1525.79c2.22-6.19,4.53-12.26,7-18.28-2.83,7.29-5.53,14.58-8.27,22C2025,1528.28,2025.5,1527.06,2025.9,1525.79Z"/><path class="cls-8" d="M2019.36,1544.43c1.73-5.08,3.44-10,5.23-14.91-2.12,5.76-4.14,11.63-6,17.53A22.07,22.07,0,0,1,2019.36,1544.43Z"/><path class="cls-7" d="M2010.64,1571.83c.53-1.83,1-3.66,1.7-5.47-.8,2.51-1.6,5-2.28,7.55C2010.22,1573.21,2010.49,1572.53,2010.64,1571.83Z"/><path class="cls-8" d="M1985.74,1684.25c.35-2.72.85-5.54,1.23-8.38l.28-1.26C1986.68,1677.76,1986.2,1681.05,1985.74,1684.25Z"/><path class="cls-7" d="M1989.68,1660.29c-.47,2.7-1,5.26-1.37,7.85C1988.64,1665.55,1989.21,1663,1989.68,1660.29Z"/><path class="cls-7" d="M1991.81,1649c-.58,2.65-1.06,5.35-1.53,8a13.08,13.08,0,0,1,.34-2.11C1990.94,1652.92,1991.38,1650.94,1991.81,1649Z"/><path class="cls-7" d="M2097.19,1150.61q46.77,7.22,93.57,14.31a1.72,1.72,0,0,1-.54.24c-3.44-.41-6.79-.65-10.25-.93s-6.88-.28-10.28-.32-6.94.06-10.4.27-6.88.31-10.36.64c-2.57-5.44-15.45-8.28-55.88-14.77a5.6,5.6,0,0,1,1.42.2,6.15,6.15,0,0,1,1.42.19C2096.35,1150.54,2096.84,1150.53,2097.19,1150.61Z"/><path class="cls-7" d="M1861.28,2096.38l-.81-.18a16,16,0,0,1-2.53-1.18A30.78,30.78,0,0,0,1861.28,2096.38Z"/><path class="cls-8" d="M2067.92,1148.17c-1.21,0-2.42-.06-3.64-.06C2065.5,1148.11,2066.71,1148.14,2067.92,1148.17Z"/><path class="cls-7" d="M1851.09,2091.83c15.16,4.67,32.52,10.33,50.89,16.44-12.24-3.55-28.34-8.31-40.7-11.89a30.78,30.78,0,0,1-3.34-1.36,23.33,23.33,0,0,1-2.67-1.18C1853.85,2093.15,1852.41,2092.48,1851.09,2091.83Z"/><path class="cls-7" d="M2082.49,1180.33c-2.28-12.29-18.28-20.33-57.14-28.9,4-.68,8.18-1.24,12.17-1.69,4.14-.54,8.23-.87,12.31-1.19s8.11-.39,12.15-.48c.72,0,1.58,0,2.3,0,1.22,0,2.43,0,3.64.06,2.08,0,4.12,0,6.29.18l.11,0,1.4.31c35,6.13,53,11.07,48.34,19.66-3.43.7-7,1.36-10.34,2.21-3.61.92-7,1.75-10.47,2.8s-6.92,2.14-10.43,3.17C2089.39,1177.71,2085.94,1179,2082.49,1180.33Z"/><path class="cls-7" d="M1851.09,2091.83c1.32.65,2.76,1.32,4.18,2a24,24,0,0,1-2.65-1.2A9.39,9.39,0,0,1,1851.09,2091.83Z"/><path class="cls-7" d="M1835,2083.06l-.46-.1c-1.08-.62-2-1.31-3.08-2A27.33,27.33,0,0,0,1835,2083.06Z"/><path class="cls-7" d="M2017.26,1214.61c-3.08-19.16-20.5-31.75-58.35-42.19,2.7-1.21,5.29-2.47,7.95-3.47,1.36-.68,2.81-1.19,4.15-1.75,4-1.68,8.13-3.2,12.22-4.62,1.45-.52,2.91-1,4.34-1.47,2.11-.75,4.22-1.5,6.42-2.1.52-.15.92-.3,1.43-.42,4.06-1.29,8.06-2.36,12.19-3.4l1.51.33c23.68,5.7,54.6,15.56,48.75,35.44-3.41,1.7-6.82,3.37-10.29,5.29-3.31,1.81-6.78,3.73-10.12,5.66s-6.73,4-10.12,6.18S2020.57,1212.3,2017.26,1214.61Z"/><path class="cls-7" d="M2039.12,2023.17c-20.82-51.79-33.87-112.34-37.7-178.29-3.88-66.3,1.65-137.7,17.74-210.69s41.11-140.1,72.53-198.76c31.19-58.09,68.49-107.54,109.19-145.9,40.34-37.82,83.74-64.75,127.9-78.5,24.84-7.78,50-11.48,74.85-10.51l0-2.9c-1.43-.19-2.73-.36-3.88-.61a28.72,28.72,0,0,1-3.07-.44c-2-.21-3.93-.37-5.95-.58s-4.3-.35-6.48-.45c-.23,0-.37,0-.59,0l-.12,0c-50.15-7-113.89-14.89-162.67-12.75-3.44.7-6.88,1.41-10.22,2.24s-6.84,1.77-10.34,2.71-6.77,2-10.19,3.22-6.86,2.39-10.28,3.58c43.84-4.07,93.33-2.78,155.58,4-2.93.59-5.7,1.07-8.54,1.77s-5.86,1.25-8.84,2.07l-.11,0c-64-6.58-121.82-5.45-163.13,3.08-3.29,1.72-6.7,3.39-10,5.23s-6.78,3.73-10.13,5.67-6.72,4-10,6.07-6.65,4.24-10,6.55c45.6-10.38,96.23-13.21,154.9-8.9-1.9.91-3.84,2-5.74,2.87-3.84,1.95-7.67,3.89-11.45,6.1-59.93-4.09-120.4,2.54-161.72,17.76-3.24,2.57-6.51,5.27-9.66,8s-6.45,5.52-9.54,8.5c-3.17,2.81-6.38,5.76-9.47,8.72s-6.2,6.07-9.34,9.25c45.72-16.44,95.61-23.07,152.62-20.6-.29.18-.59.46-.88.66-5.19,4.21-10.4,8.52-15.66,13.09-58.38-2.3-117.65,9.35-158.32,31-3,3.49-5.92,7-8.9,10.56s-5.74,7.27-8.61,10.89-5.78,7.49-8.58,11.37-5.58,7.65-8.29,11.67c44.38-22,93-32,148.57-31,1.29-1.42,2.43-2.76,3.71-4.17,2-2.34,4.11-4.64,6.19-6.86q-3.11,3.38-6.19,6.86c-8.41,9.46-16.66,19.31-24.56,29.73,1.89-2.5,3.78-5,5.65-7.38-57-.9-114.17,15.08-153,42.78-2.62,4.18-5.15,8.49-7.68,12.8s-5,8.74-7.42,13.2-4.88,8.9-7.23,13.49l-7,13.77c41.77-26.67,88.57-39.71,142.88-39.9,2.4-3.73,4.69-7.5,7.18-11.08.77-1.28,1.52-2.47,2.41-3.73,3.12-4.77,6.36-9.55,9.72-14.27l.14-.09c1.76-2.56,3.56-5.07,5.36-7.56q-2.73,3.77-5.36,7.56a.12.12,0,0,1-.14.09c-4.11,5.91-8.11,11.94-12.13,18-8.07,12.33-15.75,25.11-23.2,38.44.88-1.76,1.85-3.37,2.83-5.08-65.38.18-118.21,27.33-145.8,52.64-2.09,5-4.14,9.92-6.1,15s-4,9.94-5.89,15.12-3.81,10.11-5.57,15.33-3.63,10.39-5.39,15.59c37.61-30.39,83.2-46.24,135.48-47.15q3.76-8.82,7.81-17.24-3.87,8.46-7.81,17.24c-.25.57-.52,1.25-.76,1.79-3.23,7.44-6.36,15-9.38,22.64-.19.32-.3.79-.48,1.11-2.83,7.29-5.53,14.58-8.27,22-1,2.79-2,5.61-3,8.44,1-2.84,2-5.67,3-8.44.4-1.24.91-2.46,1.31-3.73,2.22-6.19,4.53-12.26,7-18.28-63.65,1.17-112.34,32.17-136.54,60.79-.77,3-1.58,6.09-2.36,9.08l-2.4,9.21c-.66,3-1.47,6.12-2.13,9.13-.82,3.12-1.5,6.25-2.19,9.38-.54,2.45-1.1,5-1.52,7.46s-1.1,5-1.55,7.57c-.54,2.42-1,4.9-1.52,7.44s-1,4.89-1.38,7.37c50.82-50.11,107.6-51.72,126.23-52.23-.73,2.61-1.44,5.24-2.1,7.93q-2.64,9.46-4.92,19c-1.33,4.94-2.43,9.92-3.53,14.91l1-4.51,1-4.53c.45-1.5.78-3,1.12-4.51-61,1.65-105.47,35.77-125.07,64.53-.6,5.48-1.31,10.9-1.91,16.38s-1.08,10.95-1.56,16.43c-.33,5.39-.79,10.78-1.13,16.17s-.56,10.83-.76,16.14c28.54-31.78,67.23-48.32,115-49.33-.1,1-.33,2-.41,3-.94,6.47-1.66,13-2.48,19.54q-.32,3-.61,6.06c-58.79.66-97.08,32.49-112.06,59.61.06,5.24.15,10.37.35,15.52s.54,10.22.75,15.37.68,10.14,1.16,15.11.84,10,1.33,15c23.4-28.89,58.51-43.56,104.32-43.29,0,6.67.06,13.51.3,20.14,0,2.19.1,4.52.22,6.73-56.5-.89-89.17,27.55-100,52.17.76,4.8,1.67,9.5,2.46,14.19s2,9.32,2.9,13.9,2.11,9.2,3.18,13.72,2.16,9,3.38,13.38c18.69-25.2,50.39-37.05,94.45-35.49-.4-2.27-.73-4.6-1-6.94q.48,3.46,1,6.94c1.07,8.39,2.54,16.6,4,24.73-50.88-2.69-81.16,19.34-88.67,42.37,1.38,4.2,2.88,8.43,4.44,12.41s3,8.23,4.63,12.1c1.67,4,3.37,7.92,5.06,11.83s3.53,7.72,5.25,11.49c9.92-14.11,32.68-30.15,85.29-26a12.92,12.92,0,0,1-.45-1.81c1.34,4.43,2.7,8.74,4.2,13s2.85,8.07,4.28,12c-.24-.53-.37-1.06-.62-1.59-48.87-4.57-75,12.8-78.61,31,2,3.49,4.06,7,6.14,10.24s4.25,6.66,6.45,9.93,4.41,6.46,6.66,9.5,4.58,6.26,6.86,9.19c6-8.42,24-21.73,77.28-15,3.25,6.2,6.82,12.1,10.29,17.85-46.6-6.63-68.79,4.66-69.66,18,2.47,2.62,5,5.25,7.65,7.78s5.22,5,7.85,7.43,5.41,4.73,8.21,6.92,5.46,4.5,8.28,6.58c3.33-4,16.87-12.47,70.12-2.91,4.08,4.68,8.44,9.15,12.82,13.52-43.73-8.53-64.08-3.41-62,3.49,1.94,1.17,3.9,2.22,5.72,3.33s3.8,2.08,5.76,3.1,4,2,5.82,2.88,4,1.85,6,2.65c25.49,7.44,52,9.52,77.82,15.7,4.89,3.15,9.86,6,15,8.77,1.1.49,2.18,1.1,3.17,1.56s2.07,1.05,3.17,1.56,2.1,1.05,3.2,1.56l3,1.37.22.05a195,195,0,0,0,25.79,9.46l1.23-2.77a220.13,220.13,0,0,1-63.51-40.9C2087.87,2117.13,2059.79,2074.56,2039.12,2023.17Zm332.58-828c2,0,4,0,6.06.12-4,0-8.14-.08-12.06,0C2367.67,1195.27,2369.74,1195.26,2371.7,1195.19Zm-90.07,19.44.11,0c-.79.3-1.47.65-2.27.95C2280.16,1215.28,2281,1215,2281.63,1214.63Zm-115.27,80.81c3.14-3.2,6.35-6.16,9.57-9.2a15.76,15.76,0,0,1,1.57-1.6c2.17-2.09,4.45-4.13,6.84-6.17-2.87,2.53-5.74,5-8.41,7.77-4.6,4.33-9.11,8.8-13.66,13.41C2163.68,1298.25,2165,1296.82,2166.36,1295.44Zm-10.92,11.45c1.91-2,3.81-4,5.71-6-2,2.11-4.08,4.28-6.12,6.48C2155.17,1307.19,2155.31,1307,2155.44,1306.89Zm-36.23,43.48a27.41,27.41,0,0,1,1.84-2.28q-2.88,3.69-5.64,7.49Q2117.3,1353,2119.21,1350.37Zm-128.59,304.54c.32-2,.76-4,1.19-5.94-.58,2.65-1.06,5.35-1.53,8A13.08,13.08,0,0,1,1990.62,1654.91Zm-3.65,21,.28-1.26c-.57,3.15-1,6.44-1.51,9.64C1986.09,1681.53,1986.59,1678.71,1987,1675.87Zm23.09-102c.16-.7.43-1.38.58-2.08.53-1.83,1-3.66,1.7-5.47C2011.54,1568.87,2010.74,1571.38,2010.06,1573.91Zm8.48-26.86a22.07,22.07,0,0,1,.82-2.62c.67-2,1.33-3.89,2-5.82C2020.4,1541.41,2019.45,1544.23,2018.54,1547.05Zm-40.49,211.79c.11-1.07.09-2,.2-3.12-.23,3.82-.36,7.69-.48,11.56C1977.78,1764.48,1977.9,1761.73,1978.05,1758.84ZM1977,1794c.1-3.76.07-7.54.29-11.27-.19,4.71-.23,9.33-.27,13.93C1977,1795.81,1977.05,1794.85,1977,1794Zm90.9-362.62c1.23-2.27,2.47-4.56,3.79-6.69-2.78,4.85-5.47,9.87-8,14.88C2065.1,1436.86,2066.46,1434,2067.89,1431.39Zm-12.54,24.85c1.36-2.86,2.7-5.6,4.06-8.46,1.11-2.3,2.35-4.59,3.58-6.87C2060.42,1445.93,2057.83,1451.09,2055.35,1456.24Zm-73,428.37a34.12,34.12,0,0,1-.37-3.86c.22,2.39.5,4.76.81,7.13C1982.62,1886.79,1982.47,1885.69,1982.32,1884.61Zm5.87,36.82c.42,2.51,1,5.08,1.48,7.62C1989.14,1926.51,1988.59,1924.05,1988.19,1921.43Zm27.89,97c.35.83.68,1.67,1,2.49.87,2.14,1.74,4.26,2.6,6.4Q2017.88,2022.88,2016.08,2018.39Zm39.23,74.29c1.75,2.57,3.72,5.19,5.57,7.81C2059,2098,2057.14,2095.39,2055.31,2092.68Zm45.87,52.46a64.69,64.69,0,0,1-6.48-5.95c2.09,2.06,4.34,4,6.48,5.95,1.4,1.28,2.83,2.57,4.37,3.89C2104,2147.71,2102.56,2146.54,2101.18,2145.14Zm10.25,8.7c-1.65-1.34-3.22-2.54-4.73-4,1.33,1.15,2.65,2.3,4.13,3.36s2.68,2.16,4,3.2C2113.73,2155.56,2112.57,2154.71,2111.43,2153.84Z"/><path class="cls-7" d="M2316.67,1184.27c-4.36-.58-9.05-1.38-14.11-2.14-2.59-.45-5.32-.79-7.88-1.24s-5.21-.67-7.82-1c-3.32-.38-6.76-.78-10.15-.91s-6.72-.39-10.13-.41-6.91-.07-10.22.06c-3.46.21-6.89.31-10.37.63,32.54,1.45,64.74,4.91,107.61,10.83C2344.18,1188.64,2332.2,1186.72,2316.67,1184.27Z"/><path class="cls-7" d="M1796.4,2053.49c29.86,10.83,29.86,10.83,142.35,60.71,1.73,1,3.58,2,5.3,3,1.88.88,3.72,1.91,5.47,2.77s3.74,1.8,5.5,2.69,3.74,1.77,5.63,2.57l-21.27-6.17c-34.82-12-69.27-24.63-104.36-36a27.33,27.33,0,0,1-3.54-2.14c-2.49-1.4-4.93-3-7.37-4.67-3.38-2.31-6.76-4.65-10.09-7.21s-6.66-5.1-10-7.78-6.44-5.55-9.58-8.43A12.83,12.83,0,0,0,1796.4,2053.49Z"/><path class="cls-7" d="M1994,1159c-2.2.6-4.31,1.35-6.42,2.1A56.61,56.61,0,0,1,1994,1159Z"/><path d="M1976.82,2097.16c2.47,2.62,5,5.25,7.65,7.78s5.22,5,7.85,7.43,5.41,4.73,8.21,6.92,5.46,4.5,8.28,6.58c3.33-4,16.87-12.47,70.12-2.91,4.08,4.68,8.44,9.15,12.82,13.52-43.73-8.53-64.08-3.41-62,3.49,1.94,1.17,3.9,2.22,5.72,3.33s3.8,2.08,5.76,3.1,4,2,5.82,2.88,4,1.85,6,2.65c25.49,7.44,52,9.52,77.82,15.7,4.89,3.15,9.86,6,15,8.77-14.54-3.68-26.24-6.25-38.14-8.64l50.66,14.69.22.05a195,195,0,0,0,25.79,9.46l-148.31-43,.49-1.72c-35.71-15.67-67.19-41.22-93.73-74.8-26.81-34-48.52-76.28-63.91-124.56-15.54-48.7-24.65-103.39-26.47-161.94a754.34,754.34,0,0,1,17.82-184.54c14.84-67.3,37.66-129.42,66.19-184.32,28.46-54.56,62.48-101.81,99.88-139.57,37.06-37.33,77.21-65.46,118.57-82.5,40.26-16.55,81.26-22.6,121.49-16.89.59.13,1.18.14,1.77.27l16.48,2.54c-2.61-.34-5.21-.67-7.82-1-3.32-.38-6.76-.78-10.15-.91s-6.72-.39-10.13-.41-6.91-.07-10.22.06c-3.46.21-6.89.31-10.37.63,32.54,1.45,64.74,4.91,107.61,10.83a3.45,3.45,0,0,0,1.07.11c1,.23,2,.32,2.92.53,20,3.08,27.79,4.18,36,5.38.93.2,2,.32,3.06.44-2-.21-3.93-.37-5.95-.58s-4.3-.35-6.48-.45c-.23,0-.37,0-.59,0l-.12,0c-50.15-7-113.89-14.89-162.67-12.75-3.44.7-6.88,1.41-10.22,2.24s-6.84,1.77-10.34,2.71-6.77,2-10.19,3.22-6.86,2.39-10.28,3.58c43.84-4.07,93.32-2.78,155.58,4-2.93.59-5.7,1.07-8.54,1.77s-5.86,1.25-8.84,2.07l-.11,0c-64-6.58-121.82-5.45-163.13,3.08-3.29,1.72-6.7,3.39-10,5.23s-6.78,3.73-10.13,5.67-6.72,4-10,6.07-6.65,4.24-10,6.55c45.6-10.38,96.23-13.21,154.9-8.9-1.9.91-3.84,2-5.74,2.87-3.84,1.95-7.67,3.89-11.45,6.1-59.93-4.09-120.4,2.54-161.72,17.76-3.24,2.57-6.51,5.27-9.66,8s-6.45,5.52-9.54,8.5c-3.17,2.81-6.38,5.76-9.47,8.72s-6.2,6.07-9.34,9.25c45.72-16.44,95.61-23.07,152.62-20.6-.29.18-.59.46-.88.66-5.19,4.21-10.4,8.52-15.66,13.09-58.38-2.3-117.65,9.35-158.32,31-3,3.49-5.92,7-8.9,10.56s-5.74,7.27-8.61,10.89-5.78,7.49-8.58,11.37-5.58,7.65-8.29,11.67c44.38-22,93-32,148.57-31,1.29-1.42,2.43-2.76,3.71-4.17-8.41,9.46-16.66,19.31-24.56,29.73,1.89-2.5,3.78-5,5.65-7.38-57-.9-114.17,15.08-153,42.78-2.62,4.18-5.15,8.49-7.68,12.8s-5,8.74-7.42,13.2-4.88,8.9-7.23,13.49l-7,13.77c41.77-26.67,88.57-39.71,142.88-39.9,2.4-3.73,4.69-7.5,7.18-11.08-8.07,12.33-15.75,25.11-23.2,38.44.88-1.76,1.85-3.37,2.83-5.08-65.38.18-118.21,27.33-145.8,52.64-2.09,5-4.14,9.92-6.1,15s-4,9.94-5.89,15.12-3.81,10.11-5.57,15.33-3.63,10.39-5.39,15.59c37.61-30.39,83.2-46.24,135.48-47.15-.25.57-.52,1.25-.77,1.79-3.22,7.44-6.35,15-9.37,22.64-.19.32-.3.79-.48,1.11-63.65,1.17-112.34,32.17-136.54,60.79-.77,3-1.58,6.09-2.36,9.08l-2.4,9.21c-.66,3-1.47,6.12-2.13,9.13-.82,3.12-1.5,6.25-2.19,9.38-.54,2.45-1.1,5-1.52,7.46s-1.1,5-1.55,7.57c-.54,2.42-1,4.9-1.52,7.44s-1,4.89-1.38,7.37c50.84-50.13,107.64-51.72,126.24-52.23.56-1.94,1.08-3.78,1.61-5.61-1.35,4.46-2.58,8.92-3.72,13.54q-2.64,9.46-4.92,19c-1.33,4.94-2.43,9.92-3.53,14.91l1-4.51,1-4.53c.45-1.5.78-3,1.12-4.51-61,1.65-105.47,35.77-125.07,64.53-.6,5.48-1.31,10.9-1.91,16.38s-1.08,10.95-1.56,16.43c-.33,5.39-.79,10.78-1.13,16.17s-.56,10.83-.76,16.14c28.54-31.78,67.23-48.32,115-49.33-.1,1-.33,2-.41,3-.94,6.47-1.66,13-2.48,19.54q-.32,3-.61,6.06c-58.79.66-97.08,32.49-112.06,59.61.06,5.24.15,10.37.35,15.52s.54,10.22.75,15.37.68,10.13,1.16,15.11.84,10,1.33,15c23.4-28.89,58.51-43.56,104.32-43.29,0,6.67.06,13.51.3,20.14,0,2.19.1,4.52.22,6.73-56.5-.89-89.17,27.55-100,52.17.76,4.8,1.67,9.5,2.46,14.19s2,9.32,2.9,13.9,2.11,9.2,3.18,13.72,2.16,9,3.38,13.38c18.69-25.2,50.39-37.05,94.45-35.49,1.07,8.39,2.54,16.6,4,24.73-50.88-2.69-81.16,19.34-88.67,42.37,1.38,4.2,2.88,8.43,4.44,12.41s3,8.23,4.63,12.1c1.67,4,3.37,7.92,5.06,11.83s3.53,7.72,5.25,11.49c9.92-14.11,32.68-30.15,85.29-26a12.92,12.92,0,0,1-.45-1.81c1.34,4.43,2.7,8.74,4.2,13s2.85,8.07,4.28,12c-.24-.53-.37-1.06-.62-1.59-48.87-4.57-75,12.8-78.61,31,2,3.49,4.06,7,6.14,10.24s4.25,6.66,6.45,9.93,4.41,6.46,6.66,9.5,4.58,6.26,6.86,9.19c6-8.43,24-21.73,77.28-15,3.25,6.2,6.82,12.1,10.29,17.85C1999.89,2072.55,1977.69,2083.84,1976.82,2097.16Z"/><path class="cls-8" d="M1983.23,1162.58c-4.09,1.42-8.2,2.94-12.22,4.62-1.34.56-2.79,1.07-4.15,1.75a51.41,51.41,0,0,1,4.72-2.12C1975.46,1165.26,1979.28,1163.92,1983.23,1162.58Z"/><path class="cls-7" d="M1955.43,1266.57c-4.69-25.61-23.59-42.56-60.86-55a6.64,6.64,0,0,1,1-.87c3.38-2.65,7-5.16,10.45-7.67.59-.47,1.27-.82,1.87-1.3,2.29-1.57,4.58-3.13,7-4.55,2.91-2.14,5.86-3.94,8.8-5.71a17.59,17.59,0,0,1,2.67-1.6c4.79-3,9.53-5.69,14.36-8.29a5.33,5.33,0,0,1,1-.5,5.56,5.56,0,0,0,1.37.42c37,11.19,54,28.21,50.65,50.59-3.36,2.54-6.51,5.24-9.78,7.94s-6.47,5.64-9.65,8.45-6.41,5.88-9.5,8.86S1958.46,1263.33,1955.43,1266.57Z"/><path class="cls-7" d="M1942.86,2072.4c26.54,33.58,58,59.13,93.73,74.8l-21.85-6.27c-35.72-15.67-67.31-41.24-93.85-74.85-26.84-33.88-48.57-76-64-124.08-15.57-48.59-24.82-103.19-26.68-161.51a751.19,751.19,0,0,1,17.71-184.06c14.79-67.08,37.58-129.09,66.06-183.76,28.43-54.45,62.39-101.45,99.89-139.07,36.92-37.22,77.16-65.23,118.49-82.14,38.27-15.77,77.37-22,115.71-17.69.7.16,1.41.2,2,.33l17,2.52c3.16.56,6.46,1.05,9.41,1.46-40.23-5.71-81.23.34-121.49,16.89-41.36,17-81.51,45.17-118.57,82.5-37.4,37.76-71.42,85-99.88,139.57-28.53,54.9-51.35,117-66.19,184.32a754.34,754.34,0,0,0-17.82,184.54c1.82,58.55,10.93,113.24,26.47,161.94C1894.34,1996.12,1916.05,2038.38,1942.86,2072.4Z"/><path d="M2115.56,1188.71c39.3-16,79.48-22.25,118.84-17l4.6.66,9.06,1.38c-38.34-4.32-77.44,1.92-115.71,17.69-41.33,16.91-81.57,44.92-118.49,82.14-37.5,37.62-71.46,84.62-99.89,139.07-28.48,54.67-51.27,116.68-66.06,183.76a751.19,751.19,0,0,0-17.71,184.06c1.86,58.32,11.11,112.92,26.68,161.51,15.44,48,37.17,90.2,64,124.08,26.54,33.61,58.13,59.18,93.85,74.85l21.85,6.27-.49,1.72-59.82-17.32.5-1.72,21.63,6.22c-35.73-15.65-67.34-41.13-93.91-74.6-27-33.91-48.71-76-64.15-124-15.71-48.49-24.87-102.93-26.76-161.14-1.95-58.48,3.58-120.52,17.49-183.63,14.76-66.94,37.51-128.73,66.08-183.26,28.4-54.33,62.35-101.24,99.7-138.75C2034,1233.51,2074.23,1205.64,2115.56,1188.71Z"/><path class="cls-7" d="M1933.55,1290.21c-3,3.48-5.91,7-8.9,10.58s-5.86,7.22-8.72,10.84-5.79,7.49-8.59,11.37-5.58,7.65-8.29,11.69c-9.15-40.73-39.57-57.27-65-67,.62-.6,1.14-1.34,1.76-1.94,2.58-2.83,5.14-5.67,7.67-8.29a17.35,17.35,0,0,1,1.26-1.29c3-3.12,6.14-6.32,9.11-9.31,4.21-4.18,8.5-8.22,12.78-12.15,3.77-3.3,7.54-6.61,11.28-9.8l.12,0c.46.1.9.32,1.48.44C1925.89,1242.16,1934.51,1269.86,1933.55,1290.21Z"/><path class="cls-7" d="M1765.15,2021.41a18.42,18.42,0,0,1-1.46-1.65c-1.88-2.49-3.8-4.86-5.65-7.45C1760.38,2015.48,1762.64,2018.43,1765.15,2021.41Z"/><path class="cls-7" d="M1941.68,1181.05a5.33,5.33,0,0,0-1,.5,3.77,3.77,0,0,1,.84-.52Z"/><path class="cls-7" d="M1940.72,1181.55c-4.83,2.6-9.57,5.33-14.36,8.29a32.61,32.61,0,0,1,3.25-2.09C1933.25,1185.63,1937,1183.53,1940.72,1181.55Z"/><path class="cls-7" d="M1752,2003.91c1.2,1.72,2.4,3.43,3.63,5.06l-.12,0C1754.27,2007.32,1753.06,2005.6,1752,2003.91Z"/><path class="cls-7" d="M1755.61,2009c-1.23-1.63-2.43-3.34-3.63-5.06a5.87,5.87,0,0,1-1.2-1.73,52.92,52.92,0,0,1-2.92-4.43,9.16,9.16,0,0,0,1.68.64c14.41,5.84,58.32,23.55,135.53,73.44,2.58,2.63,5.17,5.27,7.77,7.79s5.36,4.94,8.11,7.38l8.32,6.94c2.8,2.21,5.6,4.39,8.43,6.49-52-25.22-89.71-43.4-136.53-60.64-3.08-3.12-6-6.43-8.92-9.76-2.44-2.72-4.73-5.56-7.1-8.62s-4.77-5.93-7.11-9.1A32,32,0,0,1,1755.61,2009Z"/><path class="cls-7" d="M1747.86,1997.75a52.92,52.92,0,0,0,2.92,4.43,52.32,52.32,0,0,1-3-4.45Z"/><path class="cls-7" d="M1923.69,1191.44c-2.94,1.77-5.89,3.57-8.8,5.71a24.92,24.92,0,0,1,2.88-2C1919.76,1193.85,1921.74,1192.58,1923.69,1191.44Z"/><path class="cls-7" d="M1904.5,2061.5c26.57,33.47,58.18,58.95,93.91,74.6l-21.63-6.22c-35.72-15.67-67.33-41.13-94-74.51-27-33.94-48.74-75.84-64.34-123.69-15.63-48.33-24.93-102.71-26.84-160.8-2-58.35,3.49-120.16,17.36-183.05,14.71-66.71,37.43-128.38,66-182.69,28.34-54.08,62.38-100.85,99.7-138.25,37-37,77.32-64.84,118.62-81.63,40.76-16.56,82.34-22.49,123-16.45l.58.13c5.07.76,11.32,1.64,16.83,2.62a1,1,0,0,1,.81.17c-39.36-5.27-79.54,1-118.84,17-41.33,16.93-81.55,44.8-118.7,82-37.35,37.51-71.3,84.42-99.7,138.75-28.57,54.53-51.32,116.32-66.08,183.26-13.91,63.11-19.44,125.15-17.49,183.63,1.89,58.21,11.05,112.65,26.76,161.14C1855.79,1985.55,1877.55,2027.59,1904.5,2061.5Z"/><path class="cls-7" d="M1879.83,1363.91c-2.62,4.15-5.16,8.46-7.69,12.78s-5,8.76-7.52,13.17-4.77,8.93-7.24,13.49-4.7,9.18-6.93,13.8c-13.79-48.4-46.78-67.61-70.56-77.84,3-4.69,6.08-9.38,9.18-14s6.45-9.41,9.78-14c.86-1.14,1.75-2.41,2.61-3.56,4-5.44,8.11-10.85,12.29-16,1.7-2.19,3.39-4.36,5.19-6.41a5.69,5.69,0,0,1,1.46.56C1870.1,1306.51,1878.94,1343.64,1879.83,1363.91Z"/><path class="cls-8" d="M1914.89,1197.15c-2.38,1.42-4.67,3-7,4.55C1910.24,1200,1912.65,1198.48,1914.89,1197.15Z"/><path class="cls-7" d="M1737.05,1980.54l-.23,0c-1-1.82-2.12-3.63-3.06-5.42C1734.82,1976.89,1735.88,1978.69,1737.05,1980.54Z"/><path class="cls-7" d="M1895.61,1210.67a6.64,6.64,0,0,0-1,.87l-.12,0C1894.87,1211.25,1895.19,1210.94,1895.61,1210.67Z"/><path class="cls-7" d="M1729.84,1968c-2.36-4.18-4.56-8.54-6.76-12.92-.49-1.08-1.07-2.31-1.56-3.39C1724.18,1957.27,1727,1962.62,1729.84,1968Z"/><path class="cls-7" d="M1866.59,1234.69c-4.28,3.93-8.57,8-12.78,12.15.62-.6,1.09-1.11,1.71-1.69C1859.23,1241.58,1862.91,1238.13,1866.59,1234.69Z"/><path class="cls-7" d="M1867.24,2051.71c-51.39-34-89.07-54.57-130.19-71.17-1.17-1.85-2.23-3.65-3.29-5.47-1.42-2.39-2.61-4.72-3.92-7.07-2.83-5.38-5.66-10.73-8.32-16.31-1.59-3.27-3.16-6.66-4.72-10-1.88-4.19-3.54-8.21-5.28-12.47a4.18,4.18,0,0,1-.55-1.36c.66.29,1.22.53,1.89.8,55.25,24.23,103.68,63.37,127.62,84.46,2,3.49,4.2,6.89,6.27,10.15s4.37,6.69,6.57,10,4.56,6.38,6.92,9.44S1864.86,2048.74,1867.24,2051.71Z"/><path class="cls-7" d="M1711,1927.81a4.18,4.18,0,0,0,.55,1.36,8.28,8.28,0,0,1-.67-1.38Z"/><path class="cls-8" d="M1840,1261.07c1.12-1.23,2.23-2.43,3.47-3.63-2.53,2.62-5.09,5.46-7.67,8.29C1837.09,1264.19,1838.54,1262.58,1840,1261.07Z"/><path class="cls-7" d="M1818.94,1285.26c-1.8,2-3.49,4.22-5.19,6.41,1.7-2.19,3.39-4.36,5.07-6.44Z"/><path class="cls-7" d="M1689.36,1861.38c.13.51.28.9.41,1.42C1689.64,1862.28,1689.49,1861.89,1689.36,1861.38Z"/><path class="cls-7" d="M1813.75,1291.67c-4.18,5.16-8.29,10.57-12.29,16,2.42-3.24,4.84-6.46,7.25-9.71C1810.41,1295.78,1812.08,1293.72,1813.75,1291.67Z"/><path class="cls-7" d="M1826.46,1987.24c-55.79-47.71-95.24-68-123.32-80.23l-.12,0c-1.71-4.89-3.44-9.77-5-14.86s-3-10-4.55-15.24c-1.31-4.54-2.42-9.42-3.71-14.08-.13-.52-.28-.91-.41-1.42-1.28-5.27-2.53-10.65-3.65-16a12.24,12.24,0,0,1,1.87.89c55.79,26.18,98.38,69.74,118.7,93.44q2.27,6.35,4.58,12.35c1.65,4.12,3.2,8.12,4.9,12s3.48,7.94,5.19,11.74S1824.49,1983.52,1826.46,1987.24Z"/><path class="cls-7" d="M1798.85,1311.24c-3.33,4.62-6.55,9.28-9.78,14s-6.2,9.35-9.18,14l-.12,0c3.12-4.77,6.25-9.58,9.35-14.24S1795.55,1315.74,1798.85,1311.24Z"/><path class="cls-8" d="M1674.88,1772.52c.32,5.18.92,10.19,1.49,15.3-.1-.64-.18-1.37-.29-2C1675.59,1781.45,1675.23,1777,1674.88,1772.52Z"/><path class="cls-7" d="M1766.91,1360.66a8.89,8.89,0,0,1,1.57.59c50.56,23.43,63.21,66.5,66.29,90.06-2.06,4.89-4.11,9.79-6.19,14.79s-3.93,10.09-5.89,15.15-3.72,10.25-5.45,15.34c-1.88,5.19-3.63,10.39-5.39,15.61-18.83-54.77-53.27-76.24-77.52-87.67,1.66-3.65,3.34-7.41,5-11.07,1.58-3.31,3-6.51,4.57-9.7.68-1.42,1.36-2.86,2.15-4.26,3-6.17,6.1-12.18,9.21-18,3.51-6.52,7-13,10.74-19.42.21-.43.57-1,.79-1.4Z"/><path class="cls-7" d="M1766,1362c-3.72,6.38-7.23,12.9-10.74,19.42.9-1.87,1.92-3.71,2.94-5.55C1760.8,1371.24,1763.3,1366.54,1766,1362Z"/><path class="cls-8" d="M1673.65,1755.48c.28,4.79.53,9.71.95,14.44-.2-1.87-.25-3.83-.44-5.71C1673.94,1761.36,1673.85,1758.42,1673.65,1755.48Z"/><path class="cls-7" d="M1786.64,1868.22c.93,4.6,2,9.32,2.92,13.78s2.22,9.26,3.32,13.64,2.39,9,3.61,13.44c-48.88-53.1-89.26-75.27-115.3-87.35-.41-2-.69-4-1.07-6.2-.56-3.53-1.12-7-1.56-10.57-.83-5.64-1.5-11.4-2.19-17.14-.57-5.11-1.17-10.12-1.49-15.3-.11-.61-.07-1.34-.17-2-.07-.25,0-.37-.11-.62-.42-4.73-.67-9.65-.95-14.44l-.15-2.6c.55.24,1.2.62,1.74.88,57.27,28.31,95.12,79.6,108.67,100.36C1784.82,1858.81,1785.73,1863.53,1786.64,1868.22Z"/><path class="cls-7" d="M1755.26,1381.45c-3.11,5.87-6.26,11.88-9.21,18,1.2-2.66,2.49-5.18,3.8-7.81C1751.59,1388.18,1753.43,1384.83,1755.26,1381.45Z"/><path class="cls-7" d="M1741.88,1407.94c.69-1.44,1.36-2.86,2-4.18-1.56,3.19-3,6.39-4.57,9.7C1740.22,1411.6,1741,1409.81,1741.88,1407.94Z"/><path class="cls-8" d="M1672.56,1724.56c-.14-1.6-.15-3.2-.17-4.77.08-3.64.06-7.42.12-11C1672.46,1714,1672.38,1719.29,1672.56,1724.56Z"/><path class="cls-8" d="M1735.16,1422.41c1.39-3,2.78-6,4.17-9-1.66,3.66-3.34,7.42-5,11.07A12.66,12.66,0,0,1,1735.16,1422.41Z"/><path class="cls-8" d="M1672.93,1691.44c-.3,5.76-.37,11.59-.42,17.31,0-2.69.06-5.22,0-7.91C1672.64,1697.7,1672.73,1694.56,1672.93,1691.44Z"/><path class="cls-7" d="M1785.86,1616.82c-26-59.38-59.72-82.29-86.27-95.44,1.33-4.93,2.78-9.84,4.32-14.61.79-2.51,1.48-5,2.24-7.42,1.59-5,3.16-9.9,4.84-14.76.9-3,2-6,3.09-9,.42-1.38,1-2.71,1.5-4.06.65-1.81,1.26-3.48,1.87-5.18,2.14-5.84,4.26-11.6,6.59-17.17.55.26,1.11.5,1.55.72,51.71,25.87,69.18,74.14,75,100.61l-2.19,8.29c-.76,2.87-1.48,5.64-2.09,8.4s-1.38,5.66-2,8.45-1.37,5.66-2,8.56c-.59,2.68-1.2,5.46-1.68,8.14s-1.2,5.46-1.67,8.16-1.09,5.47-1.56,8.17S1786.33,1614.12,1785.86,1616.82Z"/><path class="cls-8" d="M1673,1689.12c.07-2.53.24-4.94.31-7.47.11-3.25.34-6.5.56-9.73C1673.55,1677.58,1673.22,1683.48,1673,1689.12Z"/><path class="cls-7" d="M1724,1449.14c-2.33,5.57-4.45,11.33-6.59,17.17-.61,1.7-1.22,3.37-1.87,5.18.47-1.59,1.09-3.28,1.68-4.86,2.15-5.85,4.42-11.79,6.66-17.52Z"/><path class="cls-7" d="M1674.62,1662.23c.2-3.12.49-6.09.81-9.18a12.28,12.28,0,0,1,1.64.86c56,28.75,87,82.79,97.71,104.76.09,5.13.29,10.28.49,15.43s.55,10.22.89,15.29.8,10.16,1.17,15.09,1.09,10,1.57,15c-41.51-56.73-80.53-80.07-106.27-92.42l-.12,0a17.86,17.86,0,0,1,0-2.43c-.18-5.27-.1-10.6,0-15.81,0-5.72.12-11.55.42-17.31,0-.39,0-.73,0-1.11s.06-.82,0-1.21c.27-5.64.6-11.54.87-17.2l0-.12C1674.05,1668.69,1674.28,1665.46,1674.62,1662.23Z"/><path class="cls-7" d="M1675.43,1653.05c-.32,3.09-.61,6.06-.81,9.18.2-3.12.37-6.12.69-9.21Z"/><path class="cls-8" d="M1714.08,1475.55c-1,3-2.19,6.08-3.09,9C1711.91,1481.51,1713,1478.46,1714.08,1475.55Z"/><path d="M2180,1164.23c3.46.28,6.81.52,10.25.93a1.72,1.72,0,0,0,.54-.24l.11,0,25.31,3.87c-40.64-6-82.22-.11-123,16.45-41.3,16.79-81.63,44.66-118.62,81.63-37.32,37.4-71.36,84.17-99.7,138.25-28.53,54.31-51.25,116-66,182.69-13.87,62.89-19.34,124.7-17.36,183.05,1.91,58.09,11.21,112.47,26.84,160.8,15.6,47.85,37.39,89.75,64.34,123.69,26.71,33.38,58.32,58.84,94,74.51l-.5,1.72-89.66-26a185.67,185.67,0,0,1-25.34-9.25c12.36,3.58,28.46,8.34,40.7,11.89-18.37-6.11-35.73-11.77-50.89-16.44-.23,0-.31-.19-.55-.24s-.32-.21-.43-.24c-5.15-2.59-10.16-5.28-15.09-8.29,35.09,11.37,69.54,24,104.36,36l21.27,6.17c-1.89-.8-3.76-1.69-5.63-2.57s-3.63-1.78-5.5-2.69-3.59-1.89-5.47-2.77c-1.72-1-3.57-2-5.3-3-112.49-49.88-112.49-49.88-142.35-60.71a12.83,12.83,0,0,1-1.92-.66c-4.58-4-9-8.44-13.31-13,46.82,17.24,84.54,35.42,136.53,60.64-2.83-2.1-5.63-4.28-8.43-6.49L1901,2087c-2.75-2.44-5.39-4.83-8.11-7.38s-5.19-5.16-7.77-7.79c-77.21-49.89-121.12-67.6-135.53-73.44a9.16,9.16,0,0,1-1.68-.64l-.11,0c-3.77-5.56-7.38-11.23-10.7-17.19,41.12,16.6,78.8,37.19,130.19,71.17-2.38-3-4.75-6-7-9.1s-4.58-6.24-6.92-9.44-4.39-6.55-6.57-10-4.24-6.66-6.27-10.15c-23.94-21.09-72.37-60.23-127.62-84.46-.67-.27-1.23-.51-1.89-.8-1.83-4.42-3.54-8.79-5.22-13.32-.91-2.5-1.82-5-2.61-7.48,28.08,12.27,67.53,32.52,123.32,80.23-2-3.72-3.69-7.52-5.51-11.44s-3.52-7.71-5.19-11.74-3.25-7.89-4.9-12-3.07-8.12-4.58-12.35c-20.32-23.7-62.91-67.26-118.7-93.44a12.24,12.24,0,0,0-1.87-.89c-2.12-9.73-3.92-19.73-5.59-29.84.38,2.15.66,4.16,1.07,6.2,26,12.08,66.42,34.25,115.3,87.35-1.22-4.41-2.41-8.92-3.61-13.44s-2.26-9-3.32-13.64-2-9.18-2.92-13.78-1.82-9.41-2.73-14.1c-13.55-20.76-51.4-72-108.67-100.36-.54-.26-1.19-.64-1.74-.88l-.57-10.7c-.22-5-.34-10.06-.3-15.16,25.74,12.35,64.76,35.69,106.27,92.42-.48-5-1.08-10-1.57-15s-.83-10-1.17-15.09-.69-10.13-.89-15.29-.4-10.3-.49-15.43c-10.73-22-41.76-76-97.71-104.76a12.28,12.28,0,0,0-1.64-.86c.25-3.35.53-6.8.92-10.26.66-6.29,1.41-12.47,2.19-18.74.4-3,.79-5.79,1.31-8.72-.51,3.43-1,6.84-1.42,10.29,25.09,12.59,62.36,36.14,96.6,95.51.08-5.35.42-10.74.62-16.05s.67-10.8,1.13-16.19.94-10.84,1.39-16.23,1.2-10.93,1.79-16.38c-7.78-22.66-31.65-78.27-85.74-106.64-.56-.24-1.21-.62-1.65-.84.44-2,.87-3.94,1.43-5.89,1.47-6.14,3-12.23,4.73-18.18.26-1.15.61-2.19.86-3.35,26.55,13.15,60.31,36.06,86.27,95.44.47-2.7,1-5.4,1.56-8.18s.95-5.38,1.56-8.17,1.06-5.37,1.67-8.16,1.09-5.46,1.68-8.14c.64-2.9,1.26-5.68,2-8.56s1.23-5.58,2-8.45,1.33-5.53,2.09-8.4l2.19-8.29c-5.84-26.47-23.31-74.74-75-100.61-.44-.22-1-.46-1.55-.72.61-1.67,1.23-3.37,2-5,2.69-6.7,5.45-13.15,8.33-19.57,24.25,11.43,58.69,32.9,77.52,87.67,1.76-5.22,3.51-10.42,5.39-15.61,1.73-5.09,3.6-10.28,5.45-15.34s3.93-10.09,5.89-15.15,4.13-9.9,6.19-14.79c-3.08-23.56-15.73-66.63-66.29-90.06a8.89,8.89,0,0,0-1.57-.59c4.15-7.24,8.53-14.42,13-21.35,23.78,10.23,56.77,29.44,70.56,77.84,2.23-4.62,4.58-9.21,6.93-13.8s4.79-9,7.24-13.49,5-8.86,7.52-13.17,5.07-8.63,7.69-12.78c-.89-20.27-9.73-57.4-59.43-78.09a5.69,5.69,0,0,0-1.46-.56c4.87-6.11,9.92-11.93,15.07-17.59,25.47,9.75,55.89,26.29,65,67,2.71-4,5.51-7.91,8.29-11.69s5.7-7.63,8.59-11.37,5.76-7.35,8.72-10.84,5.94-7.1,8.9-10.58c1-20.35-7.66-48-54.08-64.85-.58-.12-1-.34-1.48-.44,5.29-4.68,10.9-9.17,16.46-13.41l.12,0c37.27,12.47,56.17,29.42,60.86,55,3-3.24,6.25-6.28,9.34-9.26s6.29-5.91,9.5-8.86,6.36-5.65,9.65-8.45,6.42-5.4,9.78-7.94c3.35-22.38-13.7-39.4-50.65-50.59a5.56,5.56,0,0,1-1.37-.42c4.72-2.62,9.37-5,14.13-7.22,1.08-.5,2-1,3.1-1.41,37.85,10.44,55.27,23,58.35,42.19,3.31-2.31,6.7-4.46,10.08-6.52s6.77-4.24,10.12-6.18,6.81-3.85,10.12-5.66c3.47-1.92,6.88-3.59,10.29-5.29,5.85-19.88-25.07-29.74-48.75-35.44l-1.51-.33c4-1,8-1.9,11.88-2.61,1.93-.43,3.82-.75,5.86-1.15,38.86,8.57,54.86,16.61,57.14,28.9,3.45-1.31,6.9-2.62,10.33-3.81,3.51-1,6.93-2.23,10.43-3.17s6.86-1.88,10.47-2.8c3.35-.85,6.91-1.51,10.34-2.21,4.7-8.59-13.32-13.53-48.34-19.66l-1.4-.31a27.29,27.29,0,0,1,3.27.1c2.25.26,4.42.36,6.56.59s4.41.38,6.56.59c.81.18,1.65.25,2.34.4,40.43,6.49,53.31,9.33,55.88,14.77q5.22-.49,10.36-.64c3.46-.21,6.88-.31,10.4-.27S2176.47,1164.07,2180,1164.23Z"/><path class="cls-7" d="M1706.15,1499.35c-.76,2.37-1.45,4.91-2.24,7.42.31-1.41.71-2.65,1.13-4Z"/><path class="cls-7" d="M1679.85,1615.33c.18-1.9.47-3.79.77-5.67.19-1.41.47-2.68.66-4.11C1680.79,1608.86,1680.31,1612.16,1679.85,1615.33Z"/><path class="cls-7" d="M1694.22,1549.64c54.09,28.37,78,84,85.74,106.64-.59,5.45-1.2,10.92-1.79,16.38s-1.05,10.84-1.39,16.23-.79,10.78-1.13,16.19-.54,10.7-.62,16.05c-34.24-59.37-71.51-82.92-96.6-95.51.4-3.45.91-6.86,1.42-10.29.46-3.17.94-6.47,1.43-9.78.63-4,1.27-8,2-11.84l.26-1.16c.74-4.47,1.48-8.92,2.45-13.34a7.46,7.46,0,0,1,.24-1.63c1.06-5.37,2.24-10.7,3.42-16l.71-3.24c.67-3,1.34-6,2.11-9l.1-.45C1693,1549,1693.66,1549.4,1694.22,1549.64Z"/><path class="cls-8" d="M1683.54,1592.55c.2-2,.66-4.11,1-6.22.51-2.33.91-4.67,1.45-7.12C1685,1583.63,1684.28,1588.08,1683.54,1592.55Z"/><path class="cls-7" d="M1692.47,1549.25c-.77,3-1.44,6-2.11,9l.7-3.15.71-3.24C1692,1551,1692.27,1550.18,1692.47,1549.25Z"/><path class="cls-9" d="M2563,1612.4c-1.57-41.59-8.56-80.68-20.36-115.24-11.9-34.83-28.68-65.19-49.75-89-21.27-24-46.95-41.39-76.4-49.88-29.78-8.61-60.58-7.3-90.79,2.53-30.52,10-60.4,28.6-87.93,54.5-27.72,26.08-53,59.46-74,98.54-21.15,39.25-38,84.11-48.71,132.84s-14.36,96.54-11.68,141.07c2.66,44.33,11.56,85.26,25.74,120.59,14.08,35.07,33.35,64.55,56.85,86.42,23.27,21.64,50.67,35.76,81.3,40.5,30.29,4.68,60.9-.29,90.3-13.15,29.11-12.71,57.1-33.2,82.55-59.79,25.24-26.42,48-58.94,66.94-96a529.9,529.9,0,0,0,56-253.93Zm-94.34,201.41a336.65,336.65,0,0,1-20.16,36,293.92,293.92,0,0,1-23.28,31.32l-42.6-148.85a6.44,6.44,0,0,1-.19-.88,4,4,0,0,1-.09-.68c0-.19,0-.36,0-.47s0-.19.07-.2a.91.91,0,0,1,.14-.21,2.37,2.37,0,0,1,.32-.26l.49-.28a5.76,5.76,0,0,1,.71-.2l117.08-18.12c-.27,1.58-.56,3.18-.84,4.78s-.58,3.18-.89,4.8-.61,3.19-.94,4.78-.68,3.2-1,4.81a390.4,390.4,0,0,1-12.29,43.65A370.15,370.15,0,0,1,2468.7,1813.81Zm-181.5,131a103.86,103.86,0,0,1-16.07-4.06,109.62,109.62,0,0,1-15.17-6.51,117,117,0,0,1-14.18-8.76,130,130,0,0,1-13.14-10.9l95.21-141.05c.21-.31.41-.55.57-.75a3.45,3.45,0,0,1,.43-.43,1.53,1.53,0,0,1,.31-.22l.13,0s.06,0,.12.1a1.81,1.81,0,0,1,.16.32,4.83,4.83,0,0,1,.23.6,6.68,6.68,0,0,1,.16,1l26.84,162.28a134.07,134.07,0,0,1-16.16,5.61,122.54,122.54,0,0,1-16.41,3.37,108.68,108.68,0,0,1-16.51,1A103.7,103.7,0,0,1,2287.2,1944.86Zm-117.63-237.92a391.08,391.08,0,0,1,7.48-47.57c.37-1.7.76-3.39,1.15-5.06s.82-3.39,1.23-5.06.86-3.35,1.3-5,.89-3.32,1.35-5l107,69.27a3.16,3.16,0,0,1,.6.49,2.15,2.15,0,0,1,.35.46,1.11,1.11,0,0,1,.16.37.79.79,0,0,1,.06.25l-.05.22-.18.42c-.09.17-.23.37-.37.6a5.59,5.59,0,0,1-.56.71l-107.5,123.06a284.26,284.26,0,0,1-9.36-39.37,329.11,329.11,0,0,1-4.15-43A363.56,363.56,0,0,1,2169.57,1706.94ZM2324.43,1452a125.12,125.12,0,0,1,34.45-8.35l-31.34,183.19a7.42,7.42,0,0,1-.19,1,5.85,5.85,0,0,1-.18.7,3.16,3.16,0,0,1-.22.45.55.55,0,0,1-.17.23s0,0-.06,0,0,0-.07,0-.05,0-.09,0a.16.16,0,0,1-.12,0c-.07,0-.16-.06-.22-.07a1.64,1.64,0,0,1-.28-.16l-.29-.2a3.19,3.19,0,0,1-.33-.31L2230.53,1533a276.22,276.22,0,0,1,28.69-35.47,215.35,215.35,0,0,1,31.66-27.29A164.14,164.14,0,0,1,2324.43,1452Zm60.81,190.46-1.36.13-.29-.18a.56.56,0,0,1-.06-.3,3,3,0,0,1,0-.52l.1-.76a9.1,9.1,0,0,1,.24-1l47.82-176.61a133,133,0,0,1,26,24.16,174.83,174.83,0,0,1,20.81,31.73,228.3,228.3,0,0,1,15.3,37.95,284.71,284.71,0,0,1,9.49,43Z"/><path class="cls-10" d="M2393.78,1316.33q1.54,4.62,3.3,9.14c21.18,55.48,61.66,100.18,100.51,126.14h0a.07.07,0,0,0,.05,0c39,26,76.35,33.2,90.85,13.42,29.72-40.57-29.69-184.07-29.69-184.07S2354.61,1199.73,2393.78,1316.33Z"/><path class="cls-11" d="M2397.08,1325.47c11.17,29.27,27.72,55.54,46.57,77.65a266.93,266.93,0,0,0,53.94,48.49h0a.07.07,0,0,0,.05,0c1.69.82,43.58,20.78,74.36,1.77,31.44-19.41-20.43-160.65-20.43-160.65S2426.17,1283,2397.08,1325.47Z"/><path class="cls-12" d="M2397.08,1325.47c11.17,29.27,27.72,55.54,46.57,77.65h0s42.41,4.53,78.6-17.31,29.34-93,29.34-93S2426.17,1283,2397.08,1325.47Z"/><path class="cls-13" d="M2433.31,1511.05c-34.8,13.19-110.88-15.42-120.38-25.8-3.66-4,1.64-24.7,9.55-48.65v0c12.64-38.31,31.92-84.91,31.92-84.91l106.11-17.26s-8.93,17.15-7.55,32.88c3.25,37.3,26.53,122.7,29,129.27C2485.39,1505.87,2468.13,1497.85,2433.31,1511.05Z"/><path class="cls-14" d="M2330.56,1413.31s-8.08,23.27-8.07,23.26c12.64-38.31,31.92-84.91,31.92-84.91l94.86-21.88s2.8,29,4.18,44.74C2453.45,1374.52,2405.83,1426.45,2330.56,1413.31Z"/><path class="cls-15" d="M2452.72,1362.71c16.76,15.15,31.54-7.94,60.12-28.45,12-8.58,22-19.3,29.55-28.87h0a179.93,179.93,0,0,0,16.44-24.38c9.59-14.7-1.36-99.88-24.65-153.63-8.25-19-18-34.12-29-40.74C2463.16,1061.27,2436,1347.57,2452.72,1362.71Z"/><path class="cls-16" d="M2514.06,1162.19s39.42,64.87,28.33,143.19a179.93,179.93,0,0,0,16.44-24.38c9.59-14.7-1.36-99.88-24.65-153.63-25.76-19.23-46.91-30.14-47.48-21.52C2485.33,1126.26,2514.06,1162.19,2514.06,1162.19Z"/><path class="cls-13" d="M2284.16,1312.24c12.9,29.92,46.58,82.56,110.61,75.38s88.38-63.92,88.38-63.92,38.91,4.89,51.9-40.46c.46-1.58.88-3.23,1.27-4.93,7-30.72-18.6-31.41-39.77-27.2a11.67,11.67,0,0,1-12.76-16.66c17.64-35,46-98.36,34.09-123.78-6.29-13.44-27.45-32-53.34-46.81-43.37-24.84-100-39.17-122.21-1.32,0,0-36.86,12-53,71.67S2271.25,1282.31,2284.16,1312.24Z"/><path class="cls-14" d="M2304.33,1098s88.57,20.71,134.32,22.2,60.66,55.26,51.1,81.65-19,49.48,2,53.76,43.37-3.37,43.26,27.59c.46-1.58.88-3.23,1.27-4.93,7-30.72-18.6-31.41-39.77-27.2a11.67,11.67,0,0,1-12.76-16.66c17.64-35,46-98.36,34.09-123.78-6.29-13.44-27.45-32-53.34-46.81a105.86,105.86,0,0,0-22.78-.48c-56.43,4.84-105,20.12-128.4,22.17C2311.25,1085.73,2304.33,1098,2304.33,1098Z"/><path class="cls-10" d="M2325.64,1061l60,7.73c1.34.3,2.66.62,4,.93C2559.87,1111,2558.83,1281,2558.83,1281a118.61,118.61,0,0,0,14.5-17.21c48-68.57,40.06-196.7-62.08-248.13C2399.78,959.51,2325.64,1061,2325.64,1061Z"/><path class="cls-11" d="M2383.67,1065.24l5.94,4.37C2559.87,1111,2558.83,1281,2558.83,1281a118.61,118.61,0,0,0,14.5-17.21c-3.71-21.69-11.19-48.1-24.66-79.83C2498.14,1065,2383.67,1065.24,2383.67,1065.24Z"/><path class="cls-15" d="M2301.12,1084.11c26.81,20.75,79.74,17.32,113.6,12.33h0c18.32-2.68,31.07-5.83,31.07-5.83-8.86-5-32.05-13.89-32.05-13.89s-54.42-38.55-84.86-88.54c-18-29.51-38.79-1.91-44.34,32.24l0,0C2280.7,1044.15,2284.2,1071,2301.12,1084.11Z"/><path class="cls-16" d="M2301.12,1084.11c26.81,20.75,79.74,17.32,113.6,12.33-89.86-11.67-130.15-76-130.15-76l0,0C2280.7,1044.15,2284.2,1071,2301.12,1084.11Z"/><path class="cls-1" d="M2378.05,1062.94a62.26,62.26,0,0,1-12.68-3.36,81.11,81.11,0,0,1-11.94-5.61,78.22,78.22,0,0,1-10.95-7.53,81,81,0,0,1-9.54-9.35,79.38,79.38,0,0,1-7.61-11c-1-2-2.08-3.95-2.93-6a61.06,61.06,0,0,1-2.37-6.24,68.89,68.89,0,0,1-3-26.06v0a.16.16,0,0,1,.16-.14.16.16,0,0,1,.14.14,85,85,0,0,0,4.89,25.27,73.38,73.38,0,0,0,13,22.15,85.06,85.06,0,0,0,19.46,16.82,95.53,95.53,0,0,0,11.34,6.16,80.68,80.68,0,0,0,12.09,4.52.15.15,0,0,1,.11.18.15.15,0,0,1-.17.11Z"/><ellipse class="cls-15" cx="2303.19" cy="1187.4" rx="13.66" ry="7.33" transform="translate(629.96 3166.01) rotate(-77.05)"/><ellipse class="cls-15" cx="2397.04" cy="1214.16" rx="13" ry="6.98" transform="translate(676.7 3278.23) rotate(-77.05)"/><path class="cls-15" d="M2394.48,1162.07c-.29-2,2.26-3.45,4.29-3.85,6.47-1.29,22.6-3,26.47,11.4,3.18,11.83-2.07,8.89-2.71,7-1-2.88-3.72-9-7-11.43C2407.83,1159.66,2395.15,1166.77,2394.48,1162.07Z"/><path class="cls-15" d="M2286.46,1144.43c-1.31-1.73.32-4.32,2-5.72,5.29-4.48,19.27-14.22,30.13-3,8.95,9.25,2.63,9.23,1.09,7.84-2.38-2.14-8-6.4-12.29-6.92C2297.5,1135.43,2289.47,1148.41,2286.46,1144.43Z"/><path class="cls-14" d="M2341.36,1202a171.79,171.79,0,0,1-4.6,22.54c-.91,3.71-2.09,7.34-3.17,11s-2.43,7.26-3.77,10.89c-.74,1.81-1.47,3.59-2.37,5.48a13.86,13.86,0,0,1-.84,1.56l-.24.42-.12.2-.07.12c.09-.08.08-.17.15-.34a1.34,1.34,0,0,0,0-.44c0-.08,0-.09,0-.14s0-.09,0-.08,0,0,0,0l0,.09.09.14a7.63,7.63,0,0,0,1.34,1.39,19.7,19.7,0,0,0,2,1.43c1.45.9,3,1.77,4.64,2.57a115.24,115.24,0,0,0,21.11,7.45l0,.4a74.05,74.05,0,0,1-22.27-4.93,44,44,0,0,1-5.2-2.45,16,16,0,0,1-4.58-3.57,4.81,4.81,0,0,1-.76-1.33,2.67,2.67,0,0,1-.08-1.61,2.55,2.55,0,0,1,.34-.75l.33-.61a11.1,11.1,0,0,0,.63-1.24c.79-1.71,1.47-3.48,2.16-5.25,2.73-7.08,5.23-14.27,7.69-21.47s4.85-14.42,7.2-21.65Z"/><path class="cls-14" d="M2322.36,1302.8c16.7,3.14,46.23,5.43,73-9.1a.82.82,0,0,1,.89,1.38c-15.18,11-44.51,26.6-75.28,11.81A2.17,2.17,0,0,1,2322.36,1302.8Z"/><circle class="cls-14" cx="2415.08" cy="1241.8" r="3.14"/><circle class="cls-14" cx="2299.48" cy="1218.29" r="3.3"/><circle class="cls-14" cx="2426.61" cy="1248.44" r="2.22"/><circle class="cls-14" cx="2285.18" cy="1225.84" r="2.33"/><circle class="cls-14" cx="2285.1" cy="1255.43" r="2.33"/><circle class="cls-14" cx="2429.02" cy="1237.92" r="2.22"/><circle class="cls-14" cx="2401.11" cy="1251.75" r="3.14"/><circle class="cls-14" cx="2416.9" cy="1260.39" r="4.01"/><circle class="cls-14" cx="2288.54" cy="1240.44" r="4.21"/><circle class="cls-14" cx="2433.54" cy="1257.34" r="4.01"/><path class="cls-1" d="M2319.11,1447.14s.58,23.2,49.14,29.26,98.53-19.85,100.89-27.34,181.26,54.62,246.43,86.82,78.8,65.85,92.09,92.09,134.6,380.47,134.6,392.22-144.65,61.34-144.65,61.34,3.07,83.83,14.31,105.3,19.43,268.35-158.45,265.28-519.84-676.25-519.84-676.25l93.71-323.38s23.85-1.36,49.75-3.75S2315.35,1437.93,2319.11,1447.14Z"/><g class="cls-17"><path class="cls-18" d="M2658.83,2038.81s213.77,10.42,270.07-63.39c0,0,12.09,34.29,13.36,44.77,0,0-96.77,66.45-186.05,67.81s-91.83-14-91.83-14Z"/></g><g class="cls-17"><path class="cls-18" d="M2590.06,1485.15s-18.59,3.77-43.42,37.7-94.71,213.15-118.59,220.81-219.61-13.52-221.91-51.11,54-242.37,54-242.37-18.17-2.53-42.18,25.3-99.67,250.6-72.07,280.86,341.19,97.73,355,66.29,105-331.13,105-331.13Z"/></g><path class="cls-19" d="M2626.45,1847.44l35.2,208c14.63,30.43,126.73,62.63,127.61,67.64,3.58,20.45,15,144,15,144s-222.42,102.23-244.88-16.62-61.85-421.69-7.27-560.47,73.25-162.71,128.32-169.91l2.72,1.15s-34.79,18.74-51.15,53-76,203.28-56,430.89,49.84,224.65,84.34,231.55,111.94,4.6,111.17-14.56,6.14-49.07-15.33-59-101.21-17.64-109.64-42.17S2588.88,1791.72,2626.45,1847.44Z"/><path class="cls-10" d="M2817.72,2471c-2.68,1.18-5.36,2.33-8,3.47-290.08,123.89-570,112.42-809.61,22,3.92-34.73,26.26-230.45,53.08-421.77,15.66-111.8,32.86-222.08,48.79-297.86,16.77-79.73,35.07-144.6,51.87-195.13,29.32-88.15,54.09-132.63,58.2-136.09,6.48-5.45,34.07-2.06,39.87,0s.37,5.12.37,5.12c-6.44.52-25.33,61.19-42.45,125.08-17.34,64.76-32.86,132.83-31.7,144.79,2.3,23.77,266.06,65.93,275.35,59.8s87.47-213.83,108.85-259.15c.29-.61.58-1.21.88-1.8,10-20.44,21.7-29.8,30.27-34.08a26,26,0,0,1,19.36-1.39c17,5.34,59.15,19,69,26.38a7.21,7.21,0,0,1,1.74,1.7c5.36,8.3-3.06,8-3.06,8s-3.67-1.54-26.46,13.49-58.79,77.45-86.38,213.15c-14,68.7-11,179.66-3.06,277.94,7.78,95.85,20.39,179.67,26.82,200.49,13,42.18,201.14,27.61,201.14,27.61Z"/><path class="cls-13" d="M2887.29,2505.86c-9.7,35.62-16.58,59.73-16.58,59.73s-52.26-1.75-81.75-6.66c-12.68-2.09-21.15-4.79-19.46-8.17a6.78,6.78,0,0,0,.43-1.37c1.39-6.17,3-28.93,4.64-60,5-95.68,10.16-270.14,8.9-281.43-.86-7.72-6-27.19-11-44.64-4.86-17.17-9.47-32.37-9.47-32.37l140-52.17,21.37-8s.73,3.29,1.92,9h0c1.52,7.22,3.8,18.31,6.37,31.51,6.34,32.6,14.37,78,16.75,109.75C2952.33,2260,2911.24,2418,2887.29,2505.86Z"/><path class="cls-14" d="M2932.67,2111.32s-67.08,77.55-143.07,57.79a109,109,0,0,1-17.1-5.8c-4.86-17.17-9.47-32.37-9.47-32.37l140-52.17c8.54.07,16.48.41,23.29,1h0C2927.82,2087,2930.1,2098.12,2932.67,2111.32Z"/><path class="cls-14" d="M2887.29,2505.86c-9.7,35.62-16.58,59.73-16.58,59.73s-52.26-1.75-81.75-6.66c-6.67-3-13.16-6.17-19-9.54,1.39-6.17,3-28.93,4.64-60,0,0,51.15,22.54,89.49,17.68A131.16,131.16,0,0,1,2887.29,2505.86Z"/><path class="cls-1" d="M2661.65,2055.46s33.22,12.78,82.8,13.29,135.12-28.87,164.08-47.53,28.28-20.89,28.28-20.89,6-11.32,11.08-6.72,23.51,53.16,21.47,65.43-48.05,58.27-109.9,76.16-190.15-5.62-200.37-27.6S2647.33,2046.26,2661.65,2055.46Z"/><path class="cls-20" d="M2886.8,2534.91c-.76,6.15-24,84.34-30.51,102.23-6.07,16.61-77.22,105.49-93.52,119.75a8.88,8.88,0,0,1-2.73,1.91c-7.67,2-60.31,2.55-70.29-7.41s-36.79-44.22-36.79-44.22-26.33,10.48-28.63-.77,2.3-31.68-2.56-43.19,57-78.71,77.19-81l7.9-.89h0c21.72-2.48,55.28-6.89,56.14-15.63a.32.32,0,0,0,0-.08c.75-10,1.41-81.09,11.23-70.32,0,0,10.57,9.74,38.94,22s67.05,14.27,67.05,14.27S2887.57,2528.78,2886.8,2534.91Z"/><path class="cls-21" d="M2653,2707.17s-5.37-15.08-1.28-24.79,21-14.31,29.9-21.47,28.37-24.27,28.37-24.27,3.07-6.14-9.2,0-49.58,25.81-53.16,35.78,1.18,36.23,1.18,36.23Z"/><path class="cls-21" d="M2762.77,2756.89a8.88,8.88,0,0,1-2.73,1.91c-7.67,2-60.31,2.55-70.29-7.41s-36.79-44.22-36.79-44.22-2.56-14.05,0-18.91c1.65-3.12,11.11-7.41,17.67-10.07a8.59,8.59,0,0,1,10.22,3c10.6,14.78,40.08,55.24,50.06,62.31C2743,2752,2762.22,2756.76,2762.77,2756.89Z"/><path class="cls-21" d="M2763,2565.67c-.12,1.57-2.51,27-20.35,26.5-18.4-.51-35.8-10.87-35.8-10.87h0C2728.59,2578.82,2762.15,2574.41,2763,2565.67Z"/><path class="cls-13" d="M1820.63,1282.75s9.55-80.42,17.38-96.44,127.45-92.68,145.85-93,23.09,4.43,48.9,10.82,28.37,5.63,31.69,10.48,13.67,19.55,11.63,25.3c0,0,12.4,11.89,12.52,16.36s-1.4,8-6.26,9.84-6.26-.13-6.26-.13,3.45,7.41-.89,10.23-14.7,3.32-25.05-.52c0,0,4.86,11-25.3,9.2s-33.48-9.45-47.79-10.22a6.93,6.93,0,0,0-6,.94c-2.89,2-44.38,32.8-62.53,42.25s-34,7.93-37.82,12.78-12.53,15.08-25.56,28.63S1820.63,1282.75,1820.63,1282.75Z"/><path class="cls-14" d="M1973,1146.53c6.77,1.42,13.47,3.08,20.15,4.73l5,1.22,2.5.58c.85.19,1.58.3,2.55.55a29.59,29.59,0,0,1,5.07,1.92c1.6.73,3.15,1.5,4.7,2.27,6.13,3.16,12.24,6.23,18.44,9.2s12.49,5.76,18.77,8.66a163.53,163.53,0,0,1-19.71-6.51c-3.22-1.28-6.39-2.68-9.54-4.12s-6.23-3-9.31-4.55c-1.53-.79-3.06-1.57-4.59-2.3a31.13,31.13,0,0,0-4.55-1.83c-.68-.22-1.66-.42-2.47-.64l-2.52-.7c-1.67-.46-3.32-1-5-1.5C1985.89,1151.42,1979.37,1149.13,1973,1146.53Z"/><path class="cls-14" d="M1986.25,1121.4c8.3,1.7,16.51,3.78,24.66,6.08,4.09,1.14,8.13,2.41,12.17,3.71,2,.66,4,1.38,6,2.12,1,.38,2,.75,3,1.21.5.22,1,.43,1.51.67l1.46.76a64.41,64.41,0,0,1,10.53,7.5c3.24,2.75,6.44,5.46,9.71,8.09a207.67,207.67,0,0,0,20.75,14.41,117.66,117.66,0,0,1-22.16-12.54c-3.49-2.45-6.78-5.16-10.09-7.76a65.53,65.53,0,0,0-10.17-7.07,86,86,0,0,0-11.5-4.71c-4-1.44-8-2.77-11.94-4.16C2002.23,1127,1994.21,1124.29,1986.25,1121.4Z"/><path class="cls-14" d="M2000.9,1103c7,1.47,13.95,3.23,20.85,5.09,3.46.9,6.89,1.91,10.33,2.87l10.27,3a91.13,91.13,0,0,1,10.3,3.57,35,35,0,0,1,9.2,6.13,88.92,88.92,0,0,1,7.47,7.84q3.49,4.1,6.76,8.36c-5.31-4.8-10.31-10-15.75-14.41a35.87,35.87,0,0,0-8.82-5.32,96.74,96.74,0,0,0-10-3.29l-10.24-3.19c-3.4-1.11-6.81-2.18-10.19-3.34C2014.3,1108,2007.56,1105.66,2000.9,1103Z"/><path class="cls-19" d="M2302.31,1464.12a31.16,31.16,0,0,0,3,4.88,51.08,51.08,0,0,0,3.58,4.44,63.68,63.68,0,0,0,8.3,7.71,74.53,74.53,0,0,0,9.36,6.32,94.83,94.83,0,0,0,10.07,5.07c3.46,1.5,7,2.78,10.58,4s7.23,2.11,10.9,3c1.84.42,3.69.82,5.53,1.2s3.66.65,5.52.86a92.38,92.38,0,0,0,11.17.66,116.52,116.52,0,0,0,22.39-2.23,169.68,169.68,0,0,0,21.94-5.82c7.2-2.44,14.3-5.23,21.25-8.39s13.81-6.59,20.49-10.41a155,155,0,0,1-19.41,12.55,178.07,178.07,0,0,1-21,9.86c-14.43,5.63-29.87,9.34-45.64,9.42a86.14,86.14,0,0,1-11.79-.77c-2-.25-3.91-.58-5.85-1s-3.81-.85-5.71-1.31a115.92,115.92,0,0,1-22-8,95,95,0,0,1-10.18-5.84,77.88,77.88,0,0,1-9.22-7.26,60.72,60.72,0,0,1-7.77-8.73A38.85,38.85,0,0,1,2302.31,1464.12Z"/></svg>