<svg xmlns="http://www.w3.org/2000/svg" xmlns:xlink="http://www.w3.org/1999/xlink" viewBox="0 0 4680 3120"><defs><style>.cls-1{isolation:isolate;}.cls-10,.cls-2{fill:#fff;}.cls-3{fill:#f6f2ff;}.cls-4{fill:#ede4ff;}.cls-5{fill:#e4dbfa;}.cls-6{fill:#beb2da;}.cls-7{fill:none;stroke:#e4dbfa;stroke-linecap:round;stroke-miterlimit:10;stroke-width:5px;}.cls-13,.cls-8{fill:#bfd2e1;}.cls-9{fill:#070208;}.cls-10{opacity:0.3;}.cls-11,.cls-12,.cls-13{mix-blend-mode:multiply;}.cls-11{fill:url(#linear-gradient);}.cls-12{fill:url(#linear-gradient-2);}.cls-14{fill:#d5301d;}.cls-15{fill:#ff4d40;}.cls-16{fill:#ad2217;opacity:0.62;}.cls-17{fill:#ffb8b8;}.cls-18{fill:#ff920f;}.cls-19{fill:#fcbd72;}.cls-20{fill:#f59d4e;}.cls-21{opacity:0.66;}.cls-22{fill:#d2d7db;}.cls-23{fill:#fed194;}.cls-24{fill:#72120c;}.cls-25{fill:#530905;}.cls-26{fill:#0a031c;}.cls-27{fill:#aeb6b7;}.cls-28{fill:#6d378f;}.cls-29{opacity:0.54;}.cls-30{fill:#ffb113;}.cls-31{fill:#42115f;}.cls-32{fill:#7c48a0;}.cls-33{fill:#4f4f4f;}</style><linearGradient id="linear-gradient" x1="2018.12" y1="1108.4" x2="2018.12" y2="397.72" gradientUnits="userSpaceOnUse"><stop offset="0" stop-color="#e8eaff"/><stop offset="0.1" stop-color="#d9e8e6"/><stop offset="1" stop-color="#fff"/></linearGradient><linearGradient id="linear-gradient-2" x1="1862.98" y1="1095.22" x2="2169.36" y2="508.1" gradientUnits="userSpaceOnUse"><stop offset="0" stop-color="#eaeff4"/><stop offset="0.51" stop-color="#f7f9fb"/><stop offset="1" stop-color="#fff"/></linearGradient></defs><title>07</title><g class="cls-1"><g id="_07" data-name="07"><rect id="_07-2" data-name="07" class="cls-2" width="4680" height="3120"/><path class="cls-3" d="M3417.65,1222.78q0,3.53,0,7.07c0,1,0,2.07,0,3.1,0,1.42,0,2.84,0,4.26s0,2.92-.07,4.38c0,.51,0,1,0,1.54,0,.22,0,.43,0,.64s0,.42,0,.64c0,.95-.05,1.91-.07,2.87,0,.59,0,1.18,0,1.77,0,.81,0,1.62-.07,2.44,0,1.33-.08,2.67-.13,4,0,.23,0,.47,0,.7l-.27,6.8c0,.11,0,.23,0,.35-.1,2.37-.22,4.76-.34,7.14t0,0c-.11,2-.23,4-.34,6,0,.6-.08,1.19-.11,1.79q-.37,6.36-.88,12.74L3415,1293c-.09,1.26-.2,2.52-.3,3.77-.07.74-.14,1.49-.2,2.22,0,.5-.09,1-.12,1.5-.11,1.26-.23,2.5-.34,3.76l0,.26c-.2,2.13-.41,4.29-.62,6.43-.05.44-.09.9-.14,1.36-.24,2.38-.49,4.77-.76,7.14,0,.15,0,.29,0,.43-.05.45-.1.89-.16,1.34-.2,1.84-.42,3.7-.64,5.53,0,.1,0,.2,0,.3q-.45,3.81-.94,7.6c-.22,1.73-.46,3.45-.69,5.19,0,.25-.08.51-.11.75-.13,1-.26,2-.41,3-.16,1.18-.33,2.36-.5,3.53q-.31,2.19-.66,4.38c0,.48-.12,1-.2,1.45-.12.8-.25,1.6-.37,2.4-.07.46-.14.9-.21,1.35-.34,2.14-.68,4.27-1,6.41-.27,1.67-.56,3.33-.85,5-.07.38-.13.77-.2,1.17s-.11.62-.17.92c0,.14,0,.28-.07.42s-.05.28-.06.42-.06.39-.1.58c-.22,1.24-.44,2.5-.67,3.74-.16.9-.33,1.8-.5,2.7-.06.34-.12.69-.19,1a.44.44,0,0,1,0,.1c-.3,1.73-.64,3.46-1,5.2-.46,2.35-.92,4.72-1.4,7.08s-1,4.72-1.45,7.08l-.75,3.54c-.21,1-.44,2.05-.66,3.07,0,.16-.08.31-.11.47-.11.5-.22,1-.34,1.5s-.25,1.16-.39,1.74c-.26,1.24-.54,2.48-.83,3.72s-.57,2.47-.86,3.71c-.16.7-.32,1.38-.48,2.09-.13.54-.27,1.08-.39,1.64-.56,2.25-1.1,4.52-1.66,6.77l-.15.62c-.53,2.15-1.08,4.28-1.63,6.43-.6,2.34-1.21,4.69-1.84,7-.55,2.08-1.12,4.16-1.68,6.22-.23.84-.47,1.68-.71,2.53q-.73,2.64-1.5,5.3c-.67,2.34-1.34,4.68-2,7q-.9,3-1.83,6.11c-.12.38-.23.77-.35,1.15l-1.47,4.73c-.2.66-.41,1.33-.63,2-.71,2.27-1.45,4.55-2.18,6.81s-1.56,4.77-2.37,7.14-1.57,4.64-2.37,7c-.75,2.16-1.5,4.3-2.27,6.46l-.27.76c-.24.65-.46,1.3-.7,2q-1.77,5-3.64,9.91-.83,2.22-1.68,4.44l-.29.74c-.29.8-.6,1.59-.91,2.38s-.66,1.72-1,2.57c-.07.16-.13.34-.19.5l-1.91,4.83-.14.33c-.42,1.08-.85,2.14-1.28,3.2-.34.84-.68,1.67-1,2.5q-.9,2.21-1.81,4.39c-.24.59-.48,1.17-.74,1.77q-.71,1.71-1.44,3.42l-.82,2-1.35,3.14c-1,2.3-2,4.58-3,6.86a.21.21,0,0,0,0,.1l0,0-.47,1.05c-.34.74-.67,1.5-1,2.24-.5,1.14-1,2.28-1.54,3.42q-1.24,2.78-2.53,5.56c-.31.66-.6,1.32-.91,2-.63,1.32-1.24,2.66-1.87,4l-1,2.13c-.54,1.14-1.09,2.27-1.63,3.4s-1.09,2.27-1.64,3.39l-1,1.92c-.23.49-.46,1-.71,1.48l-.85,1.7-.83,1.68c-.66,1.32-1.31,2.64-2,4-.43.84-.85,1.69-1.28,2.52l-.15.29c-.17.35-.35.7-.53,1s-.4.81-.6,1.2l-1.37,2.64c-.32.63-.65,1.25-1,1.89l-.65,1.24c-.37.7-.75,1.42-1.11,2.12l-.51.95-1.28,2.42c-2.4,4.47-4.83,9-7.32,13.41l0,0,0,0c-.18.34-.37.68-.56,1s-.44.76-.65,1.14l-.62,1.11c-.69,1.23-1.37,2.44-2.07,3.64-.58,1-1.15,2-1.74,3-.81,1.44-1.64,2.86-2.48,4.29a.49.49,0,0,1-.1.15c-.77,1.33-1.55,2.68-2.34,4-.89,1.51-1.8,3-2.69,4.53a2.33,2.33,0,0,0-.2.34,1,1,0,0,0-.11.17c-.91,1.52-1.85,3-2.77,4.56l-1.46,2.4q-1.92,3.13-3.87,6.25l-1.48,2.33q-5.28,8.38-10.81,16.68c-.76,1.16-1.53,2.3-2.29,3.44-1.54,2.29-3.08,4.56-4.65,6.85-87.54,127.67-187.39,224-293.8,293.68a918.54,918.54,0,0,1-115,64.09q-22.14,10.34-44.52,19.33l-.26.1a903,903,0,0,1-123.1,39.5,929.45,929.45,0,0,1-152.56,23.94q-20,1.47-39.87,2.09c-90.87,2.88-180.71-7.08-266.56-27.5a1059.06,1059.06,0,0,1-256.08-97.24q-37.23-20-72-42.62-28.74-18.72-55.54-39a874.64,874.64,0,0,1-76.17-64.7l-.77-.78-.15-.15,0-.05-.3-.3a1.14,1.14,0,0,0-.15-.16l-.24-.25c-.26-.26-.54-.56-.85-.89l-.4-.42v0l-.06,0-.06-.06-.3-.31c-.28-.29-.55-.59-.85-.92l-.07-.06-.06-.06-.18-.2c-.64-.66-1.31-1.41-2.06-2.21-.24-.25-.47-.52-.72-.78l-2.45-2.67c-.46-.52-1-1-1.47-1.62l-.29-.32-2.24-2.51c-.22-.26-.46-.52-.7-.79l-.18-.19-1.1-1.26c-2.44-2.77-5.12-5.87-8-9.27-.22-.25-.45-.52-.67-.79q-2-2.38-4.17-5l-1.3-1.55c-.41-.51-.85-1-1.28-1.55l-.35-.43-.37-.46-.09-.1-.28-.33c-.3-.39-.63-.77-.94-1.17s-.75-.92-1.14-1.38c-.61-.77-1.24-1.55-1.89-2.35-.2-.26-.42-.52-.64-.79l-1.68-2.11c-.28-.35-.56-.7-.83-1.06q-3.16-4-6.44-8.21c-.46-.58-.9-1.15-1.34-1.74a1.49,1.49,0,0,1-.15-.2l0-.06-1.77-2.31c-1-1.36-2.1-2.75-3.16-4.16h0l-.43-.56-.57-.78c-.11-.13-.23-.28-.34-.43-.56-.75-1.12-1.5-1.68-2.27-.16-.22-.32-.42-.48-.63s-.32-.43-.47-.65q-2.1-2.82-4.23-5.74c-1.57-2.17-3.15-4.37-4.76-6.62l-1.61-2.26-.37-.55q-2.81-4-5.64-8.08-4.3-6.26-8.69-12.88c-.28-.44-.58-.88-.86-1.32l-.1-.15q-.92-1.38-1.83-2.79l-.15-.24c-.6-.9-1.18-1.82-1.78-2.74s-1.23-1.92-1.86-2.88l-.08-.13-1.79-2.8c-2.46-3.88-4.92-7.86-7.39-11.9-.81-1.35-1.65-2.71-2.46-4.08-.65-1.07-1.29-2.15-1.94-3.25-1.95-3.24-3.87-6.55-5.8-9.91-2.57-4.47-5.14-9-7.67-13.66q-1.91-3.48-3.8-7c-.62-1.17-1.26-2.35-1.88-3.54s-1.21-2.27-1.79-3.42-1.2-2.29-1.78-3.45c-.32-.6-.65-1.23-1-1.86-.51-1-1-2-1.53-3-1-2-2-4-3-6.09a2.92,2.92,0,0,1-.17-.36c-.51-1-1-2.06-1.52-3.11s-.88-1.79-1.32-2.7c-.57-1.21-1.16-2.44-1.74-3.66-.69-1.45-1.38-2.91-2-4.38-.3-.62-.59-1.27-.89-1.9-.47-1-1-2.08-1.43-3.12s-.91-2-1.38-3-.77-1.75-1.16-2.63c-.31-.69-.62-1.39-.92-2.08-.09-.18-.17-.37-.25-.56-.66-1.51-1.31-3-2-4.52-.77-1.8-1.55-3.61-2.31-5.41-.18-.44-.36-.88-.55-1.32,0-.11-.09-.2-.13-.31h0l-1.5-3.65-.59-1.43-.06-.15c-.12-.29-.22-.57-.34-.85s-.17-.43-.26-.65-.28-.7-.42-1c-.57-1.4-1.12-2.83-1.68-4.24-.37-1-.74-1.9-1.12-2.86l-1.5-3.91c-.32-.86-.65-1.71-1-2.57-.55-1.47-1.1-2.94-1.63-4.41-.44-1.18-.87-2.37-1.3-3.56l-.6-1.69-.46-1.29q-.63-1.77-1.23-3.51c-.24-.67-.46-1.32-.69-2s-.47-1.4-.71-2.09-.55-1.62-.82-2.44-.54-1.62-.8-2.43c-.48-1.44-1-2.88-1.41-4.34l-.6-1.87c-.37-1.16-.73-2.32-1.09-3.48-.75-2.38-1.47-4.78-2.19-7.19l-.3-1c-.24-.84-.48-1.69-.73-2.53-.41-1.44-.83-2.89-1.23-4.34q-.72-2.51-1.38-5c-.44-1.61-.88-3.23-1.3-4.85s-.75-2.94-1.13-4.41c-.26-1-.5-2.06-.75-3.08-.16-.62-.31-1.22-.46-1.85l-.18-.73c-.07-.29-.13-.57-.2-.86a.22.22,0,0,1,0-.11c-.24-1-.46-1.91-.68-2.89s-.43-1.81-.63-2.72c-.27-1.16-.53-2.33-.77-3.5-.08-.3-.14-.59-.2-.89-.15-.64-.28-1.26-.42-1.9-.22-1-.43-2-.63-3q-.54-2.6-1-5.22l0-.14q-.1-.45-.18-.9l-.18-.91c-.25-1.26-.47-2.51-.71-3.75q-.45-2.4-.87-4.8c-.1-.58-.2-1.16-.29-1.74,0-.18-.07-.34-.09-.51s0-.25-.07-.38c-.15-.89-.3-1.76-.44-2.65s-.3-1.76-.44-2.66-.28-1.76-.41-2.65c-.21-1.42-.43-2.84-.63-4.27l-.3-2.1q-.14-.93-.27-1.89c-.11-.83-.22-1.67-.34-2.52-.22-1.76-.44-3.52-.65-5.28-.16-1.35-.32-2.7-.47-4s-.3-2.7-.43-4c-.17-1.65-.33-3.29-.48-4.94l-.06-.64c-.08-.85-.15-1.72-.22-2.57s-.16-1.82-.23-2.72c-.22-2.72-.42-5.47-.57-8.21-.06-.91-.12-1.82-.16-2.73s-.08-1.51-.12-2.27c0-.49-.05-1-.07-1.52l0-.55c0-.83-.07-1.66-.11-2.5s-.07-1.79-.1-2.68l0-.67c0-.34,0-.68,0-1s0-.94,0-1.42v-.07c0-.68,0-1.36,0-2l0-1.34c0-1.09,0-2.19-.05-3.29,0-1.9,0-3.8,0-5.7q0-2.17,0-4.35c0-1.27,0-2.53.05-3.81,0-.62,0-1.27,0-1.89,0-1.3.07-2.61.11-3.92,0-.22,0-.44,0-.66s0-.24,0-.37c0-.32,0-.65,0-1,0-1.15.09-2.29.14-3.44,0-.32,0-.64,0-1s0-.44,0-.67c0-.69.06-1.36.1-2,0-.53,0-1.06.09-1.6s.07-1.27.11-1.91c0-.2,0-.41,0-.63s0-.49,0-.72c0-.64.08-1.28.12-1.9,0-.19,0-.37,0-.56,0-.71.1-1.41.15-2.12,0-.28,0-.55.07-.83s.05-.73.09-1.09.08-1,.12-1.51l.21-2.5c.07-.83.15-1.68.24-2.5,0-.54.1-1.09.15-1.63.1-1,.19-1.9.3-2.85a.57.57,0,0,1,0-.13c0-.33.06-.65.1-1,.11-1,.21-2,.33-3,0-.31.07-.62.11-.93a.45.45,0,0,0,0-.11.64.64,0,0,1,0-.07s0-.07,0-.1a1.34,1.34,0,0,0,0-.2.2.2,0,0,0,0-.07c0-.12,0-.25,0-.36s0-.3.05-.44c.06-.44.11-.89.17-1.31.07-.61.14-1.21.22-1.78s.1-.83.17-1.22c0-.22,0-.45.08-.67.09-.68.18-1.38.27-2.08a.08.08,0,0,1,0,0c.2-1.51.42-3,.65-4.52.06-.43.12-.88.2-1.32.12-.85.26-1.72.4-2.57,0-.16.05-.31.07-.46s.07-.41.1-.61c.21-1.38.44-2.73.68-4.09a4.89,4.89,0,0,1,.09-.53c.2-1.23.42-2.45.65-3.67,0-.11,0-.22.06-.34.09-.5.17-1,.27-1.54l.15-.83.09-.41c.25-1.34.51-2.67.78-4l.27-1.32c.09-.5.19-1,.3-1.53s.17-.79.25-1.18l.24-1.17c0-.06,0-.12.05-.19q.66-3.14,1.37-6.27c.25-1.05.49-2.09.74-3.15.07-.26.13-.52.19-.78.17-.79.37-1.57.56-2.36,0-.19.09-.37.14-.55s.07-.31.12-.46c.12-.54.26-1.06.4-1.59.09-.37.18-.73.27-1.07.2-.82.4-1.62.61-2.44l.9-3.36c.27-1,.55-2,.84-3.08.08-.29.17-.59.25-.89.17-.62.35-1.21.52-1.82,0-.18.09-.35.13-.51.31-1.06.61-2.1.93-3.15.47-1.58.94-3.17,1.43-4.75s1-3.17,1.48-4.75c.45-1.41.9-2.82,1.37-4.24.16-.46.31-.92.47-1.39q.8-2.41,1.64-4.8c.35-1.06.73-2.11,1.11-3.16l.19-.55.18-.47.45-1.26c.77-2.13,1.55-4.25,2.37-6.37.12-.33.25-.65.38-1s.26-.71.4-1.07c.56-1.43,1.13-2.87,1.69-4.31h0c.85-2.11,1.71-4.24,2.59-6.37s1.78-4.25,2.72-6.37q4.86-11.21,10.46-22.39a.59.59,0,0,0,.06-.14l0-.06s0-.07.06-.11a2.25,2.25,0,0,1,.16-.31,2.56,2.56,0,0,1,.11-.24l.09-.16c.2-.41.4-.82.61-1.22.71-1.4,1.41-2.78,2.14-4.16q1.68-3.24,3.42-6.48c.56-1,1.12-2,1.68-3.08,0,0,.06-.09.09-.15.59-1.08,1.19-2.16,1.79-3.24s1.22-2.16,1.83-3.23,1.23-2.17,1.86-3.24q1.69-2.94,3.45-5.86,5-8.41,10.52-16.82c.7-1.09,1.41-2.16,2.14-3.25q4.76-7.17,9.88-14.37l.69-1c.46-.65.93-1.29,1.4-1.94q6.09-8.45,12.69-16.88c.58-.76,1.18-1.52,1.78-2.28,1.3-1.65,2.61-3.28,4-4.94.61-.78,1.24-1.54,1.87-2.31s1.37-1.68,2.06-2.51c1.16-1.42,2.35-2.83,3.54-4.26q3.27-3.88,6.64-7.76,4.41-5.09,8.67-10.19,6.33-7.57,12.31-15.19a644.93,644.93,0,0,0,65.92-102.41c1.23-2.38,2.45-4.75,3.64-7.14s2.38-4.76,3.55-7.14,2.3-4.77,3.43-7.15c.57-1.18,1.14-2.38,1.68-3.57.7-1.49,1.38-3,2.07-4.46l2-4.47c.66-1.49,1.33-3,2-4.47s1.31-3,2-4.46c.51-1.18,1-2.38,1.54-3.57s1.14-2.68,1.7-4,1.12-2.67,1.68-4,1.1-2.67,1.64-4l1.62-4h0c.28-.66.53-1.33.8-2,.66-1.63,1.29-3.26,1.92-4.89l.44-1.13c1-2.67,2-5.33,3.06-8,.44-1.2.89-2.38,1.33-3.58q3.45-9.35,6.65-18.67c.72-2.08,1.43-4.15,2.11-6.22.8-2.37,1.58-4.73,2.36-7.09,0-.07,0-.14.07-.22l.06-.23c.72-2.21,1.44-4.42,2.14-6.62,6.76-21.25,12.69-42.39,18.09-63.35q1.37-5.21,2.68-10.43h0q1.32-5.22,2.6-10.41c.57-2.33,1.13-4.63,1.69-7,1.12-4.6,2.22-9.21,3.32-13.79s2.15-9.18,3.23-13.74,2.11-9.13,3.17-13.69q2-8.52,3.91-17c1.95-8.44,3.88-16.85,5.85-25.19h0q1.85-7.85,3.71-15.61c.06-.25.13-.51.18-.76.68-2.85,1.38-5.69,2.07-8.53h0c11.89-48.4,25.22-94.73,44.94-138,2.61-5.76,5.37-11.47,8.23-17.13a397.7,397.7,0,0,1,26.69-45.25q7.08-10.35,15-20.36A365.55,365.55,0,0,1,2024.1,424c29-27.68,64.73-52.89,109.45-75.16q20-9.93,42.48-19.12l4.95-2q27.81-11.06,59.6-20.87c49.05-15.1,105.56-27.87,170.88-38a738.42,738.42,0,0,1,277.08,9.56c163,36.67,312,126.13,432.19,247.84,1.29,1.3,2.58,2.62,3.86,3.93s2.56,2.62,3.83,3.94l2.18,2.26c.92,1,1.85,1.91,2.76,2.89l3.56,3.75q1.48,1.56,2.94,3.13c1.23,1.31,2.46,2.64,3.68,4s2.5,2.7,3.74,4.05,2.7,2.95,4,4.43q1.71,1.86,3.37,3.74c1.23,1.36,2.46,2.74,3.68,4.11,2.43,2.74,4.87,5.52,7.27,8.3s4.81,5.56,7.19,8.36c1.2,1.39,2.38,2.82,3.57,4.22,1,1.24,2.09,2.48,3.12,3.72,2.67,3.22,5.34,6.45,8,9.71,1,1.2,2,2.41,2.94,3.64q8.66,10.74,17.06,21.75c1.12,1.46,2.23,2.93,3.35,4.41s2.21,3,3.32,4.43l3,4c.16.23.32.44.48.66q1.56,2.1,3.1,4.23c1.09,1.48,2.18,3,3.25,4.47l3.16,4.38a4,4,0,0,0,.23.34c1.33,1.87,2.65,3.72,4,5.59s2.63,3.76,3.93,5.63,2.61,3.75,3.9,5.64,2.59,3.78,3.86,5.68c1.87,2.76,3.73,5.56,5.57,8.34,1.22,1.84,2.43,3.67,3.63,5.51q1.48,2.26,2.95,4.54c1.2,1.88,2.41,3.75,3.6,5.62.81,1.29,1.63,2.56,2.43,3.84q1.48,2.36,2.95,4.71c2,3.14,3.91,6.28,5.83,9.45q4.32,7.11,8.54,14.29c1.89,3.19,3.73,6.4,5.58,9.6q1.33,2.31,2.64,4.64c.08.13.15.26.22.39l2.6,4.59a.43.43,0,0,0,0,.07l2.67,4.83c.89,1.62,1.79,3.23,2.67,4.86q7,12.75,13.58,25.71,1.32,2.58,2.63,5.18l.41.82c.79,1.56,1.57,3.13,2.35,4.69.08.16.15.33.23.48.7,1.41,1.4,2.81,2.08,4.23,1.12,2.26,2.21,4.53,3.3,6.79.57,1.16,1.12,2.34,1.68,3.51.49,1,1,2,1.44,3,.79,1.66,1.57,3.33,2.36,5q4.93,10.63,9.66,21.36,1.14,2.6,2.26,5.18,2,4.53,3.85,9c.7,1.64,1.39,3.3,2.07,5a1.94,1.94,0,0,1,.13.3c.64,1.54,1.28,3.09,1.91,4.63.13.29.23.58.35.88.59,1.41,1.16,2.82,1.73,4.23q3.2,7.93,6.24,15.9c.73,1.9,1.46,3.8,2.17,5.7q1.89,5,3.71,10c.52,1.43,1,2.86,1.57,4.3.12.36.25.72.38,1.07.56,1.56,1.11,3.11,1.66,4.67.41,1.16.81,2.3,1.21,3.46s.9,2.55,1.32,3.84,1,2.76,1.43,4.13,1,3,1.51,4.5c.58,1.75,1.17,3.51,1.74,5.26q4.71,14.32,9,28.82c.41,1.38.82,2.77,1.22,4.16s.79,2.73,1.18,4.11.78,2.78,1.17,4.17c.76,2.63,1.48,5.26,2.19,7.91.37,1.31.71,2.62,1.06,3.93.45,1.69.91,3.36,1.34,5q2.86,11,5.48,22c.4,1.73.81,3.46,1.21,5.21.35,1.48.68,3,1,4.47.09.45.2.9.3,1.36.37,1.65.75,3.31,1.1,5l1,4.72c.44,2.09.89,4.17,1.31,6.27.36,1.76.71,3.51,1.07,5.26q.69,3.39,1.34,6.79c.26,1.35.52,2.7.77,4.07.35,1.76.67,3.54,1,5.32.2,1,.39,2.1.57,3.15.15.8.3,1.61.42,2.41q.33,1.77.63,3.54c.43,2.45.85,4.9,1.24,7.36q.45,2.68.88,5.39c.18,1.1.34,2.19.5,3.3.21,1.29.41,2.58.6,3.86s.39,2.56.57,3.84c.21,1.44.41,2.87.61,4.3.18,1.17.34,2.36.5,3.54q1.76,12.69,3.14,25.42c.23,2,.43,4,.63,6s.42,4,.61,6,.38,4,.56,6,.35,4,.52,6.07c0,.53.09,1.07.13,1.59s.07.91.1,1.37l.12,1.49c.05.53.09,1.07.13,1.61.07.94.14,1.87.2,2.81.26,3.36.48,6.7.67,10.07.12,1.89.23,3.79.34,5.68,0,0,0,.08,0,.11.1,1.86.19,3.71.28,5.58.07,1.51.14,3,.2,4.53,0,.31,0,.6.05.91,0,.64,0,1.27.07,1.91,0,.23,0,.45,0,.69.07,1.68.14,3.38.19,5.08,0,.86.06,1.7.08,2.55s.06,1.69.07,2.54c.07,2,.11,4,.16,6.08,0,1.51,0,3,.07,4.53,0,.19,0,.39,0,.59,0,1.18,0,2.35,0,3.53,0,.25,0,.5,0,.76,0,.77,0,1.55,0,2.32,0,.42,0,.84,0,1.25C3417.65,1221.06,3417.65,1221.91,3417.65,1222.78Z"/><path class="cls-4" d="M3417.65,1222.78q0,3.53,0,7.07c0,1,0,2.07,0,3.1,0,1.42,0,2.84,0,4.26s0,2.92-.07,4.38c0,.51,0,1,0,1.54,0,.22,0,.43,0,.64s0,.42,0,.64c0,.95-.05,1.91-.07,2.87,0,.59,0,1.18,0,1.77,0,.81,0,1.62-.07,2.44,0,1.33-.08,2.67-.13,4,0,.23,0,.47,0,.7l-.27,6.8c0,.11,0,.23,0,.35-.1,2.37-.22,4.76-.34,7.14t0,0c-.11,2-.23,4-.34,6,0,.6-.08,1.19-.11,1.79q-.37,6.36-.88,12.74L3415,1293c-.09,1.26-.2,2.52-.3,3.77-.07.74-.14,1.49-.2,2.22,0,.5-.09,1-.12,1.5-.11,1.26-.23,2.5-.34,3.76l0,.26c-.2,2.13-.41,4.29-.62,6.43-.05.44-.09.9-.14,1.36-.24,2.38-.49,4.77-.76,7.14,0,.15,0,.29,0,.43-.05.45-.1.89-.16,1.34-.2,1.84-.42,3.7-.64,5.53,0,.1,0,.2,0,.3q-.45,3.81-.94,7.6c-.22,1.73-.46,3.45-.69,5.19,0,.25-.08.51-.11.75-.13,1-.26,2-.41,3-.16,1.18-.33,2.36-.5,3.53q-.31,2.19-.66,4.38c0,.48-.12,1-.2,1.45-.12.8-.25,1.6-.37,2.4-.07.46-.14.9-.21,1.35-.34,2.14-.68,4.27-1,6.41-.27,1.67-.56,3.33-.85,5-.07.38-.13.77-.2,1.17s-.1.61-.16.92h0c0,.14,0,.28-.07.42s-.05.28-.06.42-.06.39-.1.58c-.22,1.24-.44,2.5-.67,3.74-.16.9-.33,1.8-.5,2.7-.06.34-.12.69-.19,1a.44.44,0,0,1,0,.1c-.3,1.73-.64,3.46-1,5.2-.46,2.35-.92,4.72-1.4,7.08s-1,4.72-1.45,7.08l-.75,3.54c-.21,1-.44,2.05-.66,3.07,0,.16-.08.31-.11.47-.11.5-.22,1-.34,1.5s-.25,1.16-.39,1.74c-.26,1.24-.54,2.48-.83,3.72s-.57,2.47-.86,3.71c-.16.7-.32,1.38-.48,2.09-.13.54-.27,1.08-.39,1.64-.56,2.25-1.1,4.52-1.66,6.77l-.15.62c-.53,2.15-1.08,4.28-1.63,6.43-.6,2.34-1.21,4.69-1.84,7-.55,2.08-1.12,4.16-1.68,6.22-.23.84-.47,1.68-.71,2.53q-.73,2.64-1.5,5.3c-.67,2.34-1.34,4.68-2,7q-.9,3-1.83,6.11c-.12.38-.23.77-.35,1.15l-1.47,4.73c-.2.66-.41,1.33-.63,2-.71,2.27-1.45,4.55-2.18,6.81s-1.56,4.77-2.37,7.14-1.57,4.64-2.37,7c-.75,2.16-1.5,4.3-2.27,6.46l-.27.76c-.24.65-.46,1.3-.7,2q-1.77,5-3.64,9.91-.83,2.22-1.68,4.44l-.29.74c-.29.8-.6,1.59-.91,2.38s-.66,1.72-1,2.57c-.07.16-.13.34-.19.5l-1.91,4.83-.14.33c-.42,1.08-.85,2.14-1.28,3.2-.34.84-.68,1.67-1,2.5q-.9,2.21-1.81,4.39c-.24.59-.48,1.17-.74,1.77q-.71,1.71-1.44,3.42l-.82,2-1.35,3.14c-1,2.3-2,4.58-3,6.86a.21.21,0,0,0,0,.1,0,0,0,0,0,0,0l-.48,1.05c-.34.74-.67,1.5-1,2.24-.5,1.14-1,2.28-1.54,3.42q-1.24,2.78-2.53,5.56c-.31.66-.6,1.32-.91,2-.63,1.32-1.24,2.66-1.87,4l-1,2.13c-.54,1.14-1.09,2.27-1.63,3.4s-1.09,2.27-1.64,3.39l-1,1.92c-.23.49-.46,1-.71,1.48l-.85,1.7-.83,1.68c-.66,1.32-1.31,2.64-2,4-.43.84-.85,1.69-1.28,2.52l-.15.29c-.17.35-.35.7-.53,1s-.4.81-.6,1.2l-1.37,2.64c-.32.63-.65,1.25-1,1.89l-.65,1.24c-.37.7-.75,1.42-1.11,2.12l-.51.95-1.28,2.42c-2.4,4.47-4.83,9-7.32,13.41l0,0s0,0,0,0l-.57,1c-.22.38-.44.76-.65,1.14l-.62,1.11c-.69,1.23-1.37,2.44-2.07,3.64-.58,1-1.15,2-1.74,3-.81,1.44-1.64,2.86-2.48,4.29a.49.49,0,0,1-.1.15c-.77,1.33-1.55,2.68-2.34,4-.89,1.51-1.8,3-2.69,4.53a2.33,2.33,0,0,0-.2.34,1,1,0,0,0-.11.17c-.91,1.52-1.85,3-2.77,4.56l-1.46,2.4q-1.92,3.13-3.87,6.25l-1.48,2.33q-5.28,8.38-10.81,16.68c-.76,1.16-1.53,2.3-2.29,3.44-1.54,2.29-3.08,4.56-4.65,6.85-87.54,127.67-187.39,224-293.8,293.68a918.54,918.54,0,0,1-115,64.09q-22.14,10.34-44.52,19.33l-.26.1a903,903,0,0,1-123.1,39.5,929.45,929.45,0,0,1-152.56,23.94q-20,1.47-39.87,2.09c-90.87,2.88-180.71-7.08-266.56-27.5a1059.06,1059.06,0,0,1-256.08-97.24q-37.23-20-72-42.62-28.74-18.72-55.54-39a874.64,874.64,0,0,1-76.17-64.7l-.77-.78-.15-.15,0-.05-.28-.29h0a1.14,1.14,0,0,0-.15-.16l-.24-.25c-.26-.26-.54-.56-.85-.89l-.4-.42v0l-.06,0-.06-.06-.3-.31c-.28-.29-.55-.59-.85-.92l-.07-.06v0l-.23-.24c-.64-.66-1.31-1.41-2.06-2.21-.24-.25-.47-.52-.72-.78l-2.45-2.67c-.46-.52-1-1-1.47-1.62l-.29-.32-2.24-2.51c-.22-.26-.46-.52-.7-.79l-.18-.19-1.1-1.26c-2.44-2.77-5.12-5.87-8-9.27-.22-.25-.45-.52-.67-.79q-2-2.38-4.17-5l-1.3-1.55c-.41-.51-.85-1-1.28-1.55l-.35-.43-.37-.46-.09-.1-.28-.33c-.3-.39-.63-.77-.94-1.17s-.75-.92-1.14-1.38c-.61-.77-1.24-1.55-1.89-2.35-.2-.26-.42-.52-.64-.79l-1.68-2.11c-.28-.35-.56-.7-.83-1.06q-3.16-4-6.44-8.21c-.46-.58-.9-1.15-1.34-1.74a1.49,1.49,0,0,1-.15-.2l0-.06-1.77-2.31c-1-1.36-2.1-2.75-3.16-4.16h0l-.43-.56-.57-.78c-.11-.13-.23-.28-.34-.43-.44-.6-.89-1.19-1.34-1.79l-.82-1.11c-.16-.22-.32-.43-.47-.65q-2.1-2.82-4.23-5.74c-1.57-2.17-3.15-4.37-4.76-6.62l-1.61-2.26-.37-.55q-2.81-4-5.64-8.08-4.3-6.26-8.69-12.88c-.28-.44-.58-.88-.86-1.32l-.1-.15q-.92-1.38-1.83-2.79l-.15-.24c-.6-.9-1.18-1.82-1.78-2.74s-1.23-1.92-1.86-2.88l-.08-.13-1.79-2.8c-2.46-3.88-4.92-7.86-7.39-11.9-.81-1.35-1.65-2.71-2.46-4.08-.65-1.07-1.29-2.15-1.94-3.25-1.95-3.24-3.87-6.55-5.8-9.91-2.57-4.47-5.14-9-7.67-13.66q-1.91-3.48-3.8-7c-.62-1.17-1.26-2.35-1.88-3.54s-1.21-2.27-1.79-3.42-1.2-2.29-1.78-3.45c-.32-.6-.65-1.23-1-1.86-.51-1-1-2-1.53-3-1-2-2-4-3-6.09a2.92,2.92,0,0,1-.17-.36c-.51-1-1-2.06-1.52-3.11s-.88-1.79-1.32-2.7c-.57-1.21-1.16-2.44-1.74-3.66-.69-1.45-1.38-2.91-2-4.38-.3-.62-.59-1.27-.89-1.9-.47-1-1-2.08-1.43-3.12s-.91-2-1.38-3-.77-1.75-1.16-2.63c-.31-.69-.62-1.39-.92-2.08-.09-.18-.17-.37-.25-.56-.66-1.51-1.31-3-2-4.52-.77-1.8-1.55-3.61-2.31-5.41-.18-.44-.36-.88-.55-1.32,0-.11-.09-.2-.13-.31h0l-1.5-3.65-.59-1.43-.06-.15c-.12-.29-.22-.57-.34-.85s-.17-.43-.26-.65-.28-.7-.42-1c-.57-1.4-1.12-2.83-1.68-4.24-.37-1-.74-1.9-1.12-2.86l-1.5-3.91c-.32-.86-.65-1.71-1-2.57-.55-1.47-1.1-2.94-1.63-4.41-.44-1.18-.87-2.37-1.3-3.56l-.6-1.69-.46-1.29q-.63-1.77-1.23-3.51c-.24-.67-.46-1.32-.69-2s-.47-1.4-.71-2.09-.55-1.62-.82-2.44-.54-1.62-.8-2.43c-.48-1.44-1-2.88-1.41-4.34l-.6-1.87c-.37-1.16-.73-2.32-1.09-3.48-.75-2.38-1.47-4.78-2.19-7.19l-.3-1c-.24-.84-.48-1.69-.73-2.53-.41-1.44-.83-2.89-1.23-4.34q-.72-2.51-1.38-5c-.44-1.61-.88-3.23-1.3-4.85s-.75-2.94-1.13-4.41c-.26-1-.5-2.06-.75-3.08-.16-.62-.31-1.22-.46-1.85l-.18-.73c-.07-.29-.13-.57-.2-.86a.22.22,0,0,1,0-.11c-.24-1-.46-1.91-.68-2.89s-.43-1.81-.63-2.72c-.27-1.16-.53-2.33-.77-3.5-.08-.3-.14-.59-.2-.89-.15-.64-.28-1.26-.42-1.9-.22-1-.43-2-.63-3q-.54-2.6-1-5.22l0-.14q-.1-.45-.18-.9l-.18-.91c-.25-1.26-.47-2.51-.71-3.75q-.45-2.4-.87-4.8c-.1-.58-.2-1.16-.29-1.74,0-.18-.07-.34-.09-.51s0-.25-.07-.38c-.15-.89-.3-1.76-.44-2.65s-.3-1.76-.44-2.66-.28-1.76-.41-2.65c-.21-1.42-.43-2.84-.63-4.27l-.3-2.1q-.14-.93-.27-1.89c-.11-.83-.22-1.67-.34-2.52-.22-1.76-.44-3.52-.65-5.28-.16-1.35-.32-2.7-.47-4s-.3-2.7-.43-4c-.17-1.65-.33-3.29-.48-4.94l-.06-.64c-.08-.85-.15-1.72-.22-2.57s-.16-1.82-.23-2.72c-.22-2.72-.42-5.47-.57-8.21-.06-.91-.12-1.82-.16-2.73s-.08-1.51-.12-2.27c0-.49-.05-1-.07-1.52l0-.55c0-.83-.07-1.66-.11-2.5s-.07-1.79-.1-2.68l0-.67c0-.34,0-.68,0-1s0-.94,0-1.42v-.07c0-.68,0-1.36,0-2l0-1.34c0-1.09,0-2.19-.05-3.29,0-1.9,0-3.8,0-5.7q0-2.17,0-4.35c0-1.27,0-2.53.05-3.81,0-.62,0-1.27,0-1.89,0-1.3.07-2.61.11-3.92,0-.22,0-.44,0-.66V1420c0-.06,0-.1,0-.15,0-.32,0-.65,0-1,0-1.15.09-2.29.14-3.44,0-.32,0-.64,0-1s0-.44,0-.67c0-.69.06-1.36.1-2,0-.53,0-1.06.09-1.6s.07-1.27.11-1.91c0-.2,0-.41,0-.63s0-.49,0-.72c0-.64.08-1.28.12-1.9,0-.19,0-.37,0-.56,0-.71.1-1.41.15-2.12,0-.28,0-.55.07-.83s.05-.73.09-1.09.08-1,.12-1.51l.21-2.5c.07-.83.15-1.68.24-2.5,0-.54.1-1.09.15-1.63.1-1,.19-1.9.3-2.85a.57.57,0,0,1,0-.13c0-.33.06-.65.1-1,.11-1,.21-2,.33-3,0-.31.07-.62.11-.93a.45.45,0,0,0,0-.11l0-.17a1.34,1.34,0,0,0,0-.2.2.2,0,0,0,0-.07c0-.12,0-.25,0-.36s0-.3.05-.44c.06-.44.11-.89.17-1.31.07-.61.14-1.21.22-1.78s.1-.83.17-1.22c0-.22,0-.45.08-.67.09-.68.18-1.38.27-2.08a.08.08,0,0,1,0,0c.2-1.51.42-3,.65-4.52.06-.43.12-.88.2-1.32.12-.85.26-1.72.4-2.57,0-.16.05-.31.07-.46s.07-.41.1-.61c.21-1.38.44-2.73.68-4.09a4.89,4.89,0,0,1,.09-.53c.2-1.23.42-2.45.65-3.67,0-.11,0-.22.06-.34.09-.5.17-1,.27-1.54l.15-.83.09-.41c.25-1.34.51-2.67.78-4l.27-1.32c.09-.5.19-1,.3-1.53s.17-.79.25-1.18l.24-1.17c0-.06,0-.12.05-.19q.66-3.14,1.37-6.27c.25-1.05.49-2.09.74-3.15.07-.26.13-.52.19-.78.17-.79.37-1.57.56-2.36,0-.19.09-.37.14-.55s.07-.31.12-.46c.12-.54.26-1.06.4-1.59.09-.37.18-.73.27-1.07.2-.82.4-1.62.61-2.44l.9-3.36c.27-1,.55-2,.84-3.08.08-.29.17-.59.25-.89.17-.62.35-1.21.52-1.82,0-.18.09-.35.13-.51.31-1.06.61-2.1.93-3.15.47-1.58.94-3.17,1.43-4.75s1-3.17,1.48-4.75c.45-1.41.9-2.82,1.37-4.24.16-.46.31-.92.47-1.39q.8-2.41,1.64-4.8c.35-1.06.73-2.11,1.11-3.16l.19-.55.18-.47.45-1.26c.77-2.13,1.55-4.25,2.37-6.37.12-.33.25-.65.38-1s.26-.71.4-1.07c.56-1.43,1.13-2.87,1.69-4.31h0c.85-2.11,1.71-4.24,2.59-6.37s1.78-4.25,2.72-6.37q4.86-11.21,10.46-22.39a.59.59,0,0,0,.06-.14l0-.06s0-.07.06-.11a.41.41,0,0,1,0-.09,1.51,1.51,0,0,1,.11-.22,2.56,2.56,0,0,1,.11-.24l.09-.16c.2-.41.4-.82.61-1.22.71-1.4,1.41-2.78,2.14-4.16q1.68-3.24,3.42-6.48c.56-1,1.12-2,1.68-3.08,0,0,.06-.09.09-.15.59-1.08,1.19-2.16,1.79-3.24s1.22-2.16,1.83-3.23,1.23-2.17,1.86-3.24q1.69-2.94,3.45-5.86,5-8.41,10.52-16.82c.7-1.09,1.41-2.16,2.14-3.25q4.76-7.17,9.88-14.37l.69-1c.46-.65.93-1.29,1.4-1.94q6.09-8.45,12.69-16.88c.58-.76,1.18-1.52,1.78-2.28,1.3-1.65,2.61-3.28,4-4.94.61-.78,1.24-1.54,1.87-2.31s1.37-1.68,2.06-2.51c1.16-1.42,2.35-2.83,3.54-4.26q3.27-3.88,6.64-7.76,4.41-5.09,8.67-10.19,6.33-7.57,12.31-15.19a644.93,644.93,0,0,0,65.92-102.41c1.23-2.38,2.45-4.75,3.64-7.14s2.38-4.76,3.55-7.14,2.3-4.77,3.43-7.15c.57-1.18,1.14-2.38,1.68-3.57.7-1.49,1.38-3,2.07-4.46l2-4.47c.66-1.49,1.33-3,2-4.47s1.31-3,2-4.46c.51-1.18,1-2.38,1.54-3.57s1.14-2.68,1.7-4,1.12-2.67,1.68-4,1.1-2.67,1.64-4l1.62-4h0c.28-.66.53-1.33.8-2,.66-1.63,1.29-3.26,1.92-4.89l.44-1.13c1-2.67,2-5.33,3.06-8,.44-1.2.89-2.38,1.33-3.58q3.45-9.35,6.65-18.67c.72-2.08,1.43-4.15,2.11-6.22.8-2.37,1.58-4.73,2.36-7.09,0-.07,0-.14.07-.22s0-.16.07-.23c.72-2.21,1.44-4.42,2.13-6.62,6.76-21.25,12.69-42.39,18.09-63.35q1.37-5.21,2.68-10.43h0q1.32-5.22,2.6-10.41c.57-2.33,1.13-4.63,1.69-7,1.12-4.6,2.22-9.21,3.32-13.79s2.15-9.18,3.23-13.74,2.11-9.13,3.17-13.69q2-8.52,3.91-17c1.95-8.44,3.88-16.85,5.85-25.19h0q1.85-7.85,3.71-15.61c.74-3.09,1.5-6.17,2.25-9.25.06,2.19,3.75,119,81.82,194.12a208.62,208.62,0,0,0,37.08,28.47c3.56,2.15,7.21,4.21,11,6.19.35.17.68.35,1,.53l.34.17h0l.54.27c20.45,10.47,44.08,18.39,71.37,22.67l.66.1a310.7,310.7,0,0,0,52,3.45h0c27.57-.36,58.12-4,92-11.46q12.22-2.7,25-6.12l3.09-.83c1.93-.52,3.88-1.06,5.79-1.61h0c39.54-11.14,78.15-26.26,116.2-44.1,2.21-1,4.42-2.08,6.64-3.13q4.29-2.05,8.57-4.15l.29-.14q12.09-5.93,24.1-12.14c29.29-15.2,58.33-31.78,87.33-49.15,19.3-11.58,38.58-23.5,57.89-35.6l.66-.43h0c32.78-20.56,65.66-41.63,98.87-62.38,26.29-16.44,52.79-32.66,79.65-48.26h0q24.95-14.51,50.36-28.19,9.18-4.93,18.44-9.73c1.75-.92,3.52-1.82,5.27-2.73q5.39-2.75,10.79-5.46,17.1-8.55,34.45-16.54,7.54-3.5,15.14-6.83h0q10.61-4.67,21.31-9.1,11-4.53,22.1-8.79,14-5.37,28.21-10.24h0c50.43-17.29,102.86-29.75,157.94-35.29,1.29,1.3,2.58,2.62,3.86,3.93s2.56,2.62,3.83,3.94l2.18,2.26c.92,1,1.85,1.91,2.76,2.89l3.56,3.75q1.48,1.56,2.94,3.13c1.23,1.31,2.46,2.64,3.68,4s2.5,2.7,3.74,4.05,2.7,2.95,4,4.43q1.71,1.86,3.37,3.74c1.23,1.36,2.46,2.74,3.68,4.11,2.43,2.74,4.87,5.52,7.27,8.3s4.81,5.56,7.19,8.36c1.2,1.39,2.38,2.82,3.57,4.22,1,1.24,2.09,2.48,3.12,3.72,2.67,3.22,5.34,6.45,8,9.71,1,1.2,2,2.41,2.94,3.64q8.66,10.74,17.06,21.75c1.12,1.46,2.23,2.93,3.35,4.41s2.21,3,3.32,4.43l3,4c.16.23.32.44.48.66q1.56,2.1,3.1,4.23c1.09,1.48,2.18,3,3.25,4.47l3.16,4.38a4,4,0,0,0,.23.34c1.33,1.87,2.65,3.72,4,5.59s2.63,3.76,3.93,5.63,2.61,3.75,3.9,5.64,2.59,3.78,3.86,5.68c1.87,2.76,3.73,5.56,5.57,8.34,1.22,1.84,2.43,3.67,3.63,5.51q1.48,2.26,2.95,4.54c1.2,1.88,2.41,3.75,3.6,5.62.81,1.29,1.63,2.56,2.43,3.84q1.48,2.36,2.95,4.71c2,3.14,3.91,6.28,5.83,9.45q4.32,7.11,8.54,14.29c1.89,3.19,3.73,6.4,5.58,9.6q1.33,2.31,2.64,4.64c.08.13.15.26.22.39l2.6,4.59a.43.43,0,0,0,0,.07l2.67,4.83c.89,1.62,1.79,3.23,2.67,4.86q7,12.75,13.58,25.71,1.32,2.58,2.63,5.18l.41.82c.79,1.56,1.57,3.13,2.35,4.69.08.16.15.33.23.48.7,1.41,1.4,2.81,2.08,4.23,1.12,2.26,2.21,4.53,3.3,6.79.57,1.16,1.12,2.34,1.68,3.51.49,1,1,2,1.44,3,.79,1.66,1.57,3.33,2.36,5q4.93,10.63,9.66,21.36,1.14,2.6,2.26,5.18,2,4.53,3.85,9c.7,1.64,1.39,3.3,2.07,5a1.94,1.94,0,0,1,.13.3c.64,1.54,1.28,3.09,1.91,4.63.13.29.23.58.35.88.59,1.41,1.16,2.82,1.73,4.23q3.2,7.93,6.24,15.9c.73,1.9,1.46,3.8,2.17,5.7q1.89,5,3.71,10c.52,1.43,1,2.86,1.57,4.3.12.36.25.72.38,1.07.56,1.56,1.11,3.11,1.66,4.67.41,1.16.81,2.3,1.21,3.46s.9,2.55,1.32,3.84,1,2.76,1.43,4.13,1,3,1.51,4.5c.58,1.75,1.17,3.51,1.74,5.26q4.71,14.32,9,28.82c.41,1.38.82,2.77,1.22,4.16s.79,2.73,1.18,4.11.78,2.78,1.17,4.17c.76,2.63,1.48,5.26,2.19,7.91.37,1.31.71,2.62,1.06,3.93.45,1.69.91,3.36,1.34,5q2.86,11,5.48,22c.4,1.73.81,3.46,1.21,5.21.35,1.48.68,3,1,4.47.09.45.2.9.3,1.36.37,1.65.75,3.31,1.1,5l1,4.72c.44,2.09.89,4.17,1.31,6.27.36,1.76.71,3.51,1.07,5.26q.69,3.39,1.34,6.79c.26,1.35.52,2.7.77,4.07.35,1.76.67,3.54,1,5.32.2,1,.39,2.1.57,3.15.15.8.3,1.61.42,2.41q.33,1.77.63,3.54c.43,2.45.85,4.9,1.24,7.36q.45,2.68.88,5.39c.18,1.1.34,2.19.5,3.3.21,1.29.41,2.58.6,3.86s.39,2.56.57,3.84c.21,1.44.41,2.87.61,4.3.18,1.17.34,2.36.5,3.54q1.76,12.69,3.14,25.42c.23,2,.43,4,.63,6s.42,4,.61,6,.38,4,.56,6,.35,4,.52,6.07c0,.53.09,1.07.13,1.59s.07.92.11,1.38.08,1,.11,1.48.09,1.07.13,1.61c.07.94.14,1.87.2,2.81.26,3.36.48,6.7.67,10.07.12,1.89.23,3.79.34,5.68,0,0,0,.08,0,.11.1,1.86.19,3.71.28,5.58.07,1.51.14,3,.2,4.53,0,.31,0,.6.05.91,0,.64,0,1.27.07,1.91,0,.23,0,.45,0,.69.07,1.68.14,3.38.19,5.08,0,.86.06,1.7.08,2.55s.06,1.69.07,2.54c.07,2,.11,4,.16,6.08,0,1.51,0,3,.07,4.53,0,.19,0,.39,0,.59,0,1.18,0,2.35,0,3.53,0,.25,0,.5,0,.76,0,.77,0,1.55,0,2.32,0,.42,0,.84,0,1.25C3417.65,1221.06,3417.65,1221.91,3417.65,1222.78Z"/><path class="cls-5" d="M3417.65,1222.78q0,3.53,0,7.07c0,1,0,2.07,0,3.1,0,1.42,0,2.84,0,4.26s0,2.92-.07,4.38c0,.51,0,1,0,1.54,0,.22,0,.43,0,.64s0,.42,0,.64c0,.95-.05,1.91-.07,2.87,0,.59,0,1.18,0,1.77,0,.81,0,1.62-.07,2.44,0,1.33-.08,2.67-.13,4,0,.23,0,.47,0,.7l-.27,6.8c0,.11,0,.23,0,.35-.1,2.37-.22,4.76-.34,7.14t0,0c-.11,2-.23,4-.34,6,0,.6-.08,1.19-.11,1.79q-.37,6.36-.88,12.74L3415,1293q-.24,3-.5,6c0,.5-.09,1-.12,1.5-.11,1.26-.23,2.5-.34,3.76l0,.26c-.2,2.13-.41,4.29-.62,6.43-.05.44-.09.9-.14,1.36-.24,2.38-.49,4.77-.76,7.14,0,.15,0,.29,0,.43-.05.45-.1.89-.16,1.34-.2,1.84-.42,3.7-.64,5.53,0,.1,0,.2,0,.3q-.45,3.81-.94,7.6c-.22,1.73-.46,3.45-.69,5.19,0,.25-.08.51-.11.75-.13,1-.26,2-.41,3-.16,1.18-.33,2.36-.5,3.53q-.31,2.19-.66,4.38c0,.48-.12,1-.2,1.45-.12.8-.25,1.6-.37,2.4-.07.46-.14.9-.21,1.35-.34,2.14-.68,4.27-1,6.41-.27,1.67-.56,3.33-.85,5-.07.38-.13.77-.2,1.17s-.1.61-.16.92c0,.14-.05.28-.08.42s-.05.28-.06.42-.06.39-.1.58c-.22,1.24-.44,2.5-.67,3.74-.16.9-.33,1.8-.5,2.7-.06.34-.12.69-.19,1a.44.44,0,0,1,0,.1c-.3,1.73-.64,3.46-1,5.2-.46,2.35-.92,4.72-1.4,7.08s-1,4.72-1.45,7.08l-.75,3.54c-.25,1.18-.51,2.36-.77,3.54-.11.5-.22,1-.34,1.5s-.25,1.16-.39,1.74c-.26,1.24-.54,2.48-.83,3.72s-.57,2.47-.86,3.71c-.16.7-.32,1.38-.48,2.09-.13.54-.27,1.08-.39,1.64-.56,2.25-1.1,4.52-1.66,6.77l-.15.62c-.53,2.15-1.08,4.28-1.63,6.43-.6,2.34-1.21,4.69-1.84,7-.55,2.08-1.12,4.16-1.68,6.22-.23.84-.47,1.68-.71,2.53q-.73,2.64-1.5,5.3c-.67,2.34-1.34,4.68-2,7q-.9,3-1.83,6.11c-.12.38-.23.77-.35,1.15l-1.47,4.73c-.2.66-.41,1.33-.63,2-.71,2.27-1.45,4.55-2.18,6.81s-1.56,4.77-2.37,7.14-1.57,4.64-2.37,7c-.75,2.16-1.5,4.3-2.27,6.46l-.27.76c-.24.65-.46,1.3-.7,2q-1.77,5-3.64,9.91-.83,2.22-1.68,4.44l-.29.74c-.29.8-.6,1.59-.91,2.38s-.66,1.72-1,2.57c-.07.16-.13.34-.19.5l-1.91,4.83-.14.33c-.42,1.08-.85,2.14-1.28,3.2-.34.84-.68,1.67-1,2.5q-.9,2.21-1.81,4.39c-.24.59-.48,1.17-.74,1.77q-.71,1.71-1.44,3.42l-.82,2-1.35,3.14c-1,2.3-2,4.58-3,6.86a.21.21,0,0,0,0,.1,0,0,0,0,0,0,0h0l-.47,1.05c-.34.74-.67,1.5-1,2.24-.5,1.14-1,2.28-1.54,3.42q-1.24,2.78-2.53,5.56c-.31.66-.6,1.32-.91,2-.63,1.32-1.24,2.66-1.87,4l-1,2.13c-.54,1.14-1.09,2.27-1.63,3.4s-1.09,2.27-1.64,3.39l-1,1.92c-.23.49-.46,1-.71,1.48l-.85,1.7-.83,1.68c-.66,1.32-1.31,2.64-2,4-.43.84-.85,1.69-1.28,2.52l-.15.29c-.17.35-.35.7-.53,1s-.4.81-.6,1.2l-1.37,2.64c-.32.63-.65,1.25-1,1.89l-.65,1.24c-.37.7-.75,1.42-1.11,2.12l-.51.95-1.28,2.42c-2.4,4.47-4.83,9-7.32,13.41l0,0s0,0,0,0h0c-.18.34-.37.68-.56,1s-.44.76-.65,1.14l-.62,1.11c-.69,1.23-1.37,2.44-2.07,3.64-.58,1-1.15,2-1.74,3-.81,1.44-1.64,2.86-2.48,4.29a.49.49,0,0,1-.1.15c-.77,1.33-1.55,2.68-2.34,4-.89,1.51-1.8,3-2.69,4.53a2.33,2.33,0,0,0-.2.34,1,1,0,0,0-.11.17c-.91,1.52-1.85,3-2.77,4.56l-1.46,2.4q-1.92,3.13-3.87,6.25l-1.48,2.33q-5.28,8.38-10.81,16.68c-.76,1.16-1.53,2.3-2.29,3.44-1.54,2.29-3.08,4.56-4.65,6.85-87.54,127.67-187.39,224-293.8,293.68a918.54,918.54,0,0,1-115,64.09q-22.14,10.34-44.52,19.33l-.26.1a903,903,0,0,1-123.1,39.5,929.45,929.45,0,0,1-152.56,23.94q-20,1.47-39.87,2.09c-90.87,2.88-180.71-7.08-266.56-27.5a1059.06,1059.06,0,0,1-256.08-97.24q-37.23-20-72-42.62-28.74-18.72-55.54-39a874.64,874.64,0,0,1-76.17-64.7l-.77-.78-.15-.15,0-.05-.28-.29h0a1.14,1.14,0,0,0-.15-.16l-.24-.25c-.26-.26-.54-.56-.85-.89l-.4-.42-.07-.07-.06-.06-.3-.31c-.28-.29-.55-.59-.85-.92l-.07-.06v0a.1.1,0,0,0,0,0l-.18-.2c-.64-.66-1.31-1.41-2.06-2.21-.24-.25-.47-.52-.72-.78l-2.45-2.67c-.46-.52-1-1-1.47-1.62l-.29-.32-2.24-2.51c-.22-.26-.46-.52-.7-.79l-.18-.19-1.1-1.26c-2.44-2.77-5.12-5.87-8-9.27-.22-.25-.45-.52-.67-.79q-2-2.38-4.17-5l-1.3-1.55c-.41-.51-.85-1-1.28-1.55l-.35-.43-.37-.46-.09-.1-.28-.33c-.3-.39-.63-.77-.94-1.17s-.75-.92-1.14-1.38c-.61-.77-1.24-1.55-1.89-2.35-.2-.26-.42-.52-.64-.79l-1.68-2.11c-.28-.35-.56-.7-.83-1.06q-3.16-4-6.44-8.21c-.46-.58-.9-1.15-1.34-1.74a1.49,1.49,0,0,1-.15-.2l0-.06-1.77-2.31c-1-1.36-2.1-2.75-3.16-4.16h0l-.43-.56-.57-.78c-.11-.13-.23-.28-.34-.43-.44-.6-.89-1.19-1.34-1.79l-.34-.48c-.16-.22-.32-.42-.48-.63s-.32-.43-.47-.65q-2.1-2.82-4.23-5.74c-1.57-2.17-3.15-4.37-4.76-6.62l-1.61-2.26-.37-.55q-2.81-4-5.64-8.08-4.3-6.26-8.69-12.88c-.28-.44-.58-.88-.86-1.32l-.1-.15q-.92-1.38-1.83-2.79l-.15-.24c-.6-.9-1.18-1.82-1.78-2.74s-1.23-1.92-1.86-2.88l-.08-.13-1.79-2.8c-2.46-3.88-4.92-7.86-7.39-11.9-.81-1.35-1.65-2.71-2.46-4.08-.65-1.07-1.29-2.15-1.94-3.25-1.95-3.24-3.87-6.55-5.8-9.91-2.57-4.47-5.14-9-7.67-13.66q-1.91-3.48-3.8-7c-.62-1.17-1.26-2.35-1.88-3.54s-1.21-2.27-1.79-3.42-1.2-2.29-1.78-3.45c-.32-.6-.65-1.23-1-1.86-.51-1-1-2-1.53-3-1-2-2-4-3-6.09a2.92,2.92,0,0,1-.17-.36c-.51-1-1-2.06-1.52-3.11s-.88-1.79-1.32-2.7c-.57-1.21-1.16-2.44-1.74-3.66-.69-1.45-1.38-2.91-2-4.38-.3-.62-.59-1.27-.89-1.9-.47-1-1-2.08-1.43-3.12s-.91-2-1.38-3-.77-1.75-1.16-2.63c-.31-.69-.62-1.39-.92-2.08-.09-.18-.17-.37-.25-.56-.66-1.51-1.31-3-2-4.52-.77-1.8-1.55-3.61-2.31-5.41-.18-.44-.36-.88-.55-1.32,0-.11-.09-.2-.13-.31h0l-1.5-3.65-.59-1.43-.06-.15c-.12-.29-.22-.57-.34-.85s-.17-.43-.26-.65-.28-.7-.42-1c-.57-1.4-1.12-2.83-1.68-4.24-.37-1-.74-1.9-1.12-2.86l-1.5-3.91c-.32-.86-.65-1.71-1-2.57-.55-1.47-1.1-2.94-1.63-4.41-.44-1.18-.87-2.37-1.3-3.56l-.6-1.69-.46-1.29q-.63-1.77-1.23-3.51c-.24-.67-.46-1.32-.69-2s-.47-1.4-.71-2.09-.55-1.62-.82-2.44-.54-1.62-.8-2.43c-.48-1.44-1-2.88-1.41-4.34l-.6-1.87c-.37-1.16-.73-2.32-1.09-3.48-.75-2.38-1.47-4.78-2.19-7.19l-.3-1c-.24-.84-.48-1.69-.73-2.53-.41-1.44-.83-2.89-1.23-4.34q-.72-2.51-1.38-5c-.44-1.61-.88-3.23-1.3-4.85s-.75-2.94-1.13-4.41c-.26-1-.5-2.06-.75-3.08-.16-.62-.31-1.22-.46-1.85l-.18-.73c-.07-.29-.13-.57-.2-.86a.22.22,0,0,1,0-.11c-.24-1-.46-1.91-.68-2.89s-.43-1.81-.63-2.72c-.27-1.16-.53-2.33-.77-3.5-.08-.3-.14-.59-.2-.89-.15-.64-.28-1.26-.42-1.9-.22-1-.43-2-.63-3q-.54-2.6-1-5.22a.83.83,0,0,1,0-.15c-.06-.29-.12-.59-.17-.89l-.18-.91c-.25-1.26-.47-2.51-.71-3.75q-.45-2.4-.87-4.8c-.1-.58-.2-1.16-.29-1.74,0-.18-.07-.34-.09-.51s0-.25-.07-.38c-.15-.89-.3-1.76-.44-2.65s-.3-1.76-.44-2.66-.28-1.76-.41-2.65c-.21-1.42-.43-2.84-.63-4.27l-.3-2.1q-.14-.93-.27-1.89c-.11-.83-.22-1.67-.34-2.52-.22-1.76-.44-3.52-.65-5.28-.16-1.35-.32-2.7-.47-4s-.3-2.7-.43-4c-.17-1.65-.33-3.29-.48-4.94l-.06-.64c-.08-.85-.15-1.72-.22-2.57s-.16-1.82-.23-2.72c-.22-2.72-.42-5.47-.57-8.21-.06-.91-.12-1.82-.16-2.73s-.08-1.51-.12-2.27c0-.49-.05-1-.07-1.52l0-.55c0-.83-.07-1.66-.11-2.5s-.07-1.79-.1-2.68l0-.67c0-.34,0-.68,0-1s0-.94,0-1.42v-.07c0-.68,0-1.36,0-2l0-1.34c0-1.09,0-2.19-.05-3.29,0-1.9,0-3.8,0-5.7q0-2.17,0-4.35c0-1.27,0-2.53.05-3.81,0-.62,0-1.27,0-1.89,0-1.3.07-2.61.11-3.92,0-.22,0-.44,0-.66V1420c0-.06,0-.1,0-.15,0-.32,0-.65,0-1,0-1.15.09-2.29.14-3.44,0-.32,0-.64,0-1s0-.44,0-.67c0-.69.06-1.36.1-2,0-.53,0-1.06.09-1.6s.07-1.27.11-1.91c0-.2,0-.41,0-.63s0-.49,0-.72c0-.64.08-1.28.12-1.9,0-.19,0-.37,0-.56,0-.71.1-1.41.15-2.12,0-.28,0-.55.07-.83s.05-.73.09-1.09.08-1,.12-1.51l.21-2.5c.07-.83.15-1.68.24-2.5,0-.54.1-1.09.15-1.63.1-1,.19-1.9.3-2.85a.57.57,0,0,1,0-.13c0-.33.06-.65.1-1,.11-1,.21-2,.33-3,0-.31.07-.62.11-.93a.45.45,0,0,0,0-.11.64.64,0,0,1,0-.07s0-.07,0-.1a1.34,1.34,0,0,0,0-.2.2.2,0,0,0,0-.07c0-.12,0-.25,0-.36s0-.3.05-.44c.06-.44.11-.89.17-1.31.07-.61.14-1.21.22-1.78s.1-.83.17-1.22c0-.22,0-.45.08-.67.09-.68.18-1.38.27-2.08a.08.08,0,0,1,0,0c.2-1.51.42-3,.65-4.52.06-.43.12-.88.2-1.32.12-.85.26-1.72.4-2.57,0-.16.05-.31.07-.46s.07-.41.1-.61c.21-1.38.44-2.73.68-4.09a4.89,4.89,0,0,1,.09-.53c.2-1.23.42-2.45.65-3.67,0-.11,0-.22.06-.34.09-.5.17-1,.27-1.54l.24-1.24c.25-1.34.51-2.67.78-4l.27-1.32c.09-.5.19-1,.3-1.53s.17-.79.25-1.18.19-.9.29-1.36q.66-3.14,1.37-6.27c.25-1.05.49-2.09.74-3.15.07-.26.13-.52.19-.78.17-.79.37-1.57.56-2.36,0-.19.09-.37.14-.55s.07-.31.12-.46c.12-.54.26-1.06.4-1.59.09-.37.18-.73.27-1.07.2-.82.4-1.62.61-2.44l.9-3.36c.27-1,.55-2,.84-3.08.08-.29.17-.59.25-.89.17-.62.35-1.21.52-1.82,0-.18.09-.35.13-.51.31-1.06.61-2.1.93-3.15.47-1.58.94-3.17,1.43-4.75s1-3.17,1.48-4.75c.45-1.41.9-2.82,1.37-4.24.16-.46.31-.92.47-1.39q.8-2.41,1.64-4.8c.35-1.06.73-2.11,1.11-3.16l.19-.55.18-.47.45-1.26c.77-2.13,1.55-4.25,2.37-6.37.12-.33.25-.65.38-1s.26-.71.4-1.07c.56-1.43,1.13-2.87,1.69-4.31h0c.85-2.11,1.71-4.24,2.59-6.37s1.78-4.25,2.72-6.37q4.86-11.21,10.46-22.39a.59.59,0,0,0,.06-.14l0-.06s0-.07.06-.11a.41.41,0,0,1,0-.09,1.51,1.51,0,0,1,.11-.22,2.56,2.56,0,0,1,.11-.24l.09-.16c.2-.41.4-.82.61-1.22.71-1.4,1.41-2.78,2.14-4.16,53.14,32.22,129.71,73.71,217.71,106.42a941.36,941.36,0,0,0,127.49,37.8c113.14,24.53,234.5,25.31,344.43-27.2a420.82,420.82,0,0,0,51.49-29.2q23.51-15.6,48.47-31.95,12.28-8,24.89-16.17h0c3.52-2.27,7-4.55,10.59-6.82,30.17-19.35,61.6-39,94-58.3q5.4-3.21,10.82-6.4,13-7.63,26.13-15.16c29.68-17,60.07-33.52,91-49.16h0c2.38-1.21,4.76-2.4,7.14-3.59q28-14,56.49-26.87l.48-.2h0c30.68-13.79,61.72-26.46,92.94-37.57A919.09,919.09,0,0,1,2951.81,1038c163.89-35.84,326.89-16.14,463.07,117.59h0c0,.48.08,1,.11,1.48s.09,1.07.13,1.61c.07.94.14,1.87.2,2.81.26,3.36.48,6.7.67,10.07.12,1.89.23,3.79.34,5.68,0,0,0,.08,0,.11.1,1.86.19,3.71.28,5.58.07,1.51.14,3,.2,4.53,0,.31,0,.6.05.91,0,.64,0,1.27.07,1.91,0,.23,0,.45,0,.69.07,1.68.14,3.38.19,5.08,0,.86.06,1.7.08,2.55s.06,1.69.07,2.54c.07,2,.11,4,.16,6.08,0,1.51,0,3,.07,4.53,0,.19,0,.39,0,.59,0,1.18,0,2.35,0,3.53,0,.25,0,.5,0,.76,0,.77,0,1.55,0,2.32,0,.42,0,.84,0,1.25C3417.65,1221.06,3417.65,1221.91,3417.65,1222.78Z"/><path class="cls-6" d="M3417.34,1249.05c0,.81,0,1.62-.07,2.44,0,1.33-.08,2.67-.13,4,0,.23,0,.47,0,.7l-.27,6.8c0,.11,0,.23,0,.35-.1,2.37-.22,4.76-.34,7.14t0,0c-.11,2-.23,4-.34,6,0,.6-.08,1.19-.11,1.79q-.37,6.36-.88,12.74L3415,1293q-.24,3-.5,6c0,.5-.09,1-.12,1.5-.11,1.26-.23,2.5-.34,3.76l0,.26c-.2,2.13-.41,4.29-.62,6.43-.05.44-.09.9-.14,1.36-.24,2.38-.49,4.77-.76,7.14,0,.15,0,.29,0,.43-.05.45-.1.89-.16,1.34-.2,1.84-.42,3.7-.64,5.53,0,.1,0,.2,0,.3q-.45,3.81-.94,7.6c-.22,1.73-.46,3.45-.69,5.19,0,.25-.08.51-.11.75-.13,1-.26,2-.41,3-.16,1.18-.33,2.36-.5,3.53q-.31,2.19-.66,4.38c0,.48-.12,1-.2,1.45-.12.8-.25,1.6-.37,2.4-.07.46-.14.9-.21,1.35-.34,2.14-.68,4.27-1,6.41-.27,1.67-.56,3.33-.85,5-.07.38-.13.77-.2,1.17s-.1.61-.16.92c0,.14-.05.28-.08.42s-.05.28-.06.42-.06.39-.1.58c-.22,1.24-.44,2.5-.67,3.74-.16.9-.33,1.8-.5,2.7-.06.34-.12.69-.19,1a.44.44,0,0,1,0,.1c-.3,1.73-.64,3.46-1,5.2-.46,2.35-.92,4.72-1.4,7.08s-1,4.72-1.45,7.08l-.75,3.54c-.25,1.18-.51,2.36-.77,3.54-.11.5-.22,1-.34,1.5s-.25,1.16-.39,1.74c-.26,1.24-.54,2.48-.83,3.72s-.57,2.47-.86,3.71c-.16.7-.32,1.38-.48,2.09-.13.54-.27,1.08-.39,1.64-.56,2.25-1.1,4.52-1.66,6.77l-.15.62c-.53,2.15-1.08,4.28-1.63,6.43-.6,2.34-1.21,4.69-1.84,7-.55,2.08-1.12,4.16-1.68,6.22-.23.84-.47,1.68-.71,2.53q-.73,2.64-1.5,5.3c-.67,2.34-1.34,4.68-2,7q-.9,3-1.83,6.11c-.12.38-.23.77-.35,1.15l-1.47,4.73c-.2.66-.41,1.33-.63,2-.71,2.27-1.45,4.55-2.18,6.81s-1.56,4.77-2.37,7.14-1.57,4.64-2.37,7c-.75,2.16-1.5,4.3-2.27,6.46l-.27.76c-.24.65-.46,1.3-.7,2q-1.77,5-3.64,9.91-.83,2.22-1.68,4.44l-.29.74c-.29.8-.6,1.59-.91,2.38s-.66,1.72-1,2.57c-.07.16-.13.34-.19.5l-1.91,4.83-.14.33c-.42,1.08-.85,2.14-1.28,3.2-.34.84-.68,1.67-1,2.5q-.9,2.21-1.81,4.39c-.24.59-.48,1.17-.74,1.77q-.71,1.71-1.44,3.42l-.82,2-1.35,3.14c-1,2.3-2,4.58-3,6.86a.21.21,0,0,0,0,.1,0,0,0,0,0,0,0h0l-.47,1.05c-.34.74-.67,1.5-1,2.24-.5,1.14-1,2.28-1.54,3.42q-1.24,2.78-2.53,5.56c-.31.66-.6,1.32-.91,2-.63,1.32-1.24,2.66-1.87,4l-1,2.13c-.54,1.14-1.09,2.27-1.63,3.4s-1.09,2.27-1.64,3.39l-1,1.92c-.23.49-.46,1-.71,1.48l-.85,1.7-.83,1.68c-.66,1.32-1.31,2.64-2,4-.43.84-.85,1.69-1.28,2.52l-.15.29c-.17.35-.35.7-.53,1s-.4.81-.6,1.2l-1.37,2.64c-.32.63-.65,1.25-1,1.89l-.65,1.24c-.37.7-.75,1.42-1.11,2.12l-.51.95-1.28,2.42c-2.4,4.47-4.83,9-7.32,13.41l0,0s0,0,0,0h0c-.18.34-.37.68-.56,1s-.44.76-.65,1.14l-.62,1.11c-.69,1.23-1.37,2.44-2.07,3.64-.58,1-1.15,2-1.74,3-.81,1.44-1.64,2.86-2.48,4.29a.49.49,0,0,1-.1.15c-.77,1.33-1.55,2.68-2.34,4-.89,1.51-1.8,3-2.69,4.53a2.33,2.33,0,0,0-.2.34,1,1,0,0,0-.11.17c-.91,1.52-1.85,3-2.77,4.56l-1.46,2.4q-1.92,3.13-3.87,6.25l-1.48,2.33q-5.28,8.38-10.81,16.68c-.76,1.16-1.53,2.3-2.29,3.44-1.54,2.29-3.08,4.56-4.65,6.85-87.54,127.67-187.39,224-293.8,293.68a918.54,918.54,0,0,1-115,64.09q-22.14,10.34-44.52,19.33l-.26.1a903,903,0,0,1-123.1,39.5,929.45,929.45,0,0,1-152.56,23.94q-20,1.47-39.87,2.09c-90.87,2.88-180.71-7.08-266.56-27.5a1059.06,1059.06,0,0,1-256.08-97.24q-37.23-20-72-42.62-28.74-18.72-55.54-39a874.64,874.64,0,0,1-76.17-64.7l-.77-.78-.15-.15,0-.05-.28-.29h0a1.14,1.14,0,0,0-.15-.16l-.24-.25c-.26-.26-.54-.56-.85-.89l-.4-.42-.07-.07-.06-.06-.3-.31c-.28-.29-.55-.59-.85-.92l-.07-.06v0a.1.1,0,0,0,0,0l-.18-.2c-.64-.66-1.31-1.41-2.06-2.21-.24-.25-.47-.52-.72-.78l-2.45-2.67c-.46-.52-1-1-1.47-1.62l-.29-.32-2.24-2.51c-.22-.26-.46-.52-.7-.79l-.18-.19-1.1-1.26c-2.44-2.77-5.12-5.87-8-9.27-.22-.25-.45-.52-.67-.79q-2-2.38-4.17-5l-1.3-1.55c-.41-.51-.85-1-1.28-1.55l-.35-.43-.37-.46-.09-.1-.28-.33c-.3-.39-.63-.77-.94-1.17s-.75-.92-1.14-1.38c-.61-.77-1.24-1.55-1.89-2.35-.2-.26-.42-.52-.64-.79l-1.68-2.11c-.28-.35-.56-.7-.83-1.06q-3.16-4-6.44-8.21c-.46-.58-.9-1.15-1.34-1.74a1.49,1.49,0,0,1-.15-.2l0-.06-1.77-2.31c-1-1.36-2.1-2.75-3.16-4.16h0l-.43-.56-.57-.78c-.11-.13-.23-.28-.34-.43-.44-.6-.89-1.19-1.34-1.79l-.34-.48c-.16-.22-.32-.42-.48-.63s-.32-.43-.47-.65q-2.1-2.82-4.23-5.74c-1.57-2.17-3.15-4.37-4.76-6.62l-1.61-2.26-.37-.55q-2.81-4-5.64-8.08-4.3-6.26-8.69-12.88c-.28-.44-.58-.88-.86-1.32l-.1-.15q-.92-1.38-1.83-2.79l-.15-.24c-.6-.9-1.18-1.82-1.78-2.74s-1.23-1.92-1.86-2.88l-.08-.13-1.79-2.8c-2.46-3.88-4.92-7.86-7.39-11.9-.81-1.35-1.65-2.71-2.46-4.08-.65-1.07-1.29-2.15-1.94-3.25-1.95-3.24-3.87-6.55-5.8-9.91-2.57-4.47-5.14-9-7.67-13.66q-1.91-3.48-3.8-7c-.62-1.17-1.26-2.35-1.88-3.54s-1.21-2.27-1.79-3.42-1.2-2.29-1.78-3.45c-.32-.6-.65-1.23-1-1.86-.51-1-1-2-1.53-3-1-2-2-4-3-6.09a2.92,2.92,0,0,1-.17-.36c-.51-1-1-2.06-1.52-3.11s-.88-1.79-1.32-2.7c-.57-1.21-1.16-2.44-1.74-3.66-.69-1.45-1.38-2.91-2-4.38-.3-.62-.59-1.27-.89-1.9-.47-1-1-2.08-1.43-3.12s-.91-2-1.38-3-.77-1.75-1.16-2.63c-.31-.69-.62-1.39-.92-2.08-.09-.18-.17-.37-.25-.56-.66-1.51-1.31-3-2-4.52-.77-1.8-1.55-3.61-2.31-5.41-.18-.44-.36-.88-.55-1.32,0-.11-.09-.2-.13-.31h0l-1.5-3.65-.59-1.43-.06-.15c-.12-.29-.22-.57-.34-.85s-.17-.43-.26-.65-.28-.7-.42-1c-.57-1.4-1.12-2.83-1.68-4.24-.37-1-.74-1.9-1.12-2.86l-1.5-3.91c-.32-.86-.65-1.71-1-2.57-.55-1.47-1.1-2.94-1.63-4.41-.44-1.18-.87-2.37-1.3-3.56l-.6-1.69-.46-1.29q-.63-1.77-1.23-3.51c-.24-.67-.46-1.32-.69-2s-.47-1.4-.71-2.09-.55-1.62-.82-2.44-.54-1.62-.8-2.43c-.48-1.44-1-2.88-1.41-4.34l-.6-1.87c-.37-1.16-.73-2.32-1.09-3.48-.75-2.38-1.47-4.78-2.19-7.19l-.3-1c-.24-.84-.48-1.69-.73-2.53-.41-1.44-.83-2.89-1.23-4.34q-.72-2.51-1.38-5c-.44-1.61-.88-3.23-1.3-4.85s-.75-2.94-1.13-4.41c-.26-1-.5-2.06-.75-3.08-.16-.62-.31-1.22-.46-1.85l-.18-.73c-.07-.29-.13-.57-.2-.86a.22.22,0,0,1,0-.11c-.24-1-.46-1.91-.68-2.89s-.43-1.81-.63-2.72c-.27-1.16-.53-2.33-.77-3.5-.08-.3-.14-.59-.2-.89-.15-.64-.28-1.26-.42-1.9-.22-1-.43-2-.63-3q-.54-2.6-1-5.22a.83.83,0,0,1,0-.15h0c.8,1.21,73.23,110.84,258,196.3q23.1,10.68,48.54,20.78c24.6,9.72,50.9,18.92,79,27.39q16.95,5.12,34.77,9.84,32.65,8.68,68.27,15.87,28.7,5.78,59.37,10.39a499.79,499.79,0,0,0,88.52,5.26c102.38-2.92,203.23-36,303-84.75,24-11.76,48-24.44,72-37.83l0,0c48.71-27.25,97.19-57.47,145.53-89q8-5.24,16.08-10.54c50-32.93,99.93-67,149.72-100.42C3085.36,1378.6,3250.61,1274.9,3417.34,1249.05Z"/><path class="cls-7" d="M1683.15,1806.72s-185.22-113.4-132.85-520.57"/><path d="M1981.77,1085.13v925.55q-37.23-20-72-42.62-28.74-18.72-55.54-39V1085.13Z"/><path class="cls-3" d="M1315.67,939.51c28.38,175.79,252.51,233.23,361.89,92.72,81.23-104.34,153.59-257,83.62-427.14-129.41-314.63-486.81,55.4-446.76,326.38Q1315,935.53,1315.67,939.51Z"/><path class="cls-4" d="M2951.79,1038a282.5,282.5,0,0,1-32.57,38.91c-14.37,14.37-41.1,26.63-76.52,37.1h0c-28.28,8.35-62.1,15.57-99.58,21.8-8.3,0-27,.83-53,2.25l-6.43.35c-19.83,1.1-43.46,2.5-69.75,4.12l-13.78.85-4.4.27c-17,1-35,2.18-53.59,3.36l-43,2.72L2433.3,1154h0L2384,1157.1c-26.17,1.67-52.18,3.33-77.43,4.92q-12.67.8-25.06,1.55c-18.63,1.17-36.71,2.29-54,3.33h0c-1.47.08-2.95.17-4.4.27l-13.71.81c-27.76,1.65-53,3.1-74.54,4.23-31.85,1.68-55.58,2.67-67.3,2.67-8.09,0-12.91-.07-12.91-.07h-45.07l-336.35,0,.68-1c.47-.65.93-1.3,1.4-1.94q6.09-8.45,12.68-16.88l1.79-2.28c1.3-1.64,2.61-3.29,4-4.94.62-.78,1.24-1.55,1.87-2.31s1.37-1.68,2.06-2.51c1.17-1.42,2.35-2.83,3.54-4.26q3.27-3.88,6.64-7.76,4.41-5.09,8.67-10.18,6.33-7.59,12.31-15.2a644.93,644.93,0,0,0,65.92-102.41c1.23-2.38,2.45-4.75,3.64-7.14s2.38-4.76,3.54-7.14,2.32-4.76,3.44-7.14c.57-1.19,1.13-2.39,1.68-3.58q2.09-4.47,4.1-8.93t3.95-8.92c.51-1.19,1-2.39,1.54-3.58s1.14-2.68,1.7-4c1.13-2.67,2.24-5.35,3.32-8q2.46-6,4.78-12,1.56-4,3.06-8c.45-1.18.89-2.37,1.33-3.57.76-2.07,1.53-4.15,2.27-6.23q2.24-6.23,4.38-12.44c.72-2.07,1.42-4.15,2.11-6.22.8-2.36,1.58-4.73,2.35-7.09l.15-.45q1.07-3.31,2.14-6.62c6.75-21.25,12.67-42.39,18.09-63.34.91-3.48,1.79-7,2.67-10.44h0q1.32-5.22,2.6-10.42c.56-2.32,1.13-4.63,1.69-7q1.68-6.9,3.32-13.79l3.22-13.74q1.61-6.86,3.18-13.69,2-8.52,3.91-17,2.91-12.69,5.85-25.2v0q2.94-12.53,6-24.89h0c11.88-48.4,25.21-94.73,44.93-138q3.93-8.64,8.23-17.12a396.44,396.44,0,0,1,26.7-45.26q7.07-10.35,15-20.36A365.55,365.55,0,0,1,2024.1,424c29-27.68,64.74-52.89,109.45-75.15q20-10,42.48-19.13l4.95-2q27.81-11.07,59.6-20.88c49.05-15.09,105.56-27.87,170.87-38a738.2,738.2,0,0,1,277.08,9.55l68.9,75.38,4.36,8.93,12,24.52,7.06,14.46,29.5,60.37,20.94,42.86,9.3,19L2876,596.44l15,30.69,28.57,58.51L2949.06,746v0h0l0,0,49.48,94.54S3018.14,942.3,2951.79,1038Z"/><path class="cls-8" d="M2951.79,1038a282.5,282.5,0,0,1-32.57,38.91c-14.37,14.37-41.1,26.63-76.52,37.1h0c-28.28,8.35-62.1,15.57-99.58,21.8q2.91-13.83,4.68-28.06c.59-4.79,1.1-9.61,1.48-14.45a1.5,1.5,0,0,0,0-.2q.55-6.74.82-13.52v0q.28-6.8.28-13.64a338.06,338.06,0,0,0-88.15-228.14.08.08,0,0,0-.05,0,340.51,340.51,0,0,0-84.66-67.55,336.06,336.06,0,0,0-56.83-25.47l-.27-.09a338.86,338.86,0,0,0-109.36-18c-141,0-261.95,86-313.16,208.45a338.06,338.06,0,0,0-26.17,130.86c0,9.61-.73,24.34-1.59,41.23,0,.32,0,.64,0,1-1.06,20.82-2.28,44.85-2.5,66.64v.13c-8.09,0-12.91-.07-12.91-.07h-45.07l-336.35,0,.68-1c.47-.65.93-1.3,1.4-1.94q6.09-8.45,12.68-16.88l1.79-2.28c1.3-1.64,2.61-3.29,4-4.94.62-.78,1.24-1.55,1.87-2.31s1.37-1.68,2.06-2.51c1.17-1.42,2.35-2.83,3.54-4.26q3.27-3.88,6.64-7.76,4.41-5.09,8.67-10.18,6.33-7.59,12.31-15.2a644.93,644.93,0,0,0,65.92-102.41c1.23-2.38,2.45-4.75,3.64-7.14s2.38-4.76,3.54-7.14,2.32-4.76,3.44-7.14c.57-1.19,1.13-2.39,1.68-3.58q2.09-4.47,4.1-8.93t3.95-8.92c.51-1.19,1-2.39,1.54-3.58s1.14-2.68,1.7-4c1.13-2.67,2.24-5.35,3.32-8q2.46-6,4.78-12,1.56-4,3.06-8c.45-1.18.89-2.37,1.33-3.57.76-2.07,1.53-4.15,2.27-6.23q2.24-6.23,4.38-12.44c.72-2.07,1.42-4.15,2.11-6.22.8-2.36,1.58-4.73,2.35-7.09l.15-.45q1.07-3.31,2.14-6.62c6.75-21.25,12.67-42.39,18.09-63.34.91-3.48,1.79-7,2.67-10.44h0q1.32-5.22,2.6-10.42c.56-2.32,1.13-4.63,1.69-7q1.68-6.9,3.32-13.79l3.22-13.74q1.61-6.86,3.18-13.69,2-8.52,3.91-17,2.91-12.69,5.85-25.2v0q2.94-12.53,6-24.89h0c11.88-48.4,25.21-94.73,44.93-138q3.93-8.64,8.23-17.12a396.44,396.44,0,0,1,26.7-45.26q7.07-10.35,15-20.36A365.55,365.55,0,0,1,2024.1,424c29-27.68,64.74-52.89,109.45-75.15q20-10,42.48-19.13l4.95-2q27.81-11.07,59.6-20.88c49.05-15.09,105.56-27.87,170.87-38a738.2,738.2,0,0,1,277.08,9.55l68.9,75.38,4.36,8.93,12,24.52,7.06,14.46,29.5,60.37,20.94,42.86,9.3,19L2876,596.44l15,30.69,28.57,58.51L2949.06,746v0h0l0,0,49.48,94.54S3018.14,942.3,2951.79,1038Z"/><path class="cls-9" d="M2951.79,1038a282.5,282.5,0,0,1-32.57,38.91c-14.37,14.37-41.1,26.63-76.52,37.1h0c-28.28,8.35-62.1,15.57-99.58,21.8q2.91-13.83,4.68-28.06c.59-4.79,1.1-9.61,1.48-14.45a1.5,1.5,0,0,0,0-.2q.55-6.74.82-13.52v0q.28-6.8.28-13.64a338.06,338.06,0,0,0-88.15-228.14.08.08,0,0,0-.05,0,340.51,340.51,0,0,0-84.66-67.55,336.06,336.06,0,0,0-56.83-25.47l-.27-.09a338.86,338.86,0,0,0-109.36-18c-141,0-261.95,86-313.16,208.45a338.06,338.06,0,0,0-26.17,130.86c0,9.61-.73,24.34-1.59,41.23,0,.32,0,.64,0,1-1.06,20.82-2.28,44.85-2.5,66.64v.13c-8.09,0-12.91-.07-12.91-.07h-45.07l-336.35,0,.68-1c.47-.65.93-1.3,1.4-1.94q6.09-8.45,12.68-16.88l1.79-2.28c1.3-1.64,2.61-3.29,4-4.94.62-.78,1.24-1.55,1.87-2.31s1.37-1.68,2.06-2.51c1.17-1.42,2.35-2.83,3.54-4.26q3.27-3.88,6.64-7.76,4.41-5.09,8.67-10.18,6.33-7.59,12.31-15.2a644.93,644.93,0,0,0,65.92-102.41c1.23-2.38,2.45-4.75,3.64-7.14s2.38-4.76,3.54-7.14,2.32-4.76,3.44-7.14c.57-1.19,1.13-2.39,1.68-3.58q2.09-4.47,4.1-8.93t3.95-8.92c.51-1.19,1-2.39,1.54-3.58s1.14-2.68,1.7-4c1.13-2.67,2.24-5.35,3.32-8q2.46-6,4.78-12,1.56-4,3.06-8c.45-1.18.89-2.37,1.33-3.57.76-2.07,1.53-4.15,2.27-6.23q2.24-6.23,4.38-12.44c.72-2.07,1.42-4.15,2.11-6.22.8-2.36,1.58-4.73,2.35-7.09l.15-.45q1.07-3.31,2.14-6.62c6.75-21.25,12.67-42.39,18.09-63.34.91-3.48,1.79-7,2.67-10.44h0q1.32-5.22,2.6-10.42c.56-2.32,1.13-4.63,1.69-7q1.68-6.9,3.32-13.79l3.22-13.74q1.61-6.86,3.18-13.69,2-8.52,3.91-17,2.91-12.69,5.85-25.2v0q2.94-12.53,6-24.89h0c11.88-48.4,25.21-94.73,44.93-138q3.93-8.64,8.23-17.12a396.44,396.44,0,0,1,26.7-45.26q7.07-10.35,15-20.36A365.55,365.55,0,0,1,2024.1,424c29-27.68,64.74-52.89,109.45-75.15q20-10,42.48-19.13l4.95-2q27.81-11.07,59.6-20.88c49.05-15.09,105.56-27.87,170.87-38a738.2,738.2,0,0,1,277.08,9.55l68.9,75.38,4.36,8.93,12,24.52,7.06,14.46,29.5,60.37,20.94,42.86,9.3,19L2876,596.44l15,30.69,28.57,58.51L2949.06,746v0h0l0,0,49.48,94.54S3018.14,942.3,2951.79,1038Z"/><path class="cls-10" d="M2009.58,1174.82c0-.32-77.83-557.1,399.48-557.1,435.09,0,434.38,488.21,433.64,496.27l-99.62,21.82c.38-9.12,7-37.28,7-56.12,0-187.4-131.51-351.77-338.88-351.77-187.4,0-339.32,151.91-339.32,339.31,0,22.86-4.32,66.47-4.31,107.65Z"/><path class="cls-10" d="M2515.5,379.69l-296.91,26.76-4.72.43-16.37,1.48L2024.1,424c29-27.68,64.74-52.89,109.45-75.15l33.67-2.33,16.71-1.15h.09l6.1-.42,1.25.13Z"/><path class="cls-11" d="M2319.73,625h-.13c-3.14.26-62.21,5.6-128.08,46.1l-.34.21,0,0c-43.79,27-90.55,69.57-125.84,136.53l0,0q-4.8,9.11-9.29,18.82c-.1.2-.2.41-.29.62s-.21.44-.31.65q-1.11,2.44-2.21,4.92l0,.08c-.86,1.93-1.72,3.86-2.54,5.79-.65,1.52-1.28,3-1.91,4.55q-5.81,13.95-10.65,27.93c-.21.59-.41,1.17-.61,1.77-4.51,13.05-8.42,26.06-11.83,38.88-4.55,17.13-8.19,33.93-11.1,50.11a.43.43,0,0,0,0,.05c-2.07,11.55-3.76,22.79-5.15,33.58-9,70.41-4.72,122.45-4.51,125,0,0,0,0,0,0v0H1716.52q6.33-7.59,12.31-15.2a644.93,644.93,0,0,0,65.92-102.41c1.23-2.38,2.45-4.75,3.64-7.14s2.38-4.76,3.54-7.14,2.32-4.76,3.44-7.14c.57-1.19,1.13-2.39,1.68-3.58q2.09-4.47,4.1-8.93t3.95-8.92c.51-1.19,1-2.39,1.54-3.58s1.14-2.68,1.7-4c1.13-2.67,2.24-5.35,3.32-8q2.46-6,4.78-12,1.56-4,3.06-8c.45-1.18.89-2.37,1.33-3.57.76-2.07,1.53-4.15,2.27-6.23q2.24-6.23,4.38-12.44c.72-2.07,1.42-4.15,2.11-6.22.8-2.36,1.58-4.73,2.35-7.09l.15-.45q1.07-3.31,2.14-6.62c6.75-21.25,12.67-42.39,18.09-63.34.91-3.48,1.79-7,2.67-10.44h0q1.32-5.22,2.6-10.42c.56-2.32,1.13-4.63,1.69-7q1.68-6.9,3.32-13.79l3.22-13.74q1.61-6.86,3.18-13.69,2-8.52,3.91-17,2.91-12.69,5.85-25.2v0q2.94-12.53,6-24.89h0c11.88-48.4,25.21-94.73,44.93-138q3.93-8.64,8.23-17.12a396.44,396.44,0,0,1,26.7-45.26q7.07-10.35,15-20.36A365.55,365.55,0,0,1,2024.1,424c29-27.68,64.74-52.89,109.45-75.15l33.67-2.33,16.71-1.15h.09l6.1-.42.18.37,28.29,61.15,95.06,205.43,5.79,12.52.28.61Z"/><path class="cls-12" d="M2319.73,625h-.13c-3.14.26-62.21,5.6-128.08,46.1l-.34.21,0,0c-43.79,27-90.55,69.57-125.84,136.53l0,0q-4.8,9.11-9.29,18.82c-.1.2-.2.41-.29.62s-.21.44-.31.65q-1.11,2.44-2.21,4.92l0,.08c-.86,1.93-1.72,3.86-2.54,5.79-.65,1.52-1.28,3-1.91,4.55q-5.81,13.95-10.65,27.93c-.21.59-.41,1.17-.61,1.77-4.51,13.05-8.42,26.06-11.83,38.88-4.55,17.13-8.19,33.93-11.1,50.11a.43.43,0,0,0,0,.05c-2.07,11.55-3.76,22.79-5.15,33.58-9,70.41-4.72,122.45-4.51,125,0,0,0,0,0,0v0H1716.52q6.33-7.59,12.31-15.2a644.93,644.93,0,0,0,65.92-102.41c1.23-2.38,2.45-4.75,3.64-7.14s2.38-4.76,3.54-7.14,2.32-4.76,3.44-7.14c.57-1.19,1.13-2.39,1.68-3.58q2.09-4.47,4.1-8.93t3.95-8.92c.51-1.19,1-2.39,1.54-3.58s1.14-2.68,1.7-4c1.13-2.67,2.24-5.35,3.32-8q2.46-6,4.78-12,1.56-4,3.06-8c.45-1.18.89-2.37,1.33-3.57.76-2.07,1.53-4.15,2.27-6.23q2.24-6.23,4.38-12.44c.72-2.07,1.42-4.15,2.11-6.22.8-2.36,1.58-4.73,2.35-7.09l.15-.45q1.07-3.31,2.14-6.62c6.75-21.25,12.67-42.39,18.09-63.34.91-3.48,1.79-7,2.67-10.44h0q1.32-5.22,2.6-10.42c.56-2.32,1.13-4.63,1.69-7q1.68-6.9,3.32-13.79l3.22-13.74q1.61-6.86,3.18-13.69,2-8.52,3.91-17,2.91-12.69,5.85-25.2v0q2.94-12.53,6-24.89h0c11.88-48.4,25.21-94.73,44.93-138q3.93-8.64,8.23-17.12a396.44,396.44,0,0,1,26.7-45.26q7.07-10.35,15-20.36A365.55,365.55,0,0,1,2024.1,424c29-27.68,64.74-52.89,109.45-75.15l33.67-2.33,16.71-1.15h.09l6.1-.42.18.37,28.29,61.15,95.06,205.43,5.79,12.52.28.61Z"/><polygon class="cls-13" points="1262.34 1105.6 1262.4 1105.6 1262.34 1120.8 1262.34 1105.6"/><path class="cls-2" d="M2319.73,624.37l-.29,0c-7.81.83-171.52,19.91-252.82,180.86-.44.87-.88,1.75-1.31,2.63l0,0q-4.77,9.63-9.13,20a715.79,715.79,0,0,0-29.65,84.5q-3.26,11.54-5.94,22.6-3.42,13.92-6,27a.43.43,0,0,0,0,.05q-2,9.81-3.55,19.13c-14.25,83.66-6.37,137.73-6.1,139.52v0H1716.52q6.33-7.59,12.31-15.2h258.09c-.43-27.85-3.92-96.49,26.7-200.38q4.67-15.81,10.41-32.69c6.23-18.24,13.48-37.41,21.92-57.49,66.33-157.83,211.35-193.93,252.36-200.76L2197.5,408.36l-30.28-61.85,16.5-1.58.21.43,29.94,61.52,99.78,205Z"/><path class="cls-10" d="M2038.23,871.27l-.25.54a0,0,0,0,1,0,0l-.52,1.24a317.17,317.17,0,0,0-12.85,38.35A496.89,496.89,0,0,0,2011,981.23q-.87,7-1.6,14.45c0,.11,0,.23,0,.35a1024,1024,0,0,0-4.46,124.77H1716.52q6.33-7.59,12.31-15.2a644.93,644.93,0,0,0,65.92-102.41c1.23-2.38,2.45-4.75,3.64-7.14s2.38-4.76,3.54-7.14,2.32-4.77,3.44-7.14c.57-1.19,1.13-2.39,1.68-3.58q4.18-8.94,8-17.85c.51-1.19,1-2.39,1.54-3.58q6.85-16.07,12.86-32.09c.45-1.18.89-2.37,1.33-3.57q4.59-12.47,8.76-24.89c.8-2.36,1.58-4.73,2.35-7.09l.15-.45h0l134.45-11.93,47.49-4.21,14-1.24h.17Z"/><path class="cls-10" d="M2618.57,389.66c-21.78,39,.92,172.36,136.91,268.58,111.83,79.13,243.09,182.32,243.09,182.32L2949.09,746Z"/><path class="cls-14" d="M2958.67,491.88c9.2,91.12,4.54,253-13.31,257.57s-326.79-285.78-326.79-359.79c0-13.78,114.47-30.09,237.18-30.09C2917,359.57,2951.07,416.67,2958.67,491.88Z"/><polygon class="cls-15" points="2714.96 504.87 2912.47 504.87 2882.09 401.64 2628.82 401.64 2714.96 504.87"/><polygon class="cls-15" points="2831.44 627.14 2912.47 627.14 2912.47 523.9 2728.44 523.9 2831.44 627.14"/><path class="cls-16" d="M2649.59,376.43c19.23,75.63,240.58,290.28,307.2,339.89-2.88,19.28-6.67,31.92-11.43,33.13-17.86,4.56-326.79-285.78-326.79-359.79C2618.57,385.3,2630.06,380.7,2649.59,376.43Z"/><path class="cls-17" d="M2920.91,453.26c6.89,27.66-.83,51.61-14.34,51.61s-18.83-23.67-24.48-51.61c-6-29.67-13.52-51.62,0-51.62S2912.47,419.37,2920.91,453.26Z"/><path class="cls-17" d="M2934.63,575.52c0,28.51-9.92,51.62-22.16,51.62s-22.15-23.11-22.15-51.62,9.92-51.62,22.15-51.62S2934.63,547,2934.63,575.52Z"/><circle cx="2407.43" cy="1073.19" r="289.92" transform="translate(-53.74 2016.64) rotate(-45)"/><circle cx="2406.42" cy="1072.35" r="218.94"/><circle class="cls-18" cx="2406.42" cy="1073.16" r="201.92"/><path class="cls-19" d="M2409.3,867.22h-2.87l-2.58,0h0a205.95,205.95,0,1,0,47.21,407h0a205.8,205.8,0,0,0,161.31-201.1C2612.38,960.37,2521.73,868.76,2409.3,867.22ZM2542.11,1147a156.23,156.23,0,0,1-66.86,63.26,155.73,155.73,0,0,1-224.55-139.72,158.24,158.24,0,0,1,1.37-20.78,154.33,154.33,0,0,1,15.24-49.29,155.5,155.5,0,0,1,139.12-85.66,157.94,157.94,0,0,1,28,2.49A155.81,155.81,0,0,1,2561,1051a160.2,160.2,0,0,1,1.21,19.58A154.86,154.86,0,0,1,2542.11,1147Z"/><circle class="cls-9" cx="2406.42" cy="1073.16" r="70.48"/><path class="cls-19" d="M2288.08,1337.43c-6.82,13.73-13.6,24.69-20,31.22-38.44,39-86.83,113.81-107.28,119.27s-39.53-65.69-39.53-65.69c.92-.3,89.91-86.88,104.74-106.25,1.8-2.35,4.27-6.17,7.24-11.08C2239.7,1309.61,2262.1,1325.34,2288.08,1337.43Z"/><path d="M2215.36,1263.91v130.86a7.74,7.74,0,0,0,7.74,7.75h135.32v-15.18H2238.2a7.75,7.75,0,0,1-7.75-7.75V1266Z"/><path class="cls-20" d="M2129.66,1414.28s20.08,37.62,31.11,45.49,28.72,3.06,28.72,3.06-15.72,19.33-23,22.34-33.36,7.59-40.94-14.81-4.25-48.13-4.25-48.13Z"/><path class="cls-2" d="M2148.26,1521.26c-10.56,10.9-21,19.68-25.81,19.93-11.8.61-49.94-90.51-49.94-90.51s11.32-8.89,23.26-17.44c11.17-8,22.88-15.7,26.39-15.55,0,0,2.72-3.32,7,7.56s23.08,52.07,34.24,52.37,13.89-6.35,15.09,2.43C2179.17,1485.24,2163.57,1505.47,2148.26,1521.26Z"/><g class="cls-21"><path class="cls-22" d="M2148.26,1521.26c-10.56,10.9-21,19.68-25.81,19.93-11.8.61-49.94-90.51-49.94-90.51s11.32-8.89,23.26-17.44c2.64,8.06,7.05,15.36,11.43,22.58,11.21,18.43,22.43,36.85,34.19,54.93C2143.67,1514.25,2146,1517.74,2148.26,1521.26Z"/></g><path class="cls-23" d="M1991.93,1506.37s2.39-24.71,1.07-44.62c-2.17-20.39-7.4-47.39-19.92-63-22-27.56-48.71-106.79-20.52-119.16,0,0,21.68-15.28,47.56-14.61h0a58.52,58.52,0,0,1,17.43,3.07c32.77,11.17,30.88,21.47,55.46,14.72,12.75-3.5,13.37,10.9,6.45,19.93s20.23,32.8,16.75,59-28,50.56-40.09,57.51c0,0,4.18,15.49,14.45,37,9,18.93,15.39,27.72,27.59,37.07s-60.11,60.14-81.5,41.68S1991.93,1506.37,1991.93,1506.37Z"/><path class="cls-20" d="M1985.42,1396.74s28.37,32.2,4,41.91l-6.8-31.56Z"/><path class="cls-20" d="M1972.36,1364.17s1.26-10.58,30.45-9.52c0,0-31.3-18.71-38.35-10.1S1972.36,1364.17,1972.36,1364.17Z"/><path class="cls-20" d="M1995.94,1265s-41.55,38.59-39.43,58-9.77-45-9.77-45S1979.29,1265.35,1995.94,1265Z"/><path class="cls-24" d="M1965.24,1364.67c7.86-28.89,51.24,2,34.49-16.08s-22.33-9.28-37.7-27.49c-14.53-17.2-1.76-30.41-.3-31.82,21.46-20,38.86-49,32.8-62.91-2.09-4.83-7-7.85-15.53-8.07-10-.26-15.46,3.68-19.61,8.27a41.9,41.9,0,0,0-7.48,11.82c-.46,1.07-.88,2.16-1.25,3.26l-8.24,24.3-.58,1.72s-44.38,49-13.85,42.14C1917,1339.25,1959.38,1386.18,1965.24,1364.67Z"/><path class="cls-25" d="M1962,1321.1s11.39,24,12.44,32.07c0,0-5.3,3.15-5.16,5.15s-11.27-43-11.27-43Z"/><path class="cls-25" d="M1951.77,1305.8l5-10.45c17.22-24-.38-50.82-4.9-57-.46,1.07-.88,2.16-1.25,3.26l-8.24,24.3Z"/><path class="cls-24" d="M1982,1393.42s26,21.32,6.09,39.27c0,0-7.31-22.68-12.92-25.55S1982,1393.42,1982,1393.42Z"/><path class="cls-25" d="M1985.42,1396.74s13.42,25.12,1.73,33.32l-3.16-8.15-5.22-30.1A14.79,14.79,0,0,1,1985.42,1396.74Z"/><path class="cls-20" d="M2056.13,1419.14s-21.8,8.42-29.59,8.83,27.06,13,35.89,9.44C2062.43,1437.41,2057,1422.21,2056.13,1419.14Z"/><path class="cls-2" d="M1985,1250.43a.87.87,0,0,0,.49-.42c.32-.58,7.57-14.37,2.18-22.26-2.92-4.27-8.92-5.91-17.85-4.85a.88.88,0,0,0-.76,1,.87.87,0,0,0,1,.76c8.23-1,13.68.41,16.21,4.11,4.8,7-2.2,20.33-2.27,20.47a.86.86,0,0,0,.35,1.17A.9.9,0,0,0,1985,1250.43Z"/><path class="cls-26" d="M2034.38,1287.73s5.09,3.87,2.94,6.28-7.36-5.39-7.25-6.32C2030.33,1285.45,2032.83,1286.28,2034.38,1287.73Z"/><circle class="cls-20" cx="2034.39" cy="1309.56" r="1.82"/><circle class="cls-20" cx="2034.47" cy="1317.27" r="1.29"/><circle class="cls-20" cx="2043.39" cy="1305.33" r="1.82"/><circle class="cls-20" cx="2043.27" cy="1315.76" r="2.32"/><path class="cls-24" d="M2020,1269.82a2.84,2.84,0,0,0-3.32-.33c-3.47,1.61-11.58,6.37-8.46,14.4,2.59,6.67,6,5,4.08,1.83-.92-1.54-1.93-5-1.4-7.18C2012.21,1273.22,2021.88,1272,2020,1269.82Z"/><path class="cls-20" d="M2087,1331.16a38.11,38.11,0,0,1-4.14,4.92,46.63,46.63,0,0,1-4.81,4.29,33.55,33.55,0,0,1-5.57,3.29,19.41,19.41,0,0,1-6.25,1.65l0-.43c1.92-1.78,3.37-3.08,4.85-4.35s2.89-2.49,4.43-3.62a47.2,47.2,0,0,1,5-3.28,29.46,29.46,0,0,1,6.24-2.73Z"/><path class="cls-2" d="M1991.93,1479.47s16.84,13,46.34,6.63,35.55-27.08,29.82-35.3c0,0-1.44-4,1.95-4s33.39,30.73,46.66,63.67,38.11,72.29,39.83,79.42,11.56,172.59-6.39,186.36-83.84,84.09-122.19,51.39-114.82-93.18-115.56-112.36,16.72-124.9,34.42-173.58S1985.91,1472.58,1991.93,1479.47Z"/><g class="cls-21"><path class="cls-22" d="M2039.52,1629.88s-16.35-8.17,12.71,28.75,62.66,58.12,59,87.48-77.79,59.63-96.56,11.2-22.78-75.66-22.78-75.66-27.77,39.64-2,90.19,64.8,83.52,98.84,52.36,58.26-54.17,63.1-72.64,0-56,0-56l-39.35-20.28Z"/></g><path class="cls-27" d="M2039.52,1629.88s38.44,33.6,60.84,51.15,35.82,48.91,13.52,98.92c0,0,8.08,6.66,21.9-7.81s16-76.58,16-76.58S2059.19,1648.65,2039.52,1629.88Z"/><path class="cls-28" d="M2237.85,2107.92a1059.06,1059.06,0,0,1-256.08-97.24q-37.23-20-72-42.62c-11.49-60.54-6.72-186.61-7-224.12,0-2.9-.06-5.26-.15-7-1.49-29.42,6-27.31,6-27.31,16.93,1.12,54.08-110.69,73.07-162.11,1.7-4.59,3.25-8.7,4.63-12.21,13-33.07,42-38.11,42-38.11a70,70,0,0,1,13.12-1.26,60.07,60.07,0,0,1,22.48,4.25s15.8,5.37,42,28.68,37.07,35,37.07,35l3.14,5.75c-1.18-1-76.68-61.7-92-62.48-60-2.68-67.46,133.05-60.32,207.4,3,31.13,11.2,52.77,22.62,66.69,17.57,21.4,42.74,24.54,68.27,15.87a110.37,110.37,0,0,0,14.73-6.28c46.8-23.93,38.46-110.19,38.46-110.19l55.35-20.44s30.9,104.45,39.35,152.56a142.51,142.51,0,0,1,2,15.46C2236.63,1861.35,2256.13,2058.33,2237.85,2107.92Z"/><path class="cls-24" d="M2577.85,1325.15c-8.1,19.09-14.51,39.08-16.6,59.71-1.63,16.07-.62,32.28.74,48.37,1,12,2.21,23.93,5.1,35.57,3.36,13.57,9.31,27,19.75,36.29,5.63,5,13.59,8.8,20.61,6,3.52-1.38,6.27-4.23,8.59-7.22,8.28-10.71,12.42-24.09,14.65-37.46,1.06-6.36,1.72-12.9.5-19.23a36.54,36.54,0,0,0-6.48-14.53c-1.64-2.23-3.64-4.38-6.29-5.19s-6,.23-7,2.82c-7.77-8.33-13.75-17.28-17.58-28a63.32,63.32,0,0,1-2.76-33.66c.83-4.1,2.13-8.11,2.79-12.25.95-6.07.5-12.26,0-18.38-.29-3.32-.67-6.82-2.67-9.48C2588.4,1324.83,2582.37,1324.07,2577.85,1325.15Z"/><path class="cls-23" d="M2722.76,1407c-2.18,5-6.39,8.76-10.07,12.79-17.51,19.25-23.58,46.72-22.29,72.71.44,8.88,1.6,18.16-1.84,26.37-5.84,13.92-22.55,19.57-37.56,21.16-9.24,1-18.91,1-27.42-2.78s-15.54-12-15.4-21.34c.07-4.8,1.94-9.27,4-13.69h0c.66-1.45,1.35-2.89,2-4.33,5.85-13.22,8.38-23.35,7.18-37.76-7.87.34-17.88-1.32-25.47-5.5a29.32,29.32,0,0,1-6.34-5,65.15,65.15,0,0,1-18.9-48.49c.32-7,1.8-14,2.54-21,1-9.16.67-18.46,2.21-27.54a74,74,0,0,1,2.83-11.15c5.31-16,15.5-30.34,25.46-44.17l9.4-4.07,1.56-.67a96.37,96.37,0,0,1,12.49-.73,31.69,31.69,0,0,1,12.48,2.55c3.47,1.58,6.52,4,9.88,5.79,6.56,3.54,14.07,4.8,21.16,7.08a75.17,75.17,0,0,1,46.78,45.13c4.16,11.44,5.44,23.7,6.68,35.82C2724.7,1394.49,2725.3,1401.16,2722.76,1407Z"/><path class="cls-20" d="M2724.06,1388.17c-1.24-12.12-2.52-24.38-6.68-35.82a75.17,75.17,0,0,0-46.78-45.13c-7.09-2.28-14.6-3.54-21.16-7.08-3.36-1.81-6.41-4.21-9.88-5.79a31.69,31.69,0,0,0-12.48-2.55c-4.83.52-9.53,1-14,1.4l-9.4,4.07c-10,13.83-20.15,28.17-25.46,44.17,0,0,13.48,8.57,26.2,11.54s17.72-4.12,24.49,0,23.65,20.5,41.1,22.66,19.8,15,18.58,25.07,5.31,2.18,5.31,2.18,9.76-12.89,18.55-8.36,6.65,19.29,1.83,21.64-14.95-1.57-19.19,17.33c-3.75,16.7-9,33.41-10.44,51.7v0q-.15,1.83-.24,3.69c-.59,5.35-2.66,15-9.92,19.3-10.34,6.15-58.21,28.58-58.5-14.64,0,0-15.09,14.83-7.4,29.83s12.58,24.6,23.31,18.65c.94-.53,2.08-1.15,3.37-1.84A74.35,74.35,0,0,0,2651,1540c15-1.59,31.72-7.24,37.56-21.16,3.44-8.21,2.28-17.49,1.84-26.37-1.29-26,4.78-53.46,22.29-72.71,3.68-4,7.89-7.79,10.07-12.79C2725.3,1401.16,2724.7,1394.49,2724.06,1388.17Zm-68.76,142.56c-.93.08-1.84.14-2.73.19,12.51-6.83,26.22-14.77,31.11-19.74C2682.25,1521.94,2676.71,1528.92,2655.3,1530.73Z"/><path class="cls-24" d="M2768.35,1444.5c-4.73,11.25-11.63,21.39-18.86,31.27q-2.25,3-4.51,6.08c-7,9.39-14.27,19-24.4,24.9-8.15,4.7-17.56,6.62-26.79,8.44a6.48,6.48,0,0,1-3.9,0c-2.14-1-2.6-3.72-2.73-6.05a186.31,186.31,0,0,1,14.28-82.54,14.79,14.79,0,0,1,3.55-5.69c1.81-1.56,4.2-2.18,6.38-3.14a17.62,17.62,0,0,0,9.94-10.71c1.41-4.82,0-10.53-3.94-13.65s-9.45-3.22-13.87-1.13-7.7,6.15-9.65,10.64c2-7.16,3.78-15.74-1.14-21.33-2.21-2.52-5.41-3.9-8.5-5.2l-19.72-8.32c-9.73-4.11-19.73-8.39-27.23-15.82s-12-18.89-8.38-28.79h0a28,28,0,0,0-10.21,24.55,75.55,75.55,0,0,1-28.11-5.67h0l-.16-.07h0a73.62,73.62,0,0,1-13.09-7,9.37,9.37,0,0,1-3.15-3,8.65,8.65,0,0,1-.65-4.76c1.2-16.72,12.62-31.34,26.6-40.59a109.56,109.56,0,0,1,43.81-17.35c12.18-2.14,23.35-2.87,35.65,1.5,5,1.79,10,2.94,14.29,6.53a34.8,34.8,0,0,1,9.62,13c.56,1.3,1.09,2.73,2.27,3.53s2.88.77,4.39.75c16-.19,30.43,10.53,39.22,23.85s13,29,17.36,44.4c3.69,12.94,7.61,26,8.59,39.38A91.74,91.74,0,0,1,2768.35,1444.5Z"/><path class="cls-23" d="M2590.52,1342.32h0Z"/><path class="cls-23" d="M2590.36,1342.25l.16.07Z"/><path class="cls-25" d="M2618.65,1348a75.55,75.55,0,0,1-28.11-5.67s13.48-.75,22.56-9.06c8.81-8.06,15.36-9.73,15.76-9.82A28,28,0,0,0,2618.65,1348Z"/><path class="cls-25" d="M2749.49,1475.77q-2.25,3-4.51,6.08c-7,9.39-14.27,19-24.4,24.9-8.15,4.7-17.56,6.62-26.79,8.44a6.48,6.48,0,0,1-3.9,0c-2.14-1-2.6-3.72-2.73-6.05a186.31,186.31,0,0,1,14.28-82.54,14.79,14.79,0,0,1,3.55-5.69c1.81-1.56,4.2-2.18,6.38-3.14a17.62,17.62,0,0,0,9.94-10.71c1.41-4.82,0-10.53-3.94-13.65s-9.45-3.22-13.87-1.13-7.7,6.15-9.65,10.64c2-7.16,3.78-15.74-1.14-21.33-2.21-2.52-5.41-3.9-8.5-5.2l-19.72-8.32c-9.73-4.11-19.73-8.39-27.23-15.82s-12-18.89-8.38-28.79c0,0,1.59,26.81,29.08,32.6s77,15.29,73.33,43.22C2727.84,1425.38,2720.23,1466.29,2749.49,1475.77Z"/><path class="cls-23" d="M2921.1,1344.25c-1.34,6.91-42.88,77.45-62.32,111.4-5.22,9.14-8.86,15.63-9.66,17.49-3.81,8.83-22.76,38-44.54,23.25s-34.94-55.15-34.94-55.15,3.36-4.69,8.58-12.06c18.76-26.52,61.67-87.83,59.45-91.15-2.82-4.24-64.76-73-79.18-93s-43.55-63.63-48.36-66.18-37.9-9.32-43.27-15.54a85.51,85.51,0,0,1-6.4-9c-3.82-6-7.17-12-7.17-12s-16.09-16.74,12.71-37h0s8.77-9.34,16.41-7.35,14.14,1.12,21.21,6.79,22.62,13.85,30.54,24.32c5.94,7.85,8.7,13.15,10.3,17.7.53,1.51.94,2.94,1.3,4.35,1.13,4.56.62,11.14,5.86,17.07a22.93,22.93,0,0,0,4.88,4.14c10.46,6.78,131.78,107.46,148.18,130.37S2922.8,1335.49,2921.1,1344.25Z"/><path class="cls-23" d="M2556.52,1459.26s-53.72,25.65-60.25,25.9a22.83,22.83,0,0,1-11.51-2.78s-3.77-9.33-9.15-22.93c-13.56-34.33-37.38-95.94-36.68-103.74,1-10.89,7-112,11.37-142s11.86-62.67,11.86-62.67,3.38-14.27,2.41-25.89c-.5-6.11-1.08-23.34-.56-38.94.41-12.37,1.52-23.7,3.89-27.63h0a3.76,3.76,0,0,1,1-1.17c6.54-4.35,10.42-1,10.42-1s-1.22-6.29,8.46-5.56,11.13,4.6,11.13,4.6,3.87-3.88,12.34-2.42,5.81,6.29,5.81,6.29,9.68-1.94,16.46,5.32,4.59,16.21,3.38,25.41c-.62,4.78-4.14,16-7.91,26.34-3.48,9.49-7.17,18.13-9,20.11-3.87,4.11-14,18.15-15.24,22.74s6.29,166,9.19,175.67c2.35,7.81,26.69,65.16,36,87,2.22,5.22,3.6,8.42,3.6,8.42Z"/><path class="cls-20" d="M2840.21,1457.93c7.59-.73,13.69-1.51,18.57-2.28-5.22,9.14-8.86,15.63-9.66,17.49-3.81,8.83-22.76,38-44.54,23.25s-34.94-55.15-34.94-55.15,3.36-4.69,8.58-12.06C2786.64,1440.58,2806,1461.25,2840.21,1457.93Z"/><path class="cls-20" d="M2557.87,1463.24s-53.71,25.64-60.25,25.89a22.7,22.7,0,0,1-11.5-2.77s-3.78-9.33-9.15-22.93a66.52,66.52,0,0,0,8-.73,80.09,80.09,0,0,0,13-3.08c11.11-3.59,21.43-9.24,31.41-15.31a93.33,93.33,0,0,0,12.24-8.49,108,108,0,0,0,9.32-9.45c.13-.16.28-.32.43-.48l3.6,8.43Z"/><path class="cls-2" d="M2855.06,1477.1c-2,5.28-54.46,83.17-55.11,131.35-.31,23-1,69.5-2.18,112.62-1.29,47.32-3.16,90.54-5.75,94-3,4-70.22-8.61-132.69-32.81-42-16.3-81.93-37.87-98.56-63.22-41.35-63-49.6-84.49-39.38-111.89s60.07-120.78,67-120.78,27.37.33,27.55,7.25c0,0-6.43,18.49,3.81,28.39s55.72,1.29,67.13-20.48c0,0,1.92-2.57,4,.7s13.66,4.92,24.55.63c1.86-.72,4.65-3,8-6.26l.09-.09c1.23-1.19,2.54-2.52,3.91-4,16.78-17.68,42.18-51.3,42.18-51.3s15.78,16.72,37.56,26.62,38,15.18,41.92,5.28C2849.12,1473.14,2857,1471.82,2855.06,1477.1Z"/><g class="cls-29"><path class="cls-22" d="M2690.91,1502.21s-25.32,81.7-38.22,109.82-14.06,32.5-41.49,30.66-69.15-8.76-65.7-27.66,18.91-62.28,18.91-62.28-41.49,66-35.5,80.49,104.87,49.56,116.86,32.27,43.33-110,47.48-121.7,4.63-38.65,4.63-38.65S2695,1505.1,2690.91,1502.21Z"/></g><g class="cls-21"><path class="cls-22" d="M2797.77,1721.07c-1.29,47.32-3.16,90.54-5.75,94-3,4-70.22-8.61-132.69-32.81-10.08-105.1,38.56-218.38,38.56-218.38l25.35-67.06.31-.31,3.91-4c-.15,1-9.86,65-16.53,115.26-6.71,50.65,3.1,100.78,33.6,113.19C2762.54,1728.32,2783.56,1725,2797.77,1721.07Z"/></g><path class="cls-27" d="M2696.25,1625.64c0,.19-1.22,89.09,15,111.22s53.41,40.45,84.81,34.91c0,0-1.52,32.08-4,43.28s-95.53-6.25-105.62-51.37-8.4-106.85-2-119.19S2696.25,1625.64,2696.25,1625.64Z"/><path class="cls-2" d="M2578.17,1482.38s-3.56,7.61-9.08,19.34C2553,1535.91,2520.31,1605,2511,1621.88c-2.08,3.72-3,4.9-2.35,2.54l.24-.78c3.55-11.18-6.19-49.25-14.83-83.07,0,0,0,0,0-.06-8.18-32-15.35-60.21-9.25-58.13,12.55,4.3,57.43-29.7,61.72-38.61s9.9-21.78,11.88-12.54S2578.17,1482.38,2578.17,1482.38Z"/><g class="cls-29"><path class="cls-22" d="M2569.29,1506.56c-1.13,6.74-30.44,83.89-58.32,115.32-.78.88-1.57,1.74-2.35,2.54l.24-.78c3.55-11.18-6.19-49.25-14.83-83.07,10.06,31.86,67.66-47,67.66-47s5.87,2.42,7.4,8.13A11.17,11.17,0,0,1,2569.29,1506.56Z"/></g><path class="cls-23" d="M2575,2612.29s-.62,7.63-1.88,18.95c-.71,6.3-1.62,13.75-2.73,21.67-.82,5.82-1.76,11.9-2.8,18-1.53,8.83-2.35,17.93-5.33,25.54-31.71,81.09,3.82,98.56,3.82,98.56l-56.89-2.22s-6.05-52.55-11.06-109.38c-.76-8.63-1.5-17.37-2.18-26-.1-1.22-.2-2.44-.29-3.65v0c-3.34-42.67-5.38-83-3.16-100.67C2498.17,2507.78,2575,2612.29,2575,2612.29Z"/><path class="cls-20" d="M2573.08,2631.24c-.71,6.3-1.62,13.75-2.73,21.67-12,5.42-37.8,11.45-52.78,8.85-17.32-3-21.07-3.22-21.66-4.41a1.27,1.27,0,0,1-.11-.28l-.18-3.37v0l-2.59-49.28Z"/><path class="cls-30" d="M2509.15,2792.76s-6.05-52.56-11.06-109.39c35.37,11.85,69.46-12.5,69.46-12.5-1.53,8.84-3.3,17.63-5.33,25.55-8.69,34-7.95,44.5-7.95,44.5l.52,59Z"/><path d="M2581.84,2827a32.58,32.58,0,0,1-1.57,9.81l-196.12,3s-5-1.83-6.91-11.65a43.79,43.79,0,0,1-.75-8.2c-.1-17.07,73.5-32.62,97.81-44.79,31.42-15.73,29.22-6.21,29.22-6.21s27.47,11.15,57.91-.33c0,0,10.78-20,18.66,38.59A99.73,99.73,0,0,1,2581.84,2827Z"/><path class="cls-30" d="M2581.84,2827a32.58,32.58,0,0,1-1.57,9.81l-196.12,3s-5-1.83-6.91-11.65Z"/><path class="cls-2" d="M2474.65,2794.75a1.37,1.37,0,0,1-1.37-1.29,32.21,32.21,0,0,0-5-15.4,1.37,1.37,0,0,1,2.24-1.59,34.65,34.65,0,0,1,5.47,16.82,1.36,1.36,0,0,1-1.28,1.45Z"/><path class="cls-2" d="M2456.08,2798a1.36,1.36,0,0,1-1.38-1.29c-.52-8.83-4-12.57-4-12.61a1.37,1.37,0,0,1,2-1.9c.17.17,4.18,4.41,4.76,14.35a1.38,1.38,0,0,1-1.29,1.45Z"/><path class="cls-2" d="M2493.47,2789a1.38,1.38,0,0,1-1.38-1.3c-.77-14.94-9.22-15.42-9.3-15.43a1.37,1.37,0,0,1-1.32-1.42,1.39,1.39,0,0,1,1.42-1.32c.45,0,11,.61,11.94,18a1.37,1.37,0,0,1-1.3,1.44Z"/><path class="cls-23" d="M2893.83,2643.36c0,.22,0,.46.06.69.58,6.58,1.14,14,1.69,21.78.82,11.63,1.6,24.16,2.31,36.17,1.84,31.11,3.14,58.79,3.14,58.79l-52.33,17.37L2833.87,2709l-8.15-38-4-18.65-14.8-69.05-9.54-44.48-2.57-12a56.49,56.49,0,0,1,14.54-2.74,61.23,61.23,0,0,1,47.6,17.37C2873.89,2557.68,2888.93,2588,2893.83,2643.36Z"/><path class="cls-20" d="M2893.83,2643.36c0,.22,0,.46.06.69.58,6.58,1.14,14,1.69,21.78-27.68,5.29-54.54,5.61-69.86,5.18l-4-18.65-14.8-69.05-9.54-44.48a105.78,105.78,0,0,1,12-14.7,61.23,61.23,0,0,1,47.6,17.37C2873.89,2557.68,2888.93,2588,2893.83,2643.36Z"/><path class="cls-30" d="M2896.38,2677.57c1.84,31.11,4.66,83.22,4.66,83.22l-52.34,17.37-20.26-94.49C2833,2685.18,2865.57,2694.48,2896.38,2677.57Z"/><path class="cls-9" d="M2911.07,2787.35c.22,2.14.1,10,.44,11.7,2.26,10.79,5.7,17.21-55.41,39.15-70.54,25.31-114.47,31.41-140.26,3.08-23.15-25.44,46.09-44.74,127.68-97.16-.39,1.14-7.39,37,59,10.5,2.76-1.11,3.88,2.45,4.53,5.35C2909.63,2771.47,2910,2776.87,2911.07,2787.35Z"/><path class="cls-30" d="M2856.1,2838.2c-70.54,25.31-114.47,31.41-140.26,3.08,0,0,28.82,18,72.93,8.16,36-8.06,102.1-40.15,122.74-50.39C2913.77,2809.84,2917.21,2816.26,2856.1,2838.2Z"/><path class="cls-2" d="M2836.72,2777.76a2.42,2.42,0,0,1-3.19-.92c-7.87-13.42-16.25-16.53-16.33-16.56a2.41,2.41,0,0,1,1.57-4.56c.41.14,10.06,3.57,18.92,18.68a2.4,2.4,0,0,1-.86,3.29Z"/><path class="cls-2" d="M2820.87,2786.55a2.4,2.4,0,0,1-3.18-.92c-7.87-13.42-16.25-16.53-16.34-16.56a2.41,2.41,0,0,1,1.57-4.56c.41.14,10.07,3.57,18.92,18.68a2.41,2.41,0,0,1-.85,3.3Z"/><path class="cls-2" d="M2802.1,2798.29a2.41,2.41,0,0,1-3.19-.92c-7.87-13.42-16.25-16.53-16.33-16.56a2.41,2.41,0,0,1,1.57-4.55c.4.14,10.06,3.56,18.92,18.67a2.41,2.41,0,0,1-.86,3.3Z"/><path class="cls-28" d="M2908.16,2616c-35.46,47.28-132.53,35-132.53,35s-1.71-2.58-11.66-42h0c-1.94-7.69-4.19-16.78-6.82-27.54-1.72-7-3.7-14.55-5.89-22.39-18.28-65.53-50.73-154.28-58.27-184.44-8.45-33.77-70.07-240.6-70.07-240.6s-11,183.19-6.75,256.64c2.09,36.44-.41,94.67-3.46,144.1-1.31,21.09-2.71,40.59-3.9,56.11-1.64,21.4-2.88,35.23-2.88,35.23-45.59,28.7-126.39,17.88-126.39,17.88s-1.2-20.88-3.21-53.34c-.81-12.83-1.73-27.46-2.78-43.33-3.73-57-8.87-129.94-14.4-192.1-11-123.26-9.29-321.65-14.36-394.25s16.05-165.46,37.7-266.77,59.37-167.43,59.37-167.43c12.21-22.54,32.7-53,32.7-53,3.45-7.68,18.5,5.92,21.57,7.61s0,5.13,0,5.13-64.72,130.9-61.9,142,96.16,26.54,106.05,25.55c.85-.09,1.94-1.14,3.23-3v0c14-20.13,51.53-134.24,50.49-143-1.13-9.62,2-9,2-9s12.73-.85,20.37-4.25,6.88,2.11,6.88,2.11-.66,22.49-14.8,64.92-16.13,102.37-12.16,146.2,37,69.29,63.34,79.46,35.51,1.53,35.51,1.53c2.89-1.18,5.1,1.63,6.77,7.36,4.19,14.25,5.06,46.6,5.06,80.34,0,47.28,45.58,440.67,62.47,505.68,8.68,33.4,18.67,94.21,26.33,145.43,2.41,16.15,4.59,31.34,6.43,44.42C2905.87,2598.3,2908.16,2616,2908.16,2616Z"/><path class="cls-31" d="M2902.19,2572.14c-5.6,3.67-11.49,7-17.32,10.21-16.29,9.05-32.7,18.09-50.28,24.32s-36.5,9.56-54.94,6.82a58.94,58.94,0,0,1-15.68-4.42h0c-1.94-7.69-4.19-16.78-6.82-27.54-1.72-7-3.7-14.55-5.89-22.39,14,1.28,28.23.47,42.21-1.2,35.47-4.24,70.52-14.06,102.29-30.21C2898.17,2543.87,2900.35,2559.06,2902.19,2572.14Z"/><path class="cls-31" d="M2612.71,2534.83c-1.31,21.09-2.71,40.59-3.9,56.11-17.56,9.51-38.13,14.2-58.22,16-10,.89-20.13,1.16-30-.5-12.15-2-23.63-6.91-34.95-11.75-3.1-1.32-6.19-2.63-9.28-4-.81-12.83-1.73-27.46-2.78-43.33a63.5,63.5,0,0,0,7.43,1,365.45,365.45,0,0,0,116.73-9.61C2602.74,2537.53,2607.72,2536.18,2612.71,2534.83Z"/><path class="cls-20" d="M2837.67,1338s8.49,6.78,18.67,13.57c0,0-7.73,5.94-21.4-6.78Z"/><path class="cls-20" d="M2751.63,1168.17c-.29,3.18-.94,5.66-2,6.35-3.08,2.06-40.21-9.25-46.72-9.66-4.78-.3-26.24-2.15-42.48-10.56-3.82-6-7.17-12-7.17-12a18.33,18.33,0,0,1-4.12-8.45,18.76,18.76,0,0,1,.48-9.17c1.71-5.66,6.3-12.31,16.35-19.41-.27.46-7.17,11.8-10.36,20.86a21.36,21.36,0,0,0-1.58,7.86c0,.36.07.72.13,1.07a10.49,10.49,0,0,0,11.81,9s-1.86,2.49,2,7.21,13,5.35,14.81,3.92c0,0,2.88,5.75,11.51,6.16a15.06,15.06,0,0,0,8.22-3.7s4.94,6.37,9.66,2.67c1.9-1.49,4-5.54,5.91-9.72,1.41-3,2.77-6.16,4-8.39s2.3-3.67,3-3c1.83,1.67,12,6,19.31,7.51.1.32.21.64.31,1,.39,1.16.71,2.29,1,3.4.46,1.87.65,4.1,1.08,6.47A20.63,20.63,0,0,0,2751.63,1168.17Z"/><path class="cls-20" d="M2702.58,1157.66a31.41,31.41,0,0,1,1.37-6.61,47.28,47.28,0,0,1,2.4-6.22,40.16,40.16,0,0,1,3.31-5.84,22.67,22.67,0,0,1,2.13-2.67,10.12,10.12,0,0,1,2.7-2.17c-1.06,2-1.73,4-2.59,6.06s-1.68,4-2.62,6-1.91,3.93-3,5.85A43.09,43.09,0,0,1,2702.58,1157.66Z"/><path class="cls-20" d="M2682.85,1155.2a58.81,58.81,0,0,1,2.52-8.77c1-2.84,2.21-5.63,3.52-8.35a78.26,78.26,0,0,1,4.4-8c.82-1.28,1.72-2.53,2.67-3.74a23,23,0,0,1,1.56-1.73,5.35,5.35,0,0,1,1.9-1.36,7.41,7.41,0,0,0-1.18,1.89c-.32.67-.63,1.35-.92,2-.61,1.36-1.18,2.75-1.78,4.12-1.2,2.73-2.42,5.46-3.73,8.16s-2.66,5.36-4.13,8A77.32,77.32,0,0,1,2682.85,1155.2Z"/><path class="cls-20" d="M2666,1144.07a60.41,60.41,0,0,1,2.74-8.55c1.1-2.76,2.33-5.47,3.68-8.11a79.73,79.73,0,0,1,4.5-7.73c.82-1.25,1.73-2.45,2.66-3.64.51-.57,1-1.16,1.52-1.7.27-.27.53-.54.82-.8s.62-.47.93-.68l-.55,1c-.16.33-.31.67-.46,1-.32.65-.61,1.35-.9,2l-1.79,4c-1.22,2.68-2.49,5.34-3.84,8s-2.77,5.21-4.29,7.75A70.68,70.68,0,0,1,2666,1144.07Z"/><path class="cls-20" d="M2536.92,1090a55.73,55.73,0,0,1-1.6,7c-.7,2.56-1.59,5.48-2.59,8.55-1.13,3.5-2.4,7.18-3.72,10.75-4.93,3.58-8.89,5.41-8.79,5.11.17-.49,4.22-9.55,6.59-17.3,1.07-3.5,1.8-6.73,1.66-8.77,0-.1,0-.2,0-.3-.73-6.29-7.25-12.83-11.86-15.49s-6.28-10.64-11.37-13.07-6.78,3.88-6,15a32.49,32.49,0,0,0,1.21,7c1.8,6.2,4.84,9,4.84,9s-.54.32-1.44.95a55.26,55.26,0,0,0-9,7.88c-5.33,5.81-8.72,20.32-8.72,20.32-1.67.1-2.34-.85-2.34-2.47,0-4.69,5.65-14.9,9.15-21,0,0,.75-5.13-1.45-7.75a4.41,4.41,0,0,0-3.9-1.46c-.55,0-1.12.08-1.71.1-5.18.29-11.18.07-17.34-4.2a29.16,29.16,0,0,1-4.5-3.87c.07-2.14.17-4.25.27-6.28.56-9.79,1.65-18.1,3.62-21.35,0,0-.76,14.66,2,22.7a9.61,9.61,0,0,0,2.44,4.19c3.69,3.21,6.74.57,8.38-1.58a13.24,13.24,0,0,0,1.3-2,10.62,10.62,0,0,0,.36,2.46c.55,2,1.94,4.66,5.45,4.8a10,10,0,0,0,6.72-1.86,5.64,5.64,0,0,0,1.21-1.22h0a60.91,60.91,0,0,1,.45-7.87c1-8.26,1.78-11.08,4.92-13.5s8.95-.73,10.88,2.91,12.34,13.54,13.71,15,4.2-4.84,4.92-6.3S2536.92,1090,2536.92,1090Z"/><path class="cls-31" d="M2622.92,2134.09s-21.63-91.21-28.16-86.85,20.44,301.61,20.44,301.61Z"/><path class="cls-2" d="M2112.47,1675.28l-7.64-4.62c-5.88-3.57-14.54-8.82-23.69-14.43-17.1-10.49-35.91-22.19-41.62-26.35-11.2-8.17,2.52-90.27,4.84-107.46,1.33-9.81,12.43-14.84,12.43-14.84s15.72,2.11,87.44,59.06c6.26,5,11.52,9.41,15,12.12,1.35,1,2.43,1.87,3.16,2.38C2171.5,1587.5,2112.47,1675.28,2112.47,1675.28Z"/><path class="cls-23" d="M2171.49,1589.92s35.12,33,38.14,33.9c0,0,48.43-140.14,50.55-156.79s-10.29-19.07-13.32-32.39-25.12-23.31-23-30,15.74-5.44,18.46-1.51c0,0-.69-27.24,3.29-33.29s11.24-1.52,13.36-3.94,13.93-8.48,20.89-4.54,8.78,7.87,12.41,7.87,13-3.33,18.16,1.82,5.15,8.47,7.87,10.59,8.48,3.33,8.78,14.23-13.32,51.45-19.37,70.52-21.8,230.66-42.38,253.36-55.39,16-67.5,9.08-85.36-53.58-85.36-53.58Z"/><path class="cls-20" d="M2208.48,1623.14s-13.88,32.44-10.55,52.72c0,0,.93,13.66-6.19-.58-5.66-11.31,7.33-60,7.33-60Z"/><path class="cls-20" d="M2180.09,1597.94s-35.16,73.73-34.44,98.39l-33.18-21,59-85.36Z"/><path class="cls-20" d="M2242.32,1403.16l3.29,13L2228,1400.77S2236,1398.92,2242.32,1403.16Z"/><path class="cls-32" d="M2753.24,2572.82s78-2.79,145.26-23.44c0,0,9.87-6.27,11-1.39s8,80-6.54,89.67c-13.65,9.11-110.32,23.57-130.61,16.49C2763.3,2651,2734,2569.85,2753.24,2572.82Z"/><path class="cls-32" d="M2466.22,2562.67s74.46,6.83,140.86-4.61c0,0,10.13-4.75,10.6,0s-2.13,77-17.12,84.39c-14.07,7-107.67,9-126.09-.21C2466.26,2638.16,2448.28,2557.51,2466.22,2562.67Z"/><path class="cls-31" d="M2771.08,1858.32l2.21,41.17,2.33,41.16c.78,13.71,1.52,27.43,2.37,41.14l2.5,41.13c1.83,27.41,3.52,54.83,5.81,82.18,1,13.69,2.29,27.36,3.52,41l2.11,20.46c.32,3.41.8,6.8,1.21,10.2l1.27,10.19.62,5.09.77,5.06,1.55,10.12c.27,1.69.48,3.38.81,5.06l.94,5,1.88,10.1c1.3,6.72,2.7,13.44,4.05,20.16l4.31,20.12c5.79,26.83,12.12,53.57,18.13,80.39s12,53.67,17.18,80.69c1.21,6.78,2.47,13.54,3.62,20.32l1.65,10.19.82,5.1c.26,1.69.47,3.4.71,5.11a379.45,379.45,0,0,1,3.92,41.06c-2.51-27.38-7.86-54.35-13.83-81.14l-4.55-20.08-4.74-20-9.71-40q-9.89-40-19.19-80.22l-4.44-20.16c-1.38-6.75-2.81-13.48-4.15-20.24l-1.93-10.15-1-5.08c-.33-1.69-.55-3.41-.83-5.12l-1.61-10.25-.8-5.12-.64-5.13c-3.51-27.38-5.79-54.8-7.79-82.24s-3.5-54.9-4.73-82.37-2.21-54.94-3-82.42l-.88-41.23-.34-20.61Z"/><path class="cls-31" d="M2640.28,1654.05c-13.34,6.75-99.39-6.24-111.38-20.81s67.23-151.84,67.23-151.84c3.07,1.7,0,5.13,0,5.13s-64.72,130.9-61.9,142S2630.39,1655,2640.28,1654.05Z"/><path class="cls-31" d="M2801.9,1796.27c-80.36,13.82-118.76-56-113.36-140.38,5.59-87.49,32-149.14,32-149.14s-23.48-13.65-26.79,8.44c-3.07,20.49-35,116.64-50.27,135.84,14-20.13,51.53-134.24,50.49-143-1.13-9.62,2-9,2-9s12.73-.85,20.37-4.25,6.88,2.11,6.88,2.11-.66,22.49-14.8,64.92-16.13,102.37-12.16,146.2,37,69.29,63.34,79.46,35.51,1.53,35.51,1.53C2798,1787.73,2800.23,1790.54,2801.9,1796.27Z"/><path class="cls-20" d="M2621.3,1460.12s15.51-.42,27.51-6.58c0,0,4.52-1.81,0,5s-27.28,11.13-27.28,11.13Z"/><path class="cls-28" d="M1889.72,1353.22a120.61,120.61,0,0,1-.08-24.62c4.92-48.95,60.67-65.58,60.67-65.58,11.84,19.12,21.17,92.83,23.8,115.42.49,4.18.75,6.62.75,6.62,1.68,3.92,3.26,8.06,4.75,12.32,12.07,34.51,18.06,77.59,19.75,91.24a5.27,5.27,0,0,1-7.55,5.4c-13.69-7.14-20-59.18-20-59.18l-.6,0C1920.14,1433.32,1894.12,1394.4,1889.72,1353.22Z"/><path class="cls-2" d="M1974.11,1378.44c-54.26.09-84.39-25.23-84.39-25.23s0,0,0,0c4.4,41.18,30.42,80.1,81.45,81.6,9.45-10.35,10-25.47,8.44-37.44C1979.61,1397.38,1977.9,1386.64,1974.11,1378.44Z"/><g class="cls-21"><path class="cls-22" d="M2159.25,1578.76c-2.27,10.71-7,21-12.18,30.75a321.9,321.9,0,0,1-42.24,61.15c-5.88-3.57-14.54-8.82-23.69-14.43.37-.32.74-.68,1.12-1,6-5.89,10.75-13.83,15.76-20.57q8.05-10.83,15.81-21.83c5.77-8.26,11.38-16.63,16.7-25.17,4.41-7.06,8.71-14.32,13.7-21C2150.4,1571.7,2155.75,1576.05,2159.25,1578.76Z"/></g><path class="cls-2" d="M2100.89,1666.87s-3.16,3.61,1.22,8.41,16.31,10.24,20.53,5.14c6.6-8,54.44-87.39,53-93.75s-12.83-14.93-21.46-14.65S2100.89,1666.87,2100.89,1666.87Z"/><path class="cls-23" d="M2231.36,1303.52l2,1.12a2.43,2.43,0,0,0-.15.26C2232.13,1304.11,2231.49,1303.62,2231.36,1303.52Z"/><circle class="cls-10" cx="2407.43" cy="1072.35" r="23.76"/><path class="cls-33" d="M2505.22,1097.66s-.54.32-1.44.95l-12.32-3-5.61-1.36-17.34-4.2-63.28-15.35,4.66-8,54.39,13.15,5.59,1.35a9.61,9.61,0,0,0,2.44,4.19c3.69,3.21,6.74.57,8.38-1.58l1.66.41c.55,2,1.94,4.66,5.45,4.8a10,10,0,0,0,6.72-1.86l5.86,1.41C2502.18,1094.82,2505.22,1097.66,2505.22,1097.66Z"/><path class="cls-33" d="M2655.64,1126.16a21.36,21.36,0,0,0-1.58,7.86c0,.36.07.72.13,1.07l-5-1.21-116.44-28.25-5.92-1.44c1.07-3.5,1.8-6.73,1.66-8.77l6.85,1.66,114.33,27.63Z"/><path class="cls-33" d="M2819.54,1165.77v1.44l-1.78,7.56-70.91-17.2-28.7-7c1.41-3,2.77-6.16,4-8.39l22.67,5.48Z"/><path class="cls-20" d="M2482,1081.81a61.08,61.08,0,0,1-1.09-6.35c-.26-2.12-.49-4.23-.65-6.35s-.31-4.22-.43-6.34-.23-4.21-.48-6.37a20.51,20.51,0,0,1,2.15,6.14,51.62,51.62,0,0,1,.91,6.4,62.76,62.76,0,0,1,.18,6.43A41.13,41.13,0,0,1,2482,1081.81Z"/><path class="cls-20" d="M2495.74,1086a59,59,0,0,1-.4-7.74c0-2.57.16-5.14.37-7.7a75.83,75.83,0,0,1,1.06-7.66,35.55,35.55,0,0,1,2.16-7.46l-.48,7.68c-.16,2.55-.39,5.09-.59,7.63s-.5,5.09-.84,7.63S2496.3,1083.46,2495.74,1086Z"/><ellipse class="cls-24" cx="2588.5" cy="1371.1" rx="6.4" ry="3.44" transform="translate(334.45 3241.79) rotate(-67.6)"/><ellipse class="cls-24" cx="2631.31" cy="1386.37" rx="6.4" ry="3.44" transform="translate(346.83 3290.82) rotate(-67.6)"/><path class="cls-24" d="M2634.28,1360.86c0-1,1.37-1.49,2.39-1.52,3.25-.11,11.22.39,11.93,7.68.59,6-1.72,4.15-1.88,3.19-.25-1.48-1.08-4.68-2.49-6.12C2641,1360.77,2634.22,1363.2,2634.28,1360.86Z"/><path class="cls-24" d="M2584.07,1350c-.48-.9.48-2,1.35-2.49,2.79-1.67,10-5.09,14.16.94,3.42,5,.51,4.46-.1,3.7-.93-1.17-3.21-3.57-5.14-4.14C2589.87,1346.64,2585.16,1352,2584.07,1350Z"/><path class="cls-20" d="M2605.35,1376a45.85,45.85,0,0,1-2.65,11.32,61.86,61.86,0,0,1-4.83,10.35c-.52.84-1,1.67-1.68,2.59-.12.18-.42.55-.68.85l-.33.38a2.65,2.65,0,0,0,.44-.69,2.81,2.81,0,0,0,.23-.87,2.29,2.29,0,0,0,0-.67,1,1,0,0,0-.11-.34.5.5,0,0,0-.08-.12c-.07,0,0,.16.18.37s.37.49.63.76a23.38,23.38,0,0,0,1.74,1.64c2.58,2.24,5.56,4.31,8.79,6.65l-.1.42a34.19,34.19,0,0,1-10.5-4.13,20.47,20.47,0,0,1-2.35-1.62,7.94,7.94,0,0,1-2-2.16,1.85,1.85,0,0,1-.18-1.7,1.53,1.53,0,0,1,.26-.4l.21-.26c.13-.17.26-.33.39-.53.51-.76,1-1.57,1.45-2.37,1.91-3.21,3.71-6.49,5.49-9.78l5.33-9.89Z"/><path class="cls-20" d="M2587.87,1423.38c7.86,2.87,22,6.37,36.2,1.48a.4.4,0,0,1,.32.74c-8.26,4.13-23.76,9.32-37.51-.35A1.07,1.07,0,0,1,2587.87,1423.38Z"/><circle class="cls-20" cx="2637.84" cy="1401.25" r="1.55"/><circle class="cls-20" cx="2584.4" cy="1385.09" r="1.55"/><circle class="cls-20" cx="2642.9" cy="1405.41" r="1.09"/><circle class="cls-20" cx="2577.27" cy="1377.96" r="1.09"/><circle class="cls-20" cx="2574.95" cy="1391.63" r="1.09"/><circle class="cls-20" cx="2644.92" cy="1400.49" r="1.09"/><circle class="cls-20" cx="2630.25" cy="1404.95" r="1.55"/><circle class="cls-20" cx="2637.21" cy="1410.43" r="1.97"/><circle class="cls-20" cx="2577.7" cy="1384.97" r="1.97"/><circle class="cls-20" cx="2645.54" cy="1410.29" r="1.97"/></g></g></svg>