<svg xmlns="http://www.w3.org/2000/svg" xmlns:xlink="http://www.w3.org/1999/xlink" viewBox="0 0 4680 3120"><defs><style>.cls-1,.cls-10,.cls-30,.cls-7{fill:none;}.cls-2,.cls-29{fill:#fff;}.cls-3{fill:#f6f2ff;}.cls-4{fill:#ede4ff;}.cls-5{fill:#e4dbfa;}.cls-6{fill:#beb2da;}.cls-7{stroke:#e4dbfa;stroke-linecap:round;stroke-width:5px;}.cls-10,.cls-30,.cls-7{stroke-miterlimit:10;}.cls-8{fill:#fed194;}.cls-9{fill:#f59d4e;}.cls-10,.cls-30{stroke:#fff;}.cls-11,.cls-18{fill:#aeb6b7;}.cls-11{opacity:0.32;}.cls-12{fill:#ffb113;}.cls-13{fill:#72120c;}.cls-14{fill:#530905;}.cls-15{fill:#6d378f;}.cls-16{fill:#0a031c;}.cls-17{fill:#242e41;}.cls-18{opacity:0.66;}.cls-19{fill:#582279;}.cls-20{fill:#f27204;}.cls-21{fill:#7c48a0;}.cls-22{fill:#070208;}.cls-23{fill:#1b171c;}.cls-24{fill:#f49211;}.cls-25{fill:#d5301d;}.cls-26{fill:#d6e3dd;}.cls-27{fill:#111;}.cls-28{fill:#434443;}.cls-29{opacity:0.3;}.cls-30{stroke-width:10px;}.cls-31{clip-path:url(#clip-path);}.cls-32{opacity:0.57;}.cls-33{fill:#ff4d40;}.cls-34{fill:#ffb8b8;}.cls-35{fill:#ad2217;opacity:0.62;}.cls-36{fill:#ff920f;}</style><clipPath id="clip-path"><path class="cls-1" d="M2479.5,493.62c-14.54,70.25-58.45,283.9-58.08,298.22l552.26-11.75s109.88-131.87,86.51-223.49c-2.86-11.2-364.94-80.64-551.39-85C2494.6,471.25,2482.21,480.5,2479.5,493.62Z"/></clipPath></defs><title>03</title><g id="_03" data-name="03"><rect id="_03-2" data-name="03" class="cls-2" width="4680" height="3120"/><path class="cls-3" d="M3409.88,1518.59c0,2.71,0,5.4,0,8.12,0,1.2,0,2.39,0,3.58,0,1.61,0,3.25-.05,4.86s-.05,3.36-.08,5c0,.58,0,1.18,0,1.76,0,.26,0,.5,0,.75s0,.48,0,.72c0,1.09-.05,2.2-.08,3.31,0,.68,0,1.36-.06,2,0,.94-.05,1.88-.08,2.81,0,1.53-.1,3.06-.14,4.58l0,.82c-.1,2.6-.2,5.21-.31,7.81,0,.13,0,.25,0,.39-.13,2.73-.26,5.46-.39,8.21,0,0,0,0,0,0-.13,2.32-.27,4.62-.4,6.94l-.12,2.05q-.45,7.32-1,14.63c-.07.75-.12,1.5-.18,2.24-.09,1.15-.18,2.3-.28,3.45l-.06.88c-.09.85-.16,1.71-.23,2.56-.18,2-.35,4-.54,6,0,.08,0,.19,0,.29-.22,2.46-.47,4.93-.71,7.39-.06.52-.11,1-.15,1.56-.29,2.74-.58,5.47-.88,8.22,0,.15,0,.32-.06.48-.05.51-.11,1-.18,1.53-.23,2.13-.48,4.25-.73,6.37l0,.34c-.35,2.92-.72,5.82-1.1,8.73-.25,2-.52,4-.78,6,0,.28-.09.57-.13.87-.16,1.15-.31,2.28-.48,3.44-.18,1.35-.38,2.7-.57,4.06-.25,1.67-.49,3.35-.75,5-.07.55-.16,1.1-.25,1.66-.13.92-.28,1.84-.42,2.76-.07.52-.16,1-.24,1.55-.38,2.44-.78,4.91-1.19,7.35-.31,1.93-.63,3.84-1,5.76-.07.45-.15.89-.22,1.35s-.13.71-.19,1.06-.11.64-.16,1-.08.46-.12.68c-.24,1.42-.51,2.86-.76,4.28-.19,1-.38,2.08-.58,3.11-.06.39-.14.79-.21,1.19a.43.43,0,0,1,0,.11q-.54,3-1.13,6c-.51,2.69-1.05,5.41-1.6,8.14s-1.1,5.41-1.67,8.12c-.28,1.35-.57,2.71-.86,4.07s-.59,2.71-.88,4.06c-.13.59-.26,1.15-.39,1.73s-.29,1.34-.44,2c-.31,1.43-.64,2.85-1,4.28s-.65,2.83-1,4.26c-.18.79-.37,1.59-.55,2.4-.15.61-.31,1.24-.45,1.88-.63,2.59-1.26,5.2-1.9,7.79l-.18.71c-.6,2.46-1.23,4.92-1.87,7.38-.69,2.69-1.39,5.39-2.11,8.08-.63,2.38-1.29,4.77-1.94,7.14-.26,1-.53,1.94-.81,2.9-.56,2-1.14,4.07-1.72,6.1-.76,2.69-1.55,5.38-2.35,8.06-.69,2.34-1.39,4.69-2.1,7-.14.45-.27.9-.4,1.33l-1.68,5.42c-.25.78-.48,1.54-.74,2.31-.81,2.61-1.65,5.23-2.5,7.83s-1.8,5.48-2.71,8.2l-2.73,8-2.61,7.43-.31.87c-.27.76-.54,1.5-.8,2.25q-2.05,5.7-4.19,11.39c-.63,1.7-1.29,3.4-1.93,5.1-.1.29-.21.57-.32.86-.35.9-.7,1.82-1.06,2.73s-.75,2-1.14,2.95c-.08.19-.15.39-.22.57-.72,1.85-1.46,3.7-2.2,5.54,0,.14-.09.27-.14.4-.49,1.23-1,2.45-1.48,3.66-.38,1-.78,1.93-1.16,2.88-.69,1.68-1.37,3.37-2.07,5-.29.68-.56,1.35-.85,2-.55,1.31-1.1,2.63-1.66,3.93-.32.76-.63,1.51-1,2.26-.52,1.2-1,2.41-1.55,3.6-1.13,2.63-2.27,5.26-3.43,7.87,0,.06,0,.11-.07.16-.17.41-.35.81-.53,1.21-.39.85-.76,1.71-1.15,2.58-.59,1.29-1.17,2.61-1.77,3.92-1,2.12-1.93,4.26-2.92,6.38-.35.77-.7,1.52-1,2.28l-2.14,4.56-1.16,2.44c-.61,1.31-1.24,2.6-1.87,3.91-.48,1-1,2.06-1.48,3.08-.14.28-.28.54-.41.81-.35.73-.71,1.47-1.07,2.2-.27.57-.54,1.14-.83,1.71s-.64,1.3-1,2-.63,1.29-1,1.93c-.76,1.52-1.5,3-2.27,4.54-.49,1-1,1.94-1.47,2.9-.06.11-.11.23-.17.33-.21.4-.41.79-.6,1.19s-.48.92-.71,1.38l-1.56,3c-.38.72-.75,1.45-1.13,2.18-.25.46-.5.94-.74,1.42l-1.29,2.43c-.19.37-.39.74-.57,1.1l-1.48,2.78c-2.75,5.14-5.55,10.29-8.41,15.4a.56.56,0,0,0-.05.08c-.46.84-.92,1.67-1.39,2.5-.23.43-.48.85-.71,1.27-.79,1.4-1.59,2.8-2.38,4.18-.66,1.17-1.32,2.33-2,3.49-1,1.65-1.89,3.28-2.86,4.92a.67.67,0,0,1-.11.18l-2.68,4.59c-1,1.73-2.08,3.46-3.11,5.21a2.71,2.71,0,0,0-.22.38l-.13.2c-1.05,1.74-2.11,3.5-3.17,5.24-.57.92-1.12,1.84-1.68,2.75-1.48,2.39-3,4.8-4.46,7.18-.56.9-1.13,1.8-1.69,2.68q-6.06,9.63-12.42,19.17c-.88,1.32-1.75,2.64-2.63,4-1.77,2.62-3.54,5.25-5.35,7.87-100.58,146.68-215.31,257.37-337.57,337.43a1052.35,1052.35,0,0,1-132.12,73.64q-25.47,11.88-51.16,22.2l-.31.13a1039.23,1039.23,0,0,1-141.42,45.38,1066.65,1066.65,0,0,1-175.3,27.49q-22.93,1.71-45.79,2.42c-201.29,6.38-398.17-42.11-566.24-125.62q-17.34-8.61-34.27-17.72A1136.12,1136.12,0,0,1,1658,2362q-22.77-15.48-44.39-31.88a1007.15,1007.15,0,0,1-87.52-74.33l-.89-.91a1.25,1.25,0,0,0-.17-.16l-.06-.07-.31-.33h0a1.29,1.29,0,0,0-.16-.18c-.08-.09-.18-.18-.28-.28l-1-1c-.14-.16-.3-.32-.46-.48l-.07-.09-.07-.06-.35-.37c-.3-.33-.63-.67-1-1l-.07-.08a.13.13,0,0,0-.07-.06l-.21-.24c-.73-.76-1.51-1.61-2.36-2.54-.28-.28-.56-.58-.83-.89l-2.82-3.06c-.53-.6-1.1-1.22-1.69-1.87-.1-.13-.21-.24-.32-.36-.84-.93-1.7-1.88-2.58-2.89-.27-.3-.53-.6-.81-.9l-.2-.24-1.26-1.43c-2.82-3.18-5.89-6.75-9.21-10.65l-.77-.91c-1.55-1.83-3.16-3.75-4.81-5.72-.47-.59-1-1.18-1.47-1.79l-1.48-1.78c-.13-.15-.25-.32-.4-.49l-.53-.65c-.1-.12-.21-.24-.31-.38-.35-.45-.73-.88-1.1-1.34l-1.29-1.58-2.18-2.7-.74-.92c-.62-.79-1.28-1.6-1.93-2.42l-1-1.21c-2.42-3-4.87-6.18-7.39-9.44-.52-.66-1-1.33-1.54-2a.92.92,0,0,1-.17-.22l-.07-.07c-.67-.89-1.35-1.76-2-2.66q-1.8-2.35-3.62-4.78h0c-.18-.21-.34-.43-.5-.64l-.08-.13c-.21-.25-.39-.51-.58-.76s-.26-.33-.38-.51c-.38-.5-.77-1-1.14-1.52l-.79-1.09c-.37-.47-.74-1-1.1-1.46q-2.4-3.24-4.85-6.6l-5.48-7.6c-.6-.87-1.22-1.73-1.85-2.61-.13-.21-.27-.41-.42-.62q-3.23-4.56-6.47-9.29-5-7.18-10-14.8c-.32-.5-.66-1-1-1.51a.82.82,0,0,0-.11-.17l-2.1-3.21-.17-.26c-.68-1.06-1.37-2.11-2-3.16l-2.13-3.31-.09-.16c-.68-1.07-1.38-2.14-2.06-3.21q-4.24-6.7-8.49-13.67c-.94-1.55-1.89-3.11-2.83-4.69-.75-1.23-1.49-2.47-2.23-3.73q-3.36-5.61-6.67-11.39-4.43-7.7-8.81-15.69-2.18-4-4.36-8.06c-.73-1.36-1.45-2.71-2.17-4.08s-1.37-2.6-2.05-3.93l-2-4c-.37-.71-.74-1.42-1.1-2.15-.58-1.15-1.18-2.3-1.75-3.45-1.17-2.32-2.34-4.66-3.49-7-.07-.14-.14-.27-.2-.41-.58-1.19-1.17-2.38-1.75-3.58-.5-1-1-2.06-1.49-3.1-.68-1.4-1.35-2.81-2-4.21-.79-1.67-1.57-3.34-2.36-5-.34-.72-.67-1.46-1-2.19-.55-1.19-1.09-2.38-1.65-3.58s-1-2.32-1.57-3.49c-.44-1-.9-2-1.35-3-.35-.8-.7-1.59-1.06-2.39-.1-.22-.18-.43-.28-.65-.75-1.72-1.51-3.45-2.25-5.19-.89-2.06-1.77-4.14-2.66-6.23-.2-.5-.41-1-.62-1.49a3,3,0,0,1-.15-.38h0c-.58-1.39-1.16-2.78-1.72-4.18-.24-.55-.45-1.1-.67-1.64a.71.71,0,0,1-.08-.18c-.14-.33-.27-.65-.4-1l-.3-.74c-.16-.4-.33-.8-.48-1.19-.65-1.62-1.29-3.23-1.93-4.86-.43-1.09-.86-2.19-1.28-3.29q-.87-2.25-1.73-4.5l-1.11-2.94-1.89-5.08c-.5-1.35-1-2.72-1.48-4.09-.23-.65-.47-1.29-.69-1.94-.18-.5-.35-1-.54-1.48-.46-1.35-.94-2.69-1.41-4-.26-.76-.52-1.51-.79-2.27s-.54-1.6-.8-2.41-.64-1.86-1-2.78-.63-1.86-.92-2.81c-.56-1.66-1.1-3.31-1.63-5-.22-.71-.46-1.44-.68-2.16-.42-1.32-.84-2.66-1.25-4-.86-2.76-1.69-5.5-2.51-8.27-.12-.38-.23-.77-.34-1.16-.29-1-.57-1.94-.85-2.91q-.72-2.49-1.41-5c-.56-1.91-1.08-3.84-1.6-5.78s-1-3.7-1.49-5.56c-.43-1.69-.87-3.38-1.28-5.07-.31-1.18-.6-2.36-.88-3.54-.18-.7-.35-1.4-.52-2.12-.08-.28-.14-.57-.21-.85s-.16-.64-.23-1a.32.32,0,0,1,0-.13c-.28-1.11-.53-2.21-.79-3.33s-.49-2.08-.71-3.12q-.48-2-.9-4c-.09-.34-.16-.69-.23-1-.17-.72-.33-1.45-.47-2.18-.25-1.14-.49-2.27-.73-3.42-.41-2-.82-4-1.21-6l0-.17c-.14-.69-.28-1.38-.41-2.09-.28-1.43-.55-2.87-.82-4.31q-.51-2.74-1-5.51c-.12-.66-.24-1.32-.35-2,0-.2-.08-.4-.11-.6s0-.29-.07-.43c-.17-1-.34-2-.5-3s-.34-2-.5-3l-.48-3c-.24-1.64-.49-3.27-.73-4.91-.11-.81-.23-1.62-.34-2.4s-.2-1.46-.3-2.18l-.39-2.9c-.26-2-.51-4-.76-6.07-.18-1.54-.36-3.09-.53-4.65s-.34-3.11-.5-4.66c-.19-1.89-.38-3.77-.56-5.66,0-.25,0-.49-.06-.74-.09-1-.18-2-.26-3s-.17-2.09-.26-3.14c-.24-3.13-.47-6.28-.65-9.43-.08-1-.14-2.09-.2-3.13-.05-.87-.08-1.74-.12-2.6,0-.58-.07-1.17-.09-1.75l0-.64c0-.95-.09-1.91-.13-2.86s-.07-2.07-.1-3.09l0-.78,0-1.16c0-.53,0-1.08,0-1.61v-.09c0-.78,0-1.57-.07-2.37l0-1.53c0-1.25,0-2.52-.06-3.79q0-3.27,0-6.54c0-1.66,0-3.33,0-5,0-1.46,0-2.91.06-4.37,0-.72,0-1.45,0-2.18,0-1.49.09-3,.13-4.49l0-.77a3,3,0,0,1,0-.42c0-.37,0-.75,0-1.11,0-1.31.09-2.63.16-4,0-.36,0-.72,0-1.08s0-.52,0-.78c0-.79.08-1.56.12-2.34,0-.61,0-1.23.09-1.84s.09-1.46.14-2.19c0-.24,0-.48,0-.73s0-.56.05-.83c0-.73.08-1.46.14-2.19,0-.22,0-.42,0-.63,0-.81.12-1.63.18-2.44,0-.32,0-.63.07-1s.06-.84.1-1.26.1-1.16.15-1.73c.07-1,.15-1.91.23-2.88l.27-2.87c0-.62.11-1.24.18-1.87.12-1.08.21-2.18.34-3.27,0-.43.08-.85.14-1.27.11-1.16.24-2.3.38-3.46l.12-1.07a.62.62,0,0,0,0-.13s0-.05,0-.09,0-.08,0-.12,0-.14,0-.22a.2.2,0,0,0,0-.07c0-.14,0-.29,0-.43s.05-.34.07-.5c.06-.51.12-1,.18-1.5.08-.7.17-1.39.26-2.06.06-.46.11-.93.18-1.39,0-.25.07-.52.1-.76.11-.8.2-1.6.32-2.39a.07.07,0,0,1,0-.05c.23-1.74.49-3.46.74-5.18.08-.51.15-1,.23-1.52q.22-1.5.45-3c0-.18.07-.36.09-.52l.12-.71c.25-1.57.51-3.13.78-4.7,0-.2.05-.4.1-.61.24-1.41.49-2.8.74-4.21a2.7,2.7,0,0,1,.08-.39c.19-1.07.38-2.13.59-3.19.29-1.54.59-3.08.89-4.61.1-.49.21-1,.3-1.5s.25-1.17.36-1.77.19-.9.29-1.35c0-.26.11-.52.16-.77s.07-.39.12-.59a1.93,1.93,0,0,0,0-.2c.5-2.41,1-4.81,1.57-7.21.29-1.2.56-2.4.85-3.62.08-.29.15-.59.22-.9.21-.89.42-1.81.65-2.7.06-.22.11-.43.15-.65s.09-.35.14-.52c.15-.61.3-1.22.46-1.83l.3-1.23c.24-.92.48-1.86.72-2.79.34-1.29.68-2.59,1-3.86s.65-2.36,1-3.54c.1-.35.2-.69.29-1,.19-.7.39-1.39.59-2.08.06-.22.11-.41.17-.61.35-1.2.69-2.4,1-3.61.54-1.82,1.08-3.64,1.65-5.45s1.12-3.65,1.7-5.46c.52-1.62,1-3.25,1.58-4.87.17-.53.35-1.06.54-1.6q.91-2.74,1.87-5.51c.42-1.21.85-2.43,1.29-3.65l.21-.61c.06-.18.14-.36.2-.54.17-.48.35-1,.52-1.46.88-2.43,1.8-4.88,2.72-7.31.15-.37.29-.76.44-1.14s.31-.82.48-1.23c.62-1.64,1.27-3.3,1.93-4.94h0c1-2.45,2-4.88,3-7.32s2-4.89,3.11-7.34q5.6-12.84,12-25.71c0-.06,0-.11.07-.16a.18.18,0,0,1,0-.08,2.24,2.24,0,0,1,.11-.22c0-.1.09-.17.13-.27a2.15,2.15,0,0,1,.14-.26,1.08,1.08,0,0,1,.08-.19c.25-.47.48-.94.72-1.41q1.2-2.39,2.45-4.77,1.93-3.72,3.93-7.44l1.93-3.53a1.45,1.45,0,0,1,.1-.18c.68-1.25,1.37-2.49,2.06-3.72s1.41-2.49,2.11-3.72,1.41-2.49,2.13-3.72c.31-.54.63-1.08,1-1.62,1-1.7,2-3.41,3-5.11q5.76-9.67,12.09-19.34c.81-1.23,1.63-2.48,2.44-3.73q5.49-8.24,11.36-16.5h0c.26-.37.51-.75.79-1.12l1.61-2.23q7-9.7,14.56-19.39c.68-.88,1.38-1.76,2.07-2.62l2.3-2.9c.74-.92,1.48-1.86,2.23-2.78s1.43-1.78,2.15-2.66l.45-.55c.63-.78,1.27-1.55,1.91-2.33,1.35-1.64,2.7-3.25,4.08-4.89q3.75-4.46,7.62-8.92,5.07-5.85,10-11.7,4.65-5.57,9.14-11.15c.14-.19.29-.37.43-.55,1.54-1.93,3.06-3.84,4.57-5.76a740.91,740.91,0,0,0,75.75-117.66c1.41-2.74,2.81-5.46,4.18-8.2s2.75-5.48,4.07-8.22,2.66-5.46,4-8.2c.66-1.36,1.3-2.74,1.93-4.12q2.4-5.13,4.72-10.25t4.53-10.25c.59-1.36,1.17-2.75,1.77-4.12q7.88-18.43,14.77-36.86c.52-1.36,1-2.73,1.53-4.1.87-2.38,1.75-4.77,2.62-7.16q2.57-7.17,5-14.3c.83-2.38,1.64-4.77,2.44-7.14q1.35-4.08,2.69-8.15c0-.17.11-.34.16-.52.83-2.53,1.65-5.07,2.47-7.6,5.7-17.94,10.88-35.8,15.69-53.57q2.63-9.63,5.09-19.21,3.12-12,6.06-24,1-4,1.94-8,3.87-15.9,7.52-31.65,1.85-7.86,3.64-15.72,2.26-9.79,4.5-19.51t4.47-19.33c.76-3.21,1.5-6.42,2.26-9.61v0c.57-2.41,1.12-4.81,1.7-7.2q1.27-5.39,2.56-10.73t2.59-10.67h0c.74-3,1.5-6.1,2.26-9.14q4.14-16.51,8.55-32.73h0c.71-2.59,1.42-5.19,2.14-7.76.15-.54.31-1.07.46-1.6,1-3.48,2-6.93,3-10.38,9.8-33.5,21.09-65.89,35.23-96.9q4.51-9.93,9.46-19.67a456.27,456.27,0,0,1,30.68-52q8.12-11.88,17.19-23.39a419.88,419.88,0,0,1,39.71-43.55C1842,569,1883.1,540,1934.48,514.46q23-11.45,48.8-22l5.69-2.29q16.11-6.39,33.33-12.45,17-5.94,35.15-11.55c31.46-9.67,65.58-18.52,102.64-26.48q44-9.46,93.7-17.23a846.08,846.08,0,0,1,243.1-2.52q38,5.1,75.25,13.5,35.21,7.92,69.62,18.66a945.31,945.31,0,0,1,122,47.64c100.29,47.34,193.24,112.1,275.58,189.77q14.91,14.06,29.38,28.7,2.22,2.25,4.42,4.51c1.48,1.51,2.94,3,4.41,4.54.84.85,1.66,1.72,2.5,2.59l3.18,3.31c1.37,1.44,2.73,2.87,4.09,4.32q1.7,1.79,3.38,3.59l4.23,4.55c1.43,1.54,2.85,3.1,4.29,4.65s3.09,3.39,4.63,5.09c1.3,1.43,2.58,2.85,3.87,4.3s2.82,3.14,4.23,4.73c2.79,3.14,5.59,6.33,8.35,9.52s5.53,6.39,8.27,9.61l4.09,4.85c1.2,1.42,2.39,2.86,3.58,4.28l.92,1.11c.23.26.45.54.68.82l1.36,1.64h0q3.12,3.76,6.21,7.57c.92,1.12,1.82,2.24,2.72,3.37.22.26.44.54.65.81q10,12.35,19.61,25l3.84,5.06,3.18,4.25.63.84c1.15,1.53,2.29,3.08,3.44,4.62.19.26.37.51.57.76,1.19,1.61,2.36,3.23,3.54,4.85s2.5,3.43,3.75,5.15,2.42,3.35,3.62,5c.08.13.18.26.27.4,1.54,2.13,3.05,4.27,4.55,6.41s3,4.32,4.52,6.47,3,4.32,4.48,6.49,3,4.33,4.44,6.51q3.23,4.78,6.4,9.6,2.1,3.15,4.17,6.32c1.14,1.74,2.26,3.48,3.39,5.22,1.38,2.16,2.77,4.3,4.13,6.45.94,1.48,1.87,2.94,2.8,4.42l3.39,5.41c2.25,3.6,4.48,7.21,6.69,10.86q5,8.16,9.82,16.42c2.16,3.66,4.28,7.34,6.41,11,1,1.76,2,3.55,3,5.33l.25.45c1,1.75,2,3.5,3,5.27,0,0,0,0,0,.08,1,1.84,2.05,3.69,3.08,5.54s2.05,3.72,3.06,5.59c1.55,2.83,3.08,5.65,4.61,8.5h0q5.6,10.45,11,21c1,2,2,4,3,6,.17.32.32.63.48.95q1.37,2.68,2.7,5.39c.09.19.17.37.26.55q1.22,2.41,2.41,4.87l3.78,7.78c.65,1.34,1.28,2.69,1.92,4,.56,1.16,1.11,2.32,1.66,3.47.9,1.92,1.81,3.84,2.71,5.78.79,1.68,1.56,3.37,2.34,5q4.47,9.71,8.76,19.5c.88,2,1.74,4,2.6,6q2.25,5.19,4.43,10.39,1.2,2.84,2.38,5.7c0,.11.09.23.14.35.74,1.76,1.46,3.53,2.19,5.31.14.34.28.68.41,1,.67,1.63,1.33,3.24,2,4.87q3.64,9.09,7.17,18.25c.83,2.18,1.67,4.36,2.49,6.55,1.44,3.82,2.87,7.67,4.27,11.52l1.22,3.36c.18.53.38,1.06.57,1.59l.44,1.23c.64,1.79,1.28,3.57,1.9,5.36.47,1.33.94,2.64,1.41,4s1,2.94,1.51,4.4,1.1,3.17,1.63,4.75c.59,1.74,1.16,3.45,1.74,5.17l2,6c.64,2,1.28,3.9,1.9,5.86,1.3,4,2.58,8,3.82,12.06q2.36,7.59,4.59,15.2l1.4,4.78c.46,1.57.91,3.14,1.35,4.73s.92,3.19,1.36,4.79q1.28,4.53,2.51,9.09c.41,1.49.82,3,1.22,4.51.51,1.94,1,3.86,1.53,5.79s1,3.68,1.43,5.52h0q2.53,9.86,4.86,19.73l1.41,6,1.17,5.13c.11.52.24,1,.36,1.56q.63,2.85,1.25,5.72l1.18,5.42c.13.57.24,1.16.37,1.73h0c.39,1.82.77,3.63,1.14,5.46.41,2,.83,4,1.23,6,.52,2.6,1,5.19,1.54,7.81.3,1.54.6,3.1.88,4.66.4,2,.78,4.07,1.14,6.12.23,1.19.45,2.41.65,3.62.18.92.35,1.85.5,2.77.24,1.35.49,2.71.71,4.07.5,2.81,1,5.63,1.42,8.46.34,2,.68,4.12,1,6.18.21,1.27.41,2.53.59,3.8.23,1.48.47,3,.68,4.44s.44,2.93.66,4.4c.24,1.66.48,3.3.71,4.94.19,1.36.38,2.72.56,4.07q2,14.58,3.6,29.21c.27,2.32.5,4.63.74,6.94s.48,4.64.7,7,.42,4.63.64,6.94.41,4.63.59,7c.1,1.13.19,2.27.28,3.4s.19,2.37.27,3.56.16,2.16.24,3.23c.29,3.86.55,7.71.77,11.58.14,2.16.26,4.34.39,6.52,0,0,0,.1,0,.14.11,2.12.21,4.26.32,6.4.08,1.73.17,3.46.24,5.2,0,.35,0,.7,0,1,0,.74.07,1.46.09,2.19,0,.26,0,.52,0,.79.09,1.94.16,3.9.21,5.84.05,1,.08,2,.1,2.93s.06,1.94.08,2.93c.08,2.32.13,4.64.18,7l.09,5.21c0,.21,0,.44,0,.67,0,1.35,0,2.71.05,4.06,0,.28,0,.58,0,.87,0,.89,0,1.78,0,2.68,0,.46,0,.94,0,1.42C3409.88,1516.61,3409.88,1517.6,3409.88,1518.59Z"/><path class="cls-4" d="M3409.88,1518.59c0,2.71,0,5.4,0,8.12,0,1.2,0,2.39,0,3.58,0,1.61,0,3.25-.05,4.86s-.05,3.36-.08,5c0,.58,0,1.18,0,1.76,0,.26,0,.5,0,.75s0,.48,0,.72c0,1.09-.05,2.2-.08,3.31,0,.68,0,1.36-.06,2,0,.94-.05,1.88-.08,2.81,0,1.53-.1,3.06-.14,4.58l0,.82c-.1,2.6-.2,5.21-.31,7.81,0,.13,0,.25,0,.39-.13,2.73-.26,5.46-.39,8.21,0,0,0,0,0,0-.13,2.32-.27,4.62-.4,6.94l-.12,2.05q-.45,7.32-1,14.63c-.07.75-.12,1.5-.18,2.24-.09,1.15-.18,2.3-.28,3.45l-.06.88c-.09.85-.16,1.71-.23,2.56-.18,2-.35,4-.54,6,0,.08,0,.19,0,.29-.22,2.46-.47,4.93-.71,7.39-.06.52-.11,1-.15,1.56-.29,2.74-.58,5.47-.88,8.22,0,.15,0,.32-.06.48-.05.51-.11,1-.18,1.53-.23,2.13-.48,4.25-.73,6.37l0,.34c-.35,2.92-.72,5.82-1.1,8.73-.25,2-.52,4-.78,6,0,.28-.09.57-.13.87-.16,1.15-.31,2.28-.48,3.44-.18,1.35-.38,2.7-.57,4.06-.25,1.67-.49,3.35-.75,5-.07.55-.16,1.1-.25,1.66-.13.92-.28,1.84-.42,2.76-.07.52-.16,1-.24,1.55-.38,2.44-.78,4.91-1.19,7.35-.31,1.93-.63,3.84-1,5.76-.07.45-.15.89-.22,1.35s-.12.7-.18,1h0c-.06.32-.11.64-.16,1s-.08.46-.12.68c-.24,1.42-.51,2.86-.76,4.28-.19,1-.38,2.08-.58,3.11-.06.39-.14.79-.21,1.19a.43.43,0,0,1,0,.11q-.54,3-1.13,6c-.51,2.69-1.05,5.41-1.6,8.14s-1.1,5.41-1.67,8.12c-.28,1.35-.57,2.71-.86,4.07s-.59,2.71-.88,4.06c-.13.59-.26,1.15-.39,1.73s-.29,1.34-.44,2c-.31,1.43-.64,2.85-1,4.28s-.65,2.83-1,4.26c-.18.79-.37,1.59-.55,2.4-.15.61-.31,1.24-.45,1.88-.63,2.59-1.26,5.2-1.9,7.79l-.18.71c-.6,2.46-1.23,4.92-1.87,7.38-.69,2.69-1.39,5.39-2.11,8.08-.63,2.38-1.29,4.77-1.94,7.14-.26,1-.53,1.94-.81,2.9-.56,2-1.14,4.07-1.72,6.1-.76,2.69-1.55,5.38-2.35,8.06-.69,2.34-1.39,4.69-2.1,7-.14.45-.27.9-.4,1.33l-1.68,5.42c-.25.78-.48,1.54-.74,2.31-.81,2.61-1.65,5.23-2.5,7.83s-1.8,5.48-2.71,8.2l-2.73,8-2.61,7.43-.31.87c-.27.76-.54,1.5-.8,2.25q-2.05,5.7-4.19,11.39c-.63,1.7-1.29,3.4-1.93,5.1-.1.29-.21.57-.32.86-.35.9-.7,1.82-1.06,2.73s-.75,2-1.14,2.95c-.08.19-.15.39-.22.57-.72,1.85-1.46,3.7-2.2,5.54,0,.14-.09.27-.14.4-.49,1.23-1,2.45-1.48,3.66-.38,1-.78,1.93-1.16,2.88-.69,1.68-1.37,3.37-2.07,5-.29.68-.56,1.35-.85,2-.55,1.31-1.1,2.63-1.66,3.93-.32.76-.63,1.51-1,2.26-.52,1.2-1,2.41-1.55,3.6-1.13,2.63-2.27,5.26-3.43,7.87a.64.64,0,0,0-.06.16c-.17.41-.36.81-.54,1.21-.39.85-.76,1.71-1.15,2.58-.59,1.29-1.17,2.61-1.77,3.92-1,2.12-1.93,4.26-2.92,6.38-.35.77-.7,1.52-1,2.28l-2.14,4.56-1.16,2.44c-.61,1.31-1.24,2.6-1.87,3.91-.48,1-1,2.06-1.48,3.08s-1,2-1.48,3c-.27.57-.54,1.14-.83,1.71s-.64,1.3-1,2-.63,1.29-1,1.93c-.76,1.52-1.5,3-2.27,4.54-.49,1-1,1.94-1.47,2.9-.06.11-.11.23-.17.33-.21.4-.41.79-.6,1.19s-.48.92-.71,1.38l-1.56,3c-.38.72-.75,1.45-1.13,2.18-.25.46-.5.94-.74,1.42l-1.29,2.43c-.19.37-.39.74-.57,1.1l-1.48,2.78c-2.75,5.14-5.55,10.29-8.41,15.4l0,.08c-.46.83-.92,1.66-1.4,2.5-.23.43-.48.85-.71,1.27-.79,1.4-1.59,2.8-2.38,4.18-.66,1.17-1.32,2.33-2,3.49-1,1.65-1.89,3.28-2.86,4.92a.67.67,0,0,1-.11.18l-2.68,4.59c-1,1.73-2.08,3.46-3.11,5.21a2.71,2.71,0,0,0-.22.38l-.13.2c-1.05,1.74-2.11,3.5-3.17,5.24-.57.92-1.12,1.84-1.68,2.75-1.48,2.39-3,4.8-4.46,7.18-.56.9-1.13,1.8-1.69,2.68q-6.06,9.63-12.42,19.17c-.88,1.32-1.75,2.64-2.63,4-1.77,2.62-3.54,5.25-5.35,7.87-100.58,146.68-215.31,257.37-337.57,337.43a1052.35,1052.35,0,0,1-132.12,73.64q-25.47,11.88-51.16,22.2l-.31.13a1039.23,1039.23,0,0,1-141.42,45.38,1066.65,1066.65,0,0,1-175.3,27.49q-22.93,1.71-45.79,2.42c-201.29,6.38-398.17-42.11-566.24-125.62q-17.34-8.61-34.27-17.72A1136.12,1136.12,0,0,1,1658,2362q-22.77-15.48-44.39-31.88a1007.15,1007.15,0,0,1-87.52-74.33l-.89-.91a1.25,1.25,0,0,0-.17-.16l-.06-.07-.31-.33h0a1.29,1.29,0,0,0-.16-.18c-.08-.09-.18-.18-.28-.28l-1-1c-.14-.16-.3-.32-.46-.48l-.07-.09-.07-.06-.35-.37c-.3-.33-.63-.67-1-1l-.07-.08s0,0,0,0l-.27-.28c-.73-.76-1.51-1.61-2.36-2.54-.28-.28-.56-.58-.83-.89l-2.82-3.06c-.53-.6-1.1-1.22-1.69-1.87-.1-.13-.21-.24-.32-.36-.83-.93-1.69-1.88-2.58-2.89-.27-.3-.53-.6-.81-.9l-.2-.24-1.26-1.43c-2.82-3.18-5.89-6.75-9.21-10.65l-.77-.91c-1.55-1.83-3.16-3.75-4.81-5.72-.47-.59-1-1.18-1.47-1.79l-1.48-1.78c-.13-.15-.25-.32-.4-.49l-.43-.53-.1-.12c-.1-.12-.21-.24-.31-.38-.35-.45-.73-.88-1.1-1.34l-1.29-1.58-2.18-2.7-.74-.92c-.62-.79-1.28-1.6-1.93-2.42l-1-1.21c-2.42-3-4.87-6.18-7.39-9.44-.52-.66-1-1.33-1.54-2a.92.92,0,0,1-.17-.22l-.07-.07c-.67-.89-1.35-1.76-2-2.66q-1.8-2.35-3.62-4.78h0l-.58-.77c-.21-.25-.39-.51-.58-.76s-.26-.33-.38-.51c-.38-.5-.77-1-1.14-1.52-.14-.17-.27-.35-.4-.53-.5-.67-1-1.34-1.49-2q-2.4-3.24-4.85-6.6l-5.48-7.6c-.6-.87-1.22-1.73-1.85-2.61-.13-.21-.27-.41-.42-.62q-3.23-4.56-6.47-9.29-5-7.18-10-14.8c-.32-.5-.66-1-1-1.51a.82.82,0,0,0-.11-.17l-2.1-3.21-.17-.26c-.68-1.06-1.37-2.11-2-3.16l-2.13-3.31-.09-.16c-.68-1.07-1.38-2.14-2.06-3.21q-4.24-6.7-8.49-13.67c-.94-1.55-1.89-3.11-2.83-4.69-.75-1.23-1.49-2.47-2.23-3.73q-3.36-5.61-6.67-11.39-4.43-7.7-8.81-15.69-2.18-4-4.36-8.06c-.73-1.36-1.45-2.71-2.17-4.08s-1.37-2.6-2.05-3.93l-2-4c-.37-.71-.74-1.42-1.1-2.15-.58-1.15-1.18-2.3-1.75-3.45-1.17-2.32-2.34-4.66-3.49-7-.07-.14-.14-.27-.2-.41-.58-1.19-1.17-2.38-1.75-3.58-.5-1-1-2.06-1.49-3.1-.68-1.4-1.35-2.81-2-4.21-.79-1.67-1.57-3.34-2.36-5-.34-.72-.67-1.46-1-2.19-.55-1.19-1.09-2.38-1.65-3.58s-1-2.32-1.57-3.49c-.44-1-.9-2-1.35-3-.35-.8-.7-1.59-1.06-2.39-.1-.22-.18-.43-.28-.65-.75-1.72-1.51-3.45-2.25-5.19-.89-2.06-1.77-4.14-2.66-6.23-.25-.61-.52-1.25-.77-1.87h0c-.58-1.39-1.16-2.78-1.72-4.18-.24-.55-.45-1.1-.67-1.64a.71.71,0,0,1-.08-.18c-.14-.33-.27-.65-.4-1l-.3-.74c-.16-.4-.33-.8-.48-1.19-.65-1.62-1.29-3.23-1.93-4.86-.43-1.09-.86-2.19-1.28-3.29q-.87-2.25-1.73-4.5l-1.11-2.94-1.89-5.08c-.5-1.35-1-2.72-1.48-4.09-.23-.65-.47-1.29-.69-1.94-.18-.5-.35-1-.54-1.48-.46-1.35-.94-2.69-1.41-4-.26-.76-.52-1.51-.79-2.27s-.54-1.6-.8-2.41-.64-1.86-1-2.78-.63-1.86-.92-2.81c-.56-1.66-1.1-3.31-1.63-5-.22-.71-.46-1.44-.68-2.16-.42-1.32-.84-2.66-1.25-4-.86-2.76-1.69-5.5-2.51-8.27-.12-.38-.23-.77-.34-1.16-.29-1-.57-1.94-.85-2.91q-.72-2.49-1.41-5c-.56-1.91-1.08-3.84-1.6-5.78s-1-3.7-1.49-5.56c-.43-1.69-.87-3.38-1.28-5.07-.31-1.18-.6-2.36-.88-3.54-.18-.7-.35-1.4-.52-2.12-.08-.28-.14-.57-.21-.85s-.16-.64-.23-1a.32.32,0,0,1,0-.13c-.28-1.11-.53-2.21-.79-3.33s-.49-2.08-.71-3.12q-.48-2-.9-4c-.09-.34-.16-.69-.23-1-.17-.72-.33-1.45-.47-2.18-.25-1.14-.49-2.27-.73-3.42-.41-2-.82-4-1.21-6l0-.17c-.14-.69-.28-1.38-.41-2.09-.28-1.43-.55-2.87-.82-4.31q-.51-2.74-1-5.51c-.12-.66-.24-1.32-.35-2,0-.2-.08-.4-.11-.6s0-.29-.07-.43c-.17-1-.34-2-.5-3s-.34-2-.5-3l-.48-3c-.24-1.64-.49-3.27-.73-4.91-.11-.81-.23-1.62-.34-2.4s-.2-1.46-.3-2.18l-.39-2.9c-.26-2-.51-4-.76-6.07-.18-1.54-.36-3.09-.53-4.65s-.34-3.11-.5-4.66c-.19-1.89-.38-3.77-.56-5.66,0-.25,0-.49-.06-.74-.09-1-.18-2-.26-3s-.17-2.09-.26-3.14c-.24-3.13-.47-6.28-.65-9.43-.08-1-.14-2.09-.2-3.13-.05-.87-.08-1.74-.12-2.6,0-.58-.07-1.17-.09-1.75l0-.64c0-.95-.09-1.91-.13-2.86s-.07-2.07-.1-3.09l0-.78,0-1.16c0-.53,0-1.08,0-1.61v-.09c0-.78,0-1.57-.07-2.37l0-1.53c0-1.25,0-2.52-.06-3.79q0-3.27,0-6.54c0-1.66,0-3.33,0-5,0-1.46,0-2.91.06-4.37,0-.72,0-1.45,0-2.18,0-1.49.09-3,.13-4.49l0-1c0-.07,0-.12,0-.17,0-.37,0-.75,0-1.11,0-1.31.09-2.63.16-4,0-.36,0-.72,0-1.08s0-.52,0-.78c0-.79.08-1.56.12-2.34,0-.61,0-1.23.09-1.84s.09-1.46.14-2.19c0-.24,0-.48,0-.73s0-.56.05-.83c0-.73.08-1.46.14-2.19,0-.22,0-.42,0-.63,0-.81.12-1.63.18-2.44,0-.32,0-.63.07-1s.06-.84.1-1.26.1-1.16.15-1.73c.07-1,.15-1.91.23-2.88l.27-2.87c0-.62.11-1.24.18-1.87.12-1.08.21-2.18.34-3.27a.81.81,0,0,1,0-.16c0-.37.08-.75.13-1.11.11-1.16.24-2.3.38-3.46l.12-1.07a.62.62,0,0,0,0-.13c0-.08,0-.14,0-.21s0-.14,0-.22a.2.2,0,0,0,0-.07c0-.14,0-.29,0-.43s.05-.34.07-.5c.06-.51.12-1,.18-1.5.08-.7.17-1.39.26-2.06.06-.46.11-.93.18-1.39,0-.25.07-.52.1-.76.11-.8.2-1.6.32-2.39a.07.07,0,0,1,0-.05c.23-1.74.49-3.46.74-5.18.08-.51.15-1,.23-1.52q.22-1.5.45-3c0-.18.07-.36.09-.52l.12-.71c.25-1.57.51-3.13.78-4.7,0-.2.05-.4.1-.61.24-1.41.49-2.8.74-4.21a2.7,2.7,0,0,1,.08-.39c.19-1.07.38-2.13.59-3.19.29-1.54.59-3.08.89-4.61.1-.49.21-1,.3-1.5s.25-1.17.36-1.77.19-.9.29-1.35c0-.26.11-.52.16-.77s.07-.39.12-.59a1.93,1.93,0,0,0,0-.2c.5-2.41,1-4.81,1.57-7.21.29-1.2.56-2.4.85-3.62.08-.29.15-.59.22-.9.21-.89.42-1.81.65-2.7.06-.22.11-.43.15-.65s.09-.35.14-.52c.15-.61.3-1.22.46-1.83l.3-1.23c.24-.92.48-1.86.72-2.79.34-1.29.68-2.59,1-3.86s.65-2.36,1-3.54c.1-.35.2-.69.29-1,.19-.7.39-1.39.59-2.08.06-.22.11-.41.17-.61.35-1.2.69-2.4,1-3.61.54-1.82,1.08-3.64,1.65-5.45s1.12-3.65,1.7-5.46c.52-1.62,1-3.25,1.58-4.87.17-.53.35-1.06.54-1.6q.91-2.74,1.87-5.51c.42-1.21.85-2.43,1.29-3.65l.21-.61c.06-.18.14-.36.2-.54.17-.48.35-1,.52-1.46.88-2.43,1.8-4.88,2.72-7.31.15-.37.29-.76.44-1.14s.31-.82.48-1.23c.62-1.64,1.27-3.3,1.93-4.94h0c1-2.45,2-4.88,3-7.32s2-4.89,3.11-7.34q5.6-12.84,12-25.71c0-.06,0-.11.07-.16a.18.18,0,0,1,0-.08,2.24,2.24,0,0,1,.11-.22c0-.1.09-.17.13-.27a2.15,2.15,0,0,1,.14-.26,1.08,1.08,0,0,1,.08-.19c.25-.47.48-.94.72-1.41q1.2-2.39,2.45-4.77,1.93-3.72,3.93-7.44l1.93-3.53a1.45,1.45,0,0,1,.1-.18c.68-1.25,1.37-2.49,2.06-3.72s1.41-2.49,2.11-3.72,1.41-2.49,2.13-3.72c.31-.54.63-1.08,1-1.62,1-1.7,2-3.41,3-5.11q5.76-9.67,12.09-19.34c.81-1.23,1.63-2.48,2.44-3.73q5.49-8.24,11.36-16.5h0c.26-.37.51-.75.79-1.12l1.61-2.23q7-9.7,14.56-19.39c.68-.88,1.38-1.76,2.07-2.62l2.3-2.9c.74-.92,1.48-1.86,2.23-2.78s1.43-1.78,2.15-2.66l.45-.55c.63-.78,1.27-1.55,1.91-2.33,1.35-1.64,2.7-3.25,4.08-4.89q3.75-4.46,7.62-8.92,5.07-5.85,10-11.7,4.65-5.57,9.14-11.15c.14-.19.29-.37.43-.55,1.54-1.93,3.06-3.84,4.57-5.76a740.91,740.91,0,0,0,75.75-117.66c1.41-2.74,2.81-5.46,4.18-8.2s2.75-5.48,4.07-8.22,2.66-5.46,4-8.2c.66-1.36,1.3-2.74,1.93-4.12q2.4-5.13,4.72-10.25t4.53-10.25c.59-1.36,1.17-2.75,1.77-4.12q7.88-18.43,14.77-36.86c.52-1.36,1-2.73,1.53-4.1.87-2.38,1.75-4.77,2.62-7.16q2.58-7.17,5-14.3c.83-2.38,1.64-4.77,2.44-7.14q1.35-4.08,2.69-8.15c.06-.17.11-.34.17-.52.83-2.53,1.65-5.07,2.46-7.6,5.7-17.94,10.88-35.8,15.69-53.57q2.63-9.63,5.09-19.21,3.12-12,6.06-24,1-4,1.94-8,3.87-15.9,7.52-31.65,1.85-7.86,3.64-15.72,2.26-9.79,4.5-19.51t4.47-19.33c.76-3.21,1.5-6.42,2.26-9.61v0c.57-2.41,1.12-4.81,1.7-7.2q1.27-5.39,2.56-10.73t2.59-10.64c.05,2,2.8,89,50.35,167.91a268.57,268.57,0,0,0,43.65,55.13,239.52,239.52,0,0,0,42.61,32.72q6.12,3.71,12.61,7.11c.39.19.77.4,1.17.61a3,3,0,0,1,.4.21c.21.11.42.2.62.32,23.5,12,50.65,21.11,82,26,.26,0,.5.09.76.12a357.24,357.24,0,0,0,59.79,4c31.69-.42,66.79-4.53,105.67-13.17q14.05-3.11,28.77-7l3.55-.94,6.68-1.85c45.42-12.82,89.78-30.18,133.5-50.67,2.55-1.19,5.09-2.4,7.63-3.61,3.29-1.57,6.56-3.16,9.86-4.76.1-.06.21-.1.33-.16q13.88-6.8,27.68-14,4.14-2.15,8.29-4.34c27.77-14.65,55.37-30.33,82.92-46.68q4.57-2.72,9.12-5.45c22.19-13.3,44.34-27,66.53-40.91l.75-.48c37.67-23.62,75.45-47.84,113.62-71.68,30.21-18.88,60.66-37.51,91.52-55.45q18.32-10.63,36.83-20.92,10.49-5.81,21-11.47t21.19-11.19l6.07-3.13c4.12-2.11,8.24-4.19,12.39-6.28q13.47-6.74,27.07-13.18h0l.15-.07.08,0c2.12-1,4.25-2,6.38-3l5.88-2.72q8.68-4,17.41-7.85,12.2-5.36,24.49-10.46,12.63-5.19,25.4-10.1,16.08-6.16,32.41-11.76a831.29,831.29,0,0,1,135.1-34.41q22.92-3.75,46.38-6.13,2.22,2.25,4.42,4.51c1.48,1.51,2.94,3,4.41,4.54.84.85,1.66,1.72,2.5,2.59l3.18,3.31c1.37,1.44,2.73,2.87,4.09,4.32q1.7,1.79,3.38,3.59l4.23,4.55c1.43,1.54,2.85,3.1,4.29,4.65s3.09,3.39,4.63,5.09c1.3,1.43,2.58,2.85,3.87,4.3s2.82,3.14,4.23,4.73c2.79,3.14,5.59,6.33,8.35,9.52s5.53,6.39,8.27,9.61l4.09,4.85c1.2,1.42,2.39,2.86,3.58,4.28l.92,1.11c.23.26.45.54.68.82l1.36,1.64h0q3.12,3.76,6.21,7.57c.92,1.12,1.82,2.24,2.72,3.37.22.26.44.54.65.81q10,12.35,19.61,25l3.84,5.06,3.18,4.25.63.84c1.15,1.53,2.29,3.08,3.44,4.62.19.26.37.51.57.76,1.19,1.61,2.36,3.23,3.54,4.85s2.5,3.43,3.75,5.15,2.42,3.35,3.62,5c.08.13.18.26.27.4,1.54,2.13,3.05,4.27,4.55,6.41s3,4.32,4.52,6.47,3,4.32,4.48,6.49,3,4.33,4.44,6.51q3.23,4.78,6.4,9.6,2.1,3.15,4.17,6.32c1.14,1.74,2.26,3.48,3.39,5.22,1.38,2.16,2.77,4.3,4.13,6.45.94,1.48,1.87,2.94,2.8,4.42l3.39,5.41c2.25,3.6,4.48,7.21,6.69,10.86q5,8.16,9.82,16.42c2.16,3.66,4.28,7.34,6.41,11,1,1.76,2,3.55,3,5.33l.25.45c1,1.75,2,3.5,3,5.27,0,0,0,0,0,.08,1,1.84,2.05,3.69,3.08,5.54s2.05,3.72,3.06,5.59c1.55,2.83,3.08,5.65,4.61,8.5h0q5.6,10.45,11,21c1,2,2,4,3,6,.17.32.32.63.48.95q1.37,2.68,2.7,5.39c.09.19.17.37.26.55q1.22,2.41,2.41,4.87l3.78,7.78c.65,1.34,1.28,2.69,1.92,4,.56,1.16,1.11,2.32,1.66,3.47.9,1.92,1.81,3.84,2.71,5.78.79,1.68,1.56,3.37,2.34,5q4.47,9.71,8.76,19.5c.88,2,1.74,4,2.6,6q2.25,5.19,4.43,10.39,1.2,2.84,2.38,5.7c0,.11.09.23.14.35.74,1.76,1.46,3.53,2.19,5.31.14.34.28.68.41,1,.67,1.63,1.33,3.24,2,4.87q3.64,9.09,7.17,18.25c.83,2.18,1.67,4.36,2.49,6.55,1.44,3.82,2.87,7.67,4.27,11.52l1.22,3.36c.18.53.38,1.06.57,1.59l.44,1.23c.64,1.79,1.28,3.57,1.9,5.36.47,1.33.94,2.64,1.41,4s1,2.94,1.51,4.4,1.1,3.17,1.63,4.75c.59,1.74,1.16,3.45,1.74,5.17l2,6c.64,2,1.28,3.9,1.9,5.86,1.3,4,2.58,8,3.82,12.06q2.36,7.59,4.59,15.2l1.4,4.78c.46,1.57.91,3.14,1.35,4.73s.92,3.19,1.36,4.79q1.28,4.53,2.51,9.09c.41,1.49.82,3,1.22,4.51.51,1.94,1,3.86,1.53,5.79s1,3.68,1.43,5.52h0q2.53,9.86,4.86,19.73l1.41,6,1.17,5.13c.11.52.24,1,.36,1.56q.63,2.85,1.25,5.72l1.18,5.42c.13.57.24,1.16.37,1.73h0c.39,1.82.77,3.63,1.14,5.46.41,2,.83,4,1.23,6,.52,2.6,1,5.19,1.54,7.81.3,1.54.6,3.1.88,4.66.4,2,.78,4.07,1.14,6.12.23,1.19.45,2.41.65,3.62.18.92.35,1.85.5,2.77.24,1.35.49,2.71.71,4.07.5,2.81,1,5.63,1.42,8.46.34,2,.68,4.12,1,6.18.21,1.27.41,2.53.59,3.8.23,1.48.47,3,.68,4.44s.44,2.93.66,4.4c.24,1.66.48,3.3.71,4.94.19,1.36.38,2.72.56,4.07q2,14.58,3.6,29.21c.27,2.32.5,4.63.74,6.94s.48,4.64.7,7,.42,4.63.64,6.94.41,4.63.59,7c.1,1.14.19,2.28.29,3.41s.18,2.37.26,3.55.16,2.16.24,3.23c.29,3.86.55,7.71.77,11.58.14,2.16.26,4.34.39,6.52,0,0,0,.1,0,.14.11,2.12.21,4.26.32,6.4.08,1.73.17,3.46.24,5.2,0,.35,0,.7,0,1,0,.74.07,1.46.09,2.19,0,.26,0,.52,0,.79.09,1.94.16,3.9.21,5.84.05,1,.08,2,.1,2.93s.06,1.94.08,2.93c.08,2.32.13,4.64.18,7l.09,5.21c0,.21,0,.44,0,.67,0,1.35,0,2.71.05,4.06,0,.28,0,.58,0,.87,0,.89,0,1.78,0,2.68,0,.46,0,.94,0,1.42C3409.88,1516.61,3409.88,1517.6,3409.88,1518.59Z"/><path class="cls-5" d="M3409.88,1518.59c0,2.71,0,5.4,0,8.12,0,1.2,0,2.39,0,3.58,0,1.61,0,3.25-.05,4.86s-.05,3.36-.08,5c0,.58,0,1.18,0,1.76,0,.26,0,.5,0,.75s0,.48,0,.72c0,1.09-.05,2.2-.08,3.31,0,.68,0,1.36-.06,2,0,.94-.05,1.88-.08,2.81,0,1.53-.1,3.06-.14,4.58l0,.82c-.1,2.6-.2,5.21-.31,7.81,0,.13,0,.25,0,.39-.13,2.73-.26,5.46-.39,8.21,0,0,0,0,0,0-.13,2.32-.27,4.62-.4,6.94l-.12,2.05q-.45,7.32-1,14.63c-.07.75-.12,1.5-.18,2.24-.09,1.15-.18,2.3-.28,3.45s-.19,2.29-.29,3.44c-.18,2-.35,4-.54,6,0,.08,0,.19,0,.29-.22,2.46-.47,4.93-.71,7.39-.06.52-.11,1-.15,1.56-.29,2.74-.58,5.47-.88,8.22,0,.15,0,.32-.06.48-.05.51-.11,1-.18,1.53-.23,2.13-.48,4.25-.73,6.37l0,.34c-.35,2.92-.72,5.82-1.1,8.73-.25,2-.52,4-.78,6,0,.28-.09.57-.13.87-.16,1.15-.31,2.28-.48,3.44-.18,1.35-.38,2.7-.57,4.06-.25,1.67-.49,3.35-.75,5-.07.55-.16,1.1-.25,1.66-.13.92-.28,1.84-.42,2.76-.07.52-.16,1-.24,1.55-.38,2.44-.78,4.91-1.19,7.35-.31,1.93-.63,3.84-1,5.76-.07.45-.15.89-.22,1.35s-.12.7-.18,1-.12.65-.17,1-.08.46-.12.68c-.24,1.42-.51,2.86-.76,4.28-.19,1-.38,2.08-.58,3.11-.06.39-.14.79-.21,1.19a.43.43,0,0,1,0,.11q-.54,3-1.13,6c-.51,2.69-1.05,5.41-1.6,8.14s-1.1,5.41-1.67,8.12c-.28,1.35-.57,2.71-.86,4.07s-.59,2.71-.88,4.06c-.13.59-.26,1.15-.39,1.73s-.29,1.34-.44,2c-.31,1.43-.64,2.85-1,4.28s-.65,2.83-1,4.26c-.18.79-.37,1.59-.55,2.4-.15.61-.31,1.24-.45,1.88-.63,2.59-1.26,5.2-1.9,7.79l-.18.71c-.6,2.46-1.23,4.92-1.87,7.38-.69,2.69-1.39,5.39-2.11,8.08-.63,2.38-1.29,4.77-1.94,7.14-.26,1-.53,1.94-.81,2.9-.56,2-1.14,4.07-1.72,6.1-.76,2.69-1.55,5.38-2.35,8.06-.69,2.34-1.39,4.69-2.1,7-.14.45-.27.9-.4,1.33l-1.68,5.42c-.25.78-.48,1.54-.74,2.31-.81,2.61-1.65,5.23-2.5,7.83s-1.8,5.48-2.71,8.2l-2.73,8-2.61,7.43-.31.87c-.27.76-.54,1.5-.8,2.25q-2.05,5.7-4.19,11.39c-.63,1.7-1.29,3.4-1.93,5.1-.1.29-.21.57-.32.86-.35.9-.7,1.82-1.06,2.73s-.75,2-1.14,2.95c-.08.19-.15.39-.22.57-.72,1.85-1.46,3.7-2.2,5.54,0,.14-.09.27-.14.4-.49,1.23-1,2.45-1.48,3.66-.38,1-.78,1.93-1.16,2.88-.69,1.68-1.37,3.37-2.07,5-.29.68-.56,1.35-.85,2-.55,1.31-1.1,2.63-1.66,3.93-.32.76-.63,1.51-1,2.26-.52,1.2-1,2.41-1.55,3.6-1.13,2.63-2.27,5.26-3.43,7.87a.64.64,0,0,0-.06.16h0c-.17.41-.35.81-.53,1.21-.39.85-.76,1.71-1.15,2.58-.59,1.29-1.17,2.61-1.77,3.92-1,2.12-1.93,4.26-2.92,6.38-.35.77-.7,1.52-1,2.28l-2.14,4.56-1.16,2.44c-.61,1.31-1.24,2.6-1.87,3.91-.48,1-1,2.06-1.48,3.08-.14.28-.28.54-.41.81-.35.73-.71,1.47-1.07,2.2-.27.57-.54,1.14-.83,1.71s-.64,1.3-1,2-.63,1.29-1,1.93c-.76,1.52-1.5,3-2.27,4.54-.49,1-1,1.94-1.47,2.9-.06.11-.11.23-.17.33-.21.4-.41.79-.6,1.19s-.48.92-.71,1.38l-1.56,3c-.38.72-.75,1.45-1.13,2.18-.25.46-.5.94-.74,1.42l-1.29,2.43c-.19.37-.39.74-.57,1.1l-1.48,2.78c-2.75,5.14-5.55,10.29-8.41,15.4l0,.08h0c-.46.84-.92,1.67-1.39,2.5-.23.43-.48.85-.71,1.27-.79,1.4-1.59,2.8-2.38,4.18-.66,1.17-1.32,2.33-2,3.49-1,1.65-1.89,3.28-2.86,4.92a.67.67,0,0,1-.11.18l-2.68,4.59c-1,1.73-2.08,3.46-3.11,5.21a2.71,2.71,0,0,0-.22.38l-.13.2c-1.05,1.74-2.11,3.5-3.17,5.24-.57.92-1.12,1.84-1.68,2.75-1.48,2.39-3,4.8-4.46,7.18-.56.9-1.13,1.8-1.69,2.68q-6.06,9.63-12.42,19.17c-.88,1.32-1.75,2.64-2.63,4-1.77,2.62-3.54,5.25-5.35,7.87-100.58,146.68-215.31,257.37-337.57,337.43a1052.35,1052.35,0,0,1-132.12,73.64q-25.47,11.88-51.16,22.2l-.31.13a1039.23,1039.23,0,0,1-141.42,45.38,1066.65,1066.65,0,0,1-175.3,27.49q-22.93,1.71-45.79,2.42c-201.29,6.38-398.17-42.11-566.24-125.62q-17.34-8.61-34.27-17.72A1136.12,1136.12,0,0,1,1658,2362q-22.77-15.48-44.39-31.88a1007.15,1007.15,0,0,1-87.52-74.33l-.89-.91a1.25,1.25,0,0,0-.17-.16l-.06-.07-.31-.33h0a1.29,1.29,0,0,0-.16-.18c-.08-.09-.18-.18-.28-.28l-1-1c-.14-.16-.3-.32-.46-.48l-.07-.09-.07-.06-.35-.37c-.3-.33-.63-.67-1-1l-.07-.08s0,0,0,0l-.06,0-.21-.24c-.73-.76-1.51-1.61-2.36-2.54-.28-.28-.56-.58-.83-.89l-2.82-3.06c-.53-.6-1.1-1.22-1.69-1.87-.1-.13-.21-.24-.32-.36-.83-.93-1.69-1.88-2.58-2.89-.27-.3-.53-.6-.81-.9l-.2-.24-1.26-1.43c-2.82-3.18-5.89-6.75-9.21-10.65l-.77-.91c-1.55-1.83-3.16-3.75-4.81-5.72-.47-.59-1-1.18-1.47-1.79l-1.48-1.78c-.13-.15-.25-.32-.4-.49l-.43-.53-.1-.12c-.1-.12-.21-.24-.31-.38-.35-.45-.73-.88-1.1-1.34l-1.29-1.58-2.18-2.7-.74-.92c-.62-.79-1.28-1.6-1.93-2.42l-1-1.21c-2.42-3-4.87-6.18-7.39-9.44-.52-.66-1-1.33-1.54-2a.92.92,0,0,1-.17-.22l-.07-.07c-.67-.89-1.35-1.76-2-2.66q-1.8-2.35-3.62-4.78h0c-.18-.21-.34-.43-.5-.64l-.08-.13c-.21-.25-.39-.51-.58-.76s-.26-.33-.38-.51c-.38-.5-.77-1-1.14-1.52-.14-.17-.27-.35-.4-.53s-.27-.36-.39-.56c-.37-.47-.74-1-1.1-1.46q-2.4-3.24-4.85-6.6l-5.48-7.6c-.6-.87-1.22-1.73-1.85-2.61-.13-.21-.27-.41-.42-.62q-3.23-4.56-6.47-9.29-5-7.18-10-14.8c-.32-.5-.66-1-1-1.51a.82.82,0,0,0-.11-.17l-2.1-3.21-.17-.26c-.68-1.06-1.37-2.11-2-3.16l-2.13-3.31-.09-.16c-.68-1.07-1.38-2.14-2.06-3.21q-4.24-6.7-8.49-13.67c-.94-1.55-1.89-3.11-2.83-4.69-.75-1.23-1.49-2.47-2.23-3.73q-3.36-5.61-6.67-11.39-4.43-7.7-8.81-15.69-2.18-4-4.36-8.06c-.73-1.36-1.45-2.71-2.17-4.08s-1.37-2.6-2.05-3.93l-2-4c-.37-.71-.74-1.42-1.1-2.15-.58-1.15-1.18-2.3-1.75-3.45-1.17-2.32-2.34-4.66-3.49-7-.07-.14-.14-.27-.2-.41-.58-1.19-1.17-2.38-1.75-3.58-.5-1-1-2.06-1.49-3.1-.68-1.4-1.35-2.81-2-4.21-.79-1.67-1.57-3.34-2.36-5-.34-.72-.67-1.46-1-2.19-.55-1.19-1.09-2.38-1.65-3.58s-1-2.32-1.57-3.49c-.44-1-.9-2-1.35-3-.35-.8-.7-1.59-1.06-2.39-.1-.22-.18-.43-.28-.65-.75-1.72-1.51-3.45-2.25-5.19-.89-2.06-1.77-4.14-2.66-6.23-.2-.5-.41-1-.62-1.49a3,3,0,0,1-.15-.38h0c-.58-1.39-1.16-2.78-1.72-4.18-.24-.55-.45-1.1-.67-1.64a.71.71,0,0,1-.08-.18c-.14-.33-.27-.65-.4-1l-.3-.74c-.16-.4-.33-.8-.48-1.19-.65-1.62-1.29-3.23-1.93-4.86-.43-1.09-.86-2.19-1.28-3.29q-.87-2.25-1.73-4.5l-1.11-2.94-1.89-5.08c-.5-1.35-1-2.72-1.48-4.09-.23-.65-.47-1.29-.69-1.94-.18-.5-.35-1-.54-1.48-.46-1.35-.94-2.69-1.41-4-.26-.76-.52-1.51-.79-2.27s-.54-1.6-.8-2.41-.64-1.86-1-2.78-.63-1.86-.92-2.81c-.56-1.66-1.1-3.31-1.63-5-.22-.71-.46-1.44-.68-2.16-.42-1.32-.84-2.66-1.25-4-.86-2.76-1.69-5.5-2.51-8.27-.12-.38-.23-.77-.34-1.16-.29-1-.57-1.94-.85-2.91q-.72-2.49-1.41-5c-.56-1.91-1.08-3.84-1.6-5.78s-1-3.7-1.49-5.56c-.43-1.69-.87-3.38-1.28-5.07-.31-1.18-.6-2.36-.88-3.54-.18-.7-.35-1.4-.52-2.12-.08-.28-.14-.57-.21-.85s-.16-.64-.23-1a.32.32,0,0,1,0-.13c-.28-1.11-.53-2.21-.79-3.33s-.49-2.08-.71-3.12q-.48-2-.9-4c-.09-.34-.16-.69-.23-1-.17-.72-.33-1.45-.47-2.18-.25-1.14-.49-2.27-.73-3.42-.41-2-.82-4-1.21-6a1.49,1.49,0,0,1,0-.18c-.13-.69-.27-1.39-.4-2.08-.28-1.43-.55-2.87-.82-4.31q-.51-2.74-1-5.51c-.12-.66-.24-1.32-.35-2,0-.2-.08-.4-.11-.6s0-.29-.07-.43c-.17-1-.34-2-.5-3s-.34-2-.5-3l-.48-3c-.24-1.64-.49-3.27-.73-4.91-.11-.81-.23-1.62-.34-2.4s-.2-1.46-.3-2.18l-.39-2.9c-.26-2-.51-4-.76-6.07-.18-1.54-.36-3.09-.53-4.65s-.34-3.11-.5-4.66c-.19-1.89-.38-3.77-.56-5.66,0-.25,0-.49-.06-.74-.09-1-.18-2-.26-3s-.17-2.09-.26-3.14c-.24-3.13-.47-6.28-.65-9.43-.08-1-.14-2.09-.2-3.13-.05-.87-.08-1.74-.12-2.6,0-.58-.07-1.17-.09-1.75l0-.64c0-.95-.09-1.91-.13-2.86s-.07-2.07-.1-3.09l0-.78,0-1.16c0-.53,0-1.08,0-1.61v-.09c0-.78,0-1.57-.07-2.37l0-1.53c0-1.25,0-2.52-.06-3.79q0-3.27,0-6.54c0-1.66,0-3.33,0-5,0-1.46,0-2.91.06-4.37,0-.72,0-1.45,0-2.18,0-1.49.09-3,.13-4.49l0-.77v-.25c0-.07,0-.12,0-.17,0-.37,0-.75,0-1.11,0-1.31.09-2.63.16-4,0-.36,0-.72,0-1.08s0-.52,0-.78c0-.79.08-1.56.12-2.34,0-.61,0-1.23.09-1.84s.09-1.46.14-2.19c0-.24,0-.48,0-.73s0-.56.05-.83c0-.73.08-1.46.14-2.19,0-.22,0-.42,0-.63,0-.81.12-1.63.18-2.44,0-.32,0-.63.07-1s.06-.84.1-1.26.1-1.16.15-1.73c.07-1,.15-1.91.23-2.88l.27-2.87c0-.62.11-1.24.18-1.87.12-1.08.21-2.18.34-3.27a.81.81,0,0,1,0-.16c0-.37.08-.75.13-1.11.11-1.16.24-2.3.38-3.46l.12-1.07a.62.62,0,0,0,0-.13s0-.05,0-.09,0-.08,0-.12,0-.14,0-.22a.2.2,0,0,0,0-.07c0-.14,0-.29,0-.43s.05-.34.07-.5c.06-.51.12-1,.18-1.5.08-.7.17-1.39.26-2.06.06-.46.11-.93.18-1.39,0-.25.07-.52.1-.76.11-.8.2-1.6.32-2.39a.07.07,0,0,1,0-.05c.23-1.74.49-3.46.74-5.18.08-.51.15-1,.23-1.52q.22-1.5.45-3c0-.18.07-.36.09-.52l.12-.71c.25-1.57.51-3.13.78-4.7,0-.2.05-.4.1-.61.24-1.41.49-2.8.74-4.21a2.7,2.7,0,0,1,.08-.39c.19-1.07.38-2.13.59-3.19.29-1.54.59-3.08.89-4.61.1-.49.21-1,.3-1.5s.25-1.17.36-1.77.19-.9.29-1.35c0-.26.11-.52.16-.77s.12-.53.17-.79c.5-2.41,1-4.81,1.57-7.21.29-1.2.56-2.4.85-3.62.08-.29.15-.59.22-.9.21-.89.42-1.81.65-2.7.06-.22.11-.43.15-.65s.09-.35.14-.52c.15-.61.3-1.22.46-1.83l.3-1.23c.24-.92.48-1.86.72-2.79.34-1.29.68-2.59,1-3.86s.65-2.36,1-3.54c.1-.35.2-.69.29-1,.19-.7.39-1.39.59-2.08.06-.22.11-.41.17-.61.35-1.2.69-2.4,1-3.61.54-1.82,1.08-3.64,1.65-5.45s1.12-3.65,1.7-5.46c.52-1.62,1-3.25,1.58-4.87.17-.53.35-1.06.54-1.6q.91-2.74,1.87-5.51c.42-1.21.85-2.43,1.29-3.65l.21-.61c.06-.18.14-.36.2-.54.17-.48.35-1,.52-1.46.88-2.43,1.8-4.88,2.72-7.31.15-.37.29-.76.44-1.14s.31-.82.48-1.23c.62-1.64,1.27-3.3,1.93-4.94h0c1-2.45,2-4.88,3-7.32s2-4.89,3.11-7.34q5.6-12.84,12-25.71c0-.06,0-.11.07-.16a.18.18,0,0,1,0-.08,2.24,2.24,0,0,1,.11-.22c0-.1.09-.17.13-.27a2.15,2.15,0,0,1,.14-.26,1.08,1.08,0,0,1,.08-.19c.25-.47.48-.94.72-1.41q1.2-2.39,2.45-4.77c61.06,37,149,84.7,250.15,122.27q21.81,8.1,44.39,15.53a1033.75,1033.75,0,0,0,102.09,27.9q17,3.7,34.27,6.74c140.89,24.81,290.36,14.9,420.63-71.53,324.56-215.34,837.17-539.77,1191.71-191.65h0c.08,1.18.18,2.37.26,3.55s.16,2.16.24,3.23c.29,3.86.55,7.71.77,11.58.14,2.16.26,4.34.39,6.52,0,0,0,.1,0,.14.11,2.12.21,4.26.32,6.4.08,1.73.17,3.46.24,5.2,0,.35,0,.7,0,1,0,.74.07,1.46.09,2.19,0,.26,0,.52,0,.79.09,1.94.16,3.9.21,5.84.05,1,.08,2,.1,2.93s.06,1.94.08,2.93c.08,2.32.13,4.64.18,7l.09,5.21c0,.21,0,.44,0,.67,0,1.35,0,2.71.05,4.06,0,.28,0,.58,0,.87,0,.89,0,1.78,0,2.68,0,.46,0,.94,0,1.42C3409.88,1516.61,3409.88,1517.6,3409.88,1518.59Z"/><path class="cls-6" d="M3409.51,1548.76c0,.94-.05,1.88-.08,2.81,0,1.53-.1,3.06-.14,4.58l0,.82c-.1,2.6-.2,5.21-.31,7.81,0,.13,0,.25,0,.39-.13,2.73-.26,5.46-.39,8.21,0,0,0,0,0,0-.13,2.32-.27,4.62-.4,6.94l-.12,2.05q-.45,7.32-1,14.63c-.07.75-.12,1.5-.18,2.24-.09,1.15-.18,2.3-.28,3.45s-.19,2.29-.29,3.44c-.18,2-.35,4-.54,6,0,.08,0,.19,0,.29-.22,2.46-.47,4.93-.71,7.39-.06.52-.11,1-.15,1.56-.29,2.74-.58,5.47-.88,8.22,0,.15,0,.32-.06.48-.05.51-.11,1-.18,1.53-.23,2.13-.48,4.25-.73,6.37l0,.34c-.35,2.92-.72,5.82-1.1,8.73-.25,2-.52,4-.78,6,0,.28-.09.57-.13.87-.16,1.15-.31,2.28-.48,3.44-.18,1.35-.38,2.7-.57,4.06-.25,1.67-.49,3.35-.75,5-.07.55-.16,1.1-.25,1.66-.13.92-.28,1.84-.42,2.76-.07.52-.16,1-.24,1.55-.38,2.44-.78,4.91-1.19,7.35-.31,1.93-.63,3.84-1,5.76-.07.45-.15.89-.22,1.35s-.12.7-.18,1-.12.65-.17,1-.08.46-.12.68c-.24,1.42-.51,2.86-.76,4.28-.19,1-.38,2.08-.58,3.11-.06.39-.14.79-.21,1.19a.43.43,0,0,1,0,.11q-.54,3-1.13,6c-.51,2.69-1.05,5.41-1.6,8.14s-1.1,5.41-1.67,8.12c-.28,1.35-.57,2.71-.86,4.07s-.59,2.71-.88,4.06c-.13.59-.26,1.15-.39,1.73s-.29,1.34-.44,2c-.31,1.43-.64,2.85-1,4.28s-.65,2.83-1,4.26c-.18.79-.37,1.59-.55,2.4-.15.61-.31,1.24-.45,1.88-.63,2.59-1.26,5.2-1.9,7.79l-.18.71c-.6,2.46-1.23,4.92-1.87,7.38-.69,2.69-1.39,5.39-2.11,8.08-.63,2.38-1.29,4.77-1.94,7.14-.26,1-.53,1.94-.81,2.9-.56,2-1.14,4.07-1.72,6.1-.76,2.69-1.55,5.38-2.35,8.06-.69,2.34-1.39,4.69-2.1,7-.14.45-.27.9-.4,1.33l-1.68,5.42c-.25.78-.48,1.54-.74,2.31-.81,2.61-1.65,5.23-2.5,7.83s-1.8,5.48-2.71,8.2l-2.73,8-2.61,7.43-.31.87c-.27.76-.54,1.5-.8,2.25q-2.05,5.7-4.19,11.39c-.63,1.7-1.29,3.4-1.93,5.1-.1.29-.21.57-.32.86-.35.9-.7,1.82-1.06,2.73s-.75,2-1.14,2.95c-.08.19-.15.39-.22.57-.72,1.85-1.46,3.7-2.2,5.54,0,.14-.09.27-.14.4-.49,1.23-1,2.45-1.48,3.66-.38,1-.78,1.93-1.16,2.88-.69,1.68-1.37,3.37-2.07,5-.29.68-.56,1.35-.85,2-.55,1.31-1.1,2.63-1.66,3.93-.32.76-.63,1.51-1,2.26-.52,1.2-1,2.41-1.55,3.6-1.13,2.63-2.27,5.26-3.43,7.87a.64.64,0,0,0-.06.16h0c-.17.41-.35.81-.53,1.21-.39.85-.76,1.71-1.15,2.58-.59,1.29-1.17,2.61-1.77,3.92-1,2.12-1.93,4.26-2.92,6.38-.35.77-.7,1.52-1,2.28l-2.14,4.56-1.16,2.44c-.61,1.31-1.24,2.6-1.87,3.91-.48,1-1,2.06-1.48,3.08-.14.28-.28.54-.41.81-.35.73-.71,1.47-1.07,2.2-.27.57-.54,1.14-.83,1.71s-.64,1.3-1,2-.63,1.29-1,1.93c-.76,1.52-1.5,3-2.27,4.54-.49,1-1,1.94-1.47,2.9-.06.11-.11.23-.17.33-.21.4-.41.79-.6,1.19s-.48.92-.71,1.38l-1.56,3c-.38.72-.75,1.45-1.13,2.18-.25.46-.5.94-.74,1.42l-1.29,2.43c-.19.37-.39.74-.57,1.1l-1.48,2.78c-2.75,5.14-5.55,10.29-8.41,15.4l0,.08h0c-.46.84-.92,1.67-1.39,2.5-.23.43-.48.85-.71,1.27-.79,1.4-1.59,2.8-2.38,4.18-.66,1.17-1.32,2.33-2,3.49-1,1.65-1.89,3.28-2.86,4.92a.67.67,0,0,1-.11.18l-2.68,4.59c-1,1.73-2.08,3.46-3.11,5.21a2.71,2.71,0,0,0-.22.38l-.13.2c-1.05,1.74-2.11,3.5-3.17,5.24-.57.92-1.12,1.84-1.68,2.75-1.48,2.39-3,4.8-4.46,7.18-.56.9-1.13,1.8-1.69,2.68q-6.06,9.63-12.42,19.17c-.88,1.32-1.75,2.64-2.63,4-1.77,2.62-3.54,5.25-5.35,7.87-100.58,146.68-215.31,257.37-337.57,337.43a1052.35,1052.35,0,0,1-132.12,73.64q-25.47,11.88-51.16,22.2l-.31.13a1039.23,1039.23,0,0,1-141.42,45.38,1066.65,1066.65,0,0,1-175.3,27.49q-22.93,1.71-45.79,2.42c-201.29,6.38-398.17-42.11-566.24-125.62q-17.34-8.61-34.27-17.72A1136.12,1136.12,0,0,1,1658,2362q-22.77-15.48-44.39-31.88a1007.15,1007.15,0,0,1-87.52-74.33l-.89-.91a1.25,1.25,0,0,0-.17-.16l-.06-.07-.31-.33h0a1.29,1.29,0,0,0-.16-.18c-.08-.09-.18-.18-.28-.28l-1-1c-.14-.16-.3-.32-.46-.48l-.07-.09-.07-.06-.35-.37c-.3-.33-.63-.67-1-1l-.07-.08s0,0,0,0l-.06,0-.21-.24c-.73-.76-1.51-1.61-2.36-2.54-.28-.28-.56-.58-.83-.89l-2.82-3.06c-.53-.6-1.1-1.22-1.69-1.87-.1-.13-.21-.24-.32-.36-.83-.93-1.69-1.88-2.58-2.89-.27-.3-.53-.6-.81-.9l-.2-.24-1.26-1.43c-2.82-3.18-5.89-6.75-9.21-10.65l-.77-.91c-1.55-1.83-3.16-3.75-4.81-5.72-.47-.59-1-1.18-1.47-1.79l-1.48-1.78c-.13-.15-.25-.32-.4-.49l-.43-.53-.1-.12c-.1-.12-.21-.24-.31-.38-.35-.45-.73-.88-1.1-1.34l-1.29-1.58-2.18-2.7-.74-.92c-.62-.79-1.28-1.6-1.93-2.42l-1-1.21c-2.42-3-4.87-6.18-7.39-9.44-.52-.66-1-1.33-1.54-2a.92.92,0,0,1-.17-.22l-.07-.07c-.67-.89-1.35-1.76-2-2.66q-1.8-2.35-3.62-4.78h0c-.18-.21-.34-.43-.5-.64l-.08-.13c-.21-.25-.39-.51-.58-.76s-.26-.33-.38-.51c-.38-.5-.77-1-1.14-1.52-.14-.17-.27-.35-.4-.53s-.27-.36-.39-.56c-.37-.47-.74-1-1.1-1.46q-2.4-3.24-4.85-6.6l-5.48-7.6c-.6-.87-1.22-1.73-1.85-2.61-.13-.21-.27-.41-.42-.62q-3.23-4.56-6.47-9.29-5-7.18-10-14.8c-.32-.5-.66-1-1-1.51a.82.82,0,0,0-.11-.17l-2.1-3.21-.17-.26c-.68-1.06-1.37-2.11-2-3.16l-2.13-3.31-.09-.16c-.68-1.07-1.38-2.14-2.06-3.21q-4.24-6.7-8.49-13.67c-.94-1.55-1.89-3.11-2.83-4.69-.75-1.23-1.49-2.47-2.23-3.73q-3.36-5.61-6.67-11.39-4.43-7.7-8.81-15.69-2.18-4-4.36-8.06c-.73-1.36-1.45-2.71-2.17-4.08s-1.37-2.6-2.05-3.93l-2-4c-.37-.71-.74-1.42-1.1-2.15-.58-1.15-1.18-2.3-1.75-3.45-1.17-2.32-2.34-4.66-3.49-7-.07-.14-.14-.27-.2-.41-.58-1.19-1.17-2.38-1.75-3.58-.5-1-1-2.06-1.49-3.1-.68-1.4-1.35-2.81-2-4.21-.79-1.67-1.57-3.34-2.36-5-.34-.72-.67-1.46-1-2.19-.55-1.19-1.09-2.38-1.65-3.58s-1-2.32-1.57-3.49c-.44-1-.9-2-1.35-3-.35-.8-.7-1.59-1.06-2.39-.1-.22-.18-.43-.28-.65-.75-1.72-1.51-3.45-2.25-5.19-.89-2.06-1.77-4.14-2.66-6.23-.2-.5-.41-1-.62-1.49a3,3,0,0,1-.15-.38h0c-.58-1.39-1.16-2.78-1.72-4.18-.24-.55-.45-1.1-.67-1.64a.71.71,0,0,1-.08-.18c-.14-.33-.27-.65-.4-1l-.3-.74c-.16-.4-.33-.8-.48-1.19-.65-1.62-1.29-3.23-1.93-4.86-.43-1.09-.86-2.19-1.28-3.29q-.87-2.25-1.73-4.5l-1.11-2.94-1.89-5.08c-.5-1.35-1-2.72-1.48-4.09-.23-.65-.47-1.29-.69-1.94-.18-.5-.35-1-.54-1.48-.46-1.35-.94-2.69-1.41-4-.26-.76-.52-1.51-.79-2.27s-.54-1.6-.8-2.41-.64-1.86-1-2.78-.63-1.86-.92-2.81c-.56-1.66-1.1-3.31-1.63-5-.22-.71-.46-1.44-.68-2.16-.42-1.32-.84-2.66-1.25-4-.86-2.76-1.69-5.5-2.51-8.27-.12-.38-.23-.77-.34-1.16-.29-1-.57-1.94-.85-2.91q-.72-2.49-1.41-5c-.56-1.91-1.08-3.84-1.6-5.78s-1-3.7-1.49-5.56c-.43-1.69-.87-3.38-1.28-5.07-.31-1.18-.6-2.36-.88-3.54-.18-.7-.35-1.4-.52-2.12-.08-.28-.14-.57-.21-.85s-.16-.64-.23-1a.32.32,0,0,1,0-.13c-.28-1.11-.53-2.21-.79-3.33s-.49-2.08-.71-3.12q-.48-2-.9-4c-.09-.34-.16-.69-.23-1-.17-.72-.33-1.45-.47-2.18-.25-1.14-.49-2.27-.73-3.42-.41-2-.82-4-1.21-6a1.49,1.49,0,0,1,0-.18h0c.91,1.39,84.13,127.35,296.46,225.54q21.32,9.85,44.39,19.29c31.49,12.87,65.49,25,102.09,36.06q16.77,5.05,34.27,9.79a1349.79,1349.79,0,0,0,152.34,31.68c152.78,23,302.32-19.17,449.87-91.33,27.63-13.51,55.18-28.08,82.68-43.46l0,0c56-31.32,111.68-66,167.21-102.25q9.24-6,18.48-12.11c57.51-37.84,114.82-77,172-115.37C3028.08,1697.61,3218,1578.47,3409.51,1548.76Z"/><path class="cls-7" d="M1417,2189.52s-212.81-130.3-152.63-598.12"/><path class="cls-8" d="M2494.11,1956s-31,75.49-39.12,79.23-104.09-64.63-119.4-87.74,14.63-239.84,15.31-245.62-2.72-7.82-2.72-7.82a30,30,0,0,1-5.91-5.12v0c-7.27-8-12.46-20.05-12.46-24.12,0-3.6-4.92-6-9-8.45h0a19.15,19.15,0,0,1-4.24-3.1c-3.4-3.75,2-14.3,2-14.3s-1.7-1-2.38-6.8,4.09-15.64,4.09-15.64-5.11,0-6.47-7.49a15.34,15.34,0,0,1,1.1-8.4l.27-.65a1.66,1.66,0,0,1,.13-.27l0-.1a24.56,24.56,0,0,1,3.22-5.2s-2.71-7.15,4.09-12.93,46.94,15.65,55.79,25.17,11.22,58.51,10.2,86.06,20.41,215.33,21.43,219.07S2494.11,1956,2494.11,1956Z"/><path class="cls-9" d="M2485.17,1951.6s-25.5,64-47.59,60.74-33.71-6.69-33.71-6.69,47,33.59,52.71,29.72,37.53-79.38,37.53-79.38Z"/><path class="cls-9" d="M2318.58,1594.36s27.05-2.21,31.13.86,20.75,19.38,22.79,25.17c0,0,1.87,4.42,1.36-1.87s-17.77-26.71-27.59-28.07-28.22,0-28.22,0A13,13,0,0,0,2318.58,1594.36Z"/><path class="cls-10" d="M2320.78,1656.32h0Z"/><path class="cls-9" d="M2363.15,1679.41a.12.12,0,0,1-.12.1c-1.12,0-9.88-10.17-15.47-17.61-6.4-4.92-12.42-.18-14.12,2.88s8.53,23.53,8.83,24.12c-7.27-8-12.46-20.05-12.46-24.12,0-3.6-4.92-6-9-8.45.39.15,8.15,3.3,14.35,1.65,6.35-1.71,4.08-11.8,4.08-11.81l-1.81-4.18s4.08-.23,4.42-8.28-2.84-11-13-16.1c0,0,5-.34,4.31-2.38s-21.81-4.51-18.18-14.64l.27-.65a1.66,1.66,0,0,1,.13-.27c-.26.72-1.38,5.09,7.23,8.3,9.41,3.52,13.61,1,14.06,3.52s7.49,9.75,7.38,19.73,1.46,17.46,8.84,29.82S2363.49,1677.7,2363.15,1679.41Z"/><path class="cls-9" d="M2318.58,1638.92a25.08,25.08,0,0,1,4.85-.63,34.48,34.48,0,0,1,4.87.11,18.5,18.5,0,0,1,4.89,1.06,15.18,15.18,0,0,1,4.22,2.53c-1.6-.39-3.16-.67-4.71-1s-3-.38-4.6-.55-3.15-.33-4.74-.55A36.92,36.92,0,0,1,2318.58,1638.92Z"/><path class="cls-9" d="M2320.29,1616.48a6,6,0,0,1,2.18-.77,8.77,8.77,0,0,1,2.23-.07,7.54,7.54,0,0,1,2.2.54,4.25,4.25,0,0,1,1.89,1.43c-.83.06-1.51.1-2.21.11a20.55,20.55,0,0,1-2.08-.09,15.31,15.31,0,0,1-2.08-.35A9.13,9.13,0,0,1,2320.29,1616.48Z"/><polygon points="2285.36 1491.41 2330.02 1593.72 2344.85 1593.94 2302.19 1491.56 2285.36 1491.41"/><path class="cls-3" d="M994.76,1193.12c32.61,202,290.13,268,415.8,106.54,93.33-119.89,176.47-295.3,96.08-490.78-148.69-361.51-559.33,63.65-513.31,375C993.79,1187,994.26,1190.07,994.76,1193.12Z"/><path class="cls-2" d="M2580.4,1987.37l-18.14,110.44a150,150,0,0,1-17.41-1.9c-5.48-.95-11.06-2.36-14.79-4.45-7.63-4.25-48.25-32.49-65.61-44.61-4.84-3.37-7.87-5.5-7.87-5.5a151.46,151.46,0,0,0,18.14-24.27c8.39-14.06,19.28-61,29.94-56.92l1.61.6c2,.75,4.8,1.78,8.23,3h0C2536,1971.58,2580.4,1987.37,2580.4,1987.37Z"/><path class="cls-11" d="M2548.2,2080.47a107.19,107.19,0,0,1-3.35,15.44c-5.48-.95-11.06-2.36-14.79-4.45-7.63-4.25-48.25-32.49-65.61-44.61,12.09-26.37,38.18-78.78,41.82-86.09l.43-.85,7.8,3.88h0s-20.74,72.46-19,85S2548.2,2080.47,2548.2,2080.47Z"/><path class="cls-2" d="M2488.5,1948.65s1-5.44,5.61-3.23,20.24,6.12,19.39,10.71-38.95,94.57-46.77,96.78-28.58-10.37-25-16.16,19.56-19.73,28.92-41.5S2488.5,1948.65,2488.5,1948.65Z"/><path class="cls-8" d="M2994.51,2529.09l15.31,53.71-95.48,38.41-109,43.85c-28.75,11.57-7.22-85.32-7.22-85.32s50.76-19.11,106.62-33.93C2935.66,2537.59,2968.19,2530.69,2994.51,2529.09Z"/><path class="cls-12" d="M2994.51,2529.09l15.31,53.71-95.48,38.41c-2.75-33.37-7-60.52-9.64-75.4C2935.66,2537.59,2968.19,2530.69,2994.51,2529.09Z"/><path d="M3059.62,2532.54s0,0,0,0c-.25,2.38-14.53,139.62-53.73,185.54-5.09,6-13.38,10.32-22.68,13h0c-.95.28-1.9.54-2.87.78a84.53,84.53,0,0,1-15.06,2.33c-15,1-29.15-2.07-34.51-9.33-11-14.91,9.54-43.94,22.44-70.62s-.94-120.17-.94-120.17c-14.34-13.53,56.84-16.88,90.6-9.78C3052.08,2526.28,3058.51,2529,3059.62,2532.54Z"/><path class="cls-12" d="M3059.62,2532.54s0,0,0,0c-.25,2.38-14.53,139.62-53.73,185.54-5.09,6-13.38,10.32-22.68,13h0c-6.91,1.06-13.62,2-17.93,3.11,66.58-31.73,73.62-177.82,77.59-209.9C3052.08,2526.28,3058.51,2529,3059.62,2532.54Z"/><path class="cls-2" d="M2982,2626.87a1.81,1.81,0,0,1-1.59-.17c-8.91-5.64-20.95,3.85-21.07,4a1.81,1.81,0,1,1-2.26-2.83c.57-.46,14.2-11.18,25.27-4.18a1.81,1.81,0,0,1,.56,2.5A1.76,1.76,0,0,1,2982,2626.87Z"/><path class="cls-2" d="M2980.05,2645.79a1.77,1.77,0,0,1-1.14,0c-8.8-2.66-22.45,3.18-22.59,3.23a1.78,1.78,0,0,1-2.38-.94,1.8,1.8,0,0,1,.94-2.38c.61-.26,15-6.42,25.08-3.37a1.8,1.8,0,0,1,.09,3.43Z"/><path class="cls-2" d="M2981.36,2605.21a1.85,1.85,0,0,1-1.25,0c-8.49-3.14-20.16,6.58-20.28,6.68a1.81,1.81,0,1,1-2.34-2.76c.55-.46,13.41-11.2,23.88-7.32a1.8,1.8,0,0,1,1.07,2.32A1.83,1.83,0,0,1,2981.36,2605.21Z"/><path class="cls-9" d="M2864.11,2557.47c-.25.08,7.81,20.18,14.61,38.86a123.45,123.45,0,0,1,7,36.38l-28.44,11.59-27.59-75.73Z"/><path class="cls-8" d="M2338.07,2662.35l0,.07a.41.41,0,0,0-.05.09h0c-23.36,42.81-83.06,69.63-72.31,18.06,1.23-5.9,2.21-11.95,3-18.06v0a1,1,0,0,0,0-.16.22.22,0,0,0,0-.08c2.7-21.92,2.61-44.64,1.39-64.78-.46-7.56-1.08-14.75-1.77-21.39-2.61-25-6.24-42.27-6.24-42.27l54.23-15.58,21.19-6.09s.11,1.12.33,3.2c.83,8.08,3.08,30.74,5.4,59.34.6,7.26,1.2,14.9,1.77,22.79.71,9.52,1.38,19.39,2,29.37C2347.69,2639,2344.11,2651.22,2338.07,2662.35Z"/><path class="cls-12" d="M2265.66,2680.58c5.66-27.18,6-57.28,4.39-83.11,0,0,51.25,9,74.91,0,.7,9.52,1.37,19.39,2,29.37C2350.55,2686,2252.11,2745.61,2265.66,2680.58Z"/><path d="M2362,2732.51a39.18,39.18,0,0,1-1.95,11.75l-234.82,2.25s-5.95-2.23-8.2-14a52.54,52.54,0,0,1-.84-9.82c0-20.43,88.23-38.55,117.42-53,37.73-18.61,35-7.22,35-7.22s32.81,13.54,69.34,0c0,0,13-23.84,22.07,46.33A119.58,119.58,0,0,1,2362,2732.51Z"/><path class="cls-12" d="M2362,2732.51a39.18,39.18,0,0,1-1.95,11.75l-234.82,2.25s-5.95-2.23-8.2-14Z"/><path class="cls-2" d="M2233.89,2693.2a1.64,1.64,0,0,1-1.64-1.56,38.53,38.53,0,0,0-5.85-18.46,1.64,1.64,0,0,1,2.69-1.89,41.54,41.54,0,0,1,6.44,20.18,1.65,1.65,0,0,1-1.56,1.73Z"/><path class="cls-2" d="M2211.62,2697a1.65,1.65,0,0,1-1.64-1.56c-.55-10.57-4.65-15.08-4.69-15.12a1.64,1.64,0,0,1,2.38-2.27c.2.21,5,5.31,5.59,17.22a1.64,1.64,0,0,1-1.55,1.73Z"/><path class="cls-2" d="M2256.46,2686.45a1.64,1.64,0,0,1-1.64-1.57c-.83-17.89-10.94-18.53-11-18.53a1.64,1.64,0,0,1-1.57-1.71,1.66,1.66,0,0,1,1.71-1.57c.54,0,13.21.8,14.18,21.66a1.64,1.64,0,0,1-1.57,1.71Z"/><path class="cls-9" d="M2343.19,2574.68c-31.7,6.8-74.21,1.43-74.91,1.4h0l-7.72-48.58s30-5.43,55.72-9.27c7.9-1.18,15.4-2.21,21.52-2.89C2338.62,2523.42,2340.87,2546.08,2343.19,2574.68Z"/><path class="cls-8" d="M2689.37,1998.46c-22.32-25.7-26-34-25.79-57.34.21-26.86,10.62-37.67,7.08-58-7.09-40.67,9.86-137-26.09-139,0,0-30-7.92-58.11,3.37h0a68.42,68.42,0,0,0-17.86,10.48c-31.38,25.61-25.11,36.13-54.81,38.76-15.41,1.35-10.21,17.39,1,24.47s-8.8,44.22,5.69,71.51,57,45.29,73,48c0,0,4.61,43.12-5.67,70C2574,2047,2696.05,2020.83,2689.37,1998.46Z"/><path class="cls-9" d="M2656.33,1886s-21,30.25,7.61,47.34l6.11-29.3Z"/><path class="cls-9" d="M2655.33,1843.06s-3.65-9.16-35.23,3.91c0,0,26.69-33.28,37.93-26.72S2655.33,1843.06,2655.33,1843.06Z"/><path class="cls-9" d="M2591.06,1745.82s61.3,25.36,66.9,47.56-7.66-53.36-7.66-53.36S2609.47,1739.45,2591.06,1745.82Z"/><path class="cls-13" d="M2683.85,1767.29c24.12,27.78-3.27,96.54-18.46,75.34-20.41-28.47-55.36,23.13-44.38-3.56s20.69-19.29,30.13-45.53c8.91-24.78-10.48-34-12.65-35-31.7-13.18-62.59-37.85-61.63-55.6.33-6.15,4.48-11.47,13.75-15.19,16.83-6.75,29.13-5.16,38-.24h0c16.49,9.15,21.18,29.77,21.18,29.77S2720.15,1762.38,2683.85,1767.29Z"/><path class="cls-14" d="M2651.14,1793.54s-2.71,31-.57,40.25c0,0,7.1,1.29,7.76,3.53s-5.18-51.72-5.18-51.72Z"/><path class="cls-14" d="M2633.78,1691s-1.83,51.93,8.94,70l9.78,9.41-9.11-72.15Z"/><path class="cls-13" d="M2658.79,1881s-19.84,34,9.33,45.54c0,0-1.23-27.85,3.76-33.28S2658.79,1881,2658.79,1881Z"/><path class="cls-14" d="M2656.33,1886s-4.47,33,11.7,37.25l.13-10.23-6.55-35.14A17.39,17.39,0,0,0,2656.33,1886Z"/><path class="cls-15" d="M2748.26,1821.85a139.94,139.94,0,0,1-2.69,28.67c-11.27,56.45-78.06,69.51-78.06,69.51-11.62-23.6-14.16-110.49-14.67-137.08-.09-4.93-.12-7.79-.12-7.79-1.51-4.77-2.89-9.76-4.14-14.89-10.16-41.56-12.26-92.39-12.68-108.48a6.16,6.16,0,0,1,9.4-5.43c15.13,9.86,16.65,71.18,16.65,71.18l.69.09C2721.89,1725.14,2747.8,1773.4,2748.26,1821.85Z"/><path class="cls-2" d="M2652.84,1783c63.19,6,95.41,38.91,95.41,38.91h0c-.46-48.45-26.37-96.71-85.62-104.22-12.17,11-14.54,28.52-14.06,42.64C2648.58,1760.27,2649.35,1773,2652.84,1783Z"/><path class="cls-9" d="M2593.56,1940.7s21.92,1.25,30.63-1.47-18.57,17.06-29.71,16.75Z"/><path class="cls-2" d="M2597.15,1725.41a1,1,0,0,1-.72-.25c-.57-.52-14.15-12.67-11.46-23.52,1.46-5.88,7.38-10.12,17.59-12.6a1,1,0,0,1,1.23.75,1,1,0,0,1-.75,1.22c-9.42,2.29-14.84,6-16.1,11.11-2.4,9.66,10.7,21.4,10.84,21.52a1,1,0,0,1-.63,1.77Z"/><path class="cls-16" d="M2557.62,1785.51s-6.28,4.07-4,7.07,9.06-5.65,9-6.75C2562.54,1783.2,2559.55,1784,2557.62,1785.51Z"/><circle class="cls-9" cx="2567.08" cy="1810.4" r="2.13"/><circle class="cls-9" cx="2570.13" cy="1818.89" r="1.51"/><circle class="cls-9" cx="2555.49" cy="1809.43" r="2.13"/><circle class="cls-9" cx="2559.88" cy="1820.82" r="2.72"/><path class="cls-17" d="M2566.65,1761a3.72,3.72,0,0,1,3.52-1.72c4.45.36,15.28,2.26,15.14,12.34-.18,12.69-4.71,3.92-5.43-3.21C2579.24,1762,2563.92,1765.64,2566.65,1761Z"/><path class="cls-9" d="M2533.32,1853.78c8.61,2.64,24,5.6,39-.46a.43.43,0,0,1,.38.78c-8.65,4.91-25,11.37-40.35,1.76A1.16,1.16,0,0,1,2533.32,1853.78Z"/><path class="cls-2" d="M2584.81,1984.21s11.81,1.19,33.28-1.16,44.69-7.07,49.38-15.46,62.66,49,79.1,67.13,66.42,103.21,74.7,135.86,12.86,135.86-4.25,153-204.62,42.94-226.77-74.47-44.62-148.95-44.62-148.95S2576.75,1988.91,2584.81,1984.21Z"/><path class="cls-18" d="M2579.89,2004.18s-23.53,77-17.75,81.39,18.37,7.82,20.07,3.74,10.51-64.9,40.25-73.84c0,0-24.6,97-34.8,99s-38.78-6.8-40.14-20.07,32.88-91.76,32.88-91.76"/><path class="cls-15" d="M2743.75,2581.27l-.07,0c37.88-8.62,62.87-15.93,62.87-15.93,26.54,27.55,31.21,92,31.21,92s-222.55,88.14-340.42,99.87S2331,2734.27,2332,2673s148-188.79,148-188.79c-44-19.25-136.81-79.67-138.26-80.61v0c3.56,19.9,14.28,112.77,14.28,112.77-19.39,15.82-112.25,26-112.25,26s-30.11-114.29-41.85-166.85-24.48-156.14,19.9-175.53,345.9,117.53,345.9,117.53c-3.4-14.06-29.54-181.13-29.54-211.92s34.7-115.88,38.55-120.25,9.83-1.05,9.83-1.05c-14.49,43.58-34.94,101.69-34.71,106.22s27,18.14,32,13.15,5.22-81.64,51.48-93.89,59.42,6.81,84.36,33.34,68.55,76.76,82.83,92.41,23.14,9.19,27.56,13.95c4,4.33,59.36,140.42,79.35,224.53h0c2,8.39,3.64,16.27,4.84,23.44C2927.34,2475.69,2747.81,2579,2743.75,2581.27Z"/><path class="cls-19" d="M2351.15,2475.07s-59.1,30.11-83.93,28.9-36.17-10.38-36.17-10.38,12.2,49.59,21.46,50.4,103.49-27.6,103.49-27.6S2352.94,2490,2351.15,2475.07Z"/><path class="cls-19" d="M2615,2379.14c-19.62,13.6-135,105.11-135,105.11-44-19.25-136.81-79.67-138.26-80.61v0c-8.31-62.42-44.57-124.61-44.57-124.61-2.09-18.15,34.68,35.39,72.46,90.9,21.09,31,96.9,58.7,116.67,58.55,44.91-.34,80.55-54.34,91.17-58.55S2615,2379.14,2615,2379.14Z"/><path class="cls-2" d="M2814.55,2264.5c-1.29,20.35-26.18,29.57-42.17,33.39a115.68,115.68,0,0,1-13.28,2.44,257,257,0,0,0-17.69-42c-11.11-20.4-108.47,4.54-108.47,4.54-12.55-17.24-31.22-215-3.79-232.74s48.32-1.3,48.32-1.3c13.58,8.91,29.65,25.16,45.92,45.36h0s0,0,0,0C2769.56,2131.58,2817.32,2220.74,2814.55,2264.5Z"/><path class="cls-18" d="M2723.4,2074.25c1,1.8,67.73,117.05,74.48,151.47a65.54,65.54,0,0,1,1.21,10.53c.21,6.62-8.87,8.62-11.39,2.5-12.08-29.39-34-79.24-51-99.43,0,0,27.9,68.94,24.95,85.94-.9,5.18,2,52.38,6.48,62.79-5.47,1-1.49,5.41,4.3,9.84,16-3.82,40.88-13,42.17-33.39C2817.32,2220.74,2769.56,2131.58,2723.4,2074.25Z"/><path class="cls-20" d="M2306.68,2152.65c.34.11,219.52,188.39,219.52,188.39l9.75-12.59-217.37-189.13Z"/><path class="cls-8" d="M2667.6,2270.28l29.31,65.3s-28.63.47-50.4,3-71.78-1.76-71.78-1.76-27.24-31.51-36.16-32.17-28.81-9.16-31.36-10.52-5.11,6.81-.85,12.76,24.66,17.69,24.49,21.6-8.85,6-18.2.17-49.66-44.9-56.13-42.35,5.44,24.32,8.17,35.72,3.57,20.75,26,29.42,56.11,16.35,62.1,18.5c11.16,4,203.23,58.89,231.81,33s-22.12-167-22.12-167Z"/><path class="cls-9" d="M2674.43,2285.51s16.3,3.33,45.38,0,54.09-14.34,54.09-14.34l-11.4-35.25-94.9,34.36Z"/><path class="cls-9" d="M2696.91,2335.58s35.15-1.18,50.8,13.28c0,0,3.23,3.57,2.72-2.38s-22.89-23.09-55.5-15.29Z"/><path class="cls-21" d="M2234.5,2507a164.63,164.63,0,0,0,50.75,5.87c28.57-1.13,67.72-22.37,67.72-22.37s5.41-4.39,8.13,15.62c.74,5.39-1,33.17-2.72,37.94s-87.44,22.22-107.51,18.14S2226.18,2501.07,2234.5,2507Z"/><path class="cls-19" d="M2743.75,2581.27l-.07,0c-90.25,45.35-258.75,88.67-258.75,88.67-36.74,2,209.17-93.27,268.73-134.15,103.68-71.15,155.32-161.08,155.72-161.77,2,8.39,3.64,16.27,4.84,23.44C2927.34,2475.69,2747.81,2579,2743.75,2581.27Z"/><path class="cls-21" d="M2788,2570.47s18.08,15.83,19.78,37.26,3.09,53.66,3.09,53.66-2.07,9,3,8.62,59.19-18.74,60.55-26.22-16.35-94.57-36.06-95.59S2773.63,2564.51,2788,2570.47Z"/><path class="cls-11" d="M2755.65,2192.74s3.9,15.29-5.17,19-124.35,27.76-124.35,27.76,3.78,25.65,6.81,26,130.87-36.39,130.87-36.39S2757.64,2199.2,2755.65,2192.74Z"/><path class="cls-2" d="M2628.46,2250.39s57.06-6.08,84.1-13.56,53.57-20.41,56.07-17.23,11.56,20,8.39,26.53-145.14,46.26-151.49,32.43S2613.47,2248.75,2628.46,2250.39Z"/><path class="cls-22" d="M3686.35,1311.36s-1,16.71-3.87,40.52c-6.77,56-23.68,151.07-61.89,160.23,0,0-78.86,17.16-94,7.8,0,0,5.31-227.1-165.81-315.5a285.64,285.64,0,0,0-45.88-18.79c-93.31-29.17-250.21-38.07-344,105.47-35.76,54.74-62.32,131.64-72.67,238-.06.47-.11,1-.15,1.44,0,0-225.52-5.44-506.08-11.09-376.8-7.59-852.87-15.58-1015.33-11.29,1-1.7,2-3.41,3-5.11q5.76-9.67,12.09-19.34c.81-1.23,1.63-2.48,2.44-3.73q5.49-8.24,11.36-16.5h0c.26-.37.51-.75.79-1.12l1.61-2.23q7-9.7,14.56-19.39c.68-.88,1.38-1.76,2.07-2.62l2.3-2.9c.74-.92,1.48-1.86,2.23-2.78s1.43-1.78,2.15-2.66l.45-.55c.63-.78,1.27-1.55,1.91-2.33,1.35-1.64,2.7-3.25,4.08-4.89q3.75-4.46,7.62-8.92,5.07-5.85,10-11.7,4.65-5.57,9.14-11.15c.14-.19.29-.37.43-.55,1.54-1.93,3.06-3.84,4.57-5.76a740.91,740.91,0,0,0,75.75-117.66c1.41-2.74,2.81-5.46,4.18-8.2s2.75-5.48,4.07-8.22,2.66-5.46,4-8.2c.66-1.36,1.3-2.74,1.93-4.12q2.4-5.13,4.72-10.25t4.53-10.25c.59-1.36,1.17-2.75,1.77-4.12q7.88-18.43,14.77-36.86c.52-1.36,1-2.73,1.53-4.1.87-2.38,1.75-4.77,2.62-7.16q2.57-7.17,5-14.3c.83-2.38,1.64-4.77,2.44-7.14q1.35-4.08,2.69-8.15c0-.17.11-.34.16-.52.83-2.53,1.65-5.07,2.47-7.6,5.7-17.94,10.88-35.8,15.69-53.57q2.63-9.63,5.09-19.21,3.12-12,6.06-24,1-4,1.94-8,3.87-15.9,7.52-31.65,1.85-7.86,3.64-15.72,2.26-9.79,4.5-19.51t4.47-19.33c.76-3.21,1.5-6.42,2.26-9.61v0c.57-2.41,1.12-4.81,1.7-7.2q1.27-5.39,2.56-10.73t2.59-10.67h0c.74-3,1.5-6.1,2.26-9.14q4.14-16.51,8.55-32.73l-1.32.06,1.32-.07c.71-2.59,1.42-5.19,2.14-7.76.15-.54.31-1.07.46-1.6,1-3.48,2-6.93,3-10.38,9.8-33.5,21.09-65.89,35.23-96.9q4.51-9.93,9.46-19.67a456.27,456.27,0,0,1,30.68-52q8.12-11.88,17.19-23.39a419.88,419.88,0,0,1,39.71-43.55C1842,569,1883.1,540,1934.48,514.46q23-11.45,48.8-22l5.69-2.29q16.11-6.39,33.33-12.45,17-5.94,35.15-11.55c31.46-9.67,65.58-18.52,102.64-26.48q44-9.46,93.7-17.23a847.31,847.31,0,0,1,86.66-9c46.9,2.53,99.62,4.41,156.44,6.44,146.53,5.22,320.31,11.48,492,32.69q26.68,3.28,53.25,7.09c80.16,11.47,159.19,26.55,234.06,46.67a134.52,134.52,0,0,1,21.32,45.23l.1.11,5.69,6,1.22,1.29c.75.78,1.56,1.63,2.42,2.55l1.15,1.22c5.8,6.13,13.74,14.53,23.18,24.49.29.3.57.61.86.92l.07.07,1.81,1.92c1.22,1.28,2.47,2.59,3.72,3.93l16.11,17,4,4.2.3.33,8.21,8.65c1.82,1.93,3.66,3.88,5.54,5.85l6.84,7.22c.39.41.8.83,1.19,1.25l.87.93,4.24,4.46c.15.17.32.34.48.51l4.76,5,7.2,7.59,4.84,5.1,4.86,5.13,9.73,10.25,4.86,5.12c15.37,16.2,30.56,32.17,44.47,46.77l3.07,3.22,5.07,5.32c.76.81,1.52,1.6,2.27,2.38,2.27,2.37,4.49,4.7,6.63,7,.54.56,1.09,1.12,1.62,1.68l2.07,2.16c1.14,1.21,2.29,2.4,3.41,3.58.14.14.27.27.39.41l4.83,5,2.93,3.05,2.2,2.31s0,0,0,0l1.1,1.14c9.65,10.08,17.32,18,22.13,22.95h0l2.08,2.1c.21.2.4.4.59.59,1.12,1.13,1.92,1.9,2.4,2.36,10.58,9.76,20.85,19.39,30.5,29.11,15.12,15.07,28.88,30.18,40.32,46.11,36.57,50.62,50.3,109.13,11.94,197.6C3611.8,1067.66,3710.86,1231.83,3686.35,1311.36Z"/><path class="cls-23" d="M3559.54,824c-.21,0-.42.08-.63.07-33.07,3.67-153.15-26.17-153.15-26.17-66.67-2.06-146.06-2.58-234.82-1.9h-2.72l-12.42.1c-2.75,0-5.5.07-8.26.09l-8.33.08-5,.07-5,.06c-3,0-5.94.06-8.92.11l-2.43,0-5.72.07q-14.31.2-28.9.43l-11.71.19h-.84l-11.73.2q-41.23.71-84.36,1.71-59.54,1.36-122.26,3.2l-8.36.25-2.8.08-29.56.89-9.93.31q-3.54.14-7.11.22l-12.81.42-6.54.21c-2.15.08-4.3.14-6.47.21l-.58,0q-26.16.86-52.71,1.77l-21.39.74-22.47.81-12.16.44-7.48.27q-25.46.94-51.17,1.93l-17.16.66-1,0c-226.43,8.82-466,20.41-692.7,32.46l-11.14.6-22.21,1.19-19.8,1.06-27.61,1.5-41.58,2.27-11.66.64-14.53.81-17.86,1-11.33.62-19.35,1.09-7.62.42-7.19.41c-2.39.12-4.79.26-7.17.4.71-2.59,1.42-5.19,2.14-7.76.15-.54.31-1.07.46-1.6,1-3.48,2-6.93,3-10.38,9.8-33.5,21.09-65.89,35.23-96.9q4.51-9.93,9.46-19.67a456.27,456.27,0,0,1,30.68-52q8.12-11.88,17.19-23.39a419.88,419.88,0,0,1,39.71-43.55C1842,569,1883.1,540,1934.48,514.46q23-11.45,48.8-22l5.69-2.29q16.11-6.39,33.33-12.45,17-5.94,35.15-11.55c31.46-9.67,65.58-18.52,102.64-26.48q44-9.46,93.7-17.23a847.31,847.31,0,0,1,86.66-9c46.9,2.53,99.62,4.41,156.44,6.44,146.53,5.22,320.31,11.48,492,32.69q26.68,3.28,53.25,7.09c80.16,11.47,159.19,26.55,234.06,46.67a134.52,134.52,0,0,1,21.32,45.23l.1.11c.65.7,4,4.18,9.33,9.86l1.15,1.22L3321,576.51l2.63,2.79c2.15,2.26,4.4,4.65,6.75,7.13.56.6,1.14,1.2,1.7,1.81l.08.07,1.81,1.92,3.72,3.93,16.11,17,4,4.2,11.41,12,10.66,11.25.88.93,4.24,4.46c30,31.61,62.65,66,89.34,94,.76.81,1.52,1.6,2.27,2.38,2.27,2.37,4.49,4.7,6.63,7,.54.56,1.09,1.12,1.62,1.68l2.07,2.16c3,3.14,5.89,6.15,8.63,9,.91,1,1.81,1.87,2.68,2.79l.25.26,2.2,2.31s0,0,0,0l2.17,2.25c2.2,2.29,4.28,4.47,6.26,6.51l1.69,1.76,6,6.18,1.35,1.39c2.29,2.35,4.27,4.38,5.91,6,.72.78,1.39,1.46,2,2.07.21.2.4.4.59.59,1.12,1.13,1.92,1.9,2.4,2.36C3539.62,804.6,3549.89,814.23,3559.54,824Z"/><path class="cls-24" d="M3406.45,1006.89a66.72,66.72,0,1,1-63.55-69.74A66.72,66.72,0,0,1,3406.45,1006.89Z"/><path class="cls-25" d="M3619.36,1048.79q-3.36,9.21-7.56,18.87c-55.68,4.39-228.37-163.32-228.37-163.32-18.45-24.39-9.74-37.81,12.28-44.52,55.92-17,197.54,9.2,197.54,9.2l6.61,1C3633.77,917,3648,970.71,3619.36,1048.79Z"/><path class="cls-26" d="M2325,481.66c-12.08,50.76-56.08,233.63-81.18,311.42a35.32,35.32,0,0,1-28,24,32.55,32.55,0,0,1-3.86.43l-538.51,29.14c1-3.48,2-6.93,3-10.38,9.8-33.5,21.09-65.89,35.23-96.9q4.51-9.93,9.46-19.67a456.27,456.27,0,0,1,30.68-52q8.12-11.88,17.19-23.39a419.88,419.88,0,0,1,39.71-43.55C1842,569,1883.1,540,1934.48,514.46q23-11.45,48.8-22l5.69-2.29q16.11-6.39,33.33-12.45c100.33-17.08,205.1-25.45,292.4-11.66A12.73,12.73,0,0,1,2325,481.66Z"/><path class="cls-26" d="M2325,481.66c-12.08,50.76-56.08,233.63-81.18,311.42a35.32,35.32,0,0,1-28,24,32.55,32.55,0,0,1-3.86.43l-538.51,29.14c1-3.48,2-6.93,3-10.38,9.8-33.5,21.09-65.89,35.23-96.9q4.51-9.93,9.46-19.67a456.27,456.27,0,0,1,30.68-52q8.12-11.88,17.19-23.39a419.88,419.88,0,0,1,39.71-43.55C1842,569,1883.1,540,1934.48,514.46q23-11.45,48.8-22l5.69-2.29q16.11-6.39,33.33-12.45c100.33-17.08,205.1-25.45,292.4-11.66A12.73,12.73,0,0,1,2325,481.66Z"/><path class="cls-26" d="M2325,481.66c-12.08,50.76-56.08,233.63-81.18,311.42a35.32,35.32,0,0,1-28,24,32.55,32.55,0,0,1-3.86.43l-538.51,29.14c1-3.48,2-6.93,3-10.38,9.8-33.5,21.09-65.89,35.23-96.9q4.51-9.93,9.46-19.67a456.27,456.27,0,0,1,30.68-52q8.12-11.88,17.19-23.39a419.88,419.88,0,0,1,39.71-43.55C1842,569,1883.1,540,1934.48,514.46q23-11.45,48.8-22l5.69-2.29q16.11-6.39,33.33-12.45c100.33-17.08,205.1-25.45,292.4-11.66A12.73,12.73,0,0,1,2325,481.66Z"/><path class="cls-26" d="M2325,481.66c-12.08,50.76-56.08,233.63-81.18,311.42a35.32,35.32,0,0,1-28,24,32.55,32.55,0,0,1-3.86.43l-538.51,29.14c1-3.48,2-6.93,3-10.38,9.8-33.5,21.09-65.89,35.23-96.9q4.51-9.93,9.46-19.67a456.27,456.27,0,0,1,30.68-52q8.12-11.88,17.19-23.39a419.88,419.88,0,0,1,39.71-43.55C1842,569,1883.1,540,1934.48,514.46q23-11.45,48.8-22l5.69-2.29q16.11-6.39,33.33-12.45c100.33-17.08,205.1-25.45,292.4-11.66A12.73,12.73,0,0,1,2325,481.66Z"/><path class="cls-26" d="M3524.07,789.82c-3.07-1.18-6.33-2.69-9.69-4.3-166.7-79.47-215.32-229.12-216.77-233.77C3303.07,557.52,3489.38,754.59,3524.07,789.82Z"/><path class="cls-27" d="M2987.18,453.94s47.77-38.55,55.9,10.41Z"/><rect class="cls-27" x="3061.41" y="350.96" width="4.87" height="108.31" transform="translate(867.27 -1768.9) rotate(37.17)"/><path class="cls-28" d="M3682.48,1351.88c-6.77,56-23.68,151.07-61.89,160.23,0,0-78.86,17.16-94,7.8,0,0,5.31-227.1-165.81-315.5a285.64,285.64,0,0,0-45.88-18.79c-93.31-29.17-250.21-38.07-344,105.47-35.76,54.74-62.32,131.64-72.67,238-.06.47-.11,1-.15,1.44,0,0-225.52-5.44-506.08-11.09-376.8-7.59-852.87-15.58-1015.33-11.29,1-1.7,2-3.41,3-5.11q5.76-9.67,12.09-19.34c.81-1.23,1.63-2.48,2.44-3.73q5.49-8.24,11.36-16.5h0c.26-.37.51-.75.79-1.12l1.61-2.23q7-9.7,14.56-19.39c.68-.88,1.38-1.76,2.07-2.62l2.3-2.9c.74-.92,1.48-1.86,2.23-2.78s1.43-1.78,2.15-2.66l.45-.55c.63-.78,1.27-1.55,1.91-2.33,1.35-1.64,2.7-3.25,4.08-4.89q3.75-4.46,7.62-8.92,5.07-5.85,10-11.7,4.65-5.57,9.14-11.15l13-1.11h0c193.86-16.27,509.39-39.74,792.23-47.13,122.37-3.2,238.62-3.4,336.23,1.31h0c41.8,2,80.19,4.93,114.18,8.9.6.07,1.21.15,1.82.21,55.22,6.52,98.67,15.85,126.1,28.61.25-.58.49-1.15.73-1.74a391.45,391.45,0,0,1,18.44-36.19c6.73-11.83,15.29-25.73,25.79-40.67h0c2-2.84,4-5.7,6.18-8.61,63.89-87.16,190.67-201.87,396.94-154.15,0,0,19.25,3.28,47.64,14.29,44.42,17.21,111.23,53.37,161.84,125.57,0,0,109.91,98.79,173.56,73.12A10.21,10.21,0,0,1,3682.48,1351.88Z"/><path class="cls-29" d="M3171.13,794.69a3.25,3.25,0,0,1-.19,1.26,4.58,4.58,0,0,1-.91,1.6c-2.64,3.28-10.08,6.49-21.88,9.64-60.24,16.07-233.92,30.39-460.86,42.83-113.23,6.2-239.72,11.94-372,17.2-213.05,8.46-441.12,15.67-653,21.57q4.14-16.51,8.55-32.73l-1.32.06,1.32-.07c.71-2.59,1.42-5.19,2.14-7.76.15-.54.31-1.07.46-1.6,1-3.48,2-6.93,3-10.38,173.64-7.16,359.64-13.62,539.39-19.19,69.86-2.16,138.77-4.2,205.65-6.08,130.49-3.7,253.25-6.85,360.16-9.38,73-1.72,138.58-3.15,194.23-4.28,39.31-.8,73.66-1.43,102.12-1.91h.28c24.37-.41,44.41-.69,59.56-.86,16.12-.17,26.69-.2,31-.08h.6A5.49,5.49,0,0,1,3171.13,794.69Z"/><path class="cls-29" d="M3276.19,506.41s-89.64,14.21-112.47,31.56a23.26,23.26,0,0,1-20.85,3.7c-49.7-14.89-210.46-60.39-378.15-79C2764.72,462.68,3045.6,466.2,3276.19,506.41Z"/><path class="cls-29" d="M2848.1,1381.05c-40.62,99.08-113.5,83.82-113.5,83.82l-238-6.22-211.87-5.53-821.1-21.33-.34.06a161.69,161.69,0,0,1-36.38,3.39c.74-.92,1.48-1.86,2.23-2.78s1.43-1.78,2.15-2.66l.45-.55c.63-.78,1.27-1.55,1.91-2.33,1.35-1.64,2.7-3.25,4.08-4.89q3.75-4.46,7.62-8.92,5.07-5.85,10-11.7,4.65-5.57,9.14-11.15c.14-.19.29-.37.43-.55q9.1-.89,19-1.8h0c163.68-15.36,488.24-42.77,785.74-49.83,114.07-2.72,224.16-2.43,319.68,2.68h0c47.65,2.54,91.68,6.29,130.76,11.47l1.75.23c48.06,6.44,88.54,15,119,26.28C2843.33,1379.63,2845.84,1380.32,2848.1,1381.05Z"/><path class="cls-30" d="M2322,823.75s-83.75,514-39.37,622.71"/><path class="cls-28" d="M3169.19,792.88a5.91,5.91,0,0,1-.31,1.64,6.61,6.61,0,0,1-.67,1.44l-12.41.11-8.27.09-8.32.09-5,.06-5,.06c-3,0-5.94.06-8.92.11l-2.44,0-5.72.07-28.89.43-11.71.19h-.84l-11.73.2q-41.23.74-84.38,1.72-59.52,1.35-122.24,3.19l-8.37.24c-.92,0-1.86.07-2.79.09q-14.71.45-29.56.89l-9.93.31c-2.36.08-4.73.16-7.11.22l-12.82.42-6.53.21-6.47.21h-.59q-26.14.87-52.7,1.78l-21.4.74-22.46.81-12.17.44-7.47.27-51.18,1.92-17.16.66c-.33,0-.65,0-1,.05-83.4,3.23-168.6,6.83-254.28,10.69-146.9,6.68-295.22,14.13-438.41,21.77q-5.58.29-11.15.6l-22.21,1.19-19.79,1.06-27.61,1.5-41.58,2.27-11.66.64c-4.86.26-9.7.54-14.54.81l-17.85,1c-3.77.22-7.56.43-11.33.63l-19.35,1.09-7.62.42c-2.4.14-4.8.28-7.19.4l-7.18.42-1.31.06,1.31-.07c.72-2.6,1.43-5.19,2.15-7.76.15-.54.31-1.07.46-1.6,1-3.48,2-6.93,3-10.39,1.27-4.31,2.55-8.61,3.87-12.9,8.9-28.92,19-57,31.37-84q4.51-9.93,9.46-19.67a456.39,456.39,0,0,1,30.68-52q8.12-11.87,17.19-23.39a420.7,420.7,0,0,1,39.7-43.54C1842,569,1883.1,540,1934.48,514.46q23-11.45,48.79-22l5.7-2.3q13.93-5.52,28.7-10.8,2.3-.83,4.63-1.64,2.9-1,5.84-2,14.25-4.89,29.31-9.53c31.45-9.67,65.57-18.52,102.64-26.48a1705.19,1705.19,0,0,1,252.75-2.07c54,3.65,137.58,7.78,228.92,14.48,40.27,2.95,82,6.41,123.41,10.55h0c123.86,12.39,244.38,30.89,311.3,60.35h0c31.08,13.68,50.6,29.72,53.5,48.62C3130,571.65,3170.17,753.89,3169.19,792.88Z"/><path class="cls-26" d="M2479.5,493.62c-14.54,70.25-58.45,283.9-58.08,298.22l552.26-11.75s109.88-131.87,86.51-223.49c-2.86-11.2-364.94-80.64-551.39-85C2494.6,471.25,2482.21,480.5,2479.5,493.62Z"/><g class="cls-31"><g class="cls-32"><polygon class="cls-2" points="2477.5 802.89 2517.33 836.36 2899.74 433.6 2859.91 400.12 2477.5 802.89"/><polygon class="cls-2" points="2584.65 834.47 2673.5 909.14 3055.91 506.37 2967.06 431.7 2584.65 834.47"/></g></g><path class="cls-26" d="M2325,480.33c-4.16,16.5-12.15,47.83-21.84,84.8-18.38,70-42.9,160.29-59.33,208.18-4.1,12-15,20.63-28,22.63-1.27.19-2.55.33-3.86.4L2101.16,802l-250.42,12.74-60.18,3.07h0l-64.28,3.27-46,2.34c8.9-28.92,19-57,31.37-84q4.51-9.93,9.46-19.67a456.39,456.39,0,0,1,30.68-52q8.12-11.87,17.19-23.39a420.7,420.7,0,0,1,39.7-43.54C1842,569,1883.1,540,1934.48,514.46q23-11.45,48.79-22l5.7-2.3q13.93-5.52,28.7-10.8l1.44-1.68h0c1.06-.36,2.11-.71,3.18-1.05l5.84-.93c20.34-3.2,40.85-6,61.34-8.42,20.92-2.45,41.82-4.41,62.51-5.81,57.22-3.84,112.81-3.24,162.71,4.18C2322,466.74,2326.72,473.55,2325,480.33Z"/><path class="cls-2" d="M2089.48,467.3,1790.56,817.79h0l-64.28,3.27,291.4-341.68,1.44-1.68h0c1.06-.36,2.11-.71,3.18-1.05l5.84-.93C2048.48,472.52,2069,469.68,2089.48,467.3Z"/><path class="cls-2" d="M2325,480.33c-4.16,16.5-12.15,47.83-21.84,84.8L2101.16,802l-250.42,12.74L2152,461.5c57.22-3.85,112.81-3.24,162.71,4.16C2322,466.74,2326.72,473.55,2325,480.33Z"/><path d="M1794.36,1488.17v953.4q-17.34-8.61-34.27-17.72A1136.12,1136.12,0,0,1,1658,2362V1488.17Z"/><rect class="cls-28" x="2123.95" y="901.21" width="124.76" height="29.24" rx="9"/><rect class="cls-28" x="2980.7" y="886.59" width="124.76" height="29.24" rx="9"/><polygon class="cls-33" points="3552.64 1018.47 3599.41 1015.48 3595.6 955.89 3489.37 962.68 3552.64 1018.47"/><path class="cls-34" d="M3610.3,984.87c1,16.45-3.82,30.16-10.89,30.61s-13.64-12.52-14.69-29,3.82-30.16,10.88-30.61S3609.24,968.41,3610.3,984.87Z"/><polygon class="cls-33" points="3464.12 955.88 3594.52 948.9 3590.53 886.56 3406.52 895.69 3464.12 955.88"/><path class="cls-34" d="M3605.9,916.88c1.1,17.21-4,31.55-11.38,32s-14.27-13.1-15.38-30.31,4-31.55,11.39-32S3604.8,899.66,3605.9,916.88Z"/><path class="cls-35" d="M3619.36,1048.79q-3.36,9.21-7.56,18.87c-55.68,4.39-228.37-163.32-228.37-163.32-18.45-24.39-9.74-37.81,12.28-44.52,0,0-4.4,11.86,17.63,36.87l139.29,121.78S3592.33,1046.28,3619.36,1048.79Z"/><path class="cls-30" d="M1670.88,856.05,2322,823.75,3168.22,796c34.4,112.1,14.24,333,14.24,333-191.12,5.56-294.26,167.94-334.36,252.06s-93.85,84.19-93.85,84.19c-45.26-6.16-1327.33-30-1327.33-30"/><circle cx="3217.28" cy="1471.53" r="270.61" transform="translate(-98.21 2705.96) rotate(-45)"/><circle cx="3216.34" cy="1470.75" r="204.36"/><circle class="cls-36" cx="3216.34" cy="1471.5" r="188.47"/><path class="cls-8" d="M3219,1279.28h-5.11A192.23,192.23,0,1,0,3258,1659.2h0a192,192,0,0,0,150.56-187.7C3408.57,1366.23,3324,1280.72,3219,1279.28Zm101.26,291.39a145.41,145.41,0,0,1-248-121,144,144,0,0,1,14.23-46,145.38,145.38,0,1,1,233.79,167Z"/><circle class="cls-22" cx="3216.34" cy="1471.5" r="65.79"/></g></svg>