<svg xmlns="http://www.w3.org/2000/svg" viewBox="0 0 4680 3120"><defs><style>.cls-1{fill:#fff;}.cls-2{fill:#f6f2ff;}.cls-3{fill:#ede4ff;}.cls-4{fill:#e4dbfa;}.cls-5{fill:#beb2da;}.cls-18,.cls-6{fill:none;stroke-miterlimit:10;}.cls-6{stroke:#e4dbfa;stroke-linecap:round;stroke-width:5px;}.cls-7{fill:#fed194;}.cls-8{fill:#f59d4e;}.cls-9{fill:#72120c;}.cls-10{fill:#6d378f;}.cls-11{fill:#582279;}.cls-12{fill:#540200;opacity:0.67;}.cls-13{opacity:0.54;}.cls-14{fill:#d2d7db;}.cls-15{fill:#ffb113;}.cls-16{fill:#f27204;}.cls-17{fill:#42115f;}.cls-18{stroke:#fed194;}.cls-19{fill:#070208;}.cls-20{fill:#7c48a0;}.cls-21{fill:#d5301d;}.cls-22{fill:#ad2217;opacity:0.62;}.cls-23{fill:#aeb6b7;}</style></defs><title>02</title><g id="_02" data-name="02"><rect id="_02-2" data-name="02" class="cls-1" width="4680" height="3120"/><path class="cls-2" d="M3261.08,2035.24c-.85,1.48-1.68,3-2.53,4.44l-.73,1.28c-.94,1.66-1.89,3.3-2.85,5l-.13.23c-1,1.8-2.09,3.61-3.15,5.4-1.31,2.22-2.64,4.44-4,6.65s-2.67,4.43-4,6.63q-4,6.61-8.19,13.15c-1.39,2.18-2.79,4.37-4.19,6.53s-2.82,4.34-4.24,6.5-2.86,4.31-4.3,6.46q-1.9,2.85-3.85,5.69l-.75,1.11q-2.07,3-4.16,6c-1.45,2.1-2.91,4.18-4.39,6.26a1.77,1.77,0,0,0-.12.17c-1.25,1.76-2.5,3.53-3.78,5.28q-.75,1.07-1.53,2.13-1,1.44-2.1,2.88-1.42,2-2.9,3.95c-.66.9-1.31,1.79-2,2.68-.91,1.23-1.83,2.45-2.75,3.68l-2.33,3.09-1.91,2.5-3.66,4.76-.52.67q-2,2.55-4,5.1c-.48.61-1,1.22-1.45,1.84-1.15,1.44-2.3,2.89-3.46,4.33l-1.72,2.13c-1.07,1.33-2.13,2.65-3.21,4l-1.28,1.56q-2.05,2.52-4.15,5c-1.63,2-3.28,3.94-4.94,5.89l-.69.82c-1.48,1.73-2.95,3.46-4.44,5.19-2.11,2.44-4.23,4.85-6.37,7.27q-4.6,5.25-9.32,10.41l-.19.21c-3.47,3.81-7,7.58-10.51,11.33-.4.43-.81.86-1.22,1.28q-2.1,2.22-4.22,4.42c-1.82,1.91-3.66,3.8-5.5,5.68-.21.2-.4.4-.61.61l-3.07,3.12-2.55,2.57c-1.64,1.64-3.28,3.27-4.94,4.9q-8,7.9-16.27,15.62l-.79.74-.14.13q-15.23,14.21-31.24,27.78-2.33,2-4.7,3.95l-.64.53c-3.2,2.68-6.45,5.33-9.7,8l-1.26,1-.85.69-2.45,2-3.78,3-.16.12-2.72,2.14c-1.19.93-2.37,1.86-3.57,2.77-1,.82-2.1,1.64-3.16,2.45l-3.27,2.48-.12.1c-1.7,1.29-3.39,2.57-5.1,3.84l-1.27.95c-1.28,1-2.59,1.93-3.89,2.89l-2.66,1.94q-3.28,2.4-6.6,4.79l-1.15.83-3.51,2.48c-.67.47-1.33,1-2,1.42-1.67,1.18-3.35,2.36-5,3.52l-1.68,1.15q-3.37,2.34-6.78,4.63c-1.94,1.32-3.88,2.62-5.84,3.92l-1,.66c-2.07,1.38-4.16,2.75-6.25,4.11l-1.53,1c-2,1.31-4.05,2.61-6.08,3.9s-4.28,2.71-6.43,4c-.38.24-.77.47-1.14.72q-2.8,1.74-5.61,3.45l-1.34.83c-2.2,1.34-4.4,2.66-6.6,4-.31.19-.62.36-.92.55q-6.52,3.89-13.15,7.69l-.89.51-5,2.85-2.37,1.33q-3.43,1.92-6.89,3.82c-2.09,1.15-4.18,2.28-6.29,3.41l-1.77,1-6.09,3.23q-4.39,2.31-8.83,4.58c-2.36,1.21-4.74,2.42-7.12,3.61-516.39,258.89-976.52,89-1257.61-205.12-118.76-124.25-205.57-270.68-251.16-416.3,0,0-1.79-6.26-4.43-17.66-2.49-10.71-5.73-26-8.91-44.82-.16-.94-.33-1.9-.48-2.86q-1.63-9.82-3.2-20.84c-.16-1.06-.3-2.13-.46-3.21-.19-1.43-.39-2.88-.58-4.35-.15-1.17-.3-2.33-.46-3.52s-.32-2.53-.48-3.81c-.31-2.56-.63-5.16-.93-7.78-.16-1.33-.31-2.65-.45-4s-.3-2.68-.44-4-.29-2.71-.42-4.09l-.42-4.13c-.13-1.39-.27-2.79-.39-4.19s-.26-2.82-.39-4.24-.24-2.85-.36-4.29-.23-2.88-.35-4.34c0-.17,0-.34,0-.5-.19-2.52-.38-5.07-.55-7.65q-.64-9.22-1.09-18.82c-.07-1.54-.14-3.09-.2-4.64q-.6-14-.71-28.69c0-1.62,0-3.25,0-4.88q0-12.83.38-26.06c0-1.48.1-3,.15-4.43q.36-10.12,1-20.46l.33-5.06a.86.86,0,0,0,0-.16c.12-1.69.24-3.38.38-5.08h0c.13-1.76.28-3.51.42-5.27q.48-5.71,1.06-11.5c.14-1.47.3-3,.46-4.43s.34-3.2.53-4.8c.23-2,.46-4.09.72-6.15.1-.83.2-1.64.31-2.45a4.26,4.26,0,0,1,.06-.5l.33-2.62c.41-3.11.84-6.23,1.3-9.38.14-1.06.3-2.11.46-3.18.11-.74.22-1.47.34-2.21l.15-1a.13.13,0,0,0,0-.06c.25-1.62.5-3.24.77-4.88q1.8-11.13,4-22.37.52-2.64,1.07-5.26c.43-2.05.86-4.1,1.32-6.15.29-1.41.6-2.8.92-4.2.49-2.2,1-4.4,1.52-6.62.29-1.23.59-2.47.89-3.7q2.05-8.48,4.39-17c.38-1.39.77-2.78,1.16-4.15.44-1.57.9-3.14,1.35-4.7a1.14,1.14,0,0,1,.07-.22c.45-1.55.9-3.09,1.37-4.64s1-3.19,1.46-4.77,1-3.19,1.51-4.78c.44-1.38.89-2.76,1.35-4.15l.39-1.19.54-1.6c.37-1.13.76-2.27,1.15-3.4q.72-2.12,1.47-4.23c.34-1,.69-1.94,1-2.9l1.06-2.91c.33-.92.67-1.84,1-2.77.55-1.49,1.12-3,1.69-4.48.43-1.16.87-2.3,1.33-3.45.11-.3.23-.6.35-.91l.75-1.89s0,0,0,0c.5-1.29,1-2.57,1.54-3.85l.17-.42c.69-1.7,1.39-3.41,2.11-5.1.48-1.17,1-2.35,1.49-3.52.35-.83.71-1.67,1.07-2.5.83-1.92,1.68-3.83,2.53-5.74.62-1.39,1.25-2.79,1.9-4.17s1.4-3.06,2.13-4.58c.42-.9.84-1.8,1.28-2.69.12-.27.25-.54.38-.8.49-1,1-2.06,1.49-3.07.11-.24.23-.48.35-.72.76-1.56,1.53-3.1,2.31-4.66a1.71,1.71,0,0,0,.14-.27c.09-.16.17-.33.25-.5.72-1.4,1.43-2.79,2.16-4.19l.46-.89q1.32-2.54,2.68-5.06h0q1.43-2.65,2.88-5.29l0,0q1.18-2.15,2.4-4.29c.78-1.38,1.56-2.76,2.37-4.13l.34-.6c.67-1.15,1.34-2.3,2-3.44.12-.22.25-.44.38-.65q2.46-4.14,5-8.23,1.28-2.09,2.6-4.14a.33.33,0,0,1,.06-.1c.89-1.41,1.79-2.8,2.72-4.21q1.23-1.89,2.49-3.78c.19-.27.37-.56.57-.83.7-1.07,1.42-2.14,2.15-3.21l.95-1.38c.77-1.12,1.54-2.22,2.31-3.31s1.53-2.19,2.3-3.28c.42-.59.86-1.19,1.29-1.78.76-1.07,1.54-2.14,2.32-3.2q1.34-1.82,2.7-3.64c.18-.25.37-.49.54-.73.9-1.2,1.82-2.4,2.73-3.6q2.42-3.13,4.87-6.22,1.62-2,3.27-4.07l.72-.88c.5-.62,1-1.25,1.54-1.87q1.68-2,3.39-4c.85-1,1.71-2,2.57-3,.08-.09.16-.17.22-.25,1-1.2,2.06-2.39,3.11-3.57.91-1,1.81-2,2.73-3.06.52-.58,1-1.16,1.56-1.74l2.74-3c.73-.8,1.47-1.6,2.22-2.38s1.31-1.41,2-2.11c1-1.07,2-2.13,3.06-3.2.89-.92,1.78-1.84,2.68-2.74.71-.74,1.41-1.45,2.14-2.17.88-.9,1.78-1.8,2.69-2.68s1.7-1.67,2.55-2.5,1.65-1.61,2.48-2.41q2.91-2.79,5.88-5.54l1.87-1.74.25-.22c.9-.81,1.79-1.63,2.7-2.44l2.18-2c.32-.29.64-.58,1-.86l2.25-2,2.84-2.46q9.67-8.33,20.06-16.31l.17-.14q3-2.31,6-4.57l3.06-2.26c3-2.24,6.13-4.44,9.25-6.63a.35.35,0,0,0,.13-.08l3.18-2.2c2.07-1.42,4.17-2.84,6.28-4.24l.18-.12,3.3-2.18q5-3.26,10.11-6.45l6.66-4.06c1.24-.75,2.49-1.48,3.75-2.23l3.52-2.05,3.24-1.87q5.53-3.15,11.2-6.21l3.69-2,3.73-2c2.48-1.3,5-2.58,7.54-3.86l3-1.5q10-4.93,20.41-9.61c1.34-.6,2.67-1.19,4-1.78,1.08-.48,2.17-1,3.27-1.43l.78-.33q5.67-2.46,11.48-4.82,6.71-2.73,13.59-5.35l3.48-1.32,5.15-1.91c83.69-30.58,150.53-72.2,207.69-118.66q3.22-2.62,6.42-5.27s0,0,0,0q3.19-2.64,6.35-5.31h0q14.19-12,27.64-24.38,9-8.22,17.65-16.57,5.78-5.57,11.45-11.14v0c19.79-19.55,38.54-39.42,56.71-59.26,27-29.44,52.68-58.77,78.53-86.76h0c18.08-19.58,36.24-38.49,55-56.32,64-60.92,134.61-109.12,231.57-127.53a451.63,451.63,0,0,1,50.92-6.65,550.78,550.78,0,0,1,72.46-.46c34.78,1.95,72.41,7,113.37,15.47a1188.87,1188.87,0,0,1,120.43,32.11q30.71,9.81,63.55,21.81,5.46,2,10.87,4.08,23.54,9,46.11,19.28,15.11,6.87,29.76,14.3,6.56,3.32,13,6.75,18.41,9.74,36.14,20.37,6.59,3.93,13.08,8,14.07,8.78,27.67,18.1c179.27,122.64,301.53,313,361.27,525.31.54,1.92,1.07,3.83,1.59,5.75.39,1.38.76,2.76,1.14,4.14q1.35,4.92,2.63,9.86c.49,1.85,1,3.71,1.44,5.56s1,3.9,1.48,5.84q3.33,13.31,6.34,26.71,1.3,5.84,2.55,11.69.63,2.91,1.23,5.85.55,2.65,1.1,5.32,1.28,6.27,2.46,12.56.55,2.8,1.06,5.61,4.38,23.54,7.76,47.31c.24,1.64.46,3.28.69,4.92q1,7,1.85,14,.3,2.33.57,4.65l.06.45q.34,2.86.67,5.73,2.07,17.88,3.58,35.86c.18,2,.34,4,.5,6,.14,1.83.28,3.66.41,5.49.17,2.17.32,4.33.46,6.5q.21,2.84.37,5.65l.27,4.28c.1,1.65.2,3.3.28,4.94.06,1,.12,2.08.17,3.14q.48,9,.81,18c0,.71.05,1.43.08,2.15.06,1.58.1,3.17.15,4.76l.15,5.29c.05,1.86.09,3.73.13,5.6q.13,6.23.2,12.46c0,1.94,0,3.89,0,5.83,0,2.46,0,4.92,0,7.39,0,1.54,0,3.1,0,4.65q0,6.13-.13,12.26-.09,5.91-.25,11.81-.07,3-.18,6-.18,5.88-.43,11.77c0,.19,0,.38,0,.57-.07,1.8-.16,3.6-.24,5.4q-.29,6.2-.66,12.41c-.11,2-.23,3.95-.36,5.93q-.21,3.54-.47,7.1c-.26,3.64-.52,7.27-.81,10.91q-.24,3-.5,6c-.17,2-.34,4-.52,6l-.57,6c-.18,2-.37,4-.59,6-.15,1.57-.31,3.13-.48,4.69-.08.78-.17,1.57-.25,2.35q-1.23,11.45-2.7,22.85-1.14,9-2.45,17.88-.39,2.72-.8,5.42c0,.22-.06.44-.1.65-.28,1.95-.59,3.89-.89,5.82s-.57,3.67-.87,5.5c-.34,2.12-.7,4.25-1.05,6.37-.67,4-1.35,7.9-2.05,11.85l-1.08,5.92c-.36,2-.73,3.93-1.11,5.91s-.75,3.93-1.13,5.89c-.77,3.94-1.57,7.86-2.38,11.79q-.61,2.94-1.24,5.87c-.42,2-.84,3.92-1.28,5.87s-.85,3.92-1.3,5.86-.88,3.92-1.33,5.86-.91,3.9-1.37,5.84l-1.38,5.8c-.54,2.21-1.08,4.42-1.64,6.63q-.63,2.54-1.28,5.08-1.47,5.78-3,11.55c-.53,2-1.05,3.9-1.59,5.85s-1.06,3.86-1.59,5.79-1.08,3.85-1.63,5.77-1.1,3.85-1.67,5.76q-.77,2.64-1.55,5.28c-.7,2.34-1.41,4.7-2.13,7-.48,1.63-1,3.26-1.5,4.88a.2.2,0,0,1,0,0c-1.05,3.4-2.13,6.79-3.21,10.17-.26.81-.52,1.6-.78,2.39q-1.65,5.09-3.34,10.13-1.93,5.74-3.93,11.46-1,2.83-2,5.66c-.65,1.84-1.32,3.68-2,5.53l-.06.17q-.93,2.55-1.87,5.09c-.1.29-.2.56-.3.84-.66,1.75-1.31,3.51-2,5.25s-1.41,3.74-2.13,5.6-1.34,3.5-2,5.25c-.14.36-.28.74-.44,1.1-.62,1.61-1.25,3.23-1.89,4.82-.73,1.86-1.47,3.71-2.22,5.57l-2.26,5.55q-3.16,7.74-6.49,15.41-1.43,3.33-2.89,6.65-1.2,2.74-2.43,5.48t-2.45,5.46l-1.82,4-.58,1.26c-1.05,2.27-2.1,4.55-3.17,6.81-.12.27-.26.56-.39.83l-.23.49c-.53,1.12-1.06,2.25-1.6,3.37-.15.32-.31.64-.46,1-1,2.08-2,4.13-3,6.18-.1.23-.2.44-.32.67q-.27.59-.57,1.17c-.89,1.82-1.78,3.63-2.68,5.45-.42.83-.83,1.66-1.24,2.5-.08.13-.14.26-.21.38-.93,1.88-1.88,3.75-2.83,5.61-.72,1.43-1.46,2.84-2.19,4.27l-.72,1.39c-.53,1-1.07,2-1.6,3.07-.08.15-.15.3-.23.44-.37.73-.75,1.45-1.13,2.16-.76,1.43-1.51,2.85-2.27,4.26-.6,1.14-1.21,2.27-1.82,3.41-.24.46-.49.91-.73,1.36-.5.92-1,1.83-1.49,2.73C3265.13,2028,3263.1,2031.61,3261.08,2035.24Z"/><path class="cls-3" d="M3261.08,2035.24c-.85,1.48-1.68,3-2.53,4.44l-.73,1.28c-.94,1.66-1.89,3.3-2.85,5l-.13.23c-1,1.8-2.09,3.61-3.15,5.4-1.31,2.22-2.64,4.44-4,6.65s-2.67,4.43-4,6.63q-4,6.61-8.19,13.15c-1.39,2.18-2.79,4.37-4.19,6.53s-2.82,4.34-4.24,6.5-2.86,4.31-4.3,6.46q-1.9,2.85-3.85,5.69l-.75,1.11q-2.07,3-4.16,6c-1.45,2.1-2.91,4.18-4.39,6.26a1.77,1.77,0,0,0-.12.17c-1.25,1.76-2.5,3.53-3.78,5.28q-.75,1.07-1.53,2.13-1,1.44-2.1,2.88-1.42,2-2.9,3.95c-.66.9-1.31,1.79-2,2.68-.91,1.23-1.83,2.45-2.75,3.68l-2.33,3.09-1.91,2.5-3.66,4.76-.52.67q-2,2.55-4,5.1c-.48.61-1,1.22-1.45,1.84-1.15,1.44-2.3,2.89-3.46,4.33l-1.72,2.13c-1.07,1.33-2.13,2.65-3.21,4l-1.28,1.56q-2.05,2.52-4.15,5c-1.63,2-3.28,3.94-4.94,5.89l-.69.82c-1.48,1.73-2.95,3.46-4.44,5.19-2.11,2.44-4.23,4.85-6.37,7.27q-4.6,5.25-9.32,10.41l-.19.21q-2.55,2.8-5.14,5.57-1.62,1.77-3.28,3.52c-.93,1-1.87,2-2.81,3l-.5.53q-2.1,2.22-4.22,4.42c-.18.17-.34.35-.51.52l-2.76,2.86c-.94,1-1.89,1.95-2.84,2.91l-3.07,3.12-2.55,2.57-3.1,3.07c-.88.89-1.79,1.78-2.69,2.66q-5,4.93-10.13,9.79l-.43.41q-2.8,2.67-5.65,5.33-3.06,2.85-6.15,5.68c-1.91,1.74-3.82,3.48-5.74,5.2s-4,3.55-6,5.31l-.79.7c-1.58,1.4-3.18,2.79-4.78,4.18-.25.22-.49.44-.75.65q-2.78,2.4-5.57,4.78l-1.64,1.41-3.23,2.71-1.47,1.24-.64.53q-2.76,2.31-5.56,4.59c-1.79,1.47-3.59,2.94-5.4,4.39l-.85.69-2.45,2-3.33,2.64c-.16.12-.3.24-.45.37a.48.48,0,0,0-.16.12l-2.72,2.14-3,2.31-.59.46-.6.46-2.56,2-3.27,2.48-.12.1c-1.7,1.29-3.39,2.57-5.1,3.84l-1.27.95q-.36.26-.72.54l-3.17,2.35-2.66,1.94q-3.28,2.4-6.6,4.79l-1.15.83-3.51,2.48c-.67.47-1.33,1-2,1.42l-.48.33q-2.27,1.61-4.56,3.19l-1.68,1.15q-3.37,2.34-6.78,4.63c-1.94,1.32-3.88,2.62-5.84,3.92l-1,.66c-2.07,1.38-4.16,2.75-6.25,4.11l-1.53,1c-2,1.31-4.05,2.61-6.08,3.9s-4.28,2.71-6.43,4c-.38.24-.77.47-1.14.72q-2.8,1.74-5.61,3.45l-1.34.83c-2.2,1.34-4.4,2.66-6.6,4-.31.19-.62.36-.92.55q-6.52,3.89-13.15,7.69l-.89.51-5,2.85-2.37,1.33q-3.43,1.92-6.89,3.82c-2.09,1.15-4.18,2.28-6.29,3.41l-1.77,1-6.09,3.23q-4.39,2.31-8.83,4.58c-2.36,1.21-4.74,2.42-7.12,3.61-516.39,258.89-976.52,89-1257.61-205.12-118.76-124.25-205.57-270.68-251.16-416.3,0,0-1.79-6.26-4.43-17.66-2.49-10.71-5.73-26-8.91-44.82-.16-.94-.33-1.9-.48-2.86q-1.63-9.82-3.2-20.84c-.16-1.06-.3-2.13-.46-3.21-.19-1.43-.39-2.88-.58-4.35-.15-1.17-.3-2.33-.46-3.52s-.32-2.53-.48-3.81c-.31-2.56-.63-5.16-.93-7.78-.16-1.33-.31-2.65-.45-4s-.3-2.68-.44-4-.29-2.71-.42-4.09l-.42-4.13c-.13-1.39-.27-2.79-.39-4.19s-.26-2.82-.39-4.24-.24-2.85-.36-4.29-.23-2.88-.35-4.34c0-.17,0-.34,0-.5-.19-2.52-.38-5.07-.55-7.65q-.64-9.22-1.09-18.82c-.07-1.54-.14-3.09-.2-4.64q-.6-14-.71-28.69c0-1.62,0-3.25,0-4.88q0-12.83.38-26.06c0-1.48.1-3,.15-4.43q.36-10.12,1-20.46c.1-1.61.2-3.21.31-4.81,0-.08,0-.17,0-.25a.86.86,0,0,0,0-.16c.12-1.69.24-3.38.38-5.08h0c.13-1.76.28-3.51.42-5.27q.48-5.71,1.06-11.5c.14-1.47.3-3,.46-4.43s.34-3.2.53-4.8c.23-2,.46-4.09.72-6.15.1-.83.2-1.64.31-2.45a4.26,4.26,0,0,1,.06-.5l.33-2.62c.41-3.11.84-6.23,1.3-9.38.14-1.06.3-2.11.46-3.18.11-.74.22-1.47.34-2.21l.15-1a.13.13,0,0,0,0-.06c0-.23.07-.48.11-.72.22-1.37.43-2.77.66-4.16q1.8-11.13,4-22.37.52-2.64,1.07-5.26c.43-2.05.86-4.1,1.32-6.15.29-1.41.6-2.8.92-4.2.49-2.2,1-4.4,1.52-6.62.29-1.23.59-2.47.89-3.7q2.05-8.48,4.39-17c.38-1.39.77-2.78,1.16-4.15.44-1.57.9-3.14,1.35-4.7a1.14,1.14,0,0,1,.07-.22c.45-1.55.9-3.09,1.37-4.64s1-3.19,1.46-4.77,1-3.19,1.51-4.78c.44-1.38.89-2.76,1.35-4.15l.39-1.19.54-1.6c.37-1.13.76-2.27,1.15-3.4q.72-2.12,1.47-4.23c.34-1,.69-1.94,1-2.9l1.06-2.91c.33-.92.67-1.84,1-2.77.55-1.49,1.12-3,1.69-4.48.43-1.16.87-2.3,1.33-3.45.11-.3.23-.6.35-.91l.75-1.89s0,0,0,0c.5-1.29,1-2.57,1.54-3.85l.17-.42c.69-1.7,1.39-3.41,2.11-5.1.48-1.17,1-2.35,1.49-3.52.35-.83.71-1.67,1.07-2.5.83-1.92,1.68-3.83,2.53-5.74.62-1.39,1.25-2.79,1.9-4.17s1.4-3.06,2.13-4.58c.42-.9.84-1.8,1.28-2.69.12-.27.25-.54.38-.8.49-1,1-2.06,1.49-3.07.11-.24.23-.48.35-.72s.37-.74.54-1.11c.59-1.18,1.17-2.36,1.77-3.55a1.71,1.71,0,0,0,.14-.27c.09-.16.17-.33.25-.5.72-1.4,1.43-2.79,2.16-4.19l.46-.89q1.32-2.54,2.68-5.06h0q1.43-2.65,2.88-5.29l0,0q1.18-2.15,2.4-4.29c.78-1.38,1.57-2.75,2.37-4.13l.34-.6c.67-1.15,1.35-2.29,2-3.44.12-.22.25-.44.38-.65q2.46-4.14,5-8.23,1.28-2.09,2.6-4.14a.33.33,0,0,1,.06-.1c.89-1.41,1.79-2.8,2.72-4.21q1.23-1.89,2.49-3.78c.19-.27.37-.56.57-.83.7-1.07,1.42-2.14,2.15-3.21l.95-1.38c.77-1.12,1.54-2.22,2.31-3.31s1.53-2.19,2.3-3.28c.42-.59.86-1.19,1.29-1.78.76-1.07,1.54-2.14,2.32-3.2q1.34-1.82,2.7-3.64c.18-.25.37-.49.54-.73.9-1.2,1.82-2.4,2.73-3.6q2.42-3.13,4.87-6.22,1.62-2,3.27-4.07l.72-.88c.5-.62,1-1.25,1.54-1.87q1.68-2,3.39-4c.85-1,1.71-2,2.57-3,.08-.09.16-.17.22-.25,1-1.2,2.06-2.39,3.11-3.57.91-1,1.81-2,2.73-3.06.52-.58,1-1.16,1.56-1.74l2.74-3c.73-.8,1.47-1.6,2.22-2.38s1.31-1.41,2-2.11c1-1.07,2-2.13,3.06-3.2.89-.92,1.78-1.84,2.68-2.74.71-.74,1.41-1.45,2.14-2.17.88-.9,1.78-1.8,2.69-2.68s1.7-1.67,2.55-2.5,1.65-1.61,2.48-2.41q2.91-2.79,5.88-5.54l2.12-2c.9-.81,1.79-1.63,2.7-2.44l2.18-2c.32-.29.64-.58,1-.86l2.25-2,2.84-2.46q9.69-8.31,20.06-16.31l.17-.14c2-1.53,4-3,6-4.57l3.06-2.26q4.58-3.34,9.25-6.63a.35.35,0,0,0,.13-.08l3.18-2.2c2.13-1.46,4.29-2.92,6.46-4.36l3.3-2.18q5-3.26,10.11-6.45l6.66-4.06c1.24-.75,2.49-1.48,3.75-2.23l3.52-2.05,3.24-1.87q5.53-3.15,11.2-6.21l3.69-2,3.73-2q3.74-1.93,7.54-3.86l3-1.5q10-4.93,20.41-9.61c1.34-.6,2.67-1.19,4-1.78,1.08-.48,2.17-1,3.27-1.43l.78-.33q5.68-2.46,11.48-4.82,6.71-2.73,13.59-5.35l3.48-1.32,5.15-1.91c83.69-30.58,150.53-72.2,207.69-118.66,2.15-1.74,4.3-3.5,6.42-5.27,0,0,0,0,0,0,2.14-1.76,4.25-3.53,6.35-5.31h0q14.21-12,27.64-24.38,9-8.22,17.65-16.57c3.86-3.69,7.67-7.42,11.45-11.14v0c19.77-19.52,38.51-39.37,56.67-59.19,27-29.45,52.69-58.79,78.55-86.79-.66,1.26-21.66,42.25-30.94,99-9.81,60.05-6.51,137.76,47.86,204.81,39.65,48.91,106.46,92.13,215.15,118.72,59,14.43,120.22,20.82,183,22.7,25.63.76,51.53.77,77.65.26q12.81-.23,25.7-.64,24.12-.75,48.46-1.92c224.09-10.65,459.93-42,678.31,51.62.54,1.92,1.07,3.83,1.59,5.75.39,1.38.76,2.76,1.14,4.14q1.35,4.92,2.63,9.86c.49,1.85,1,3.71,1.44,5.56s1,3.9,1.48,5.84q3.33,13.31,6.34,26.71,1.3,5.84,2.55,11.69.63,2.91,1.23,5.85.55,2.65,1.1,5.32,1.28,6.27,2.46,12.56.55,2.8,1.06,5.61,4.38,23.54,7.76,47.31c.24,1.64.46,3.28.69,4.92q1,7,1.85,14,.3,2.33.57,4.65l.06.45q.34,2.86.67,5.73,2.07,17.88,3.58,35.86c.18,2,.34,4,.5,6,.14,1.83.28,3.66.41,5.49.17,2.17.32,4.33.46,6.5q.21,2.84.37,5.65l.27,4.28c.1,1.65.2,3.3.28,4.94.06,1,.12,2.08.17,3.14q.48,9,.81,18c0,.71.05,1.43.08,2.15.06,1.58.1,3.17.15,4.76l.15,5.29c.05,1.86.09,3.73.13,5.6q.13,6.23.2,12.46c0,1.94,0,3.89,0,5.83,0,2.46,0,4.92,0,7.39,0,1.54,0,3.1,0,4.65q0,6.13-.13,12.26-.09,5.89-.25,11.81-.07,3-.18,6-.18,5.88-.43,11.77c0,.19,0,.38,0,.57-.07,1.8-.16,3.6-.24,5.4q-.29,6.2-.66,12.41c-.11,2-.23,3.95-.36,5.93q-.21,3.54-.47,7.1c-.26,3.64-.52,7.27-.81,10.91q-.24,3-.5,6c-.17,2-.34,4-.52,6l-.57,6c-.19,2-.38,4-.59,6-.15,1.57-.31,3.13-.48,4.69-.08.78-.17,1.57-.25,2.35q-1.24,11.45-2.7,22.85-1.15,8.94-2.45,17.88-.39,2.72-.8,5.42c0,.22-.06.44-.1.65-.28,1.95-.59,3.89-.89,5.82s-.57,3.67-.87,5.5c-.34,2.12-.7,4.25-1.05,6.37-.67,4-1.35,7.9-2.05,11.85l-1.08,5.92c-.36,2-.73,3.93-1.11,5.91s-.75,3.93-1.13,5.89q-1.17,5.89-2.38,11.79-.61,2.94-1.24,5.87c-.42,2-.84,3.92-1.28,5.87s-.85,3.92-1.3,5.86-.88,3.92-1.33,5.86-.91,3.9-1.37,5.84l-1.38,5.8c-.54,2.21-1.08,4.42-1.64,6.63q-.63,2.54-1.28,5.08-1.47,5.78-3,11.55c-.53,2-1.05,3.9-1.59,5.85s-1.06,3.86-1.59,5.79-1.08,3.85-1.63,5.77-1.1,3.85-1.67,5.76q-.77,2.64-1.55,5.28c-.7,2.34-1.41,4.7-2.13,7-.48,1.63-1,3.26-1.5,4.88a.2.2,0,0,1,0,0c-1.05,3.4-2.13,6.79-3.21,10.17-.26.81-.52,1.6-.78,2.39q-1.65,5.09-3.34,10.13-1.93,5.74-3.93,11.46-1,2.83-2,5.66c-.65,1.84-1.32,3.68-2,5.53l-.06.17q-.93,2.55-1.87,5.09c-.1.29-.2.56-.3.84-.66,1.75-1.31,3.51-2,5.25s-1.41,3.74-2.13,5.6-1.34,3.5-2,5.25c-.14.36-.28.74-.44,1.1-.62,1.61-1.25,3.23-1.89,4.82-.73,1.86-1.47,3.71-2.22,5.57l-2.26,5.55q-3.18,7.73-6.49,15.41-1.43,3.33-2.89,6.65-1.2,2.74-2.43,5.48t-2.45,5.46l-1.82,4-.58,1.26c-1.05,2.27-2.1,4.55-3.17,6.81-.12.27-.26.56-.39.83l-.23.49c-.53,1.12-1.06,2.25-1.6,3.37-.15.32-.31.64-.46,1-1,2.08-2,4.13-3,6.18-.1.23-.2.44-.32.67q-.27.59-.57,1.17c-.89,1.82-1.78,3.63-2.68,5.45-.48,1-1,1.92-1.45,2.88-.93,1.88-1.88,3.75-2.83,5.61-.72,1.43-1.46,2.84-2.19,4.27l-.72,1.39c-.53,1-1.07,2-1.6,3.07-.08.15-.15.3-.23.44-.37.73-.75,1.45-1.13,2.16-.76,1.43-1.51,2.85-2.27,4.26-.6,1.14-1.21,2.27-1.82,3.41-.24.46-.49.91-.73,1.36-.5.92-1,1.83-1.49,2.73C3265.13,2028,3263.1,2031.61,3261.08,2035.24Z"/><path class="cls-4" d="M3261.08,2035.24c-.85,1.48-1.68,3-2.53,4.44l-.73,1.28c-.94,1.66-1.89,3.3-2.85,5l-.13.23c-1,1.8-2.09,3.61-3.15,5.4-1.31,2.22-2.64,4.44-4,6.65s-2.67,4.43-4,6.63q-4,6.61-8.19,13.15c-1.39,2.18-2.79,4.37-4.19,6.53s-2.82,4.34-4.24,6.5-2.86,4.31-4.3,6.46q-1.9,2.85-3.85,5.69l-.75,1.11q-2.07,3-4.16,6c-1.45,2.1-2.91,4.18-4.39,6.26a1.77,1.77,0,0,0-.12.17c-1.25,1.76-2.5,3.53-3.78,5.28q-.75,1.07-1.53,2.13-1,1.44-2.1,2.88-1.42,2-2.9,3.95c-.66.9-1.31,1.79-2,2.68-.91,1.23-1.83,2.45-2.75,3.68l-2.33,3.09-1.91,2.5-3.66,4.76-.52.67q-2,2.55-4,5.1c-.48.61-1,1.22-1.45,1.84-1.15,1.44-2.3,2.89-3.46,4.33l-1.72,2.13c-1.07,1.33-2.13,2.65-3.21,4l-1.28,1.56q-2.05,2.52-4.15,5c-1.63,2-3.28,3.94-4.94,5.89l-.69.82c-1.48,1.73-2.95,3.46-4.44,5.19-2.11,2.44-4.23,4.85-6.37,7.27-3.06,3.49-6.18,7-9.32,10.41-1.77,1.93-3.54,3.86-5.33,5.78q-1.62,1.77-3.28,3.52c-.69.75-1.39,1.49-2.09,2.24q-.37.38-.72.75l-.5.53q-2.1,2.22-4.22,4.42c-.18.17-.34.35-.51.52l-2.76,2.86-2.23,2.3c-.21.2-.4.4-.61.61l-3.07,3.12-2.55,2.57-3.1,3.07-1.84,1.83c-.29.27-.58.56-.85.83q-5,4.93-10.13,9.79l-.43.41q-2.8,2.67-5.65,5.33-3.06,2.85-6.15,5.68c-1.91,1.74-3.82,3.48-5.74,5.2s-4,3.55-6,5.31l-.79.7c-1.58,1.4-3.18,2.79-4.78,4.18-.25.22-.49.44-.75.65q-5.18,4.49-10.44,8.9l-1.47,1.24-.64.53q-2.76,2.31-5.56,4.59c-1.79,1.47-3.59,2.94-5.4,4.39l-.85.69c-1.91,1.55-3.85,3.08-5.78,4.61-.16.12-.3.24-.45.37a.48.48,0,0,0-.16.12q-2.84,2.23-5.7,4.45l-.59.46-.6.46c-1.93,1.5-3.88,3-5.83,4.47l-.12.1c-1.7,1.29-3.39,2.57-5.1,3.84l-1.27.95q-.36.26-.72.54c-1.94,1.43-3.87,2.86-5.83,4.29q-3.28,2.4-6.6,4.79c-1.55,1.1-3.09,2.21-4.66,3.31-.67.47-1.33,1-2,1.42l-.48.33c-2.06,1.46-4.15,2.9-6.24,4.34q-3.37,2.34-6.78,4.63c-2.27,1.54-4.55,3.06-6.84,4.58-2.07,1.38-4.16,2.75-6.25,4.11l-1.53,1c-2,1.31-4.05,2.61-6.08,3.9s-4.28,2.71-6.43,4c-.38.24-.77.47-1.14.72q-2.8,1.74-5.61,3.45l-1.34.83c-2.2,1.34-4.4,2.66-6.6,4-.31.19-.62.36-.92.55q-6.52,3.89-13.15,7.69l-.89.51-5,2.85-2.37,1.33q-3.43,1.92-6.89,3.82c-2.09,1.15-4.18,2.28-6.29,3.41l-1.77,1-6.09,3.23q-4.39,2.31-8.83,4.58c-2.36,1.21-4.74,2.42-7.12,3.61-516.39,258.89-976.52,89-1257.61-205.12-118.76-124.25-205.57-270.68-251.16-416.3,0,0-1.79-6.26-4.43-17.66-2.49-10.71-5.73-26-8.91-44.82-.16-.94-.33-1.9-.48-2.86q-1.63-9.82-3.2-20.84c-.16-1.06-.3-2.13-.46-3.21-.19-1.43-.39-2.88-.58-4.35-.15-1.17-.3-2.33-.46-3.52s-.32-2.53-.48-3.81q-.49-3.84-.93-7.78c-.16-1.33-.31-2.65-.45-4s-.3-2.68-.44-4-.29-2.71-.42-4.09l-.42-4.13c-.13-1.39-.27-2.79-.39-4.19s-.26-2.82-.39-4.24-.24-2.85-.36-4.29-.23-2.88-.35-4.34c0-.17,0-.34,0-.5-.2-2.54-.38-5.08-.55-7.65q-.64-9.22-1.09-18.82c-.07-1.54-.14-3.09-.2-4.64q-.6-14-.71-28.69c0-1.62,0-3.25,0-4.88q0-12.83.38-26.06c0-1.48.1-3,.15-4.43q.36-10.12,1-20.46c.1-1.61.2-3.21.31-4.81,0-.08,0-.17,0-.25a.86.86,0,0,0,0-.16c.12-1.69.24-3.38.38-5.08h0c.13-1.76.28-3.51.42-5.27q.48-5.71,1.06-11.5c.14-1.47.3-3,.46-4.43s.34-3.2.53-4.8c.23-2,.46-4.09.72-6.15.1-.83.2-1.64.31-2.45a4.26,4.26,0,0,1,.06-.5l.33-2.62c.41-3.11.84-6.23,1.3-9.38.14-1.06.3-2.11.46-3.18.11-.74.22-1.47.34-2.21l.15-1a.13.13,0,0,0,0-.06c0-.23.07-.48.11-.72.22-1.37.43-2.77.66-4.16q1.8-11.13,4-22.37.52-2.64,1.07-5.26c.43-2.05.86-4.1,1.32-6.15.29-1.41.6-2.8.92-4.2.49-2.2,1-4.4,1.52-6.62.29-1.23.59-2.47.89-3.7q2.05-8.48,4.39-17c.38-1.39.77-2.78,1.16-4.15.44-1.57.9-3.14,1.35-4.7a1.14,1.14,0,0,1,.07-.22c.45-1.55.9-3.09,1.37-4.64s1-3.19,1.46-4.77,1-3.19,1.51-4.78c.44-1.38.89-2.76,1.35-4.15l.39-1.19.54-1.6c.37-1.13.76-2.27,1.15-3.4q.72-2.12,1.47-4.23c.34-1,.69-1.94,1-2.9l1.06-2.91c.33-.92.67-1.84,1-2.77.55-1.49,1.12-3,1.69-4.48.43-1.16.87-2.3,1.33-3.45.11-.3.23-.6.35-.91l.75-1.89s0,0,0,0c.5-1.29,1-2.57,1.54-3.85l.17-.42c.69-1.7,1.39-3.41,2.11-5.1.48-1.17,1-2.35,1.49-3.52.35-.83.71-1.67,1.07-2.5.83-1.92,1.68-3.83,2.53-5.74.62-1.39,1.25-2.79,1.9-4.17s1.4-3.06,2.13-4.58c.42-.9.84-1.8,1.28-2.69.12-.27.25-.54.38-.8.49-1,1-2.06,1.49-3.07.11-.24.23-.48.35-.72s.37-.74.54-1.11c.59-1.18,1.17-2.36,1.77-3.55a1.71,1.71,0,0,0,.14-.27c.09-.16.17-.33.25-.5.72-1.4,1.43-2.79,2.16-4.19l.46-.89q1.32-2.54,2.68-5.06h0q1.43-2.65,2.88-5.29l0,0q1.18-2.15,2.4-4.29c.78-1.38,1.57-2.75,2.37-4.13l.34-.6c.67-1.15,1.35-2.29,2-3.44.12-.22.25-.44.38-.65q2.46-4.14,5-8.23,1.28-2.09,2.6-4.14a.33.33,0,0,1,.06-.1c.89-1.41,1.79-2.8,2.72-4.21q1.23-1.89,2.49-3.78c.19-.27.37-.56.57-.83.7-1.07,1.42-2.14,2.15-3.21l.95-1.38c.77-1.12,1.54-2.22,2.31-3.31s1.53-2.19,2.3-3.28c.42-.59.86-1.19,1.29-1.78.76-1.07,1.54-2.14,2.32-3.2q1.34-1.82,2.7-3.64c.18-.25.37-.49.54-.73.9-1.2,1.82-2.4,2.73-3.6q2.42-3.13,4.87-6.22,1.62-2,3.27-4.07l.72-.88c.5-.62,1-1.25,1.54-1.87q1.68-2,3.39-4c.85-1,1.71-2,2.57-3,.08-.09.16-.17.22-.25,1-1.2,2.06-2.39,3.11-3.57.91-1,1.81-2,2.73-3.06.52-.58,1-1.16,1.56-1.74l2.74-3c.73-.8,1.47-1.6,2.22-2.38s1.31-1.41,2-2.11c1-1.07,2-2.13,3.06-3.2.89-.92,1.78-1.84,2.68-2.74.71-.74,1.41-1.45,2.14-2.17.88-.9,1.78-1.8,2.69-2.68s1.7-1.67,2.55-2.5,1.65-1.61,2.48-2.41q2.91-2.79,5.88-5.54l1.87-1.74.25-.22c.9-.81,1.79-1.63,2.7-2.44l2.18-2c.32-.29.64-.58,1-.86l2.25-2,2.84-2.46q9.69-8.31,20.06-16.31l.17-.14c2-1.53,4-3,6-4.57l3.06-2.26q4.58-3.34,9.25-6.63a.35.35,0,0,0,.13-.08l3.18-2.2c2.13-1.46,4.29-2.92,6.46-4.36a1487.16,1487.16,0,0,0,86.89,134.31c22.61,31.06,47.93,63.11,75.81,94.53,41.87,47.18,89.53,93,142.53,131.92,35.77,26.28,74,49.45,114.46,67.84,72.1,32.76,151.48,50.36,237.37,43.4,366.3-29.66,937.67-63.55,1071.5,385.74l-1.82,4-.58,1.26c-1.05,2.27-2.1,4.55-3.17,6.81-.12.27-.26.56-.39.83l-.23.49c-.53,1.12-1.06,2.25-1.6,3.37-.15.32-.31.64-.46,1-1,2.08-2,4.13-3,6.18-.1.23-.2.44-.32.67q-.27.59-.57,1.17c-.89,1.82-1.78,3.63-2.68,5.45-.42.83-.83,1.66-1.24,2.5-.08.13-.14.26-.21.38-.93,1.88-1.88,3.75-2.83,5.61-.72,1.43-1.46,2.84-2.19,4.27l-.72,1.39c-.53,1-1.07,2-1.6,3.07-.08.15-.15.3-.23.44-.37.73-.75,1.45-1.13,2.16-.76,1.43-1.51,2.85-2.27,4.26-.6,1.14-1.21,2.27-1.82,3.41-.24.46-.49.91-.73,1.36-.5.92-1,1.83-1.49,2.73C3265.13,2028,3263.1,2031.61,3261.08,2035.24Z"/><path class="cls-5" d="M3251.69,2051.54c-1.31,2.22-2.64,4.44-4,6.65s-2.67,4.43-4,6.63q-4,6.61-8.19,13.15c-1.39,2.18-2.79,4.37-4.19,6.53s-2.82,4.34-4.24,6.5-2.86,4.31-4.3,6.46q-1.9,2.85-3.85,5.69l-.75,1.11q-2.07,3-4.16,6c-1.45,2.1-2.91,4.18-4.39,6.26a1.77,1.77,0,0,0-.12.17c-1.25,1.76-2.5,3.53-3.78,5.28q-.75,1.07-1.53,2.13-1,1.44-2.1,2.88-1.42,2-2.9,3.95c-.66.9-1.31,1.79-2,2.68-.91,1.23-1.83,2.45-2.75,3.68l-2.33,3.09-1.91,2.5-3.66,4.76-.52.67q-2,2.55-4,5.1c-.48.61-1,1.22-1.45,1.84-1.15,1.44-2.3,2.89-3.46,4.33l-1.72,2.13c-1.07,1.33-2.13,2.65-3.21,4l-1.28,1.56q-2.05,2.52-4.15,5c-1.63,2-3.28,3.94-4.94,5.89l-.69.82c-1.48,1.73-2.95,3.46-4.44,5.19-2.11,2.44-4.23,4.85-6.37,7.27-3.06,3.49-6.18,7-9.32,10.41-1.77,1.93-3.54,3.86-5.33,5.78q-1.62,1.77-3.28,3.52c-.69.75-1.39,1.49-2.09,2.24q-.37.38-.72.75l-.5.53q-2.1,2.22-4.22,4.42c-.18.17-.34.35-.51.52l-2.76,2.86-2.23,2.3c-.21.2-.4.4-.61.61l-3.07,3.12-2.55,2.57-3.1,3.07-1.84,1.83c-.29.27-.58.56-.85.83q-5,4.93-10.13,9.79l-.43.41q-2.8,2.67-5.65,5.33-3.06,2.85-6.15,5.68c-1.91,1.74-3.82,3.48-5.74,5.2s-4,3.55-6,5.31l-.79.7c-1.58,1.4-3.18,2.79-4.78,4.18-.25.22-.49.44-.75.65q-5.18,4.49-10.44,8.9l-1.47,1.24-.64.53q-2.76,2.31-5.56,4.59c-1.79,1.47-3.59,2.94-5.4,4.39l-.85.69c-1.91,1.55-3.85,3.08-5.78,4.61-.16.12-.3.24-.45.37a.48.48,0,0,0-.16.12q-2.84,2.23-5.7,4.45l-.59.46-.6.46c-1.93,1.5-3.88,3-5.83,4.47l-.12.1c-1.7,1.29-3.39,2.57-5.1,3.84l-1.27.95q-.36.26-.72.54c-1.94,1.43-3.87,2.86-5.83,4.29q-3.28,2.4-6.6,4.79c-1.55,1.1-3.09,2.21-4.66,3.31-.67.47-1.33,1-2,1.42l-.48.33c-2.06,1.46-4.15,2.9-6.24,4.34q-3.37,2.34-6.78,4.63c-2.27,1.54-4.55,3.06-6.84,4.58-2.07,1.38-4.16,2.75-6.25,4.11l-1.53,1c-2,1.31-4.05,2.61-6.08,3.9s-4.28,2.71-6.43,4c-.38.24-.77.47-1.14.72q-2.8,1.74-5.61,3.45l-1.34.83c-2.2,1.34-4.4,2.66-6.6,4-.31.19-.62.36-.92.55q-6.52,3.89-13.15,7.69l-.89.51-5,2.85-2.37,1.33q-3.43,1.92-6.89,3.82c-2.09,1.15-4.18,2.28-6.29,3.41l-1.77,1-6.09,3.23q-4.39,2.31-8.83,4.58c-2.36,1.21-4.74,2.42-7.12,3.61-516.39,258.89-976.52,89-1257.61-205.12-118.76-124.25-205.57-270.68-251.16-416.3,0,0-1.79-6.26-4.43-17.66-2.49-10.71-5.73-26-8.91-44.82-.16-.94-.33-1.9-.48-2.86q-1.63-9.82-3.2-20.84c-.16-1.06-.3-2.13-.46-3.21-.19-1.43-.39-2.88-.58-4.35-.15-1.17-.3-2.33-.46-3.52s-.32-2.53-.48-3.81q-.49-3.84-.93-7.78c-.16-1.33-.31-2.65-.45-4s-.3-2.68-.44-4-.29-2.71-.42-4.09l-.42-4.13c-.13-1.39-.27-2.79-.39-4.19s-.26-2.82-.39-4.24-.24-2.85-.36-4.29-.23-2.88-.35-4.34c0-.17,0-.34,0-.5-.2-2.54-.38-5.08-.55-7.65q-.64-9.22-1.09-18.82c-.07-1.54-.14-3.09-.2-4.64q-.6-14-.71-28.69c0-1.62,0-3.25,0-4.88q0-12.83.38-26.06c0-1.48.1-3,.15-4.43q.36-10.12,1-20.46c.1-1.61.2-3.21.31-4.81,0-.08,0-.17,0-.25a.86.86,0,0,0,0-.16c.12-1.69.24-3.38.38-5.08h0c.13-1.76.28-3.51.42-5.27q.48-5.71,1.06-11.5c.14-1.47.3-3,.46-4.43s.34-3.2.53-4.8c.23-2,.46-4.09.72-6.15.1-.83.2-1.64.31-2.45a4.26,4.26,0,0,1,.06-.5l.33-2.62c.41-3.11.84-6.23,1.3-9.38.14-1.06.3-2.11.46-3.18.11-.74.22-1.47.34-2.21l.15-1a.13.13,0,0,0,0-.06c0-.23.07-.48.11-.72.22-1.37.43-2.77.66-4.16q1.8-11.13,4-22.37.52-2.64,1.07-5.26c.43-2.05.86-4.1,1.32-6.15.29-1.41.6-2.8.92-4.2.49-2.2,1-4.4,1.52-6.62.29-1.23.59-2.47.89-3.7q2.05-8.48,4.39-17c.38-1.39.77-2.78,1.16-4.15.44-1.57.9-3.14,1.35-4.7a1.14,1.14,0,0,1,.07-.22c.45-1.55.9-3.09,1.37-4.64s1-3.19,1.46-4.77,1-3.19,1.51-4.78c0,0,7.22,96.89,83.26,231.19,54.15,95.64,143.21,210.26,289.42,322.38q9.8,7.5,19.85,14.49C2158.67,2197.87,2826.2,1895.66,3251.69,2051.54Z"/><path class="cls-6" d="M3134.1,2264.24c223-211.28,253.59-456.93,253.59-456.93"/><path class="cls-6" d="M3101.7,2291.33s-85.72,75.75-125.27,91.15"/><path class="cls-6" d="M1313.93,1671.1s-116.25-204.73,147-563.55"/><path class="cls-2" d="M1420.12,655.62c-65.27,181.66,117.24,353.71,294.7,277.77C1846.61,877,1995.33,770.11,2018.17,572c42.25-366.37-490.9-202.76-595,75.33Q1421.59,651.53,1420.12,655.62Z"/><path class="cls-7" d="M2568.43,1363.49s-46.88,44.22-92.17,73.53c-2.05,1.34-4.38,2.7-6.94,4.08-53.74,29.1-211.51,68.91-211.51,68.91s-1.07,16.52-13.32,22.91-94.66,11.19-124.86,10.84-35.52-7.42-35.52-7.42l-42.93,2.11c-2.14-4.8,52.52-59.34,66.38-67.33s75.66,11.19,101.23,8.78,174.23-91.1,193.41-105.49,82.69-82,82.69-82l22.22,18.91Z"/><path class="cls-8" d="M2568.43,1363.49s-46.88,44.22-92.17,73.53c-2.05,1.34-4.38,2.7-6.94,4.08,0,0,27.18-39.78,24-65.35s-12.88-67.6-12.88-67.6,11.3.74,26.68,3.14Z"/><path class="cls-9" d="M2830.16,1001s-25.2,22.15-17,38.06-52.43-13.92-36.1-36.24,74.8-76.36,77.12-48S2830.16,1001,2830.16,1001Z"/><path class="cls-7" d="M2658.92,853.7s-16.2,39.18-16.27,76.15,1.93,76.39,19.2,97.85,46.32,25,46.32,25,.08,45.86-7.25,57.17,15.31,71.54,31.75,67.68,36.95-9.8,48.89-41.45,18.8-15.33,18.8-15.33-12.71-74.59-6.55-87S2822,990,2826.36,971.92c0,0,16.91,1,27.89-8.82s14.82-40.18-2.05-42.12c0,0,13.42-49.71,5.3-66.75s-88.56-51.91-102.63-53S2658.92,853.7,2658.92,853.7Z"/><path class="cls-9" d="M2803.75,943.15s8.42-39.88.25-71.73,1.91-68.23,1.91-68.23,64.89,9.25,60.11,58S2852.2,921,2852.2,921s-15.35-1.53-33.73,19.28S2803.75,943.15,2803.75,943.15Z"/><path class="cls-10" d="M2891.54,926.63c-24.09,63.51-61.38,74.41-61.38,74.41s12.31-13.87,8.19-53.21c-1.13-10.85-6.78-28.43-14.37-48.22-19.93-52-53.25-119.14-53.25-119.14l-15.87-13.37s40.87-16.44,80,2.22C2863.33,782.89,2915.63,863.13,2891.54,926.63Z"/><path class="cls-1" d="M2862.06,851c-15.3,35.84-38.08,48.61-38.08,48.61-19.93-52-53.25-119.14-53.25-119.14l-15.87-13.37s42.69-19.85,80,2.22l.7.41A64.92,64.92,0,0,1,2862.06,851Z"/><path class="cls-10" d="M2831.33,920c-12.95-31.4-24.93-56.34-40.37-73.34-14.91-16.42-33-25.45-58.41-25.75-33.51-.4-57.65,22.66-70.47,38.89a116.7,116.7,0,0,0-10.55,15.57s-13.37-27-26.2-54.85a21.32,21.32,0,0,0,2.57-5.94,7.34,7.34,0,0,0,.18-2.79c-1.73-12.08,13.11-29.81-.48-27.63-3.59.59-8.41,4.86-13.58,10.86a.48.48,0,0,1-.09.11c-1.82-4.22-3.52-8.25-5-12l-.09-.2s0,0,0,0,0,0,0,0q-1.08-2.62-2-5a98,98,0,0,1-4.43-13.6,161.49,161.49,0,0,1-2.43-31.74c.36-19.61,4.17-41.55,15.7-54,18.92-20.43,85.31-18.18,131.89,46.28C2793.73,788.76,2830.75,918,2831.33,920Z"/><path class="cls-11" d="M2791,846.68c-14.91-16.42-33-25.45-58.41-25.75-33.51-.4-57.65,22.66-70.47,38.89a16.72,16.72,0,0,1-4-3.66c-6.57-9.51-20-27.83-30.16-41.56-7.37-10-13-17.51-13-17.51L2614,795l-5.12-11.85-.09-.2s0,0,0,0,0,0,0,0c-.43-1.84-9.94-44.48,30-62.22,40.81-18.14,107.09,31,149.42,119.71Q2789.75,843.68,2791,846.68Z"/><path class="cls-9" d="M2802.57,861.81c-.87-1.33-41.48-47.23-74.2-21.5-31.95,25.12-88.87,37.92-110.92-9.16a78.16,78.16,0,0,1-4-10.61q-.54-1.8-.9-3.54c-3-14.44,3.3-25.57,15.12-32.82,19.19-11.79,63.51-4.2,103.47,15.08C2762.17,814.25,2790.62,836.3,2802.57,861.81Z"/><path class="cls-8" d="M2708.17,1052.7s17.74,1.53,38.92-6.21c0,0,12.21-7.17,1.29,12.65s-41.59,24.18-41.59,24.18Z"/><ellipse class="cls-9" cx="2664.63" cy="928.46" rx="9.15" ry="4.91" transform="matrix(0.18, -0.98, 0.98, 0.18, 1263.41, 3377.71)"/><ellipse class="cls-9" cx="2729.03" cy="937.27" rx="9.15" ry="4.91" transform="translate(1307.34 3448.22) rotate(-79.44)"/><path class="cls-9" d="M2725.83,898.55c-.25-1.08,1.3-1.87,2.56-2.12,4-.79,14-1.93,16.91,5.62,2.37,6.23-1,4.75-1.47,3.77-.71-1.51-2.61-4.72-4.76-5.94C2734.1,897.05,2726.4,901,2725.83,898.55Z"/><path class="cls-9" d="M2652.23,900.16c-.93-1.13.09-2.91,1.17-3.89,3.41-3.15,12.5-10.06,20.09-2.84,6.24,5.94,2,6.1.94,5.21-1.65-1.36-5.54-4.06-8.42-4.29C2659.37,893.82,2654.36,902.74,2652.23,900.16Z"/><path class="cls-8" d="M2689.56,930.37a89.71,89.71,0,0,1-1.82,16.21,121.72,121.72,0,0,1-4,15.72c-.47,1.3-.92,2.59-1.53,4a12.15,12.15,0,0,1-.6,1.22l-.18.33-.09.16s-.09.16,0,.08a1.76,1.76,0,0,0,.21-.55,2.1,2.1,0,0,0,0-.66,1.47,1.47,0,0,0-.11-.42.46.46,0,0,0-.08-.13,0,0,0,0,0,0,0l0,0a3.68,3.68,0,0,0,.76.78,11,11,0,0,0,1.33.92c1,.58,2.07,1.17,3.19,1.72a106.61,106.61,0,0,0,14.79,5.35v.4a50.4,50.4,0,0,1-15.85-2.76,30.57,30.57,0,0,1-3.74-1.58,11.19,11.19,0,0,1-3.36-2.41,2.44,2.44,0,0,1-.7-2.14,2.25,2.25,0,0,1,.22-.58l.22-.43a7.85,7.85,0,0,0,.4-.88c.5-1.22.93-2.49,1.36-3.75,1.72-5.06,3.26-10.19,4.77-15.32l4.5-15.42Z"/><path class="cls-8" d="M2679.09,1001.81c11.84,1.72,32.68,2.47,51.11-8.54a.58.58,0,0,1,.66,1c-10.35,8.2-30.52,20-52.61,10.51A1.53,1.53,0,0,1,2679.09,1001.81Z"/><circle class="cls-8" cx="2742.53" cy="956.18" r="2.21"/><circle class="cls-8" cx="2663" cy="949.24" r="2.21"/><circle class="cls-8" cx="2750.83" cy="960.52" r="1.56"/><circle class="cls-8" cx="2650.93" cy="941.35" r="1.56"/><circle class="cls-8" cx="2651.7" cy="961.17" r="1.56"/><circle class="cls-8" cx="2752.23" cy="953.05" r="1.56"/><circle class="cls-8" cx="2733" cy="963.59" r="2.21"/><circle class="cls-8" cx="2744.36" cy="969.21" r="2.82"/><circle class="cls-8" cx="2653.58" cy="951.03" r="2.82"/><circle class="cls-8" cx="2755.98" cy="966.58" r="2.82"/><path class="cls-12" d="M2802.57,861.81c-.87-1.33-41.48-47.23-74.2-21.5-31.95,25.12-88.87,37.92-110.92-9.16a78.16,78.16,0,0,1-4-10.61q-.54-1.8-.9-3.54c16.4,22.79,54.49,24.85,73.89,21,34.2-6.73,44.48-38.08,44.7-38.77C2762.17,814.25,2790.62,836.3,2802.57,861.81Z"/><path class="cls-1" d="M2700.33,1102.44s17.91,35.32,92.64-7.48a73.43,73.43,0,0,1,9.36-6c3.73-1.78,8.88,4.62,27.71,6.75s109.76-4.8,140.31,26.46,92,178.67,92,178.67l-109.49,56.83-323.68-33-83.81,67.31-52.05-114.73s86.31-132.67,130-152.92c29.13-13.49,49.63-10.22,60.48-17.85C2691,1101.35,2699,1098.89,2700.33,1102.44Z"/><g class="cls-13"><path class="cls-14" d="M2608.55,1160.5s-5.48,19.17-7.61,32.32-3.2,105.85-15.63,121.83-36.23,15.63-43.34,6.39-38.61-58.89-38.61-58.89l42,129.76,83.81-67.31Z"/></g><g class="cls-13"><path class="cls-14" d="M2658.77,1132.79s-.29,135.51,13,143.41,166.77,8.44,162.5-11.81,9.32-162.34,14.92-168.15l6.13.06s-.19,191-4.49,203-190.83,24.92-200.66,8.86,0-174.3,0-174.3Z"/></g><g class="cls-13"><path class="cls-14" d="M2920.33,1101.06s-13,122.84-2.38,136.69,83.3,18.29,86.5,39.25-11,33-3.2,33.74,52.27-30.57,52.27-30.57,9.18,17.43,8.82,20.63-47.66,33.81-61.59,42.67-73.74,32.81-73.74,32.81-50.62-77-45.29-137.61,21.73-140,21.73-140Z"/></g><path class="cls-7" d="M2654.58,2539.26c2,13.28,4,26.4,6,39,9.5,60.61,18.14,109.45,18.14,109.45l74.35,14.37s-3.87-4.31-7.57-17.57c-5-17.9-9.68-52.14-4.14-114.17q.81-8.88,1.89-18.55c1.25-11.11,3.82-23.13,5.17-35.32,4.47-40.12,5.28-80.59,5.28-80.59s-113.44-136.4-117.51-74.2C2634.2,2391.54,2643.93,2467.93,2654.58,2539.26Z"/><path class="cls-15" d="M2660.55,2578.26c9.5,60.61,18.14,109.45,18.14,109.45l62.9,6.08,3.88-9.28c-5-17.9-9.68-52.14-4.14-114.17C2725,2577.63,2697.14,2585.39,2660.55,2578.26Z"/><path d="M2770,2746.85a41.19,41.19,0,0,1-2.14,12.35l-247.32.8s-6.25-2.39-8.53-14.79a55,55,0,0,1-.82-10.35c.14-21.53,93.18-40,124-55,39.86-19.35,36.94-7.37,36.94-7.37s34.47,14.48,73,.47c0,0,13.89-25,22.93,48.94A126.6,126.6,0,0,1,2770,2746.85Z"/><path class="cls-15" d="M2770,2746.85a41.19,41.19,0,0,1-2.14,12.35l-247.32.8s-6.25-2.39-8.53-14.79Z"/><path class="cls-1" d="M2635.34,2704.59a1.73,1.73,0,0,1-1.72-1.65,40.84,40.84,0,0,0-6-19.49,1.73,1.73,0,0,1,2.84-2,43.72,43.72,0,0,1,6.64,21.3,1.72,1.72,0,0,1-1.64,1.8Z"/><path class="cls-1" d="M2611.86,2708.46a1.73,1.73,0,0,1-1.71-1.65c-.52-11.14-4.8-15.92-4.84-16a1.73,1.73,0,0,1,2.51-2.37c.22.22,5.2,5.62,5.78,18.17a1.74,1.74,0,0,1-1.65,1.81Z"/><path class="cls-1" d="M2659.15,2697.63a1.73,1.73,0,0,1-1.71-1.66c-.75-18.85-11.39-19.59-11.5-19.59a1.73,1.73,0,0,1-1.64-1.82,1.74,1.74,0,0,1,1.81-1.64c.56,0,13.91.94,14.78,22.91a1.72,1.72,0,0,1-1.66,1.79Z"/><path class="cls-8" d="M2745.47,2536.35s-49.44,29.55-89,15.61l-3.9-49.57L2750,2500Z"/><path class="cls-7" d="M2947.69,2539.26c2,13.28,4,26.4,6,39,9.51,60.61,18.14,109.45,18.14,109.45l74.36,14.37s-3.87-4.31-7.57-17.57c-5-17.9-9.68-52.14-4.14-114.17q.8-8.88,1.88-18.55c1.26-11.11,3.82-23.13,5.18-35.32,4.47-40.12,5.28-80.59,5.28-80.59s-113.44-136.4-117.52-74.2C2927.32,2391.54,2937.05,2467.93,2947.69,2539.26Z"/><path class="cls-15" d="M2953.66,2578.26c9.51,60.61,18.14,109.45,18.14,109.45l62.91,6.08,3.88-9.28c-5-17.9-9.68-52.14-4.14-114.17C3018.11,2577.63,2990.26,2585.39,2953.66,2578.26Z"/><path d="M3063.1,2746.85a40.88,40.88,0,0,1-2.13,12.35l-247.32.8s-6.25-2.39-8.54-14.79a55.92,55.92,0,0,1-.81-10.35c.13-21.53,93.17-40,124-55,39.86-19.35,36.94-7.37,36.94-7.37s34.47,14.48,73,.47c0,0,13.89-25,22.93,48.94A126.14,126.14,0,0,1,3063.1,2746.85Z"/><path class="cls-15" d="M3063.1,2746.85a40.88,40.88,0,0,1-2.13,12.35l-247.32.8s-6.25-2.39-8.54-14.79Z"/><path class="cls-1" d="M2928.45,2704.59a1.73,1.73,0,0,1-1.71-1.65,40.84,40.84,0,0,0-6-19.49,1.73,1.73,0,0,1,2.84-2,43.72,43.72,0,0,1,6.64,21.3,1.72,1.72,0,0,1-1.64,1.8Z"/><path class="cls-1" d="M2905,2708.46a1.73,1.73,0,0,1-1.71-1.65c-.52-11.14-4.8-15.92-4.85-16a1.74,1.74,0,0,1,.09-2.44,1.72,1.72,0,0,1,2.43.07c.21.22,5.2,5.62,5.78,18.17a1.75,1.75,0,0,1-1.65,1.81Z"/><path class="cls-1" d="M2952.27,2697.63a1.74,1.74,0,0,1-1.72-1.66c-.75-18.85-11.39-19.59-11.49-19.59a1.73,1.73,0,1,1,.16-3.46c.57,0,13.91.94,14.79,22.91a1.73,1.73,0,0,1-1.66,1.79Z"/><path class="cls-8" d="M3038.59,2536.35s-49.44,29.55-89,15.61l-3.89-49.57,97.44-2.4Z"/><path class="cls-10" d="M3045.34,2472.92c-.66,13.27-1.12,20.65-1.12,20.65l-103.36,38.9s-4.23-17.77-10.63-45.39l-1.57-6.79-1.16-5.05q-1.48-6.43-3.08-13.36l-.44-1.94c-17.56-76.71-43.63-194.4-51.84-252-12.79-89.52-64.92-282.13-64.92-282.13s-13.41,80.73-18.21,218.19c-4.48,128.88-28,320.27-30.86,343.68-.2,1.56-.3,2.38-.3,2.38-33.58,37.56-115.14,18.38-115.14,18.38s-.62-14-1.71-37.35l-.4-8.36c-.07-1.5-.14-3-.22-4.58l-.24-5.14q-.18-3.93-.39-8.08c-.08-1.84-.17-3.71-.26-5.62l-.14-2.82c-3.85-80.34-10.47-212.15-16.92-311.67-9.95-153.45-25.22-662.81-23.63-704.65s8.53-240,10.13-267.19c.45-7.68,1.1-13.64,1.8-18.24a28.15,28.15,0,0,1,14.57-20.54c10.62-5.68,26-12.93,30.69-10.24,7.46,4.27-2.84,144.93.62,175.3s189.94,12.79,188.89-2.13,2.66-165.71,7.46-180.91,43.68-9.84,55.4-4.51,5.45,8.27,5.45,8.27c-14.8,17.31-10,173.37-10,173.37l88.2,192.92c8,11.19,14.44,26.55,19.68,45.25,31.49,112.31,19.29,345.43,32.53,522.19C3057,2204.78,3048.59,2408.43,3045.34,2472.92Z"/><path class="cls-11" d="M3044.22,2033.76c-12.61-168.29-2.15-387.67-28.3-505.23h0c-.25-1.19-.6-2.66-1-4.26-1-4.38-2.11-8.63-3.25-12.7h0c-.56-2.08-29.26-155.85-29.26-155.85l-250.92,15.19s-83.12,214.76-74.86,221.69,239.5,52.21,261.34,51.15c4.72-.23,8.47-5.26,11.52-13.07,2.42-6.17,13.93-39.74,17.43-45.37,9.95-16,41.89-10,49,3.56,20.6,39.07-11.91,343.12-6.31,432.63s30.11,378.65,6.31,402.45c-30.57,30.57-71.94,36-71.94,36l.44,1.94,3.08,13.36,1.16,5.05,1.57,6.79s73.87-5.43,115.11-14.16C3048.59,2408.43,3057,2204.78,3044.22,2033.76Z"/><polygon class="cls-15" points="2715.41 1220.58 2712.99 1231.68 2975.91 1289.17 2966.99 1329.97 2958.52 1368.73 2905.31 1612.08 2915.31 1614.27 2968.83 1369.49 2977.95 1327.81 2988.34 1280.25 2715.41 1220.58"/><polygon class="cls-16" points="2712.99 1231.68 2642.38 1554.59 2905.31 1612.08 2958.52 1368.73 2966.99 1329.97 2975.91 1289.17 2712.99 1231.68"/><path class="cls-17" d="M2932.21,2472.22s88.21-11.67,115-41.52l-.45,49.37s-80.35,27-94.91,19.92S2932.21,2472.22,2932.21,2472.22Z"/><path class="cls-1" d="M2503.36,1262.15s23.51,65.32,53.62,114.14c0,0,4.35,5.67,2.57,9.22s-23.09,23.27-27.88,21.14-68.46-115.62-56.74-132.14S2501.42,1251.39,2503.36,1262.15Z"/><path class="cls-18" d="M2161.9,1507.35c-11.45,6.12-63.4,17.31-73.26,20.51s-4.54,8.48-4.54,8.48"/><path class="cls-8" d="M2257.81,1510s.89-3.2-.89-11.72c0,0-3.73-3,14.74-3.2s67-7.23,67-7.23S2267.93,1508.06,2257.81,1510Z"/><path class="cls-8" d="M2077.15,1536.69s-2.09-8.34,4-14.85,83.4-15.09,87.84-17.22c0,0-20.68,8.36-34.87,11.63-60,13.87-51.49,14.67-50,20.09Z"/><polygon class="cls-19" points="2744.97 1323.51 2611.41 1438.08 2615.68 1446.61 2752.43 1331.17 2744.97 1323.51"/><path class="cls-7" d="M3098.71,1475.91c-5.32,19.18-15.45,44.76-113.48,45.55s-255.48-49.28-262.14-51.41-64.47-9.85-71.66-18.11-15.78-26.68-21.18-39.76c-4.18-10.12.31-22.94.31-22.94-.89-16.34,6.39-21.31,6.39-21.31s-2.75-5.27,2.31-11.54c7.73-9.6,18.47,4.39,19.07,4.95-2.88-4,3.78-22.86,14.41-12s34.1,26.91,49,40.49,22.65,35.44,22.65,35.44,32.5,4.79,84.72,5.32,156.11-16,156.11-16L2974.74,1383l-4.58-13.82s83.9-59.83,95.52-48.82c2.9,2.75,6.73,12.61,10.78,26.16C3088.64,1387.27,3102.72,1461.51,3098.71,1475.91Z"/><path class="cls-8" d="M2985.23,1414.64s32.32-3,57.9,27.17c0,0,5.23,3.2,5-4.79s-33.65-35.76-65.18-29.34Z"/><path class="cls-8" d="M3076.46,1346.49S3042.21,1385,2974.74,1383l-4.58-13.82s83.9-59.83,95.52-48.82C3068.58,1323.08,3072.41,1332.94,3076.46,1346.49Z"/><path class="cls-18" d="M2650.2,1361.34s19.82,25.24,30,30.57"/><path class="cls-8" d="M2637,1367.93c2.5,2.9,4.85,5.88,7.17,8.89s4.58,6.06,6.85,9.1l6.71,9.18c.55.77,1.13,1.52,1.69,2.28s1.12,1.53,1.71,2.27,1.14,1.51,1.75,2.23a23.77,23.77,0,0,0,1.92,2.1l-1.2-.8c-.4-.27-.74-.61-1.11-.91-.75-.62-1.41-1.3-2.1-2q-2-2.05-3.88-4.23c-2.5-2.89-4.82-5.91-7.1-9s-4.43-6.19-6.51-9.39S2638.76,1371.3,2637,1367.93Z"/><path class="cls-8" d="M2630.56,1389.24c2.35,2.78,4.53,5.66,6.66,8.58s4.18,5.9,6.2,8.89,4,6,5.84,9.14,3.7,6.21,5.36,9.45c-2.35-2.78-4.54-5.66-6.66-8.58s-4.18-5.9-6.2-8.9-4-6-5.83-9.13S2632.22,1392.48,2630.56,1389.24Z"/><path class="cls-8" d="M2661.43,1348.52s-.15,9.29,9.09,19.41,22,22.2,21.49,24-1.32,2.38-6-1.44-27.29-27.55-28-29.73C2656.15,1354.7,2661.43,1348.52,2661.43,1348.52Z"/><path class="cls-20" d="M2930.17,2471.32s23.64,11.95,62.61,5.46,54-26.56,54-26.56,7.7-12.68,10-1,10.08,61,4.38,68.23-132,43-137.47,13.87S2906.79,2454.75,2930.17,2471.32Z"/><path class="cls-1" d="M3066.87,1284.1c-3.19-5.33-9.94,4-9.94,4a194.83,194.83,0,0,1-79,39.76l-9.12,41.68c46.85.38,110-37.23,113.49-44.63C3086.05,1316.87,3070.07,1289.43,3066.87,1284.1Z"/><polygon class="cls-19" points="1774.02 1217.77 1964.23 1550.24 1941.06 1550.24 1749.52 1217.77 1774.02 1217.77"/><polygon class="cls-19" points="1941.06 1550.24 2371.83 1550.24 2371.83 1532.66 1933.05 1532.66 1941.06 1550.24"/><rect class="cls-21" x="1833.7" y="1550.24" width="571.16" height="1204.4"/><path class="cls-22" d="M2404.86,1755.26v999.38H1833.7V2415.46C1993.1,2330.8,2310.93,2112,2404.86,1755.26Z"/><path class="cls-11" d="M2807.22,1925.86s-13.41,80.73-18.21,218.19c-4.48,128.88-28,320.27-30.86,343.68-18.8,5-37.41,8.35-45.85,8-17.59-.81-71.3-24.56-71.3-24.56l-.4-8.36-.22-4.58-.24-5.14-.39-8.08-.26-5.62-.14-2.82s87.33,11.17,93.72-91.11,35.17-533.85,52.75-501.88S2807.22,1925.86,2807.22,1925.86Z"/><path class="cls-17" d="M2641.49,2456.06s97.19-7.39,126.09-49.41l-6.8,62.41s-71.4,47.47-94.84,30.93S2641.49,2456.06,2641.49,2456.06Z"/><path class="cls-20" d="M2641.49,2456.06s22.32,14.93,61.74,12.27,56.43-22,56.43-22,8.93-12.4,10,0,3.9,64.64-2.49,71.57-135.69,30.92-138.17,0S2619.89,2436.33,2641.49,2456.06Z"/><path class="cls-23" d="M2690.71,1112.54a24.07,24.07,0,0,0,1.6,3.59c.29.58.6,1.16.94,1.71s.67,1.11,1.05,1.64a30.46,30.46,0,0,0,5,5.85,34.1,34.1,0,0,0,2.92,2.45l1.59,1a11,11,0,0,0,1.62,1,28.67,28.67,0,0,0,3.41,1.61l1.75.69c.6.2,1.22.34,1.82.51l1.81.5,1.87.31,1.86.32c.62.09,1.25.13,1.88.19a62.9,62.9,0,0,0,7.65.09,116.39,116.39,0,0,0,15.39-1.75c5.12-.83,10.2-2,15.23-3.26s10-2.8,15-4.45a139.34,139.34,0,0,0,14.48-5.82,75.87,75.87,0,0,0,6.89-3.68,38.39,38.39,0,0,0,6.32-4.63,32.45,32.45,0,0,1-5.69,5.54,65.48,65.48,0,0,1-6.59,4.5,106.46,106.46,0,0,1-14.31,7,149.8,149.8,0,0,1-30.62,8.73,113.1,113.1,0,0,1-16,1.59,69,69,0,0,1-8.11-.39c-.67-.09-1.35-.16-2-.28l-2-.43-2-.46-2-.66a31.16,31.16,0,0,1-13.58-8.86,30.53,30.53,0,0,1-4.54-6.66A27.93,27.93,0,0,1,2690.71,1112.54Z"/></g></svg>